<svg width="24" height="24" viewBox="0 0 24 24" fill="none" xmlns="http://www.w3.org/2000/svg">
<path fill-rule="evenodd" clip-rule="evenodd" d="M10.3976 1.12417C13.6266 0.625171 16.7866 1.64417 19.0716 3.92817C21.3566 6.21317 22.3776 9.37517 21.8756 12.6022C21.2396 16.6792 17.9556 20.0592 13.8876 20.8222C11.9316 21.1892 9.9376 20.9782 8.1226 20.2112C7.9636 20.1452 7.7256 20.0762 7.4796 20.1232L3.1966 20.9802C3.1306 20.9932 3.0656 20.9992 3.0006 20.9992C2.7376 20.9992 2.4826 20.8962 2.2936 20.7062C2.0566 20.4702 1.9536 20.1312 2.0196 19.8032L2.8776 15.5152C2.9156 15.3222 2.8856 15.1072 2.7886 14.8762C2.0216 13.0632 1.8096 11.0692 2.1776 9.11117C2.9406 5.04417 6.3206 1.76017 10.3976 1.12417ZM13.5196 18.8562C16.7686 18.2472 19.3916 15.5482 19.8986 12.2942C20.3026 9.70517 19.4856 7.17117 17.6566 5.34217C15.8286 3.51417 13.2956 2.69817 10.7056 3.10117C7.4506 3.60817 4.7526 6.23117 4.1436 9.48017C3.8486 11.0502 4.0166 12.6472 4.6306 14.0972C4.8836 14.6962 4.9556 15.3222 4.8376 15.9072L4.2746 18.7242L7.0866 18.1622C7.2716 18.1252 7.4596 18.1072 7.6496 18.1072C8.0666 18.1072 8.4916 18.1952 8.9026 18.3692C10.3526 18.9832 11.9506 19.1522 13.5196 18.8562Z" fill="#344054"/>
<path d="M12 5L12.0584 5.57644C12.3454 8.41217 14.5878 10.6546 17.4236 10.9416L18 11L17.4236 11.0584C14.5878 11.3454 12.3454 13.5878 12.0584 16.4236L12 17L11.9416 16.4236C11.6546 13.5878 9.41217 11.3454 6.57644 11.0584L6 11L6.57644 10.9416C9.41217 10.6546 11.6546 8.41217 11.9416 5.57644L12 5Z" fill="#344054"/>
</svg>
