<svg width="24" height="24" viewBox="0 0 24 24" fill="none" xmlns="http://www.w3.org/2000/svg">
<rect y="3" width="24" height="18" rx="9" fill="#083003"/>
<path d="M6.60172 8.02395L5.5 7.85545V7.05185H9.64764V7.85545L8.50704 8.02395V15.7748L9.64764 15.9174V16.6821H5.5V15.9045L6.60172 15.7748V8.02395Z" fill="#67EF3E"/>
<path d="M13.7711 7H15.7542L18.7482 15.7748L19.5 15.9045V16.6821H15.6764V15.9045L16.6485 15.7748L16.143 14.0899H12.786L12.2805 15.7878L13.3304 15.9045V16.6821H10.0252L10.0123 15.9045L10.79 15.7748L13.7711 7ZM14.6654 9.19047L14.4321 8.17948L14.1858 9.20343L13.0323 13.1826H15.8838L14.6654 9.19047Z" fill="#67EF3E"/>
</svg>
