<svg width="24" height="24" viewBox="0 0 24 24" fill="none" xmlns="http://www.w3.org/2000/svg">
<rect y="3" width="24" height="18" rx="9" fill="#083003"/>
<path d="M8.14145 7H10.1154L13.0956 15.7343L13.8439 15.8633V16.6374H10.038V15.8633L11.0056 15.7343L10.5024 14.0571H7.16094L6.65778 15.7472L7.7028 15.8633V16.6374H4.41293L4.40002 15.8633L5.17411 15.7343L8.14145 7ZM9.03165 9.18035L8.79942 8.17403L8.55429 9.19325L7.40606 13.154H10.2444L9.03165 9.18035Z" fill="#67EF3E"/>
<path d="M15.3682 8.01922L14.2716 7.8515V7.05161H18.4V7.8515L17.2647 8.01922V15.7343L18.4 15.8762V16.6374H14.2716V15.8633L15.3682 15.7343V8.01922Z" fill="#67EF3E"/>
</svg>
