<svg width="24" height="24" viewBox="0 0 24 24" fill="none" xmlns="http://www.w3.org/2000/svg">
<g clip-path="url(#clip0_3584_2717)">
<path fill-rule="evenodd" clip-rule="evenodd" d="M19.0389 1.38429L19 1L18.9611 1.38429C18.7697 3.27478 17.2748 4.76973 15.3843 4.9611L15 5L15.3843 5.0389C17.2748 5.23027 18.7697 6.72522 18.9611 8.61571L19 9L19.0389 8.61571C19.2303 6.72522 20.7252 5.23027 22.6157 5.0389L23 5L22.6157 4.9611C20.7252 4.76973 19.2303 3.27478 19.0389 1.38429ZM1.28114 18.4752C0.69535 19.061 0.69535 20.0107 1.28114 20.5965L3.40246 22.7179C3.98824 23.3036 4.93799 23.3036 5.52378 22.7179L16.8375 11.4041C17.4233 10.8184 17.4233 9.86861 16.8375 9.28283L14.7162 7.16151C14.1304 6.57572 13.1806 6.57572 12.5948 7.16151L1.28114 18.4752ZM3.0489 19.5359L4.46312 20.9501L12.2285 13.1847L10.8143 11.7705L3.0489 19.5359ZM12.2286 10.3564L13.63 11.7578L15.0442 10.3436L13.6428 8.94222L12.2286 10.3564ZM19 11L19.0292 11.2882C19.1727 12.7061 20.2939 13.8273 21.7118 13.9708L22 14L21.7118 14.0292C20.2939 14.1727 19.1727 15.2939 19.0292 16.7118L19 17L18.9708 16.7118C18.8273 15.2939 17.7061 14.1727 16.2882 14.0292L16 14L16.2882 13.9708C17.7061 13.8273 18.8273 12.7061 18.9708 11.2882L19 11ZM10.0292 2.28822L10 2L9.97082 2.28822C9.82729 3.70608 8.70608 4.82729 7.28822 4.97082L7 5L7.28822 5.02918C8.70608 5.17271 9.82729 6.29392 9.97082 7.71178L10 8L10.0292 7.71178C10.1727 6.29392 11.2939 5.17271 12.7118 5.02918L13 5L12.7118 4.97082C11.2939 4.82729 10.1727 3.70608 10.0292 2.28822Z" fill="#344054"/>
</g>
<defs>
<clipPath id="clip0_3584_2717">
<rect width="24" height="24" fill="white"/>
</clipPath>
</defs>
</svg>
