<svg width="24" height="25" viewBox="0 0 24 25" fill="none" xmlns="http://www.w3.org/2000/svg">
<path fill-rule="evenodd" clip-rule="evenodd" d="M20.0001 1.88647L20.039 2.27077C20.2304 4.16125 21.7253 5.6562 23.6158 5.84757L24.0001 5.88647L23.6158 5.92538C21.7253 6.11675 20.2304 7.6117 20.039 9.50218L20.0001 9.88647L19.9612 9.50218C19.7698 7.61169 18.2749 6.11675 16.3844 5.92538L16.0001 5.88647L16.3844 5.84757C18.2749 5.6562 19.7698 4.16125 19.9612 2.27077L20.0001 1.88647ZM2.99568 5.75751C2.99583 4.97635 3.73046 4.40357 4.48808 4.59392L11.9976 6.4806L13.7672 6.03785C14.3029 5.9038 14.8459 6.22946 14.98 6.76523C15.114 7.301 14.7884 7.844 14.2526 7.97805L13.0496 8.27905V18.2121L19.0001 16.7295V12.5133C19.0001 11.961 19.4478 11.5133 20.0001 11.5133C20.5524 11.5133 21.0001 11.961 21.0001 12.5133V17.3546C21.0001 17.9056 20.6249 18.3858 20.0902 18.519L12.3069 20.4583C12.1169 20.5056 11.9181 20.5058 11.728 20.4586L3.90466 18.5192C3.36926 18.3864 2.9933 17.9058 2.99341 17.3542L2.99568 5.75751ZM4.99548 6.78355L11.0496 8.30458V18.2299L4.99353 16.7286L4.99548 6.78355ZM16.5328 7.42543L16.5037 7.13721L16.4745 7.42543C16.331 8.84329 15.2097 9.9645 13.7919 10.108L13.5037 10.1372L13.7919 10.1664C15.2097 10.3099 16.331 11.4311 16.4745 12.849L16.5037 13.1372L16.5328 12.849C16.6764 11.4311 17.7976 10.3099 19.2154 10.1664L19.5037 10.1372L19.2154 10.108C17.7976 9.9645 16.6764 8.84329 16.5328 7.42543Z" fill="#344054"/>
</svg>
