<svg width="16" height="16" viewBox="0 0 16 16" fill="none" xmlns="http://www.w3.org/2000/svg">
<path fill-rule="evenodd" clip-rule="evenodd" d="M5.33325 1.33337L5.35919 1.58957C5.48677 2.84989 6.4834 3.84652 7.74372 3.97411L7.99992 4.00004L7.74372 4.02598C6.4834 4.15356 5.48677 5.15019 5.35919 6.41051L5.33325 6.66671L5.30732 6.41051C5.17974 5.15019 4.1831 4.15356 2.92278 4.02598L2.66659 4.00004L2.92278 3.97411C4.1831 3.84652 5.17974 2.84989 5.30732 1.58957L5.33325 1.33337ZM3.33325 5.33337L3.3527 5.52552C3.44839 6.47076 4.19586 7.21824 5.1411 7.31392L5.33325 7.33337L5.1411 7.35283C4.19586 7.44851 3.44839 8.19598 3.3527 9.14123L3.33325 9.33337L3.3138 9.14123C3.21811 8.19598 2.47064 7.44851 1.5254 7.35283L1.33325 7.33337L1.5254 7.31392C2.47064 7.21824 3.21811 6.47076 3.3138 5.52552L3.33325 5.33337ZM14.3075 5.40858L14.3068 5.40795L12.5932 3.69432C12.1294 3.2318 11.3327 3.20989 10.8933 3.65113L5.26298 9.28148C5.05894 9.48489 4.93252 9.75526 4.90623 10.0413L4.66902 12.6512C4.65275 12.8358 4.71847 13.0186 4.8499 13.15C4.96819 13.2683 5.12779 13.3334 5.29239 13.3334C5.31179 13.3334 5.33057 13.3327 5.34935 13.3309L7.95923 13.0937C8.24588 13.0674 8.51563 12.9416 8.71904 12.7382L14.35 7.1072C14.8057 6.65031 14.7862 5.888 14.3075 5.40858ZM10.5021 5.81289L12.1889 7.49962L13.4074 6.27916L11.7213 4.59306L10.5021 5.81289ZM5.98274 12.0166L7.84596 11.847L11.3508 8.33834L9.66349 6.65099L6.14797 10.1665L5.98274 12.0166Z" fill="#344054"/>
</svg>
