<svg width="20" height="20" viewBox="0 0 20 20" fill="none" xmlns="http://www.w3.org/2000/svg">
<path fill-rule="evenodd" clip-rule="evenodd" d="M15.8334 1.25L15.8739 1.65031C16.0732 3.61956 17.6305 5.1768 19.5997 5.37614L20 5.41667L19.5997 5.45719C17.6305 5.65654 16.0732 7.21377 15.8739 9.18303L15.8334 9.58333L15.7928 9.18303C15.5935 7.21377 14.0363 5.65654 12.067 5.45719L11.6667 5.41667L12.067 5.37614C14.0363 5.1768 15.5935 3.61956 15.7928 1.65031L15.8334 1.25ZM16.6666 12.7075C16.6666 13.2517 16.3608 13.7484 15.8675 14.0042C15.3525 14.2684 14.4241 14.5834 12.9166 14.5834C11.6665 14.5834 10.6653 14.1913 9.69748 13.8123L9.6939 13.8109C8.83294 13.4737 8.01929 13.155 7.08331 13.155C5.97748 13.155 5.32915 13.355 4.99998 13.5017V17.0834C4.99998 17.5442 4.62748 17.9167 4.16665 17.9167C3.70581 17.9167 3.33331 17.5442 3.33331 17.0834V4.46419C3.33331 4.24086 3.42331 4.02586 3.58331 3.87002C3.74581 3.71002 4.67748 2.91669 7.08331 2.91669C8.33343 2.91669 9.33467 3.30874 10.3025 3.68771L10.3061 3.68911C10.3738 3.71563 10.5371 3.77581 10.7223 3.84351C11.1435 3.99749 11.3655 4.45576 11.2248 4.88158C11.0765 5.33024 10.5848 5.56845 10.1412 5.40581C9.94651 5.33445 9.77439 5.27079 9.69748 5.24068L9.6939 5.23928C8.83294 4.90205 8.01929 4.58336 7.08331 4.58336C5.98081 4.58336 5.32998 4.78252 4.99998 4.93002V11.7367C5.51998 11.5942 6.20248 11.4884 7.08331 11.4884C8.33343 11.4884 9.33467 11.8804 10.3025 12.2594L10.3041 12.26L10.3061 12.2608L10.3061 12.2608C11.167 12.598 11.9807 12.9167 12.9166 12.9167C14.0208 12.9167 14.67 12.7192 15 12.5717V11.0834C15 10.6231 15.3731 10.25 15.8333 10.25C16.2936 10.25 16.6666 10.6231 16.6666 11.0834V12.7075ZM12.5243 6.57352L12.5 6.33333L12.4757 6.57352C12.3561 7.75507 11.4218 8.68941 10.2402 8.80902L10 8.83333L10.2402 8.85765C11.4218 8.97725 12.3561 9.9116 12.4757 11.0931L12.5 11.3333L12.5243 11.0931C12.6439 9.9116 13.5783 8.97725 14.7598 8.85765L15 8.83333L14.7598 8.80902C13.5783 8.68941 12.6439 7.75507 12.5243 6.57352Z" fill="#344054"/>
</svg>
