<svg width="24" height="24" viewBox="0 0 24 24" fill="none" xmlns="http://www.w3.org/2000/svg">
<path fill-rule="evenodd" clip-rule="evenodd" d="M16.3335 0.333496L16.3724 0.717791C16.5638 2.60828 18.0587 4.10322 19.9492 4.29459L20.3335 4.3335L19.9492 4.3724C18.0587 4.56377 16.5638 6.05872 16.3724 7.9492L16.3335 8.3335L16.2946 7.9492C16.1032 6.05872 14.6083 4.56377 12.7178 4.3724L12.3335 4.3335L12.7178 4.29459C14.6083 4.10322 16.1032 2.60828 16.2946 0.717791L16.3335 0.333496ZM4.002 6.00085C3.44861 6.00085 3 6.44947 3 7.00285C3 7.55624 3.44861 8.00485 4.002 8.00485H10.398C10.9514 8.00485 11.4 7.55624 11.4 7.00285C11.4 6.44947 10.9514 6.00085 10.398 6.00085H4.002ZM5 12.0001C5 12.5531 4.552 13.0001 4 13.0001C3.448 13.0001 3 12.5531 3 12.0001C3 11.4471 3.448 11.0001 4 11.0001C4.552 11.0001 5 11.4471 5 12.0001ZM7.9355 11.0001H20.0645C20.5795 11.0001 21.0005 11.4211 21.0005 11.9361V12.0641C21.0005 12.5791 20.5795 13.0001 20.0645 13.0001H7.9355C7.4205 13.0001 7.0005 12.5791 7.0005 12.0641V11.9361C7.0005 11.4211 7.4205 11.0001 7.9355 11.0001ZM20.0645 16.0001H3.9355C3.4205 16.0001 3.0005 16.4211 3.0005 16.9361V17.0641C3.0005 17.5791 3.4205 18.0001 3.9355 18.0001H20.0645C20.5795 18.0001 21.0005 17.5791 21.0005 17.0641V16.9361C21.0005 16.4211 20.5795 16.0001 20.0645 16.0001ZM21.3529 5.52564L21.3335 5.3335L21.314 5.52564C21.2184 6.47089 20.4709 7.21836 19.5256 7.31404L19.3335 7.3335L19.5256 7.35295C20.4709 7.44863 21.2184 8.19611 21.314 9.14135L21.3335 9.3335L21.3529 9.14135C21.4486 8.19611 22.1961 7.44863 23.1413 7.35295L23.3335 7.3335L23.1413 7.31404C22.1961 7.21836 21.4486 6.47089 21.3529 5.52564Z" fill="#344054"/>
</svg>
