<svg width="24" height="24" viewBox="0 0 24 24" fill="none" xmlns="http://www.w3.org/2000/svg">
<g clip-path="url(#clip0_3600_2824)">
<path fill-rule="evenodd" clip-rule="evenodd" d="M18 0L18.0292 0.288221C18.1727 1.70608 19.2939 2.82729 20.7118 2.97082L21 3L20.7118 3.02918C19.2939 3.17271 18.1727 4.29392 18.0292 5.71178L18 6L17.9708 5.71178C17.8273 4.29392 16.7061 3.17271 15.2882 3.02918L15 3L15.2882 2.97082C16.7061 2.82729 17.8273 1.70608 17.9708 0.288221L18 0ZM10.1637 13.3176L11.415 14.5529L10.75 16.3529L9 14.5882L4.625 19L3.3825 17.7471L7.83625 13.3176C6.7425 12.0912 5.8675 10.7324 5.22875 9.29412H6.97875C7.5125 10.3441 8.18625 11.3412 9 12.25C10.26 10.8382 11.1875 9.22353 11.7738 7.52059H2V5.76471H8.125V4H9.875V5.76471H16V7.52941H13.4362C12.7975 9.61176 11.7125 11.5794 10.19 13.2912L10.1637 13.3176ZM20.0389 4.88429L20 4.5L19.9611 4.88429C19.7697 6.77478 18.2748 8.26973 16.3843 8.4611L16 8.5L16.3843 8.5389C18.2748 8.73027 19.7697 10.2252 19.9611 12.1157L20 12.5L20.0389 12.1157C20.2303 10.2252 21.7252 8.73027 23.6157 8.5389L24 8.5L23.6157 8.4611C21.7252 8.26973 20.2303 6.77478 20.0389 4.88429ZM11 21L15.0909 10H16.9091L21 21H19.1818L18.1545 18.25H13.8364L12.8182 21H11ZM16 12.4475L14.5273 16.4167H17.4727L16 12.4475Z" fill="#344054"/>
</g>
<defs>
<clipPath id="clip0_3600_2824">
<rect width="24" height="24" fill="white"/>
</clipPath>
</defs>
</svg>
