<svg width="24" height="24" viewBox="0 0 24 24" fill="none" xmlns="http://www.w3.org/2000/svg">
<path fill-rule="evenodd" clip-rule="evenodd" d="M14.8888 3.584L22.5608 16.303C23.1288 17.246 23.1458 18.38 22.6058 19.336C22.0268 20.363 20.9018 21 19.6718 21H4.32781C3.09781 21 1.97281 20.363 1.39381 19.336C0.853813 18.38 0.870813 17.246 1.43881 16.303L9.11081 3.584C9.70981 2.592 10.7898 2 11.9998 2C13.2098 2 14.2898 2.592 14.8888 3.584ZM12.9998 13C12.9998 13.552 12.5518 14 11.9998 14C11.4478 14 10.9998 13.552 10.9998 13V9C10.9998 8.448 11.4478 8 11.9998 8C12.5518 8 12.9998 8.448 12.9998 9V13ZM11.9998 17C11.4478 17 10.9998 16.552 10.9998 16C10.9998 15.448 11.4478 15 11.9998 15C12.5518 15 12.9998 15.448 12.9998 16C12.9998 16.552 12.5518 17 11.9998 17Z" fill="#344054"/>
<mask id="mask0_49_2272" style="mask-type:luminance" maskUnits="userSpaceOnUse" x="1" y="2" width="22" height="19">
<path fill-rule="evenodd" clip-rule="evenodd" d="M14.8888 3.584L22.5608 16.303C23.1288 17.246 23.1458 18.38 22.6058 19.336C22.0268 20.363 20.9018 21 19.6718 21H4.32781C3.09781 21 1.97281 20.363 1.39381 19.336C0.853814 18.38 0.870814 17.246 1.43881 16.303L9.11081 3.584C9.70981 2.592 10.7898 2 11.9998 2C13.2098 2 14.2898 2.592 14.8888 3.584ZM12.9998 13C12.9998 13.552 12.5518 14 11.9998 14C11.4478 14 10.9998 13.552 10.9998 13V9C10.9998 8.448 11.4478 8 11.9998 8C12.5518 8 12.9998 8.448 12.9998 9V13ZM11.9998 17C11.4478 17 10.9998 16.552 10.9998 16C10.9998 15.448 11.4478 15 11.9998 15C12.5518 15 12.9998 15.448 12.9998 16C12.9998 16.552 12.5518 17 11.9998 17Z" fill="white"/>
</mask>
<g mask="url(#mask0_49_2272)">
</g>
</svg>
