<svg width="24" height="24" viewBox="0 0 24 24" fill="none" xmlns="http://www.w3.org/2000/svg">
<path fill-rule="evenodd" clip-rule="evenodd" d="M16.6163 6.21296C16.1823 5.87096 15.5543 5.94896 15.2133 6.38396L8.15833 15.392L4.77933 11.195C4.43133 10.766 3.80333 10.696 3.37333 11.043C2.94233 11.39 2.87533 12.02 3.22033 12.449L7.38933 17.627C7.58033 17.863 7.86633 18 8.16933 18H8.17633C8.48033 17.998 8.76833 17.857 8.95633 17.616L16.7873 7.61596C17.1283 7.18196 17.0523 6.55296 16.6163 6.21296ZM21.6163 6.21296C21.1813 5.87096 20.5543 5.94896 20.2133 6.38396L13.1583 15.392L12.5543 14.643L11.2893 16.26L12.3893 17.627C12.5803 17.863 12.8663 18 13.1693 18H13.1763C13.4803 17.998 13.7683 17.857 13.9563 17.616L21.7873 7.61596C22.1283 7.18196 22.0523 6.55296 21.6163 6.21296ZM9.98003 11.4446L8.71303 13.0606L8.22103 12.4496C7.87503 12.0196 7.94203 11.3896 8.37303 11.0426C8.80403 10.6966 9.43303 10.7656 9.77903 11.1956L9.98003 11.4446Z" fill="#344054"/>
</svg>
