<svg width="24" height="24" viewBox="0 0 24 24" fill="none" xmlns="http://www.w3.org/2000/svg">
<g clip-path="url(#clip0_47_3124)">
<path d="M16.21 4.16003L20.21 8.16003V4.16003H16.21ZM20.21 16.16L16.21 20.16H20.21V16.16ZM8.20996 20.16L4.20996 16.16V20.16H8.20996ZM4.20996 8.16003L8.20996 4.16003H4.20996V8.16003ZM17.16 7.21003C14.43 4.48003 9.98996 4.48003 7.25996 7.21003C4.52996 9.94003 4.52996 14.38 7.25996 17.11C9.98996 19.84 14.43 19.84 17.16 17.11C19.89 14.38 19.89 9.95003 17.16 7.21003ZM16.06 16.01C13.93 18.14 10.49 18.14 8.35996 16.01C6.22996 13.88 6.22996 10.44 8.35996 8.31003C10.49 6.18003 13.93 6.18003 16.06 8.31003C18.19 10.44 18.19 13.88 16.06 16.01Z" fill="#344054"/>
</g>
<defs>
<clipPath id="clip0_47_3124">
<rect width="24" height="24" fill="white"/>
</clipPath>
</defs>
</svg>
