<svg width="20" height="20" viewBox="0 0 20 20" fill="none" xmlns="http://www.w3.org/2000/svg">
<path d="M3.33398 13.3333V18.3333H16.6673V13.3333C16.6673 12.4166 15.9173 11.6666 15.0007 11.6666H5.00065C4.08398 11.6666 3.33398 12.4166 3.33398 13.3333ZM15.0007 15H5.00065V13.3333H15.0007V15ZM10.0007 1.66663C7.70065 1.66663 5.83398 3.53329 5.83398 5.83329L10.0007 11.6666L14.1673 5.83329C14.1673 3.53329 12.3007 1.66663 10.0007 1.66663ZM10.0007 9.16663L7.50065 5.83329C7.50065 4.44996 8.61732 3.33329 10.0007 3.33329C11.384 3.33329 12.5007 4.44996 12.5007 5.83329L10.0007 9.16663Z" fill="#667085"/>
</svg>
