<svg width="24" height="24" viewBox="0 0 24 24" fill="none" xmlns="http://www.w3.org/2000/svg">
<path fill-rule="evenodd" clip-rule="evenodd" d="M18 3C19.654 3 21 4.346 21 6C21 6.883 20.609 7.67 20 8.22V18C20 19.654 18.654 21 17 21H7C5.346 21 4 19.654 4 18V8.22C3.391 7.67 3 6.883 3 6C3 4.346 4.346 3 6 3H18ZM6 5H18C18.552 5 19 5.449 19 6C19 6.551 18.552 7 18 7H6C5.449 7 5 6.551 5 6C5 5.449 5.449 5 6 5ZM17 19C17.552 19 18 18.551 18 18V9H6V18C6 18.551 6.449 19 7 19H17ZM14.1342 14H9.8662C9.3892 14 9.0002 13.61 9.0002 13.134V12.866C9.0002 12.39 9.3892 12 9.8662 12H14.1342C14.6102 12 15.0002 12.39 15.0002 12.866V13.134C15.0002 13.61 14.6102 14 14.1342 14Z" fill="#344054"/>
</svg>
