<svg width="24" height="24" viewBox="0 0 24 24" fill="none" xmlns="http://www.w3.org/2000/svg">
<path fill-rule="evenodd" clip-rule="evenodd" d="M12.0005 21.9996C6.48649 21.9996 2.00049 17.5146 2.00049 11.9996C2.00049 6.48563 6.48649 1.99963 12.0005 1.99963C17.5145 1.99963 22.0005 6.48563 22.0005 11.9996C22.0005 17.5146 17.5145 21.9996 12.0005 21.9996ZM16.7235 11.3096L13.8615 8.30963C13.4805 7.91063 12.8475 7.89463 12.4475 8.27663C12.0475 8.65863 12.0335 9.29063 12.4145 9.69063L13.6635 10.9996H8.00049C7.44749 10.9996 7.00049 11.4476 7.00049 11.9996C7.00049 12.5526 7.44749 12.9996 8.00049 12.9996H13.5865L12.2935 14.2926C11.9025 14.6836 11.9025 15.3166 12.2935 15.7066C12.6835 16.0976 13.3165 16.0976 13.7075 15.7066L16.7065 12.7076C16.7995 12.6156 16.8725 12.5046 16.9235 12.3826C16.9735 12.2606 17.0005 12.1306 17.0005 11.9996C17.0005 11.8716 16.9735 11.7436 16.9245 11.6226C16.9069 11.5805 16.8805 11.5443 16.8539 11.5078C16.8426 11.4923 16.8312 11.4767 16.8205 11.4606C16.8088 11.443 16.7987 11.4246 16.7885 11.4062C16.7699 11.3725 16.7513 11.3388 16.7235 11.3096Z" fill="#344054"/>
<mask id="mask0_49_2430" style="mask-type:luminance" maskUnits="userSpaceOnUse" x="2" y="1" width="21" height="21">
<path fill-rule="evenodd" clip-rule="evenodd" d="M12.0005 21.9996C6.48649 21.9996 2.00049 17.5146 2.00049 11.9996C2.00049 6.48563 6.48649 1.99963 12.0005 1.99963C17.5145 1.99963 22.0005 6.48563 22.0005 11.9996C22.0005 17.5146 17.5145 21.9996 12.0005 21.9996ZM16.7235 11.3096L13.8615 8.30963C13.4805 7.91063 12.8475 7.89463 12.4475 8.27663C12.0475 8.65863 12.0335 9.29063 12.4145 9.69063L13.6635 10.9996H8.00049C7.44749 10.9996 7.00049 11.4476 7.00049 11.9996C7.00049 12.5526 7.44749 12.9996 8.00049 12.9996H13.5865L12.2935 14.2926C11.9025 14.6836 11.9025 15.3166 12.2935 15.7066C12.6835 16.0976 13.3165 16.0976 13.7075 15.7066L16.7065 12.7076C16.7995 12.6156 16.8725 12.5046 16.9235 12.3826C16.9735 12.2606 17.0005 12.1306 17.0005 11.9996C17.0005 11.8716 16.9735 11.7436 16.9245 11.6226C16.9069 11.5805 16.8805 11.5443 16.8539 11.5078C16.8426 11.4923 16.8312 11.4767 16.8205 11.4606C16.8088 11.443 16.7987 11.4246 16.7885 11.4062C16.7699 11.3725 16.7513 11.3388 16.7235 11.3096Z" fill="white"/>
</mask>
<g mask="url(#mask0_49_2430)">
</g>
</svg>
