<svg width="24" height="24" viewBox="0 0 24 24" fill="none" xmlns="http://www.w3.org/2000/svg">
<path d="M16.2131 16H7.78714C7.11414 16 6.50714 15.598 6.20214 14.951C5.85714 14.218 5.95714 13.351 6.46014 12.741L10.6741 7.64205C11.3461 6.82505 12.6541 6.82505 13.3261 7.64205L17.5391 12.74C18.0431 13.351 18.1441 14.218 17.7981 14.951C17.4931 15.598 16.8861 16 16.2131 16Z" fill="#344054"/>
<mask id="mask0_49_2227" style="mask-type:luminance" maskUnits="userSpaceOnUse" x="5" y="7" width="14" height="9">
<path d="M16.2131 16H7.78714C7.11414 16 6.50714 15.598 6.20214 14.951C5.85714 14.218 5.95714 13.351 6.46014 12.741L10.6741 7.64205C11.3461 6.82505 12.6541 6.82505 13.3261 7.64205L17.5391 12.74C18.0431 13.351 18.1441 14.218 17.7981 14.951C17.4931 15.598 16.8861 16 16.2131 16Z" fill="white"/>
</mask>
<g mask="url(#mask0_49_2227)">
</g>
</svg>
