<svg width="24" height="24" viewBox="0 0 24 24" fill="none" xmlns="http://www.w3.org/2000/svg">
<path fill-rule="evenodd" clip-rule="evenodd" d="M2 12C2 6.486 6.486 2 12 2C17.514 2 22 6.486 22 12C22 17.514 17.514 22 12 22C6.486 22 2 17.514 2 12ZM12 20C7.589 20 4 16.411 4 12C4 7.589 7.589 4 12 4C16.411 4 20 7.589 20 12C20 16.411 16.411 20 12 20ZM16 11H10.336L11.586 9.69C11.967 9.291 11.952 8.658 11.553 8.276C11.153 7.896 10.521 7.91 10.139 8.31L7.276 11.31C7.25272 11.3345 7.23732 11.3628 7.22176 11.3913C7.21192 11.4094 7.20201 11.4276 7.19 11.445C7.18064 11.4585 7.17101 11.4717 7.16141 11.4849C7.12898 11.5294 7.09683 11.5735 7.076 11.626C7.039 11.717 7.027 11.812 7.019 11.909C7.01766 11.9229 7.01372 11.9361 7.00978 11.9494C7.00489 11.9658 7 11.9823 7 12C7 12.0006 7.00009 12.0011 7.00022 12.0016C7.00031 12.0019 7.0004 12.0022 7.0005 12.0025C7.00075 12.0033 7.001 12.004 7.001 12.005C7.002 12.135 7.027 12.264 7.078 12.386C7.128 12.507 7.202 12.616 7.293 12.708L10.293 15.707C10.488 15.902 10.744 16 11 16C11.256 16 11.512 15.902 11.707 15.707C12.098 15.316 12.098 14.684 11.707 14.293L10.414 13H16C16.552 13 17 12.552 17 12C17 11.448 16.552 11 16 11Z" fill="#344054"/>
</svg>
