<svg width="24" height="24" viewBox="0 0 24 24" fill="none" xmlns="http://www.w3.org/2000/svg">
<path fill-rule="evenodd" clip-rule="evenodd" d="M11.9995 2.00037C17.5135 2.00037 21.9995 6.48537 21.9995 12.0004C21.9995 17.5144 17.5135 22.0004 11.9995 22.0004C6.48551 22.0004 1.99951 17.5144 1.99951 12.0004C1.99951 6.48537 6.48551 2.00037 11.9995 2.00037ZM7.27651 12.6904L10.1385 15.6904C10.5195 16.0894 11.1525 16.1054 11.5525 15.7234C11.9525 15.3414 11.9665 14.7094 11.5855 14.3094L10.3365 13.0004H15.9995C16.5525 13.0004 16.9995 12.5524 16.9995 12.0004C16.9995 11.4474 16.5525 11.0004 15.9995 11.0004H10.4135L11.7065 9.70737C12.0975 9.31637 12.0975 8.68337 11.7065 8.29337C11.3165 7.90237 10.6835 7.90237 10.2925 8.29337L7.29351 11.2924C7.20051 11.3844 7.12751 11.4954 7.07651 11.6174C7.02651 11.7394 6.99951 11.8694 6.99951 12.0004C6.99951 12.1284 7.02651 12.2564 7.07551 12.3774C7.09305 12.4195 7.11946 12.4557 7.14608 12.4922C7.15741 12.5077 7.16877 12.5233 7.17951 12.5394C7.19116 12.557 7.20131 12.5754 7.21146 12.5938C7.23007 12.6275 7.24869 12.6612 7.27651 12.6904Z" fill="#344054"/>
<mask id="mask0_49_2494" style="mask-type:luminance" maskUnits="userSpaceOnUse" x="1" y="2" width="21" height="21">
<path fill-rule="evenodd" clip-rule="evenodd" d="M11.9995 2.00037C17.5135 2.00037 21.9995 6.48537 21.9995 12.0004C21.9995 17.5144 17.5135 22.0004 11.9995 22.0004C6.48551 22.0004 1.99951 17.5144 1.99951 12.0004C1.99951 6.48537 6.48551 2.00037 11.9995 2.00037ZM7.27651 12.6904L10.1385 15.6904C10.5195 16.0894 11.1525 16.1054 11.5525 15.7234C11.9525 15.3414 11.9665 14.7094 11.5855 14.3094L10.3365 13.0004H15.9995C16.5525 13.0004 16.9995 12.5524 16.9995 12.0004C16.9995 11.4474 16.5525 11.0004 15.9995 11.0004H10.4135L11.7065 9.70737C12.0975 9.31637 12.0975 8.68337 11.7065 8.29337C11.3165 7.90237 10.6835 7.90237 10.2925 8.29337L7.29351 11.2924C7.20051 11.3844 7.12751 11.4954 7.07651 11.6174C7.02651 11.7394 6.99951 11.8694 6.99951 12.0004C6.99951 12.1284 7.02651 12.2564 7.07551 12.3774C7.09305 12.4195 7.11945 12.4557 7.14608 12.4922C7.15741 12.5077 7.16877 12.5233 7.17951 12.5394C7.19116 12.557 7.20131 12.5754 7.21146 12.5938C7.23008 12.6275 7.24869 12.6612 7.27651 12.6904Z" fill="white"/>
</mask>
<g mask="url(#mask0_49_2494)">
</g>
</svg>
