<svg width="24" height="24" viewBox="0 0 24 24" fill="none" xmlns="http://www.w3.org/2000/svg">
<path fill-rule="evenodd" clip-rule="evenodd" d="M12.0001 12.0001C11.7731 12.0001 11.5451 11.9231 11.3601 11.7681L5.36013 6.76807C4.93613 6.41407 4.87913 5.78407 5.23213 5.36007C5.58613 4.93507 6.21513 4.87907 6.64013 5.23207L12.0111 9.70707L17.3731 5.39307C17.8031 5.04707 18.4341 5.11507 18.7791 5.54507C19.1261 5.97507 19.0571 6.60407 18.6271 6.95107L12.6271 11.7791C12.4441 11.9261 12.2221 12.0001 12.0001 12.0001ZM12.0112 16.7076L17.3732 12.3926C17.8032 12.0476 18.4342 12.1156 18.7792 12.5446C19.1252 12.9756 19.0572 13.6046 18.6272 13.9516L12.6272 18.7796C12.4442 18.9266 12.2222 18.9996 12.0002 18.9996C11.7722 18.9996 11.5452 18.9226 11.3602 18.7676L5.36023 13.7676C4.93523 13.4146 4.87823 12.7846 5.23223 12.3596C5.58523 11.9356 6.21523 11.8776 6.64023 12.2316L12.0112 16.7076Z" fill="#344054"/>
</svg>
