<svg width="24" height="24" viewBox="0 0 24 24" fill="none" xmlns="http://www.w3.org/2000/svg">
<path fill-rule="evenodd" clip-rule="evenodd" d="M2 12C2 6.486 6.486 2 12 2C17.514 2 22 6.486 22 12C22 17.514 17.514 22 12 22C6.486 22 2 17.514 2 12ZM12 20C7.589 20 4 16.411 4 12C4 7.589 7.589 4 12 4C16.411 4 20 7.589 20 12C20 16.411 16.411 20 12 20ZM14.3096 12.4141L12.9996 13.6641V8.0001C12.9996 7.4481 12.5526 7.0001 11.9996 7.0001C11.4476 7.0001 10.9996 7.4481 10.9996 8.0001V13.5861L9.7066 12.2931C9.3166 11.9021 8.6836 11.9021 8.2926 12.2931C7.9026 12.6841 7.9026 13.3161 8.2926 13.7071L11.2926 16.7061C11.3846 16.7991 11.4956 16.8721 11.6176 16.9231C11.7396 16.9741 11.8696 17.0001 11.9996 17.0001C12.1286 17.0001 12.2566 16.9731 12.3766 16.9241C12.4206 16.9061 12.4578 16.8787 12.495 16.8514C12.5094 16.8408 12.5238 16.8302 12.5386 16.8201C12.5565 16.8085 12.5751 16.7985 12.5935 16.7886L12.5936 16.7885C12.6276 16.7702 12.6614 16.752 12.6906 16.7241L15.6906 13.8611C16.0896 13.4801 16.1046 12.8471 15.7236 12.4471C15.3416 12.0471 14.7096 12.0331 14.3096 12.4141Z" fill="#344054"/>
</svg>
