<svg width="24" height="24" viewBox="0 0 24 24" fill="none" xmlns="http://www.w3.org/2000/svg">
<path fill-rule="evenodd" clip-rule="evenodd" d="M2.00049 12.0002C2.00049 6.48624 6.48549 2.00024 12.0005 2.00024C17.5145 2.00024 22.0005 6.48624 22.0005 12.0002C22.0005 17.5142 17.5145 22.0002 12.0005 22.0002C6.48549 22.0002 2.00049 17.5142 2.00049 12.0002ZM12.6905 16.7232L15.6905 13.8612C16.0895 13.4802 16.1055 12.8472 15.7235 12.4472C15.3415 12.0472 14.7095 12.0332 14.3095 12.4142L13.0005 13.6632V8.00024C13.0005 7.44724 12.5525 7.00024 12.0005 7.00024C11.4475 7.00024 11.0005 7.44724 11.0005 8.00024V13.5862L9.70749 12.2932C9.31649 11.9022 8.68349 11.9022 8.29349 12.2932C7.90249 12.6832 7.90249 13.3162 8.29349 13.7072L11.2925 16.7062C11.3845 16.7992 11.4955 16.8722 11.6175 16.9232C11.7395 16.9732 11.8695 17.0002 12.0005 17.0002C12.1285 17.0002 12.2565 16.9732 12.3775 16.9242C12.4196 16.9067 12.4558 16.8803 12.4923 16.8537C12.5078 16.8423 12.5234 16.831 12.5395 16.8202C12.5571 16.8086 12.5755 16.7984 12.5939 16.7883C12.6276 16.7697 12.6614 16.7511 12.6905 16.7232Z" fill="#344054"/>
<mask id="mask0_49_2676" style="mask-type:luminance" maskUnits="userSpaceOnUse" x="2" y="2" width="21" height="21">
<path fill-rule="evenodd" clip-rule="evenodd" d="M2.00049 12.0002C2.00049 6.48624 6.48549 2.00024 12.0005 2.00024C17.5145 2.00024 22.0005 6.48624 22.0005 12.0002C22.0005 17.5142 17.5145 22.0002 12.0005 22.0002C6.48549 22.0002 2.00049 17.5142 2.00049 12.0002ZM12.6905 16.7232L15.6905 13.8612C16.0895 13.4802 16.1055 12.8472 15.7235 12.4472C15.3415 12.0472 14.7095 12.0332 14.3095 12.4142L13.0005 13.6632V8.00024C13.0005 7.44724 12.5525 7.00024 12.0005 7.00024C11.4475 7.00024 11.0005 7.44724 11.0005 8.00024V13.5862L9.70749 12.2932C9.31649 11.9022 8.68349 11.9022 8.29349 12.2932C7.90249 12.6832 7.90249 13.3162 8.29349 13.7072L11.2925 16.7062C11.3845 16.7992 11.4955 16.8722 11.6175 16.9232C11.7395 16.9732 11.8695 17.0002 12.0005 17.0002C12.1285 17.0002 12.2565 16.9732 12.3775 16.9242C12.4196 16.9067 12.4558 16.8803 12.4923 16.8537C12.5078 16.8424 12.5234 16.831 12.5395 16.8202C12.5571 16.8086 12.5755 16.7984 12.5939 16.7883C12.6276 16.7697 12.6614 16.7511 12.6905 16.7232Z" fill="white"/>
</mask>
<g mask="url(#mask0_49_2676)">
</g>
</svg>
