<svg width="24" height="24" viewBox="0 0 24 24" fill="none" xmlns="http://www.w3.org/2000/svg">
<path fill-rule="evenodd" clip-rule="evenodd" d="M21.9995 11.9998C21.9995 17.5138 17.5145 21.9998 11.9995 21.9998C6.48551 21.9998 1.99951 17.5138 1.99951 11.9998C1.99951 6.48576 6.48551 1.99976 11.9995 1.99976C17.5145 1.99976 21.9995 6.48576 21.9995 11.9998ZM11.3095 7.27676L8.30951 10.1388C7.91051 10.5198 7.89451 11.1528 8.27651 11.5528C8.65851 11.9528 9.29051 11.9668 9.69051 11.5858L10.9995 10.3368V15.9998C10.9995 16.5528 11.4475 16.9998 11.9995 16.9998C12.5525 16.9998 12.9995 16.5528 12.9995 15.9998V10.4138L14.2925 11.7068C14.6835 12.0978 15.3165 12.0978 15.7065 11.7068C16.0975 11.3168 16.0975 10.6838 15.7065 10.2928L12.7075 7.29376C12.6155 7.20076 12.5045 7.12776 12.3825 7.07676C12.2605 7.02676 12.1305 6.99976 11.9995 6.99976C11.8715 6.99976 11.7435 7.02676 11.6225 7.07576C11.5804 7.0933 11.5442 7.1197 11.5077 7.14633C11.4922 7.15765 11.4766 7.16901 11.4605 7.17976C11.4429 7.1914 11.4245 7.20155 11.4061 7.21171C11.3724 7.23032 11.3386 7.24893 11.3095 7.27676Z" fill="#344054"/>
<mask id="mask0_49_2590" style="mask-type:luminance" maskUnits="userSpaceOnUse" x="1" y="1" width="21" height="21">
<path fill-rule="evenodd" clip-rule="evenodd" d="M21.9995 11.9998C21.9995 17.5138 17.5145 21.9998 11.9995 21.9998C6.48551 21.9998 1.99951 17.5138 1.99951 11.9998C1.99951 6.48576 6.48551 1.99976 11.9995 1.99976C17.5145 1.99976 21.9995 6.48576 21.9995 11.9998ZM11.3095 7.27676L8.30951 10.1388C7.91051 10.5198 7.89451 11.1528 8.27651 11.5528C8.65851 11.9528 9.29051 11.9668 9.69051 11.5858L10.9995 10.3368V15.9998C10.9995 16.5528 11.4475 16.9998 11.9995 16.9998C12.5525 16.9998 12.9995 16.5528 12.9995 15.9998V10.4138L14.2925 11.7068C14.6835 12.0978 15.3165 12.0978 15.7065 11.7068C16.0975 11.3168 16.0975 10.6838 15.7065 10.2928L12.7075 7.29376C12.6155 7.20076 12.5045 7.12776 12.3825 7.07676C12.2605 7.02676 12.1305 6.99976 11.9995 6.99976C11.8715 6.99976 11.7435 7.02676 11.6225 7.07576C11.5804 7.0933 11.5442 7.1197 11.5077 7.14633C11.4922 7.15765 11.4766 7.16901 11.4605 7.17976C11.4429 7.1914 11.4245 7.20155 11.4061 7.21171C11.3724 7.23032 11.3386 7.24893 11.3095 7.27676Z" fill="white"/>
</mask>
<g mask="url(#mask0_49_2590)">
</g>
</svg>
