<svg width="24" height="24" viewBox="0 0 24 24" fill="none" xmlns="http://www.w3.org/2000/svg">
<path fill-rule="evenodd" clip-rule="evenodd" d="M4.90572 4.9527C7.01872 2.8247 9.95372 1.7617 12.9547 2.0437C18.0277 2.5167 21.9997 6.9877 21.9997 12.2247V12.8997C21.9997 13.9187 21.5947 14.8677 20.8577 15.5727C20.1207 16.2777 19.1467 16.6497 18.1337 16.5957C16.9737 16.5447 15.9507 15.9007 15.3057 14.9607C14.3807 16.2447 12.8817 17.0907 11.1817 17.0907C8.37472 17.0907 6.09072 14.8067 6.09072 11.9997C6.09072 9.1937 8.37472 6.9087 11.1817 6.9087C12.5127 6.9087 13.7167 7.4347 14.6247 8.2747C14.6887 7.7827 15.0907 7.3997 15.5997 7.3997C16.1527 7.3997 16.5997 7.8467 16.5997 8.3997V12.7237C16.5997 13.7177 17.3277 14.5587 18.2217 14.5977C18.6887 14.6177 19.1367 14.4517 19.4747 14.1277C19.8137 13.8037 19.9997 13.3677 19.9997 12.8997V12.2247C19.9997 8.0097 16.8247 4.4127 12.7697 4.0357C10.3667 3.8077 8.01472 4.6597 6.32472 6.3617C4.63272 8.0647 3.80072 10.4207 4.04072 12.8257C4.32272 15.6387 6.16172 18.1827 8.72972 19.3087C11.4297 20.4907 14.5457 20.1267 16.8637 18.3517C17.3027 18.0167 17.9297 18.0997 18.2657 18.5367C18.6017 18.9757 18.5187 19.6037 18.0797 19.9397C16.3087 21.2957 14.1637 21.9947 11.9957 21.9947C10.6197 21.9947 9.23372 21.7137 7.92672 21.1407C4.65972 19.7077 2.40872 16.5977 2.05072 13.0257C1.75072 10.0227 2.79172 7.0797 4.90572 4.9527ZM8.09072 11.9997C8.09072 13.7037 9.47772 15.0907 11.1817 15.0907C12.8857 15.0907 14.2727 13.7037 14.2727 11.9997C14.2727 10.2957 12.8857 8.9087 11.1817 8.9087C9.47772 8.9087 8.09072 10.2957 8.09072 11.9997Z" fill="#344054"/>
<mask id="mask0_49_2658" style="mask-type:luminance" maskUnits="userSpaceOnUse" x="2" y="1" width="20" height="21">
<path fill-rule="evenodd" clip-rule="evenodd" d="M4.90572 4.9527C7.01872 2.8247 9.95372 1.7617 12.9547 2.0437C18.0277 2.5167 21.9997 6.9877 21.9997 12.2247V12.8997C21.9997 13.9187 21.5947 14.8677 20.8577 15.5727C20.1207 16.2777 19.1467 16.6497 18.1337 16.5957C16.9737 16.5447 15.9507 15.9007 15.3057 14.9607C14.3807 16.2447 12.8817 17.0907 11.1817 17.0907C8.37472 17.0907 6.09072 14.8067 6.09072 11.9997C6.09072 9.1937 8.37472 6.9087 11.1817 6.9087C12.5127 6.9087 13.7167 7.4347 14.6247 8.2747C14.6887 7.7827 15.0907 7.3997 15.5997 7.3997C16.1527 7.3997 16.5997 7.8467 16.5997 8.3997V12.7237C16.5997 13.7177 17.3277 14.5587 18.2217 14.5977C18.6887 14.6177 19.1367 14.4517 19.4747 14.1277C19.8137 13.8037 19.9997 13.3677 19.9997 12.8997V12.2247C19.9997 8.0097 16.8247 4.4127 12.7697 4.0357C10.3667 3.8077 8.01472 4.6597 6.32472 6.3617C4.63272 8.0647 3.80072 10.4207 4.04072 12.8257C4.32272 15.6387 6.16172 18.1827 8.72972 19.3087C11.4297 20.4907 14.5457 20.1267 16.8637 18.3517C17.3027 18.0167 17.9297 18.0997 18.2657 18.5367C18.6017 18.9757 18.5187 19.6037 18.0797 19.9397C16.3087 21.2957 14.1637 21.9947 11.9957 21.9947C10.6197 21.9947 9.23372 21.7137 7.92672 21.1407C4.65972 19.7077 2.40872 16.5977 2.05072 13.0257C1.75072 10.0227 2.79172 7.0797 4.90572 4.9527ZM8.09072 11.9997C8.09072 13.7037 9.47772 15.0907 11.1817 15.0907C12.8857 15.0907 14.2727 13.7037 14.2727 11.9997C14.2727 10.2957 12.8857 8.9087 11.1817 8.9087C9.47772 8.9087 8.09072 10.2957 8.09072 11.9997Z" fill="white"/>
</mask>
<g mask="url(#mask0_49_2658)">
</g>
</svg>
