<svg width="24" height="24" viewBox="0 0 24 24" fill="none" xmlns="http://www.w3.org/2000/svg">
<path fill-rule="evenodd" clip-rule="evenodd" d="M4.90572 4.95282C7.01872 2.82482 9.95372 1.76182 12.9547 2.04382C18.0277 2.51682 21.9997 6.98782 21.9997 12.2248V12.8998C21.9997 13.9188 21.5947 14.8678 20.8577 15.5728C20.1207 16.2778 19.1467 16.6498 18.1337 16.5958C16.9737 16.5448 15.9507 15.9008 15.3057 14.9608C14.3807 16.2448 12.8817 17.0908 11.1817 17.0908C8.37472 17.0908 6.09072 14.8068 6.09072 11.9998C6.09072 9.19382 8.37472 6.90882 11.1817 6.90882C12.5127 6.90882 13.7167 7.43482 14.6247 8.27482C14.6887 7.78282 15.0907 7.39982 15.5997 7.39982C16.1527 7.39982 16.5997 7.84682 16.5997 8.39982V12.7238C16.5997 13.7178 17.3277 14.5588 18.2217 14.5978C18.6887 14.6178 19.1367 14.4518 19.4747 14.1278C19.8137 13.8038 19.9997 13.3678 19.9997 12.8998V12.2248C19.9997 8.00982 16.8247 4.41282 12.7697 4.03582C10.3667 3.80782 8.01472 4.65982 6.32472 6.36182C4.63272 8.06482 3.80072 10.4208 4.04072 12.8258C4.32272 15.6388 6.16172 18.1828 8.72972 19.3088C11.4297 20.4908 14.5457 20.1268 16.8637 18.3518C17.3027 18.0168 17.9297 18.0998 18.2657 18.5368C18.6017 18.9758 18.5187 19.6038 18.0797 19.9398C16.3087 21.2958 14.1637 21.9948 11.9957 21.9948C10.6197 21.9948 9.23372 21.7138 7.92672 21.1408C4.65972 19.7078 2.40872 16.5978 2.05072 13.0258C1.75072 10.0228 2.79172 7.07982 4.90572 4.95282ZM8.09072 11.9998C8.09072 13.7038 9.47772 15.0908 11.1817 15.0908C12.8857 15.0908 14.2727 13.7038 14.2727 11.9998C14.2727 10.2958 12.8857 8.90882 11.1817 8.90882C9.47772 8.90882 8.09072 10.2958 8.09072 11.9998Z" fill="#344054"/>
</svg>
