<svg width="24" height="24" viewBox="0 0 24 24" fill="none" xmlns="http://www.w3.org/2000/svg">
<path fill-rule="evenodd" clip-rule="evenodd" d="M16.6598 11.772L18.9688 20.751C19.0678 21.138 18.9278 21.547 18.6118 21.791C18.4328 21.93 18.2168 22 17.9998 22C17.8338 22 17.6668 21.959 17.5158 21.875L11.8358 18.733L6.50583 21.862C6.15783 22.064 5.72083 22.042 5.39783 21.799C5.07483 21.556 4.93083 21.143 5.03083 20.751L7.33983 11.772C6.50383 10.74 5.99983 9.429 5.99983 8C5.99983 4.691 8.69083 2 11.9998 2C15.3088 2 17.9998 4.691 17.9998 8C17.9998 9.429 17.4958 10.74 16.6598 11.772ZM15.9998 8C15.9998 5.794 14.2058 4 11.9998 4C9.79383 4 7.99983 5.794 7.99983 8C7.99983 10.206 9.79383 12 11.9998 12C14.2058 12 15.9998 10.206 15.9998 8Z" fill="#344054"/>
<mask id="mask0_49_2256" style="mask-type:luminance" maskUnits="userSpaceOnUse" x="4" y="2" width="15" height="20">
<path fill-rule="evenodd" clip-rule="evenodd" d="M16.6598 11.772L18.9688 20.751C19.0678 21.138 18.9278 21.547 18.6118 21.791C18.4328 21.93 18.2168 22 17.9998 22C17.8338 22 17.6668 21.959 17.5158 21.875L11.8358 18.733L6.50583 21.862C6.15783 22.064 5.72083 22.042 5.39783 21.799C5.07483 21.556 4.93083 21.143 5.03083 20.751L7.33983 11.772C6.50383 10.74 5.99983 9.429 5.99983 8C5.99983 4.691 8.69083 2 11.9998 2C15.3088 2 17.9998 4.691 17.9998 8C17.9998 9.429 17.4958 10.74 16.6598 11.772ZM15.9998 8C15.9998 5.794 14.2058 4 11.9998 4C9.79383 4 7.99983 5.794 7.99983 8C7.99983 10.206 9.79383 12 11.9998 12C14.2058 12 15.9998 10.206 15.9998 8Z" fill="white"/>
</mask>
<g mask="url(#mask0_49_2256)">
</g>
</svg>
