<svg width="24" height="24" viewBox="0 0 24 24" fill="none" xmlns="http://www.w3.org/2000/svg">
<path fill-rule="evenodd" clip-rule="evenodd" d="M10.3701 4H20.1411C21.1661 4 22.0001 4.815 22.0001 5.818V18.182C22.0001 19.185 21.1661 20 20.1411 20H10.3701C9.62206 20 8.90507 19.723 8.35207 19.219L2.32707 13.74C1.93607 13.384 1.89007 12.785 2.22207 12.373L8.24607 4.894C8.27807 4.854 8.31307 4.815 8.35207 4.781C8.90507 4.277 9.62206 4 10.3701 4ZM16.7071 14.707C17.0981 14.316 17.0981 13.684 16.7071 13.293L15.4141 12L16.7071 10.707C17.0981 10.316 17.0981 9.684 16.7071 9.293C16.3161 8.902 15.6841 8.902 15.2931 9.293L14.0001 10.586L12.7071 9.293C12.3161 8.902 11.6841 8.902 11.2931 9.293C10.9021 9.684 10.9021 10.316 11.2931 10.707L12.5861 12L11.2931 13.293C10.9021 13.684 10.9021 14.316 11.2931 14.707C11.4881 14.902 11.7441 15 12.0001 15C12.2561 15 12.5121 14.902 12.7071 14.707L14.0001 13.414L15.2931 14.707C15.4881 14.902 15.7441 15 16.0001 15C16.2561 15 16.5121 14.902 16.7071 14.707Z" fill="#344054"/>
<mask id="mask0_49_3071" style="mask-type:luminance" maskUnits="userSpaceOnUse" x="2" y="4" width="20" height="16">
<path fill-rule="evenodd" clip-rule="evenodd" d="M10.3701 4H20.1411C21.1661 4 22.0001 4.815 22.0001 5.818V18.182C22.0001 19.185 21.1661 20 20.1411 20H10.3701C9.62206 20 8.90507 19.723 8.35207 19.219L2.32707 13.74C1.93607 13.384 1.89007 12.785 2.22207 12.373L8.24607 4.894C8.27807 4.854 8.31307 4.815 8.35207 4.781C8.90507 4.277 9.62206 4 10.3701 4ZM16.7071 14.707C17.0981 14.316 17.0981 13.684 16.7071 13.293L15.4141 12L16.7071 10.707C17.0981 10.316 17.0981 9.684 16.7071 9.293C16.3161 8.902 15.6841 8.902 15.2931 9.293L14.0001 10.586L12.7071 9.293C12.3161 8.902 11.6841 8.902 11.2931 9.293C10.9021 9.684 10.9021 10.316 11.2931 10.707L12.5861 12L11.2931 13.293C10.9021 13.684 10.9021 14.316 11.2931 14.707C11.4881 14.902 11.7441 15 12.0001 15C12.2561 15 12.5121 14.902 12.7071 14.707L14.0001 13.414L15.2931 14.707C15.4881 14.902 15.7441 15 16.0001 15C16.2561 15 16.5121 14.902 16.7071 14.707Z" fill="white"/>
</mask>
<g mask="url(#mask0_49_3071)">
</g>
</svg>
