<svg width="24" height="24" viewBox="0 0 24 24" fill="none" xmlns="http://www.w3.org/2000/svg">
<path fill-rule="evenodd" clip-rule="evenodd" d="M4.167 6H15.833C17.028 6 18 7.089 18 8.429V15.571C18 16.911 17.028 18 15.833 18H4.167C2.972 18 2 16.911 2 15.571V8.429C2 7.089 2.972 6 4.167 6ZM16 15.571C16 15.824 15.879 15.977 15.828 16L4.176 16.001C4.126 15.983 4 15.83 4 15.571V8.429C4 8.17 4.126 8.017 4.167 8L15.824 7.999C15.874 8.017 16 8.17 16 8.429V15.571ZM22 10V14C22 14.552 21.552 15 21 15C20.448 15 20 14.552 20 14V10C20 9.448 20.448 9 21 9C21.552 9 22 9.448 22 10Z" fill="#344054"/>
</svg>
