<svg width="24" height="24" viewBox="0 0 24 24" fill="none" xmlns="http://www.w3.org/2000/svg">
<path fill-rule="evenodd" clip-rule="evenodd" d="M2 11.9998C2 6.47776 6.477 1.99976 12 1.99976C17.523 1.99976 22 6.47776 22 11.9998C22 17.5228 17.523 21.9998 12 21.9998C6.477 21.9998 2 17.5228 2 11.9998ZM9.698 15.2028H6.975V8.70276H9.703C10.873 8.70276 11.64 9.30876 11.64 10.3038C11.64 11.0938 11.165 11.5708 10.518 11.7278V11.7838C11.304 11.8608 11.975 12.3948 11.975 13.3698C11.975 14.5328 11.026 15.2028 9.698 15.2028ZM16.25 9.70276H13.25V9.20276H16.25V9.70276ZM9.4054 9.66956C10.0104 9.66956 10.3644 9.99456 10.3644 10.5226C10.3644 11.0886 9.9814 11.4086 9.1134 11.4086H8.2604V9.66956H9.4054ZM14.7647 11.1886C14.1387 11.1886 13.7267 11.6666 13.7267 12.2846V12.2936H15.7877V12.2846C15.7877 11.6616 15.3857 11.1886 14.7647 11.1886ZM9.4869 12.3038H8.2599V14.2378H9.2189C10.2399 14.2378 10.6569 13.9128 10.6569 13.2938C10.6569 12.6798 10.2439 12.3038 9.4869 12.3038ZM17.025 13.0538H13.727V13.1858C13.727 13.9178 14.168 14.3818 14.818 14.3818C15.327 14.3818 15.686 14.1458 15.793 13.7538H16.977C16.856 14.5278 16.186 15.2968 14.808 15.2968C13.397 15.2968 12.475 14.4688 12.475 12.9908V12.5488C12.475 11.1338 13.401 10.2968 14.755 10.2968C16.157 10.2968 17.025 11.1928 17.025 12.5798V13.0538Z" fill="#344054"/>
<mask id="mask0_49_3261" style="mask-type:luminance" maskUnits="userSpaceOnUse" x="2" y="1" width="20" height="21">
<path fill-rule="evenodd" clip-rule="evenodd" d="M2 11.9998C2 6.47776 6.477 1.99976 12 1.99976C17.523 1.99976 22 6.47776 22 11.9998C22 17.5228 17.523 21.9998 12 21.9998C6.477 21.9998 2 17.5228 2 11.9998ZM9.698 15.2028H6.975V8.70276H9.703C10.873 8.70276 11.64 9.30876 11.64 10.3038C11.64 11.0938 11.165 11.5708 10.518 11.7278V11.7838C11.304 11.8608 11.975 12.3948 11.975 13.3698C11.975 14.5328 11.026 15.2028 9.698 15.2028ZM16.25 9.70276H13.25V9.20276H16.25V9.70276ZM9.4054 9.66956C10.0104 9.66956 10.3644 9.99456 10.3644 10.5226C10.3644 11.0886 9.9814 11.4086 9.1134 11.4086H8.2604V9.66956H9.4054ZM14.7647 11.1886C14.1387 11.1886 13.7267 11.6666 13.7267 12.2846V12.2936H15.7877V12.2846C15.7877 11.6616 15.3857 11.1886 14.7647 11.1886ZM9.4869 12.3038H8.2599V14.2378H9.2189C10.2399 14.2378 10.6569 13.9128 10.6569 13.2938C10.6569 12.6798 10.2439 12.3038 9.4869 12.3038ZM17.025 13.0538H13.727V13.1858C13.727 13.9178 14.168 14.3818 14.818 14.3818C15.327 14.3818 15.686 14.1458 15.793 13.7538H16.977C16.856 14.5278 16.186 15.2968 14.808 15.2968C13.397 15.2968 12.475 14.4688 12.475 12.9908V12.5488C12.475 11.1338 13.401 10.2968 14.755 10.2968C16.157 10.2968 17.025 11.1928 17.025 12.5798V13.0538Z" fill="white"/>
</mask>
<g mask="url(#mask0_49_3261)">
</g>
</svg>
