<svg width="24" height="24" viewBox="0 0 24 24" fill="none" xmlns="http://www.w3.org/2000/svg">
<path fill-rule="evenodd" clip-rule="evenodd" d="M2 12C2 6.486 6.486 2 12 2C17.514 2 22 6.486 22 12C22 17.514 17.514 22 12 22C6.486 22 2 17.514 2 12ZM12 20C7.589 20 4 16.411 4 12C4 7.589 7.589 4 12 4C16.411 4 20 7.589 20 12C20 16.411 16.411 20 12 20ZM10.518 11.728V11.784C11.304 11.86 11.975 12.395 11.975 13.37C11.975 14.532 11.026 15.203 9.698 15.203H6.975V8.703H9.703C10.873 8.703 11.64 9.309 11.64 10.304C11.64 11.094 11.165 11.57 10.518 11.728ZM16.25 9.703H13.25V9.203H16.25V9.703ZM13.727 12.294H15.788V12.284C15.788 11.661 15.385 11.188 14.765 11.188C14.139 11.188 13.727 11.666 13.727 12.284V12.294ZM14.755 10.297C13.401 10.297 12.475 11.134 12.475 12.549V12.99C12.475 14.469 13.396 15.297 14.808 15.297C16.186 15.297 16.855 14.527 16.977 13.754H15.793C15.686 14.146 15.327 14.382 14.818 14.382C14.168 14.382 13.727 13.918 13.727 13.186V13.054H17.025V12.58C17.025 11.192 16.157 10.297 14.755 10.297ZM8.26 14.237H9.219C10.24 14.237 10.657 13.913 10.657 13.294C10.657 12.68 10.244 12.304 9.487 12.304H8.26V14.237ZM8.26 9.67H9.405C10.01 9.67 10.364 9.994 10.364 10.522C10.364 11.089 9.981 11.408 9.113 11.408H8.26V9.67Z" fill="#344054"/>
</svg>
