<svg width="24" height="24" viewBox="0 0 24 24" fill="none" xmlns="http://www.w3.org/2000/svg">
<path fill-rule="evenodd" clip-rule="evenodd" d="M7.58337 3.6651C7.38937 3.8361 7.20737 4.0171 7.03537 4.2061L7.12737 4.2981L8.59337 5.7631L18.1214 15.2921L20.1144 17.2851L20.4204 17.5901C20.6094 17.4271 20.7724 17.2321 20.8734 16.9901C21.1284 16.3761 20.9894 15.6761 20.5204 15.2061L18.7204 13.4031V8.9351C18.7204 5.4551 16.2184 2.4981 12.8994 2.0591C10.9784 1.8031 9.03837 2.3901 7.58337 3.6651ZM20.0004 20.9991C20.2564 20.9991 20.5124 20.9011 20.7074 20.7061C21.0984 20.3151 21.0984 19.6831 20.7074 19.2921L19.4074 17.9921L17.4144 15.9991L7.88637 6.4701L6.42037 5.0051L4.70737 3.2921C4.31637 2.9011 3.68437 2.9011 3.29337 3.2921C2.90237 3.6831 2.90237 4.3151 3.29337 4.7061L5.53137 6.9451L7.28337 8.6961L14.5864 15.9991L14.6554 16.0681L16.0004 17.4131L16.5864 17.9991L19.2934 20.7061C19.4884 20.9011 19.7444 20.9991 20.0004 20.9991ZM14.0004 18.3401C14.0004 19.2391 13.0844 19.9991 12.0004 19.9991C10.9164 19.9991 10.0004 19.2391 10.0004 18.3401V17.9991H14.0004V18.3401ZM15.2934 18.1201L15.8794 18.7061L15.9514 18.7791C15.7124 20.5881 14.0424 21.9991 12.0004 21.9991C9.79437 21.9991 8.00037 20.3581 8.00037 18.3401V17.9991H4.63737C3.97337 17.9991 3.38037 17.6021 3.12537 16.9891C2.87137 16.3761 3.01037 15.6771 3.47837 15.2071L5.27937 13.4031L5.28037 8.7261C5.28037 8.5291 5.29537 8.3341 5.31137 8.1391L6.57637 9.4041L13.8794 16.7061L13.9484 16.7761L15.2934 18.1201Z" fill="#344054"/>
</svg>
