<svg width="24" height="24" viewBox="0 0 24 24" fill="none" xmlns="http://www.w3.org/2000/svg">
<path fill-rule="evenodd" clip-rule="evenodd" d="M7.03537 4.2061L8.46837 5.6391C8.49766 5.60538 8.5266 5.57136 8.55554 5.53732C8.66396 5.40983 8.77251 5.28218 8.90037 5.1701C9.93837 4.2601 11.2624 3.8601 12.6384 4.0411C14.9654 4.3501 16.7204 6.4541 16.7204 8.9361V13.4031C16.7204 13.6051 16.7594 13.7991 16.8154 13.9861L20.4204 17.5901C20.6094 17.4271 20.7724 17.2321 20.8734 16.9901C21.1284 16.3761 20.9894 15.6761 20.5204 15.2071L18.7204 13.4031V8.9361C18.7204 5.4551 16.2184 2.4981 12.8994 2.0591C10.9764 1.8031 9.03937 2.3901 7.58337 3.6661C7.38937 3.8361 7.20737 4.0171 7.03537 4.2061ZM19.4074 17.9921L20.7074 19.2921C21.0984 19.6831 21.0984 20.3151 20.7074 20.7061C20.5124 20.9011 20.2564 20.9991 20.0004 20.9991C19.7444 20.9991 19.4884 20.9011 19.2934 20.7061L16.5864 17.9991L16.0004 17.4131L14.6554 16.0681L14.5864 15.9991L7.28337 8.6961L5.53137 6.9451L3.29337 4.7061C2.90237 4.3151 2.90237 3.6831 3.29337 3.2921C3.68437 2.9011 4.31637 2.9011 4.70737 3.2921L6.42037 5.0051L7.88637 6.4701L17.4144 15.9991L19.4074 17.9921ZM14.0004 17.9991V18.3401C14.0004 19.2391 13.0844 19.9991 12.0004 19.9991C10.9164 19.9991 10.0004 19.2391 10.0004 18.3401V17.9991H14.0004ZM15.1724 17.9991L15.9514 18.7791C15.7124 20.5881 14.0424 21.9991 12.0004 21.9991C9.79437 21.9991 8.00037 20.3581 8.00037 18.3401V17.9991H4.63737C3.97337 17.9991 3.38037 17.6031 3.12537 16.9891C2.87137 16.3761 3.01037 15.6771 3.47837 15.2071L5.27937 13.4031L5.28037 8.7261C5.28037 8.5291 5.29537 8.3341 5.31137 8.1391L7.28037 10.1071V13.4031C7.28037 13.9371 7.07237 14.4391 6.69437 14.8171L5.51537 15.9991H13.1724L14.0294 16.8561L15.1724 17.9991Z" fill="#344054"/>
</svg>
