<svg width="24" height="24" viewBox="0 0 24 24" fill="none" xmlns="http://www.w3.org/2000/svg">
<path fill-rule="evenodd" clip-rule="evenodd" d="M18.7198 13.4043L20.5208 15.2073C20.9888 15.6773 21.1278 16.3773 20.8728 16.9903C20.6188 17.6043 20.0258 18.0003 19.3618 18.0003H15.9998V18.3413C15.9998 20.3593 14.2058 22.0003 11.9998 22.0003C9.79385 22.0003 7.99985 20.3593 7.99985 18.3413V18.0003H4.63685C3.97285 18.0003 3.37985 17.6033 3.12485 16.9903C2.87085 16.3773 3.00985 15.6773 3.47885 15.2083L5.27885 13.4043L5.27985 8.72726C5.27985 6.79326 6.11885 4.94826 7.58285 3.66626C9.03785 2.39026 10.9778 1.80426 12.8988 2.05926C16.2178 2.49926 18.7198 5.45526 18.7198 8.93626V13.4043ZM11.9998 20.0003C13.0838 20.0003 13.9998 19.2403 13.9998 18.3413V18.0003H9.99985V18.3413C9.99985 19.2403 10.9158 20.0003 11.9998 20.0003Z" fill="#344054"/>
<mask id="mask0_49_2233" style="mask-type:luminance" maskUnits="userSpaceOnUse" x="2" y="2" width="19" height="21">
<path fill-rule="evenodd" clip-rule="evenodd" d="M18.7198 13.4043L20.5208 15.2073C20.9888 15.6773 21.1278 16.3773 20.8728 16.9903C20.6188 17.6043 20.0258 18.0003 19.3618 18.0003H15.9998V18.3413C15.9998 20.3593 14.2058 22.0003 11.9998 22.0003C9.79385 22.0003 7.99985 20.3593 7.99985 18.3413V18.0003H4.63685C3.97285 18.0003 3.37985 17.6033 3.12485 16.9903C2.87085 16.3773 3.00985 15.6773 3.47885 15.2083L5.27885 13.4043L5.27985 8.72726C5.27985 6.79326 6.11885 4.94826 7.58285 3.66626C9.03785 2.39026 10.9778 1.80426 12.8988 2.05926C16.2178 2.49926 18.7198 5.45526 18.7198 8.93626V13.4043ZM11.9998 20.0003C13.0838 20.0003 13.9998 19.2403 13.9998 18.3413V18.0003H9.99985V18.3413C9.99985 19.2403 10.9158 20.0003 11.9998 20.0003Z" fill="white"/>
</mask>
<g mask="url(#mask0_49_2233)">
</g>
</svg>
