<svg width="24" height="24" viewBox="0 0 24 24" fill="none" xmlns="http://www.w3.org/2000/svg">
<path fill-rule="evenodd" clip-rule="evenodd" d="M18.7194 13.404L20.5204 15.208C20.9894 15.677 21.1274 16.377 20.8724 16.991C20.6184 17.604 20.0264 18 19.3624 18H15.9994V18.341C15.9994 20.359 14.2054 22 11.9994 22C9.79336 22 7.99936 20.359 7.99936 18.341V18H4.63636C3.97236 18 3.37936 17.604 3.12436 16.99C2.87036 16.377 3.00936 15.678 3.47836 15.208L5.27936 13.404L5.28036 8.72696C5.28036 6.79296 6.11836 4.94896 7.58236 3.66696C9.03736 2.39096 10.9774 1.80396 12.8994 2.05996C16.2174 2.49896 18.7194 5.45596 18.7194 8.93696V13.404ZM5.51436 16L6.69436 14.818C7.07236 14.44 7.28036 13.938 7.28036 13.404V8.72696C7.28036 7.36996 7.87036 6.07296 8.90036 5.17096C9.93836 4.26096 11.2604 3.86096 12.6374 4.04196C14.9644 4.35096 16.7194 6.45496 16.7194 8.93695V13.404C16.7194 13.938 16.9274 14.44 17.3044 14.817L18.4854 16H5.51436ZM13.9994 18.341C13.9994 19.24 13.0834 20 11.9994 20C10.9154 20 9.99936 19.24 9.99936 18.341V18H13.9994V18.341Z" fill="#344054"/>
</svg>
