<svg width="24" height="24" viewBox="0 0 24 24" fill="none" xmlns="http://www.w3.org/2000/svg">
<path fill-rule="evenodd" clip-rule="evenodd" d="M17.6442 8.21654L13.6292 12.0065L17.6162 15.8515C17.8632 16.0885 17.9892 16.4205 17.9612 16.7615C17.9342 17.1035 17.7542 17.4125 17.4692 17.6085L12.8272 20.7945C12.6262 20.9315 12.3952 21.0005 12.1632 21.0005C11.9752 21.0005 11.7872 20.9555 11.6132 20.8645C11.2352 20.6645 11.0002 20.2775 11.0002 19.8535V13.5595L7.7842 17.6205C7.5862 17.8705 7.2942 17.9995 7.0002 17.9995C6.7822 17.9995 6.5632 17.9295 6.3792 17.7845C5.9462 17.4405 5.8732 16.8125 6.2162 16.3795L9.7212 11.9525L6.2472 7.62554C5.9012 7.19554 5.9702 6.56554 6.4012 6.22054C6.8322 5.87454 7.4602 5.94254 7.8072 6.37454L11.0002 10.3515V4.14554C11.0002 3.72054 11.2372 3.33254 11.6182 3.13354C12.0082 2.93054 12.4742 2.95854 12.8332 3.21054L17.5072 6.45454C17.7922 6.65154 17.9702 6.96154 17.9972 7.30454C18.0232 7.64654 17.8952 7.97854 17.6442 8.21654ZM13.0002 5.76054L15.4972 7.49354L13.0002 9.85054V5.76054ZM13.0002 18.2495V14.1785L15.4672 16.5575L13.0002 18.2495Z" fill="#344054"/>
</svg>
