<svg width="24" height="24" viewBox="0 0 24 24" fill="none" xmlns="http://www.w3.org/2000/svg">
<path fill-rule="evenodd" clip-rule="evenodd" d="M19.9386 4.111C20.3196 4.013 20.7106 4.098 21.0176 4.336C21.3246 4.575 21.4996 4.935 21.4996 5.322V17.008C21.4996 17.579 21.1146 18.077 20.5616 18.219L12.9996 20.16V5.894L19.9386 4.111ZM4.058 4.1107L11 5.8937V20.1607L3.438 18.2187C2.886 18.0777 2.5 17.5797 2.5 17.0077V5.3227C2.5 4.9347 2.676 4.5757 2.982 4.3357C3.288 4.0987 3.681 4.0157 4.058 4.1107Z" fill="#344054"/>
<mask id="mask0_49_3023" style="mask-type:luminance" maskUnits="userSpaceOnUse" x="2" y="4" width="20" height="17">
<path fill-rule="evenodd" clip-rule="evenodd" d="M19.9386 4.111C20.3196 4.013 20.7106 4.098 21.0176 4.336C21.3246 4.575 21.4996 4.935 21.4996 5.322V17.008C21.4996 17.579 21.1146 18.077 20.5616 18.219L12.9996 20.16V5.894L19.9386 4.111ZM4.058 4.1107L11 5.8937V20.1607L3.438 18.2187C2.886 18.0777 2.5 17.5797 2.5 17.0077V5.3227C2.5 4.9347 2.676 4.5757 2.982 4.3357C3.288 4.0987 3.681 4.0157 4.058 4.1107Z" fill="white"/>
</mask>
<g mask="url(#mask0_49_3023)">
</g>
</svg>
