<svg width="24" height="24" viewBox="0 0 24 24" fill="none" xmlns="http://www.w3.org/2000/svg">
<path fill-rule="evenodd" clip-rule="evenodd" d="M5.50749 20.8699C5.66049 20.9569 5.83049 20.9999 6.00049 20.9999C6.17849 20.9999 6.35649 20.9519 6.51449 20.8579L11.8365 17.6629L17.5085 20.8709C17.8185 21.0469 18.1965 21.0439 18.5045 20.8639C18.8115 20.6849 19.0005 20.3559 19.0005 19.9999V5.33388C19.0005 4.04688 18.0135 2.99988 16.8005 2.99988H7.20049C5.98749 2.99988 5.00049 4.04688 5.00049 5.33388V19.9999C5.00049 20.3599 5.19449 20.6929 5.50749 20.8699ZM12.3135 15.6349C12.1605 15.5489 11.9905 15.5059 11.8215 15.5059C11.6435 15.5059 11.4655 15.5539 11.3065 15.6489L7.00049 18.2339V5.33388C7.00049 5.13288 7.12049 4.99988 7.20049 4.99988H16.8005C16.8795 4.99988 17.0005 5.13288 17.0005 5.33388V18.2859L12.3135 15.6349Z" fill="#344054"/>
</svg>
