<svg width="24" height="24" viewBox="0 0 24 24" fill="none" xmlns="http://www.w3.org/2000/svg">
<path fill-rule="evenodd" clip-rule="evenodd" d="M17 21H7V7H8V5.5C8 4.122 9.122 3 10.5 3H13.5C14.878 3 16 4.122 16 5.5V7H17V21ZM10.5 5C10.224 5 10 5.224 10 5.5V7H14V5.5C14 5.224 13.776 5 13.5 5H10.5ZM19 7V21C20.654 21 22 19.654 22 18V10C22 8.346 20.654 7 19 7ZM2 10C2 8.346 3.346 7 5 7V21C3.346 21 2 19.654 2 18V10Z" fill="#344054"/>
<mask id="mask0_49_2701" style="mask-type:luminance" maskUnits="userSpaceOnUse" x="2" y="3" width="20" height="18">
<path fill-rule="evenodd" clip-rule="evenodd" d="M17 21H7V7H8V5.5C8 4.122 9.122 3 10.5 3H13.5C14.878 3 16 4.122 16 5.5V7H17V21ZM10.5 5C10.224 5 10 5.224 10 5.5V7H14V5.5C14 5.224 13.776 5 13.5 5H10.5ZM19 7V21C20.654 21 22 19.654 22 18V10C22 8.346 20.654 7 19 7ZM2 10C2 8.346 3.346 7 5 7V21C3.346 21 2 19.654 2 18V10Z" fill="white"/>
</mask>
<g mask="url(#mask0_49_2701)">
</g>
</svg>
