<svg width="24" height="24" viewBox="0 0 24 24" fill="none" xmlns="http://www.w3.org/2000/svg">
<path fill-rule="evenodd" clip-rule="evenodd" d="M16 7H19C20.654 7 22 8.346 22 10V18C22 19.654 20.654 21 19 21H5C3.346 21 2 19.654 2 18V10C2 8.346 3.346 7 5 7H8V5.5C8 4.122 9.122 3 10.5 3H13.5C14.878 3 16 4.122 16 5.5V7ZM10 5.5C10 5.224 10.224 5 10.5 5H13.5C13.776 5 14 5.224 14 5.5V7H10V5.5ZM9 19H15V9H9V19ZM19 19C19.551 19 20 18.551 20 18V10C20 9.449 19.551 9 19 9H17V19H19ZM4 18V10C4 9.449 4.449 9 5 9H7V19H5C4.449 19 4 18.551 4 18Z" fill="#344054"/>
</svg>
