<svg width="24" height="24" viewBox="0 0 24 24" fill="none" xmlns="http://www.w3.org/2000/svg">
<path fill-rule="evenodd" clip-rule="evenodd" d="M6 3H18C19.654 3 21 4.346 21 6V9V11V18C21 19.654 19.654 21 18 21H6C4.346 21 3 19.654 3 18V11V9V6C3 4.346 4.346 3 6 3ZM5 6V9H19V6C19 5.448 18.551 5 18 5H6C5.449 5 5 5.448 5 6ZM8 6C7.448 6 7 6.447 7 7C7 7.553 7.448 8 8 8C8.552 8 9 7.553 9 7C9 6.447 8.552 6 8 6ZM12 6C11.448 6 11 6.447 11 7C11 7.553 11.448 8 12 8C12.552 8 13 7.553 13 7C13 6.447 12.552 6 12 6ZM19 18C19 18.552 18.551 19 18 19H6C5.449 19 5 18.552 5 18V11H19V18Z" fill="#344054"/>
</svg>
