<svg width="24" height="24" viewBox="0 0 24 24" fill="none" xmlns="http://www.w3.org/2000/svg">
<path fill-rule="evenodd" clip-rule="evenodd" d="M6 3.03467H18C19.654 3.03467 21 4.38067 21 6.03467V9.03467V11.0347V18.0347C21 19.6887 19.654 21.0347 18 21.0347H6C4.346 21.0347 3 19.6887 3 18.0347V11.0347V9.03467V6.03467C3 4.38067 4.346 3.03467 6 3.03467ZM9 7.03467C9 6.48167 8.552 6.03467 8 6.03467C7.448 6.03467 7 6.48167 7 7.03467C7 7.58767 7.448 8.03467 8 8.03467C8.552 8.03467 9 7.58767 9 7.03467ZM18 19.0347C18.551 19.0347 19 18.5867 19 18.0347V11.0347H5V18.0347C5 18.5867 5.449 19.0347 6 19.0347H18ZM12 6.03467C12.552 6.03467 13 6.48167 13 7.03467C13 7.58767 12.552 8.03467 12 8.03467C11.448 8.03467 11 7.58767 11 7.03467C11 6.48167 11.448 6.03467 12 6.03467Z" fill="#344054"/>
<mask id="mask0_49_2665" style="mask-type:luminance" maskUnits="userSpaceOnUse" x="3" y="3" width="18" height="19">
<path fill-rule="evenodd" clip-rule="evenodd" d="M6 3.03467H18C19.654 3.03467 21 4.38067 21 6.03467V9.03467V11.0347V18.0347C21 19.6887 19.654 21.0347 18 21.0347H6C4.346 21.0347 3 19.6887 3 18.0347V11.0347V9.03467V6.03467C3 4.38067 4.346 3.03467 6 3.03467ZM9 7.03467C9 6.48167 8.552 6.03467 8 6.03467C7.448 6.03467 7 6.48167 7 7.03467C7 7.58767 7.448 8.03467 8 8.03467C8.552 8.03467 9 7.58767 9 7.03467ZM18 19.0347C18.551 19.0347 19 18.5867 19 18.0347V11.0347H5V18.0347C5 18.5867 5.449 19.0347 6 19.0347H18ZM12 6.03467C12.552 6.03467 13 6.48167 13 7.03467C13 7.58767 12.552 8.03467 12 8.03467C11.448 8.03467 11 7.58767 11 7.03467C11 6.48167 11.448 6.03467 12 6.03467Z" fill="white"/>
</mask>
<g mask="url(#mask0_49_2665)">
</g>
</svg>
