<svg width="24" height="24" viewBox="0 0 24 24" fill="none" xmlns="http://www.w3.org/2000/svg">
<path fill-rule="evenodd" clip-rule="evenodd" d="M19.1807 4.82361C19.7177 5.35961 20.0097 6.07161 19.9997 6.82761C20.0097 7.55661 19.7177 8.26861 19.1797 8.80661L12.5707 15.4136C12.5716 15.4482 12.5754 15.4817 12.5792 15.5151C12.5837 15.555 12.5882 15.5947 12.5877 15.6356C12.5467 17.9686 10.6167 19.8996 8.28468 19.9406L5.01868 19.9996H4.99968C4.73568 19.9996 4.48068 19.8946 4.29268 19.7066C4.10168 19.5156 3.99468 19.2536 3.99968 18.9826L4.05668 15.7166C4.09568 13.3856 6.02668 11.4546 8.36068 11.4126C8.40223 11.4132 8.44286 11.4183 8.48359 11.4235C8.51638 11.4277 8.54923 11.4318 8.58268 11.4336L15.1957 4.82361C16.2557 3.75961 18.1187 3.76261 19.1807 4.82361ZM17.7657 7.39261L11.8987 13.2576C11.7477 13.0316 11.5747 12.8176 11.3777 12.6216C11.1807 12.4246 10.9667 12.2526 10.7407 12.1046L16.6097 6.23761C16.9157 5.93061 17.4577 5.92961 17.7667 6.23861C17.9197 6.39161 18.0027 6.59161 17.9997 6.82761C18.0027 7.03861 17.9187 7.23861 17.7657 7.39261ZM8.24568 17.9406L6.01768 17.9816L6.05668 15.7506C6.07768 14.4846 7.12668 13.4346 8.39568 13.4126C8.40268 13.4126 8.40918 13.4124 8.41568 13.4121C8.42218 13.4119 8.42868 13.4116 8.43568 13.4116C9.01968 13.4116 9.56068 13.6316 9.96368 14.0356C10.3767 14.4476 10.5977 15.0036 10.5877 15.6016C10.5667 16.8696 9.51568 17.9186 8.24568 17.9406Z" fill="#344054"/>
</svg>
