<svg width="24" height="24" viewBox="0 0 24 24" fill="none" xmlns="http://www.w3.org/2000/svg">
<path fill-rule="evenodd" clip-rule="evenodd" d="M16.3758 4.66785C17.1528 3.89085 18.4228 3.75285 19.2618 4.46085C19.7548 4.87785 20.0078 5.46285 19.9998 6.05685C20.0068 6.59385 19.8018 7.12285 19.3978 7.52685L12.9128 14.0178C12.7298 14.2018 12.4318 14.2018 12.2478 14.0178L9.97478 11.7428C9.79078 11.5588 9.79078 11.2598 9.97478 11.0758L16.3758 4.66785ZM4.05408 16.4138C4.08608 14.5778 5.32908 12.9178 7.12408 12.5478C10.0471 11.9448 12.4621 14.7418 11.1671 17.7378C10.5831 19.0878 9.19608 19.9148 7.72708 19.9408H7.72508L4.47908 19.9998C4.21308 20.0048 3.99508 19.7868 4.00008 19.5208L4.05408 16.4138Z" fill="#344054"/>
<mask id="mask0_49_3169" style="mask-type:luminance" maskUnits="userSpaceOnUse" x="4" y="4" width="16" height="16">
<path fill-rule="evenodd" clip-rule="evenodd" d="M16.3758 4.66785C17.1528 3.89085 18.4228 3.75285 19.2618 4.46085C19.7548 4.87785 20.0078 5.46285 19.9998 6.05685C20.0068 6.59385 19.8018 7.12285 19.3978 7.52685L12.9128 14.0178C12.7298 14.2018 12.4318 14.2018 12.2478 14.0178L9.97478 11.7428C9.79078 11.5588 9.79078 11.2598 9.97478 11.0758L16.3758 4.66785ZM4.05408 16.4138C4.08608 14.5778 5.32908 12.9178 7.12408 12.5478C10.0471 11.9448 12.4621 14.7418 11.1671 17.7378C10.5831 19.0878 9.19608 19.9148 7.72708 19.9408H7.72508L4.47908 19.9998C4.21308 20.0048 3.99508 19.7868 4.00008 19.5208L4.05408 16.4138Z" fill="white"/>
</mask>
<g mask="url(#mask0_49_3169)">
</g>
</svg>
