<svg width="24" height="24" viewBox="0 0 24 24" fill="none" xmlns="http://www.w3.org/2000/svg">
<path fill-rule="evenodd" clip-rule="evenodd" d="M17 4H18C19.654 4 21 5.346 21 7V19C21 20.654 19.654 22 18 22H6C4.346 22 3 20.654 3 19V7C3 5.346 4.346 4 6 4H7V3C7 2.45 7.45 2 8 2C8.55 2 9 2.45 9 3V4H15V3C15 2.45 15.45 2 16 2C16.55 2 17 2.45 17 3V4ZM5 11H19V7C19 6.449 18.551 6 18 6H17V7C17 7.55 16.55 8 16 8C15.45 8 15 7.55 15 7V6H9V7C9 7.55 8.55 8 8 8C7.45 8 7 7.55 7 7V6H6C5.449 6 5 6.449 5 7V11ZM12 17H16C16.55 17 17 16.55 17 16C17 15.45 16.55 15 16 15H12C11.45 15 11 15.45 11 16C11 16.55 11.45 17 12 17ZM8 17C7.45 17 7 16.55 7 16C7 15.45 7.45 15 8 15C8.55 15 9 15.45 9 16C9 16.55 8.55 17 8 17Z" fill="#344054"/>
<mask id="mask0_49_3402" style="mask-type:luminance" maskUnits="userSpaceOnUse" x="3" y="2" width="18" height="20">
<path fill-rule="evenodd" clip-rule="evenodd" d="M17 4H18C19.654 4 21 5.346 21 7V19C21 20.654 19.654 22 18 22H6C4.346 22 3 20.654 3 19V7C3 5.346 4.346 4 6 4H7V3C7 2.45 7.45 2 8 2C8.55 2 9 2.45 9 3V4H15V3C15 2.45 15.45 2 16 2C16.55 2 17 2.45 17 3V4ZM5 11H19V7C19 6.449 18.551 6 18 6H17V7C17 7.55 16.55 8 16 8C15.45 8 15 7.55 15 7V6H9V7C9 7.55 8.55 8 8 8C7.45 8 7 7.55 7 7V6H6C5.449 6 5 6.449 5 7V11ZM12 17H16C16.55 17 17 16.55 17 16C17 15.45 16.55 15 16 15H12C11.45 15 11 15.45 11 16C11 16.55 11.45 17 12 17ZM8 17C7.45 17 7 16.55 7 16C7 15.45 7.45 15 8 15C8.55 15 9 15.45 9 16C9 16.55 8.55 17 8 17Z" fill="white"/>
</mask>
<g mask="url(#mask0_49_3402)">
</g>
</svg>
