<svg width="24" height="24" viewBox="0 0 24 24" fill="none" xmlns="http://www.w3.org/2000/svg">
<path fill-rule="evenodd" clip-rule="evenodd" d="M16 7H19C20.654 7 22 8.346 22 10V18C22 19.654 20.654 21 19 21H5C3.346 21 2 19.654 2 18V10C2 8.346 3.346 7 5 7H8V5.5C8 4.122 9.121 3 10.5 3H13.5C14.879 3 16 4.122 16 5.5V7ZM10 5.5C10 5.224 10.225 5 10.5 5H13.5C13.775 5 14 5.224 14 5.5V7H10V5.5ZM8.5 14C8.5 15.93 10.07 17.5 12 17.5C13.93 17.5 15.5 15.93 15.5 14C15.5 12.07 13.93 10.5 12 10.5C10.07 10.5 8.5 12.07 8.5 14ZM10.5 14C10.5 13.173 11.173 12.5 12 12.5C12.827 12.5 13.5 13.173 13.5 14C13.5 14.827 12.827 15.5 12 15.5C11.173 15.5 10.5 14.827 10.5 14Z" fill="#344054"/>
<mask id="mask0_49_2444" style="mask-type:luminance" maskUnits="userSpaceOnUse" x="2" y="3" width="20" height="18">
<path fill-rule="evenodd" clip-rule="evenodd" d="M16 7H19C20.654 7 22 8.346 22 10V18C22 19.654 20.654 21 19 21H5C3.346 21 2 19.654 2 18V10C2 8.346 3.346 7 5 7H8V5.5C8 4.122 9.121 3 10.5 3H13.5C14.879 3 16 4.122 16 5.5V7ZM10 5.5C10 5.224 10.225 5 10.5 5H13.5C13.775 5 14 5.224 14 5.5V7H10V5.5ZM8.5 14C8.5 15.93 10.07 17.5 12 17.5C13.93 17.5 15.5 15.93 15.5 14C15.5 12.07 13.93 10.5 12 10.5C10.07 10.5 8.5 12.07 8.5 14ZM10.5 14C10.5 13.173 11.173 12.5 12 12.5C12.827 12.5 13.5 13.173 13.5 14C13.5 14.827 12.827 15.5 12 15.5C11.173 15.5 10.5 14.827 10.5 14Z" fill="white"/>
</mask>
<g mask="url(#mask0_49_2444)">
</g>
</svg>
