<svg width="24" height="24" viewBox="0 0 24 24" fill="none" xmlns="http://www.w3.org/2000/svg">
<path fill-rule="evenodd" clip-rule="evenodd" d="M16.9795 7.519L21.6045 11.219C21.8415 11.409 21.9795 11.696 21.9795 12V16C21.9795 16.553 21.5325 17 20.9795 17H20.7945C20.9075 17.314 20.9795 17.647 20.9795 18C20.9795 19.654 19.6335 21 17.9795 21C16.3255 21 14.9795 19.654 14.9795 18C14.9795 17.647 15.0515 17.314 15.1645 17H11.9795H8.79449C8.90749 17.314 8.97949 17.647 8.97949 18C8.97949 19.654 7.63349 21 5.97949 21C4.32549 21 2.97949 19.654 2.97949 18C2.97949 17.604 3.06049 17.228 3.20049 16.882C2.49249 16.609 1.97949 15.873 1.97949 15V5C1.97949 3.897 2.79249 3 3.79149 3H15.1665C16.1665 3 16.9795 3.897 16.9795 5V7.519ZM19.9795 12.48V15H16.9795V10.081L19.9795 12.48ZM5.97949 19C6.53149 19 6.97949 18.552 6.97949 18C6.97949 17.448 6.53149 17 5.97949 17C5.42749 17 4.97949 17.448 4.97949 18C4.97949 18.552 5.42749 19 5.97949 19ZM17.9795 19C18.5315 19 18.9795 18.552 18.9795 18C18.9795 17.448 18.5315 17 17.9795 17C17.4275 17 16.9795 17.448 16.9795 18C16.9795 18.552 17.4275 19 17.9795 19Z" fill="#344054"/>
<mask id="mask0_49_2647" style="mask-type:luminance" maskUnits="userSpaceOnUse" x="1" y="3" width="21" height="18">
<path fill-rule="evenodd" clip-rule="evenodd" d="M16.9795 7.519L21.6045 11.219C21.8415 11.409 21.9795 11.696 21.9795 12V16C21.9795 16.553 21.5325 17 20.9795 17H20.7945C20.9075 17.314 20.9795 17.647 20.9795 18C20.9795 19.654 19.6335 21 17.9795 21C16.3255 21 14.9795 19.654 14.9795 18C14.9795 17.647 15.0515 17.314 15.1645 17H11.9795H8.79449C8.90749 17.314 8.97949 17.647 8.97949 18C8.97949 19.654 7.63349 21 5.97949 21C4.32549 21 2.97949 19.654 2.97949 18C2.97949 17.604 3.06049 17.228 3.20049 16.882C2.49249 16.609 1.97949 15.873 1.97949 15V5C1.97949 3.897 2.79249 3 3.79149 3H15.1665C16.1665 3 16.9795 3.897 16.9795 5V7.519ZM19.9795 12.48V15H16.9795V10.081L19.9795 12.48ZM5.97949 19C6.53149 19 6.97949 18.552 6.97949 18C6.97949 17.448 6.53149 17 5.97949 17C5.42749 17 4.97949 17.448 4.97949 18C4.97949 18.552 5.42749 19 5.97949 19ZM17.9795 19C18.5315 19 18.9795 18.552 18.9795 18C18.9795 17.448 18.5315 17 17.9795 17C17.4275 17 16.9795 17.448 16.9795 18C16.9795 18.552 17.4275 19 17.9795 19Z" fill="white"/>
</mask>
<g mask="url(#mask0_49_2647)">
</g>
</svg>
