<svg width="24" height="24" viewBox="0 0 24 24" fill="none" xmlns="http://www.w3.org/2000/svg">
<path fill-rule="evenodd" clip-rule="evenodd" d="M17 7.519L21.625 11.219C21.862 11.409 22 11.696 22 12V16C22 16.553 21.553 17 21 17H20.815C20.928 17.314 21 17.647 21 18C21 19.654 19.654 21 18 21C16.346 21 15 19.654 15 18C15 17.647 15.072 17.314 15.185 17H12H8.815C8.928 17.314 9 17.647 9 18C9 19.654 7.654 21 6 21C4.346 21 3 19.654 3 18C3 17.604 3.081 17.228 3.221 16.882C2.513 16.609 2 15.873 2 15V5C2 3.897 2.813 3 3.812 3H15.187C16.187 3 17 3.897 17 5V7.519ZM12 15H4L4.016 5H15L14.984 15H12ZM19 18C19 18.552 18.552 19 18 19C17.448 19 17 18.552 17 18C17 17.448 17.448 17 18 17C18.552 17 19 17.448 19 18ZM6 19C6.552 19 7 18.552 7 18C7 17.448 6.552 17 6 17C5.448 17 5 17.448 5 18C5 18.552 5.448 19 6 19ZM20 12.48V15H17V10.081L20 12.48Z" fill="#344054"/>
</svg>
