<svg width="24" height="24" viewBox="0 0 24 24" fill="none" xmlns="http://www.w3.org/2000/svg">
<g clip-path="url(#clip0_47_1035)">
<path d="M17.9999 9.98006L5.99993 22.0001H17.9999H21.9999V5.97006L17.9999 9.98006ZM19.9999 20.0001H17.9999V12.7801L19.9999 10.7801V20.0001ZM5.21993 7.22006L3.92993 5.93006C7.82993 2.02006 14.1699 2.02006 18.0799 5.93006L16.7899 7.22006C13.5999 4.03006 8.40993 4.03006 5.21993 7.22006ZM12.9299 11.0701L10.9999 13.0001L9.06993 11.0701C10.1399 10.0101 11.8599 10.0101 12.9299 11.0701ZM14.2199 9.79006C12.4399 8.02006 9.55993 8.02006 7.78993 9.79006L6.49993 8.50006C8.97993 6.02006 13.0199 6.02006 15.4999 8.50006L14.2199 9.79006Z" fill="#344054"/>
</g>
<defs>
<clipPath id="clip0_47_1035">
<rect width="24" height="24" fill="white"/>
</clipPath>
</defs>
</svg>
