<svg width="24" height="24" viewBox="0 0 24 24" fill="none" xmlns="http://www.w3.org/2000/svg">
<g clip-path="url(#clip0_1175_7303)">
<path d="M2.72498 21.275V15.5H4.69998V19.3H8.49998V21.275H2.72498ZM15.5 21.275V19.3H19.3V15.5H21.275V21.275H15.5ZM7.12498 15.75L5.77498 14.425L7.24998 12.925H1.72498V11.05H7.24998L5.77498 9.57498L7.12498 8.24998L10.85 12L7.12498 15.75ZM16.9 15.75L13.15 12L16.9 8.24998L18.25 9.57498L16.75 11.05H22.275V12.925H16.75L18.25 14.425L16.9 15.75ZM2.72498 8.49998V2.72498H8.49998V4.69998H4.69998V8.49998H2.72498ZM19.3 8.49998V4.69998H15.5V2.72498H21.275V8.49998H19.3Z" fill="#344054"/>
</g>
<defs>
<clipPath id="clip0_1175_7303">
<rect width="24" height="24" fill="white"/>
</clipPath>
</defs>
</svg>
