<svg width="48" height="48" viewBox="0 0 48 48" fill="none" xmlns="http://www.w3.org/2000/svg">
<path d="M30.3515 6.08494C28.2947 5.35766 26.0811 4.96191 23.7752 4.96191C12.8826 4.96191 4.05249 13.7921 4.05249 24.6846C4.05249 35.577 12.8826 44.4073 23.7752 44.4073C34.6676 44.4073 43.4978 35.577 43.4978 24.6846C43.4978 23.5109 43.3953 22.3611 43.1987 21.2437C42.8621 21.4766 42.5074 21.6914 42.1353 21.8861C41.2665 22.3406 40.3615 22.6544 39.4462 22.8359C39.5169 23.4423 39.5533 24.0592 39.5533 24.6846C39.5533 33.3987 32.4892 40.4627 23.7752 40.4627C15.0611 40.4627 7.99703 33.3987 7.99703 24.6846C7.99703 15.9706 15.0611 8.90645 23.7752 8.90645C25.3002 8.90645 26.7746 9.1228 28.1695 9.52648C28.6473 8.25626 29.3837 7.08022 30.3515 6.08494Z" fill="#1D2939"/>
<path d="M29.6312 19.1722L21.808 26.9953L16.2297 21.4167L13.4405 24.2061L21.808 32.5737L32.631 21.7507C31.4892 21.1124 30.4637 20.2449 29.6312 19.1722Z" fill="#1D2939"/>
<ellipse cx="37.5101" cy="13.0432" rx="5.98789" ry="5.98789" transform="rotate(-117.615 37.5101 13.0432)" fill="#32D200"/>
</svg>
