<svg width="24" height="24" viewBox="0 0 24 24" fill="none" xmlns="http://www.w3.org/2000/svg">
<path fill-rule="evenodd" clip-rule="evenodd" d="M2 12C2 6.486 6.486 2 12 2C17.514 2 22 6.486 22 12C22 17.514 17.514 22 12 22C6.486 22 2 17.514 2 12ZM14.707 14.707C15.098 14.316 15.098 13.684 14.707 13.293L13.414 12L14.707 10.707C15.098 10.316 15.098 9.684 14.707 9.293C14.316 8.902 13.684 8.902 13.293 9.293L12 10.586L10.707 9.293C10.316 8.902 9.684 8.902 9.293 9.293C8.902 9.684 8.902 10.316 9.293 10.707L10.586 12L9.293 13.293C8.902 13.684 8.902 14.316 9.293 14.707C9.488 14.902 9.744 15 10 15C10.256 15 10.512 14.902 10.707 14.707L12 13.414L13.293 14.707C13.488 14.902 13.744 15 14 15C14.256 15 14.512 14.902 14.707 14.707Z" fill="#344054"/>
<mask id="mask0_49_2537" style="mask-type:luminance" maskUnits="userSpaceOnUse" x="2" y="2" width="20" height="20">
<path fill-rule="evenodd" clip-rule="evenodd" d="M2 12C2 6.486 6.486 2 12 2C17.514 2 22 6.486 22 12C22 17.514 17.514 22 12 22C6.486 22 2 17.514 2 12ZM14.707 14.707C15.098 14.316 15.098 13.684 14.707 13.293L13.414 12L14.707 10.707C15.098 10.316 15.098 9.684 14.707 9.293C14.316 8.902 13.684 8.902 13.293 9.293L12 10.586L10.707 9.293C10.316 8.902 9.684 8.902 9.293 9.293C8.902 9.684 8.902 10.316 9.293 10.707L10.586 12L9.293 13.293C8.902 13.684 8.902 14.316 9.293 14.707C9.488 14.902 9.744 15 10 15C10.256 15 10.512 14.902 10.707 14.707L12 13.414L13.293 14.707C13.488 14.902 13.744 15 14 15C14.256 15 14.512 14.902 14.707 14.707Z" fill="white"/>
</mask>
<g mask="url(#mask0_49_2537)">
</g>
</svg>
