<svg width="24" height="24" viewBox="0 0 24 24" fill="none" xmlns="http://www.w3.org/2000/svg">
<g clip-path="url(#clip0_47_655)">
<path d="M6.82989 4.00006H18.9999C20.0999 4.00006 20.9999 4.90006 20.9999 6.00006V18.0001C20.9999 18.0501 20.9899 18.1001 20.9799 18.1601L17.5999 14.7801C17.8399 14.5901 17.9999 14.3201 17.9999 14.0001V13.0001H16.4999V13.5001H16.3299L14.4999 11.6701V10.5001H16.4999V11.0001H17.9999V10.0001C17.9999 9.45006 17.5499 9.00006 16.9999 9.00006H13.9999C13.4499 9.00006 12.9999 9.45006 12.9999 10.0001V10.1701L6.82989 4.00006ZM19.7799 22.6101L17.1699 20.0001H4.99989C3.88989 20.0001 2.99989 19.1001 2.99989 18.0001V6.00006C2.99989 5.95006 3.01989 5.90006 3.01989 5.85006L1.38989 4.22006L2.79989 2.81006L21.1799 21.1901L19.7799 22.6101ZM10.9999 13.8301L10.1699 13.0001H9.49989V13.5001H7.49989V10.5001H7.66989L6.39989 9.22006C6.15989 9.41006 5.99989 9.68006 5.99989 10.0001V14.0001C5.99989 14.5501 6.44989 15.0001 6.99989 15.0001H9.99989C10.5499 15.0001 10.9999 14.5501 10.9999 14.0001V13.8301Z" fill="#344054"/>
</g>
<defs>
<clipPath id="clip0_47_655">
<rect width="24" height="24" fill="white"/>
</clipPath>
</defs>
</svg>
