<svg width="24" height="24" viewBox="0 0 24 24" fill="none" xmlns="http://www.w3.org/2000/svg">
<path fill-rule="evenodd" clip-rule="evenodd" d="M12 2.99988C14.581 2.99988 16.855 4.66088 17.675 7.04488C20.114 7.37588 22 9.47188 22 11.9999C22 13.2209 21.556 14.3959 20.75 15.3089C20.552 15.5319 20.277 15.6469 20 15.6469C19.765 15.6469 19.529 15.5649 19.338 15.3969C18.925 15.0299 18.885 14.3989 19.251 13.9839C19.734 13.4379 20 12.7319 20 11.9999C20 10.3459 18.654 8.99988 17 8.99988H16.9C16.424 8.99988 16.014 8.66388 15.92 8.19688C15.546 6.34488 13.898 4.99988 12 4.99988C10.103 4.99988 8.454 6.34488 8.081 8.19688C7.987 8.66388 7.576 8.99988 7.1 8.99988H7C5.346 8.99988 4 10.3459 4 11.9999C4 12.7319 4.266 13.4379 4.75 13.9839C5.115 14.3989 5.076 15.0299 4.662 15.3969C4.248 15.7629 3.616 15.7219 3.251 15.3089C2.444 14.3959 2 13.2209 2 11.9999C2 9.47188 3.886 7.37588 6.325 7.04488C7.146 4.66088 9.42 2.99988 12 2.99988ZM11.3052 11.28C11.6992 10.904 12.3222 10.907 12.7072 11.293L15.7072 14.293C16.0982 14.684 16.0982 15.316 15.7072 15.707C15.5122 15.902 15.2562 16 15.0002 16C14.7442 16 14.4882 15.902 14.2932 15.707L13.0002 14.414V20C13.0002 20.553 12.5522 21 12.0002 21C11.4482 21 11.0002 20.553 11.0002 20V14.356L9.6952 15.616C9.2982 16.001 8.6652 15.988 8.2812 15.591C7.8972 15.193 7.9082 14.561 8.3052 14.177L11.3052 11.28Z" fill="#344054"/>
</svg>
