<svg width="24" height="24" viewBox="0 0 24 24" fill="none" xmlns="http://www.w3.org/2000/svg">
<path fill-rule="evenodd" clip-rule="evenodd" d="M12 2.99988C14.581 2.99988 16.855 4.66088 17.675 7.04488C20.114 7.37588 22 9.47188 22 11.9999C22 13.2209 21.556 14.3959 20.75 15.3089C20.552 15.5319 20.277 15.6469 20 15.6469C19.765 15.6469 19.529 15.5649 19.338 15.3969C18.925 15.0299 18.885 14.3989 19.251 13.9839C19.734 13.4379 20 12.7319 20 11.9999C20 10.3459 18.654 8.99988 17 8.99988H16.9C16.424 8.99988 16.014 8.66388 15.92 8.19688C15.546 6.34488 13.898 4.99988 12 4.99988C10.103 4.99988 8.454 6.34488 8.081 8.19688C7.987 8.66388 7.576 8.99988 7.1 8.99988H7C5.346 8.99988 4 10.3459 4 11.9999C4 12.7319 4.266 13.4379 4.75 13.9839C5.115 14.3989 5.076 15.0299 4.662 15.3969C4.247 15.7629 3.616 15.7219 3.251 15.3089C2.444 14.3959 2 13.2209 2 11.9999C2 9.47188 3.886 7.37588 6.325 7.04488C7.146 4.66088 9.42 2.99988 12 2.99988ZM13.0004 17.6438L14.3054 16.3838C14.7034 16.0008 15.3364 16.0118 15.7194 16.4088C16.1034 16.8068 16.0924 17.4398 15.6954 17.8228L12.6954 20.7198C12.5004 20.9058 12.2504 20.9998 12.0004 20.9998C11.7444 20.9998 11.4884 20.9028 11.2934 20.7068L8.2934 17.7068C7.9024 17.3168 7.9024 16.6838 8.2934 16.2928C8.6834 15.9028 9.3164 15.9028 9.7074 16.2928L11.0004 17.5858V11.9998C11.0004 11.4468 11.4484 10.9998 12.0004 10.9998C12.5524 10.9998 13.0004 11.4468 13.0004 11.9998V17.6438Z" fill="#344054"/>
</svg>
