<svg width="24" height="24" viewBox="0 0 24 24" fill="none" xmlns="http://www.w3.org/2000/svg">
<path fill-rule="evenodd" clip-rule="evenodd" d="M21.8462 10.8274C21.8675 10.8954 21.8888 10.9635 21.903 11.0342C21.965 11.3472 22 11.6692 22 12.0002C22 12.3082 21.964 12.6112 21.908 12.9102C21.8956 12.9784 21.879 13.0437 21.8623 13.1091C21.8547 13.1387 21.8472 13.1683 21.84 13.1982C21.79 13.3972 21.731 13.5922 21.658 13.7832C21.62 13.8822 21.581 13.9792 21.537 14.0752C21.45 14.2652 21.349 14.4472 21.238 14.6262C21.2208 14.654 21.2043 14.6822 21.1879 14.7103C21.1606 14.7573 21.1333 14.8042 21.102 14.8492C21.0929 14.8622 21.0851 14.8757 21.0774 14.889C21.0691 14.9034 21.0609 14.9177 21.051 14.9312C21.0433 14.9423 21.0325 14.9494 21.0219 14.9563C21.0133 14.962 21.0047 14.9676 20.998 14.9752C20.086 16.1972 18.642 17.0002 17 17.0002H16.988C16.964 16.5342 16.787 16.0752 16.439 15.7152C16.065 15.3262 15.54 15.1032 15 15.1032C14.644 15.1032 14.301 15.1962 14 15.3712V12.0002C14 10.8972 13.103 10.0002 12 10.0002C10.898 10.0002 10 10.8972 10 12.0002V15.2662C9.699 15.0932 9.357 15.0002 9 15.0002C8.466 15.0002 7.964 15.2082 7.586 15.5862C7.196 15.9752 7.001 16.4882 7.001 17.0002H7C5.358 17.0002 3.914 16.1972 3.003 14.9752C2.99599 14.9678 2.98745 14.9623 2.97888 14.9567C2.96789 14.9496 2.95687 14.9425 2.949 14.9312C2.93842 14.9168 2.92971 14.9014 2.92095 14.8859C2.91398 14.8736 2.90698 14.8612 2.899 14.8492C2.86708 14.8033 2.83883 14.7553 2.8106 14.7073C2.79462 14.6802 2.77863 14.653 2.762 14.6262C2.652 14.4472 2.55 14.2652 2.463 14.0752C2.42041 13.9823 2.38345 13.8885 2.34576 13.7928L2.342 13.7832C2.27 13.5922 2.21 13.3972 2.161 13.1982C2.15467 13.1729 2.14814 13.1478 2.14161 13.1228C2.12339 13.0528 2.10526 12.9831 2.092 12.9102C2.037 12.6112 2 12.3082 2 12.0002C2 11.6692 2.036 11.3472 2.097 11.0342C2.11157 10.9614 2.13378 10.8913 2.15598 10.8213C2.16881 10.7808 2.18164 10.7403 2.193 10.6992C2.19718 10.6839 2.20135 10.6685 2.20551 10.6532C2.25319 10.4774 2.30087 10.3017 2.368 10.1352C2.40422 10.0447 2.44869 9.95996 2.4933 9.87497C2.51273 9.83794 2.53219 9.80087 2.551 9.76324C2.5574 9.75053 2.56378 9.73783 2.57015 9.72514C2.64042 9.5852 2.70965 9.44736 2.794 9.31624C2.85777 9.21534 2.93001 9.12226 3.00231 9.0291C3.01958 9.00686 3.03684 8.98461 3.054 8.96224L3.05754 8.95769C3.15434 8.83323 3.25031 8.70983 3.358 8.59424C3.45448 8.4902 3.55811 8.39689 3.66298 8.30247C3.66898 8.29707 3.67499 8.29166 3.681 8.28624C3.799 8.18024 3.919 8.07824 4.047 7.98424C4.166 7.89624 4.288 7.81624 4.415 7.74024C4.555 7.65424 4.698 7.57724 4.846 7.50624C4.976 7.44324 5.106 7.38624 5.242 7.33524C5.404 7.27324 5.571 7.22424 5.741 7.18024C5.876 7.14424 6.008 7.10924 6.148 7.08624C6.17442 7.0814 6.20007 7.07442 6.22571 7.06745C6.25829 7.05858 6.29086 7.04972 6.325 7.04524C7.146 4.66124 9.42 3.00024 12 3.00024C14.581 3.00024 16.855 4.66124 17.675 7.04524C17.7092 7.04973 17.7422 7.05862 17.7751 7.0675C17.8009 7.07446 17.8266 7.08141 17.853 7.08624C17.992 7.10924 18.125 7.14424 18.259 7.18024C18.429 7.22424 18.596 7.27324 18.758 7.33524C18.894 7.38624 19.025 7.44324 19.154 7.50624C19.302 7.57724 19.445 7.65424 19.585 7.74024C19.712 7.81624 19.835 7.89624 19.954 7.98424C20.081 8.07824 20.201 8.18024 20.319 8.28624C20.431 8.38624 20.54 8.48424 20.643 8.59424C20.752 8.71124 20.849 8.83624 20.946 8.96224C20.9587 8.9786 20.9714 8.99489 20.9841 9.01117C21.0614 9.11034 21.1383 9.20887 21.207 9.31624C21.2901 9.44684 21.359 9.58411 21.429 9.72348C21.4357 9.73672 21.4423 9.74997 21.449 9.76324C21.4678 9.80087 21.4873 9.83794 21.5067 9.87497C21.5513 9.95996 21.5958 10.0447 21.632 10.1352C21.7003 10.3022 21.7481 10.4785 21.7959 10.6548C21.7999 10.6696 21.804 10.6844 21.808 10.6992C21.8195 10.7423 21.8329 10.7848 21.8462 10.8274ZM13.0004 17.6438L14.3054 16.3838C14.7034 16.0008 15.3364 16.0118 15.7194 16.4088C16.1034 16.8068 16.0924 17.4398 15.6954 17.8228L12.6954 20.7198C12.5004 20.9058 12.2504 20.9998 12.0004 20.9998C11.7444 20.9998 11.4884 20.9028 11.2934 20.7068L8.2934 17.7068C7.9024 17.3168 7.9024 16.6838 8.2934 16.2928C8.6834 15.9028 9.3164 15.9028 9.7074 16.2928L11.0004 17.5858V11.9998C11.0004 11.4468 11.4484 10.9998 12.0004 10.9998C12.5524 10.9998 13.0004 11.4468 13.0004 11.9998V17.6438Z" fill="#344054"/>
<mask id="mask0_49_3046" style="mask-type:luminance" maskUnits="userSpaceOnUse" x="2" y="3" width="20" height="18">
<path fill-rule="evenodd" clip-rule="evenodd" d="M21.8462 10.8274C21.8675 10.8954 21.8888 10.9635 21.903 11.0342C21.965 11.3472 22 11.6692 22 12.0002C22 12.3082 21.964 12.6112 21.908 12.9102C21.8956 12.9784 21.879 13.0437 21.8623 13.1091C21.8547 13.1387 21.8472 13.1683 21.84 13.1982C21.79 13.3972 21.731 13.5922 21.658 13.7832C21.62 13.8822 21.581 13.9792 21.537 14.0752C21.45 14.2652 21.349 14.4472 21.238 14.6262C21.2208 14.654 21.2043 14.6822 21.1879 14.7103C21.1606 14.7573 21.1333 14.8042 21.102 14.8492C21.0929 14.8622 21.0851 14.8757 21.0774 14.889C21.0691 14.9034 21.0609 14.9177 21.051 14.9312C21.0433 14.9423 21.0325 14.9494 21.0219 14.9563C21.0133 14.962 21.0047 14.9676 20.998 14.9752C20.086 16.1972 18.642 17.0002 17 17.0002H16.988C16.964 16.5342 16.787 16.0752 16.439 15.7152C16.065 15.3262 15.54 15.1032 15 15.1032C14.644 15.1032 14.301 15.1962 14 15.3712V12.0002C14 10.8972 13.103 10.0002 12 10.0002C10.898 10.0002 10 10.8972 10 12.0002V15.2662C9.699 15.0932 9.357 15.0002 9 15.0002C8.466 15.0002 7.964 15.2082 7.586 15.5862C7.196 15.9752 7.001 16.4882 7.001 17.0002H7C5.358 17.0002 3.914 16.1972 3.003 14.9752C2.99599 14.9678 2.98745 14.9623 2.97888 14.9567C2.96789 14.9496 2.95687 14.9425 2.949 14.9312C2.93842 14.9168 2.92971 14.9014 2.92095 14.8859C2.91398 14.8736 2.90698 14.8612 2.899 14.8492C2.86708 14.8033 2.83883 14.7553 2.8106 14.7073C2.79462 14.6802 2.77863 14.653 2.762 14.6262C2.652 14.4472 2.55 14.2652 2.463 14.0752C2.42041 13.9823 2.38345 13.8885 2.34576 13.7928L2.342 13.7832C2.27 13.5922 2.21 13.3972 2.161 13.1982C2.15467 13.1729 2.14814 13.1478 2.14161 13.1228C2.12339 13.0528 2.10526 12.9831 2.092 12.9102C2.037 12.6112 2 12.3082 2 12.0002C2 11.6692 2.036 11.3472 2.097 11.0342C2.11157 10.9614 2.13378 10.8913 2.15598 10.8213C2.16881 10.7808 2.18164 10.7403 2.193 10.6992C2.19718 10.6839 2.20135 10.6685 2.20551 10.6532C2.25319 10.4774 2.30087 10.3017 2.368 10.1352C2.40422 10.0447 2.44869 9.95996 2.4933 9.87497C2.51273 9.83794 2.53219 9.80087 2.551 9.76324C2.5574 9.75053 2.56378 9.73783 2.57015 9.72514C2.64042 9.5852 2.70965 9.44736 2.794 9.31624C2.85777 9.21534 2.93001 9.12226 3.00231 9.0291C3.01958 9.00686 3.03684 8.98461 3.054 8.96224L3.05754 8.95769C3.15434 8.83323 3.25031 8.70983 3.358 8.59424C3.45448 8.4902 3.55811 8.39689 3.66298 8.30247C3.66898 8.29707 3.67499 8.29166 3.681 8.28624C3.799 8.18024 3.919 8.07824 4.047 7.98424C4.166 7.89624 4.288 7.81624 4.415 7.74024C4.555 7.65424 4.698 7.57724 4.846 7.50624C4.976 7.44324 5.106 7.38624 5.242 7.33524C5.404 7.27324 5.571 7.22424 5.741 7.18024C5.876 7.14424 6.008 7.10924 6.148 7.08624C6.17442 7.0814 6.20007 7.07442 6.22571 7.06745C6.25829 7.05858 6.29086 7.04972 6.325 7.04524C7.146 4.66124 9.42 3.00024 12 3.00024C14.581 3.00024 16.855 4.66124 17.675 7.04524C17.7092 7.04973 17.7422 7.05862 17.7751 7.0675C17.8009 7.07446 17.8266 7.08141 17.853 7.08624C17.992 7.10924 18.125 7.14424 18.259 7.18024C18.429 7.22424 18.596 7.27324 18.758 7.33524C18.894 7.38624 19.025 7.44324 19.154 7.50624C19.302 7.57724 19.445 7.65424 19.585 7.74024C19.712 7.81624 19.835 7.89624 19.954 7.98424C20.081 8.07824 20.201 8.18024 20.319 8.28624C20.431 8.38624 20.54 8.48424 20.643 8.59424C20.752 8.71124 20.849 8.83624 20.946 8.96224C20.9587 8.9786 20.9714 8.99489 20.9841 9.01117C21.0614 9.11034 21.1383 9.20887 21.207 9.31624C21.2901 9.44684 21.359 9.58411 21.429 9.72348C21.4357 9.73672 21.4423 9.74997 21.449 9.76324C21.4678 9.80087 21.4873 9.83794 21.5067 9.87497C21.5513 9.95996 21.5958 10.0447 21.632 10.1352C21.7003 10.3022 21.7481 10.4785 21.7959 10.6548C21.7999 10.6696 21.804 10.6844 21.808 10.6992C21.8195 10.7423 21.8329 10.7848 21.8462 10.8274ZM13.0004 17.6438L14.3054 16.3838C14.7034 16.0008 15.3364 16.0118 15.7194 16.4088C16.1034 16.8068 16.0924 17.4398 15.6954 17.8228L12.6954 20.7198C12.5004 20.9058 12.2504 20.9998 12.0004 20.9998C11.7444 20.9998 11.4884 20.9028 11.2934 20.7068L8.2934 17.7068C7.9024 17.3168 7.9024 16.6838 8.2934 16.2928C8.6834 15.9028 9.3164 15.9028 9.7074 16.2928L11.0004 17.5858V11.9998C11.0004 11.4468 11.4484 10.9998 12.0004 10.9998C12.5524 10.9998 13.0004 11.4468 13.0004 11.9998V17.6438Z" fill="white"/>
</mask>
<g mask="url(#mask0_49_3046)">
</g>
</svg>
