<svg width="24" height="24" viewBox="0 0 24 24" fill="none" xmlns="http://www.w3.org/2000/svg">
<path fill-rule="evenodd" clip-rule="evenodd" d="M21.7795 11.3731L16.9515 5.37306C16.6035 4.94306 15.9745 4.87306 15.5455 5.22106C15.1145 5.56706 15.0475 6.19606 15.3925 6.62706L19.7085 11.9891L15.2315 17.3591C14.8785 17.7841 14.9355 18.4151 15.3595 18.7691C15.5475 18.9241 15.7735 19.0001 15.9995 19.0001C16.2865 19.0001 16.5705 18.8781 16.7685 18.6411L21.7685 12.6411C22.0735 12.2741 22.0785 11.7441 21.7795 11.3731ZM4.29216 12.0108L8.76916 6.64076C9.12216 6.21576 9.06416 5.58476 8.64116 5.23176C8.21516 4.87876 7.58616 4.93576 7.23116 5.35976L2.23116 11.3598C1.92716 11.7258 1.92216 12.2558 2.22116 12.6268L7.04916 18.6268C7.24716 18.8718 7.53616 18.9998 7.82916 18.9998C8.04916 18.9998 8.27116 18.9278 8.45516 18.7798C8.88616 18.4328 8.95316 17.8038 8.60716 17.3728L4.29216 12.0108ZM14.3059 11.3843C14.7019 11.0003 15.3369 11.0133 15.7199 11.4093C16.1029 11.8063 16.0919 12.4393 15.6949 12.8233L12.6949 15.7203C12.5009 15.9063 12.2499 16.0003 11.9999 16.0003C11.7439 16.0003 11.4889 15.9023 11.2929 15.7073L8.29286 12.7073C7.90286 12.3163 7.90286 11.6833 8.29286 11.2933C8.68386 10.9023 9.31686 10.9023 9.70686 11.2933L10.9999 12.5853V8.00026C10.9999 7.44726 11.4479 7.00026 11.9999 7.00026C12.5529 7.00026 12.9999 7.44726 12.9999 8.00026V12.6443L14.3059 11.3843Z" fill="#344054"/>
</svg>
