<svg width="24" height="24" viewBox="0 0 24 24" fill="none" xmlns="http://www.w3.org/2000/svg">
<path fill-rule="evenodd" clip-rule="evenodd" d="M16.6629 4.59765L19.4029 7.33665C20.1699 8.10465 20.2009 9.32265 19.4709 10.0517L17.4689 12.0547L18.7069 13.2927C19.0979 13.6837 19.0979 14.3167 18.7069 14.7067C18.5119 14.9027 18.2559 14.9997 17.9999 14.9997C17.7439 14.9997 17.4889 14.9027 17.2929 14.7067L16.0549 13.4687L10.4749 19.0477C10.1499 19.3727 9.7179 19.5757 9.2609 19.6177L5.0909 19.9957C5.0609 19.9987 5.0309 19.9997 4.9999 19.9997C4.7369 19.9997 4.4819 19.8957 4.2929 19.7067C4.0829 19.4967 3.9779 19.2047 4.0039 18.9097L4.3829 14.7397C4.4249 14.2827 4.6269 13.8507 4.9519 13.5257L10.5319 7.94565L9.2929 6.70665C8.9029 6.31665 8.9029 5.68365 9.2929 5.29265C9.6839 4.90265 10.3169 4.90265 10.7069 5.29265L11.9459 6.53165L13.9489 4.52965C14.6769 3.80165 15.8959 3.82965 16.6629 4.59765ZM16.0559 10.6417L13.3599 7.94565L15.2719 6.03465L17.9659 8.72865L16.0559 10.6417ZM9.0789 17.6247L6.1029 17.8957L6.3669 14.9397L11.9459 9.35965L14.6419 12.0557L9.0789 17.6247Z" fill="#344054"/>
</svg>
