<svg width="24" height="24" viewBox="0 0 24 24" fill="none" xmlns="http://www.w3.org/2000/svg">
<path fill-rule="evenodd" clip-rule="evenodd" d="M16.6631 4.59753L19.4021 7.33653C20.1701 8.10453 20.2001 9.32253 19.4701 10.0515L17.4691 12.0545L18.7071 13.2935C19.0971 13.6835 19.0971 14.3165 18.7071 14.7075C18.5121 14.9025 18.2561 15.0005 18.0001 15.0005C17.7441 15.0005 17.4881 14.9025 17.2931 14.7075L16.0541 13.4685L10.4741 19.0475C10.1491 19.3735 9.71814 19.5755 9.26114 19.6175L5.09114 19.9965C5.06014 19.9995 5.03014 20.0005 5.00014 20.0005C4.73614 20.0005 4.48114 19.8955 4.29314 19.7075C4.08314 19.4975 3.97714 19.2055 4.00414 18.9095L4.38314 14.7395C4.42514 14.2825 4.62714 13.8505 4.95214 13.5255L10.5311 7.94553L9.29314 6.70753C8.90214 6.31653 8.90214 5.68353 9.29314 5.29353C9.68314 4.90253 10.3161 4.90253 10.7071 5.29353L11.9451 6.53153L13.9481 4.52953C14.6771 3.80153 15.8951 3.82953 16.6631 4.59753ZM11.9451 9.35953L6.36614 14.9395L11.8511 14.8515L14.6411 12.0555L11.9451 9.35953Z" fill="#344054"/>
<mask id="mask0_49_2341" style="mask-type:luminance" maskUnits="userSpaceOnUse" x="4" y="4" width="16" height="17">
<path fill-rule="evenodd" clip-rule="evenodd" d="M16.6631 4.59753L19.4021 7.33653C20.1701 8.10453 20.2001 9.32253 19.4701 10.0515L17.4691 12.0545L18.7071 13.2935C19.0971 13.6835 19.0971 14.3165 18.7071 14.7075C18.5121 14.9025 18.2561 15.0005 18.0001 15.0005C17.7441 15.0005 17.4881 14.9025 17.2931 14.7075L16.0541 13.4685L10.4741 19.0475C10.1491 19.3735 9.71814 19.5755 9.26114 19.6175L5.09114 19.9965C5.06014 19.9995 5.03014 20.0005 5.00014 20.0005C4.73614 20.0005 4.48114 19.8955 4.29314 19.7075C4.08314 19.4975 3.97714 19.2055 4.00414 18.9095L4.38314 14.7395C4.42514 14.2825 4.62714 13.8505 4.95214 13.5255L10.5311 7.94553L9.29314 6.70753C8.90214 6.31653 8.90214 5.68353 9.29314 5.29353C9.68314 4.90253 10.3161 4.90253 10.7071 5.29353L11.9451 6.53153L13.9481 4.52953C14.6771 3.80153 15.8951 3.82953 16.6631 4.59753ZM11.9451 9.35953L6.36614 14.9395L11.8511 14.8515L14.6411 12.0555L11.9451 9.35953Z" fill="white"/>
</mask>
<g mask="url(#mask0_49_2341)">
</g>
</svg>
