<svg width="24" height="24" viewBox="0 0 24 24" fill="none" xmlns="http://www.w3.org/2000/svg">
<path fill-rule="evenodd" clip-rule="evenodd" d="M2.00049 12C2.00049 6.486 6.48649 2 12.0005 2C17.5145 2 22.0005 6.486 22.0005 12C22.0005 17.514 17.5145 22 12.0005 22C6.48649 22 2.00049 17.514 2.00049 12ZM15.9255 9.42L14.1795 13.678C14.0775 13.928 13.8795 14.125 13.6295 14.227L9.41649 15.928C9.29349 15.977 9.16649 16 9.04249 16C8.77149 16 8.51749 15.883 8.32949 15.69C8.32139 15.6824 8.31308 15.6753 8.30485 15.6683L8.30483 15.6683L8.30483 15.6683C8.29477 15.6598 8.28483 15.6513 8.27549 15.642C8.27038 15.6358 8.26624 15.6289 8.26215 15.6221C8.25903 15.6169 8.25595 15.6118 8.25249 15.607C8.01449 15.331 7.92649 14.941 8.07449 14.58L9.82049 10.322C9.92249 10.072 10.1215 9.875 10.3715 9.774L14.5845 8.072C14.9785 7.916 15.4095 8.028 15.6835 8.318C15.9745 8.594 16.0865 9.026 15.9255 9.42ZM10.7971 13.213L12.4891 12.529L13.2031 10.787L11.5111 11.471L10.7971 13.213Z" fill="#344054"/>
<mask id="mask0_49_2485" style="mask-type:luminance" maskUnits="userSpaceOnUse" x="2" y="2" width="21" height="20">
<path fill-rule="evenodd" clip-rule="evenodd" d="M2.00049 12C2.00049 6.486 6.48649 2 12.0005 2C17.5145 2 22.0005 6.486 22.0005 12C22.0005 17.514 17.5145 22 12.0005 22C6.48649 22 2.00049 17.514 2.00049 12ZM15.9255 9.42L14.1795 13.678C14.0775 13.928 13.8795 14.125 13.6295 14.227L9.41649 15.928C9.29349 15.977 9.16649 16 9.04249 16C8.77149 16 8.51749 15.883 8.32949 15.69C8.32139 15.6824 8.31308 15.6753 8.30485 15.6683L8.30483 15.6683L8.30483 15.6683C8.29477 15.6598 8.28483 15.6513 8.27549 15.642C8.27038 15.6358 8.26624 15.6289 8.26215 15.6221C8.25903 15.6169 8.25595 15.6118 8.25249 15.607C8.01449 15.331 7.92649 14.941 8.07449 14.58L9.82049 10.322C9.92249 10.072 10.1215 9.875 10.3715 9.774L14.5845 8.072C14.9785 7.916 15.4095 8.028 15.6835 8.318C15.9745 8.594 16.0865 9.026 15.9255 9.42ZM10.7971 13.213L12.4891 12.529L13.2031 10.787L11.5111 11.471L10.7971 13.213Z" fill="white"/>
</mask>
<g mask="url(#mask0_49_2485)">
</g>
</svg>
