<svg width="24" height="24" viewBox="0 0 24 24" fill="none" xmlns="http://www.w3.org/2000/svg">
<path fill-rule="evenodd" clip-rule="evenodd" d="M2 12C2 6.486 6.486 2 12 2C17.514 2 22 6.486 22 12C22 17.514 17.514 22 12 22C6.486 22 2 17.514 2 12ZM12 20C7.589 20 4 16.411 4 12C4 7.589 7.589 4 12 4C16.411 4 20 7.589 20 12C20 16.411 16.411 20 12 20ZM14.5839 8.0719C14.9789 7.9159 15.4089 8.0279 15.6829 8.3179C15.9749 8.5939 16.0869 9.0259 15.9249 9.4199L14.1799 13.6779C14.0779 13.9279 13.8789 14.1249 13.6289 14.2269L9.4159 15.9279C9.2939 15.9769 9.1669 15.9999 9.0419 15.9999C8.7719 15.9999 8.5169 15.8829 8.3289 15.6899C8.32154 15.6829 8.31401 15.6765 8.30658 15.6701C8.29586 15.6609 8.28535 15.6519 8.2759 15.6419C8.27119 15.6361 8.2673 15.6298 8.26351 15.6237C8.26007 15.6181 8.25671 15.6127 8.2529 15.6079C8.0139 15.3309 7.9269 14.9409 8.0749 14.5799L9.8199 10.3219C9.9219 10.0719 10.1209 9.8749 10.3709 9.7739L14.5839 8.0719ZM11.5109 11.4709L10.7969 13.2129L12.4889 12.5289L13.2029 10.7869L11.5109 11.4709Z" fill="#344054"/>
</svg>
