<svg width="24" height="24" viewBox="0 0 24 24" fill="none" xmlns="http://www.w3.org/2000/svg">
<path fill-rule="evenodd" clip-rule="evenodd" d="M17.5 4C17.7761 4 18 4.22386 18 4.5V19.5C18 19.7761 17.7761 20 17.5 20H15V16.5C15 15.1193 13.8807 14 12.5 14H11.5C10.1193 14 9 15.1193 9 16.5V20H6.5C6.22386 20 6 19.7761 6 19.5V4.5C6 4.22386 6.22386 4 6.5 4H17.5ZM11 20H13V16.5C13 16.2239 12.7761 16 12.5 16H11.5C11.2239 16 11 16.2239 11 16.5V20ZM9 22H6.5C5.11929 22 4 20.8807 4 19.5V4.5C4 3.11929 5.11929 2 6.5 2H17.5C18.8807 2 20 3.11929 20 4.5V19.5C20 20.8807 18.8807 22 17.5 22H15H9ZM11 7C11 7.55228 10.5523 8 10 8H9C8.44772 8 8 7.55228 8 7C8 6.44772 8.44772 6 9 6H10C10.5523 6 11 6.44772 11 7ZM15 8C15.5523 8 16 7.55228 16 7C16 6.44772 15.5523 6 15 6H14C13.4477 6 13 6.44772 13 7C13 7.55228 13.4477 8 14 8H15ZM16 11C16 11.5523 15.5523 12 15 12H14C13.4477 12 13 11.5523 13 11C13 10.4477 13.4477 10 14 10H15C15.5523 10 16 10.4477 16 11ZM10 12C10.5523 12 11 11.5523 11 11C11 10.4477 10.5523 10 10 10H9C8.44772 10 8 10.4477 8 11C8 11.5523 8.44772 12 9 12H10Z" fill="#344054"/>
</svg>
