<svg width="24" height="24" viewBox="0 0 24 24" fill="none" xmlns="http://www.w3.org/2000/svg">
<path d="M19.781 10.3754L15.781 5.37545C15.434 4.94445 14.806 4.87345 14.375 5.21945C13.944 5.56345 13.874 6.19345 14.219 6.62445L16.92 10.0004H8C6.345 10.0004 5 11.3454 5 13.0004V18.0004C5 18.5524 5.448 19.0004 6 19.0004C6.552 19.0004 7 18.5524 7 18.0004V13.0004C7 12.4484 7.448 12.0004 8 12.0004H16.92L14.219 15.3754C13.874 15.8064 13.944 16.4364 14.375 16.7804C14.559 16.9284 14.78 17.0004 14.999 17.0004C15.293 17.0004 15.583 16.8714 15.781 16.6244L19.781 11.6244C20.073 11.2594 20.073 10.7404 19.781 10.3754Z" fill="#344054"/>
</svg>
