<svg width="24" height="24" viewBox="0 0 24 24" fill="none" xmlns="http://www.w3.org/2000/svg">
<path fill-rule="evenodd" clip-rule="evenodd" d="M5 5H19C20.654 5 22 6.346 22 8V16C22 17.654 20.654 19 19 19H5C3.346 19 2 17.654 2 16V8C2 6.346 3.346 5 5 5ZM4 8C4 7.449 4.448 7 5 7H19C19.552 7 20 7.449 20 8V9H4V8ZM19 17C19.552 17 20 16.551 20 16V11H4V16C4 16.551 4.448 17 5 17H19ZM7 15H11C11.55 15 12 14.55 12 14C12 13.45 11.55 13 11 13H7C6.45 13 6 13.45 6 14C6 14.55 6.45 15 7 15ZM15 15H17C17.55 15 18 14.55 18 14C18 13.45 17.55 13 17 13H15C14.45 13 14 13.45 14 14C14 14.55 14.45 15 15 15Z" fill="#344054"/>
</svg>
