<svg width="24" height="24" viewBox="0 0 24 24" fill="none" xmlns="http://www.w3.org/2000/svg">
<path fill-rule="evenodd" clip-rule="evenodd" d="M5 5H19C20.654 5 22 6.346 22 8V16C22 17.654 20.654 19 19 19H5C3.346 19 2 17.654 2 16V8C2 6.346 3.346 5 5 5ZM4 9H20V8C20 7.449 19.552 7 19 7H5C4.448 7 4 7.449 4 8V9ZM15 15H17C17.55 15 18 14.55 18 14C18 13.45 17.55 13 17 13H15C14.45 13 14 13.45 14 14C14 14.55 14.45 15 15 15ZM11 15H7C6.45 15 6 14.55 6 14C6 13.45 6.45 13 7 13H11C11.55 13 12 13.45 12 14C12 14.55 11.55 15 11 15Z" fill="#344054"/>
<mask id="mask0_49_2357" style="mask-type:luminance" maskUnits="userSpaceOnUse" x="2" y="5" width="20" height="14">
<path fill-rule="evenodd" clip-rule="evenodd" d="M5 5H19C20.654 5 22 6.346 22 8V16C22 17.654 20.654 19 19 19H5C3.346 19 2 17.654 2 16V8C2 6.346 3.346 5 5 5ZM4 9H20V8C20 7.449 19.552 7 19 7H5C4.448 7 4 7.449 4 8V9ZM15 15H17C17.55 15 18 14.55 18 14C18 13.45 17.55 13 17 13H15C14.45 13 14 13.45 14 14C14 14.55 14.45 15 15 15ZM11 15H7C6.45 15 6 14.55 6 14C6 13.45 6.45 13 7 13H11C11.55 13 12 13.45 12 14C12 14.55 11.55 15 11 15Z" fill="white"/>
</mask>
<g mask="url(#mask0_49_2357)">
</g>
</svg>
