<svg width="24" height="24" viewBox="0 0 24 24" fill="none" xmlns="http://www.w3.org/2000/svg">
<path fill-rule="evenodd" clip-rule="evenodd" d="M17.9995 16H20.9995C21.5525 16 21.9995 16.447 21.9995 17C21.9995 17.553 21.5525 18 20.9995 18H17.9995V21C17.9995 21.553 17.5525 22 16.9995 22C16.4475 22 15.9995 21.553 15.9995 21V18H8.55551C7.14651 18 5.99951 16.854 5.99951 15.444V8H2.99951C2.44751 8 1.99951 7.553 1.99951 7C1.99951 6.447 2.44751 6 2.99951 6H5.99951V3C5.99951 2.447 6.44751 2 6.99951 2C7.55251 2 7.99951 2.447 7.99951 3V6H15.4445C16.8535 6 17.9995 7.146 17.9995 8.556V16ZM7.99951 15.444C7.99951 15.751 8.24951 16 8.55551 16H15.9995V8.556C15.9995 8.249 15.7505 8 15.4445 8H7.99951V15.444Z" fill="#344054"/>
</svg>
