<svg width="24" height="24" viewBox="0 0 24 24" fill="none" xmlns="http://www.w3.org/2000/svg">
<path fill-rule="evenodd" clip-rule="evenodd" d="M20.6541 7.24778C20.6547 7.25157 20.6552 7.25534 20.6566 7.25891C20.8686 7.62191 20.9996 8.02891 21.0006 8.45691V15.5399C20.9996 16.4879 20.4226 17.3659 19.5306 17.7779L13.1336 20.7499C12.7726 20.9179 12.3846 21.0019 11.9966 21.0019C11.6076 21.0019 11.2196 20.9179 10.8576 20.7489L4.45857 17.7769C3.56457 17.3589 2.99257 16.4749 3.00057 15.5249V8.45791C3.00057 8.02991 3.13157 7.62291 3.34257 7.26091C3.34457 7.25641 3.34532 7.25191 3.34607 7.24741C3.34682 7.24291 3.34757 7.23841 3.34957 7.23391C3.3516 7.22986 3.35464 7.22633 3.35781 7.22266C3.3609 7.21907 3.3641 7.21536 3.36657 7.21091C3.40395 7.14975 3.44782 7.09363 3.49206 7.03705C3.4999 7.02703 3.50775 7.017 3.51557 7.00691C3.52703 6.99407 3.53777 6.98061 3.54845 6.96723C3.56853 6.94207 3.58842 6.91715 3.61257 6.89691C3.84757 6.62091 4.12557 6.37891 4.46957 6.21991L10.8666 3.24791C11.5876 2.91591 12.4126 2.91491 13.1316 3.24691C13.1316 3.24791 13.1326 3.24791 13.1336 3.24791L19.5336 6.22091C19.8776 6.37991 20.1546 6.62291 20.3896 6.89891C20.4113 6.91742 20.4293 6.93959 20.4476 6.96205C20.4579 6.97478 20.4684 6.98761 20.4796 6.99991C20.4922 7.01663 20.5051 7.03318 20.5179 7.04972C20.5588 7.10243 20.5996 7.15507 20.6346 7.21291C20.6367 7.21633 20.6394 7.21919 20.642 7.22198C20.6455 7.22572 20.6489 7.22933 20.6506 7.23391C20.6528 7.23834 20.6535 7.24308 20.6541 7.24778ZM11.7076 5.06391C11.7986 5.02091 11.8996 4.99991 12.0006 4.99991C12.1006 4.99991 12.2016 5.02091 12.2926 5.06391L17.6216 7.53791L12.0006 10.1499L6.37857 7.53791L11.7076 5.06391ZM5.00057 15.5319C4.99857 15.7139 5.11457 15.8759 5.30357 15.9639L11.0006 18.6089V11.8909L5.00057 9.10391V15.5319ZM13.0006 18.6069L18.6906 15.9629C18.8826 15.8749 19.0006 15.7129 19.0006 15.5389V9.10391L13.0006 11.8909V18.6069Z" fill="#344054"/>
</svg>
