<svg width="24" height="24" viewBox="0 0 24 24" fill="none" xmlns="http://www.w3.org/2000/svg">
<g clip-path="url(#clip0_47_4436)">
<path d="M16.24 11.51L17.81 9.94004L14.06 6.19004L12.49 7.76004L8.35 3.63004C7.57 2.85004 6.3 2.85004 5.52 3.63004L3.62 5.53004C2.84 6.31004 2.84 7.58004 3.62 8.36004L7.75 12.49L3 17.25V21H6.75L11.51 16.24L15.64 20.37C16.59 21.32 17.87 20.97 18.47 20.37L20.37 18.47C21.15 17.69 21.15 16.42 20.37 15.64L16.24 11.51ZM9.18 11.07L5.04 6.94004L6.93 5.04004L8.2 6.31004L7.02 7.50004L8.43 8.91004L9.62 7.72004L11.07 9.17004L9.18 11.07ZM17.06 18.96L12.93 14.83L14.83 12.93L16.28 14.38L15.09 15.57L16.5 16.98L17.69 15.79L18.96 17.06L17.06 18.96Z" fill="#344054"/>
<path d="M20.7099 7.03999C21.0999 6.64999 21.0999 6.01999 20.7099 5.62999L18.3699 3.28999C17.8999 2.81999 17.2499 2.99999 16.9599 3.28999L15.1299 5.11999L18.8799 8.86999L20.7099 7.03999Z" fill="#344054"/>
</g>
<defs>
<clipPath id="clip0_47_4436">
<rect width="24" height="24" fill="white"/>
</clipPath>
</defs>
</svg>
