<svg width="24" height="24" viewBox="0 0 24 24" fill="none" xmlns="http://www.w3.org/2000/svg">
<g clip-path="url(#clip0_47_5178)">
<path d="M9.41 6.58L12 4L20 12L17.42 14.59L18.83 16L21.41 13.41C22.19 12.63 22.19 11.36 21.41 10.58L13.41 2.58C12.63 1.8 11.36 1.8 10.58 2.58L8 5.17L9.41 6.58Z" fill="#344054"/>
<path d="M2.80989 2.80994L1.38989 4.21994L5.16989 7.99994L2.58989 10.5899C1.80989 11.3699 1.80989 12.6399 2.58989 13.4199L10.5899 21.4199C11.3699 22.1999 12.6399 22.1999 13.4199 21.4199L15.9999 18.8299L19.7799 22.6099L21.1899 21.1999L2.80989 2.80994ZM11.9999 19.9999L3.99989 11.9999L6.57989 9.40994L8.16989 10.9999H6.99989V12.9999H10.1699L11.6699 14.4999L10.5899 15.5899L11.9999 16.9999L13.0899 15.9099L14.5899 17.4099L11.9999 19.9999Z" fill="#344054"/>
<path d="M12.0052 6.99835L10.9163 8.08728L15.9155 13.0865L17.0044 11.9975L12.0052 6.99835Z" fill="#344054"/>
</g>
<defs>
<clipPath id="clip0_47_5178">
<rect width="24" height="24" fill="white"/>
</clipPath>
</defs>
</svg>
