<svg width="24" height="24" viewBox="0 0 24 24" fill="none" xmlns="http://www.w3.org/2000/svg">
<g clip-path="url(#clip0_47_1072)">
<path d="M8.0001 5.00005H10.0001V7.00005H9.1001L12.0001 9.90005V9.00005H20.0001V17.9L22.0001 19.9V7.00005H12.0001V3.00005H5.1001L8.0001 5.90005V5.00005ZM16.0001 11H18.0001V13H16.0001V11ZM1.3001 1.80005L0.100098 3.10005L2.0001 5.00005V21H18.0001L21.0001 24L22.3001 22.7001L1.3001 1.80005ZM6.0001 19H4.0001V17H6.0001V19ZM6.0001 15H4.0001V13H6.0001V15ZM6.0001 11H4.0001V9.00005H6.0001V11ZM10.0001 19H8.0001V17H10.0001V19ZM10.0001 15H8.0001V13H10.0001V15ZM12.0001 19V17H14.0001L16.0001 19H12.0001Z" fill="#344054"/>
</g>
<defs>
<clipPath id="clip0_47_1072">
<rect width="24" height="24" fill="white"/>
</clipPath>
</defs>
</svg>
