<svg width="24" height="24" viewBox="0 0 24 24" fill="none" xmlns="http://www.w3.org/2000/svg">
<path d="M12.0996 20.4003C10.2479 20.3837 8.51437 19.636 7.21652 18.292C4.54975 15.5302 4.58575 11.0708 7.29683 8.34955L11.5744 4.05725C11.7488 3.88094 11.987 3.78309 12.2353 3.78494C12.4836 3.78771 12.7199 3.88925 12.8925 4.0674L17.1008 8.42986C19.7676 11.1926 19.7316 15.6529 17.0196 18.3714C15.7005 19.6942 13.955 20.4151 12.1014 20.4003H12.0996Z" fill="#344054"/>
<mask id="mask0_49_2890" style="mask-type:luminance" maskUnits="userSpaceOnUse" x="5" y="3" width="15" height="18">
<path d="M12.0996 20.4003C10.2479 20.3837 8.51437 19.636 7.21652 18.292C4.54975 15.5302 4.58575 11.0708 7.29683 8.34955L11.5744 4.05725C11.7488 3.88094 11.987 3.78309 12.2353 3.78494C12.4836 3.78771 12.7199 3.88925 12.8925 4.0674L17.1008 8.42986C19.7676 11.1926 19.7316 15.6529 17.0196 18.3714C15.7005 19.6942 13.955 20.4151 12.1014 20.4003H12.0996Z" fill="white"/>
</mask>
<g mask="url(#mask0_49_2890)">
</g>
</svg>
