<svg width="24" height="24" viewBox="0 0 24 24" fill="none" xmlns="http://www.w3.org/2000/svg">
<path fill-rule="evenodd" clip-rule="evenodd" d="M18.9686 16.1405C20.0016 13.4315 19.4676 10.2345 17.3416 8.03254L12.7826 3.30554C12.5966 3.11354 12.3406 3.00254 12.0716 2.99954C11.8026 2.99754 11.5446 3.10454 11.3546 3.29454L8.74356 5.91554L18.9686 16.1405ZM5.98756 8.81634C3.81156 11.7773 4.01356 16.0013 6.63456 18.7153C8.03956 20.1713 9.91756 20.9823 11.9246 21.0003H11.9266C13.6306 21.0133 15.2476 20.4483 16.5726 19.4013L5.98756 8.81634ZM4.70676 3.29294L20.7068 19.2929C21.0978 19.6839 21.0978 20.3159 20.7068 20.7069C20.5118 20.9019 20.2558 20.9999 19.9998 20.9999C19.7438 20.9999 19.4878 20.9019 19.2928 20.7069L3.29276 4.70694C2.90176 4.31594 2.90176 3.68394 3.29276 3.29294C3.68376 2.90194 4.31576 2.90194 4.70676 3.29294Z" fill="#344054"/>
<mask id="mask0_49_2963" style="mask-type:luminance" maskUnits="userSpaceOnUse" x="2" y="2" width="19" height="20">
<path fill-rule="evenodd" clip-rule="evenodd" d="M18.9686 16.1405C20.0016 13.4315 19.4676 10.2345 17.3416 8.03254L12.7826 3.30554C12.5966 3.11354 12.3406 3.00254 12.0716 2.99954C11.8026 2.99754 11.5446 3.10454 11.3546 3.29454L8.74356 5.91554L18.9686 16.1405ZM5.98756 8.81634C3.81156 11.7773 4.01356 16.0013 6.63456 18.7153C8.03956 20.1713 9.91756 20.9823 11.9246 21.0003H11.9266C13.6306 21.0133 15.2476 20.4483 16.5726 19.4013L5.98756 8.81634ZM4.70676 3.29294L20.7068 19.2929C21.0978 19.6839 21.0978 20.3159 20.7068 20.7069C20.5118 20.9019 20.2558 20.9999 19.9998 20.9999C19.7438 20.9999 19.4878 20.9019 19.2928 20.7069L3.29276 4.70694C2.90176 4.31594 2.90176 3.68394 3.29276 3.29294C3.68376 2.90194 4.31576 2.90194 4.70676 3.29294Z" fill="white"/>
</mask>
<g mask="url(#mask0_49_2963)">
</g>
</svg>
