<svg width="24" height="24" viewBox="0 0 24 24" fill="none" xmlns="http://www.w3.org/2000/svg">
<path fill-rule="evenodd" clip-rule="evenodd" d="M7.14151 18.716C8.54651 20.172 10.4245 20.983 12.4315 21H12.4335C14.4405 21.016 16.3325 20.236 17.7615 18.802C20.6985 15.858 20.7375 11.026 17.8495 8.03303L13.2895 3.30603C13.1035 3.11403 12.8475 3.00303 12.5785 3.00003C12.3095 2.99803 12.0515 3.10503 11.8615 3.29503L7.22851 7.94603C4.29151 10.893 4.25251 15.724 7.14151 18.716ZM8.64851 9.35503L12.5585 5.42903L16.4095 9.42103C18.5475 11.636 18.5185 15.211 16.3445 17.39C15.2985 18.44 13.9145 19.011 12.4495 19H12.4475C10.9835 18.988 9.60951 18.394 8.58051 17.327C6.44351 15.114 6.47251 11.538 8.64851 9.35503Z" fill="#344054"/>
</svg>
