<svg width="24" height="24" viewBox="0 0 24 24" fill="none" xmlns="http://www.w3.org/2000/svg">
<path fill-rule="evenodd" clip-rule="evenodd" d="M5.00038 17.9997C5.03038 17.9997 5.06038 17.9987 5.09038 17.9957L9.26038 17.6177C9.71838 17.5757 10.1494 17.3737 10.4744 17.0487L19.4714 8.05167C20.1994 7.32167 20.1684 6.10367 19.4034 5.33767L19.4024 5.33667L16.6644 2.59867C15.9234 1.85967 14.6504 1.82467 13.9484 2.52967L4.95238 11.5257C4.62638 11.8507 4.42438 12.2827 4.38238 12.7397L4.00338 16.9097C3.97738 17.2047 4.08338 17.4967 4.29238 17.7067C4.48138 17.8957 4.73638 17.9997 5.00038 17.9997ZM15.2714 4.03467L17.9654 6.72867L16.0184 8.67867L13.3234 5.98367L15.2714 4.03467ZM4.99988 20H18.9999C19.5499 20 19.9999 20.45 19.9999 21C19.9999 21.55 19.5499 22 18.9999 22H4.99988C4.44988 22 3.99988 21.55 3.99988 21C3.99988 20.45 4.44988 20 4.99988 20Z" fill="#344054"/>
<mask id="mask0_49_2800" style="mask-type:luminance" maskUnits="userSpaceOnUse" x="3" y="2" width="17" height="20">
<path fill-rule="evenodd" clip-rule="evenodd" d="M5.00038 17.9997C5.03038 17.9997 5.06038 17.9987 5.09038 17.9957L9.26038 17.6177C9.71838 17.5757 10.1494 17.3737 10.4744 17.0487L19.4714 8.05167C20.1994 7.32167 20.1684 6.10367 19.4034 5.33767L19.4024 5.33667L16.6644 2.59867C15.9234 1.85967 14.6504 1.82467 13.9484 2.52967L4.95238 11.5257C4.62638 11.8507 4.42438 12.2827 4.38238 12.7397L4.00338 16.9097C3.97738 17.2047 4.08338 17.4967 4.29238 17.7067C4.48138 17.8957 4.73638 17.9997 5.00038 17.9997ZM15.2714 4.03467L17.9654 6.72867L16.0184 8.67867L13.3234 5.98367L15.2714 4.03467ZM4.99988 20H18.9999C19.5499 20 19.9999 20.45 19.9999 21C19.9999 21.55 19.5499 22 18.9999 22H4.99988C4.44988 22 3.99988 21.55 3.99988 21C3.99988 20.45 4.44988 20 4.99988 20Z" fill="white"/>
</mask>
<g mask="url(#mask0_49_2800)">
</g>
</svg>
