<svg width="24" height="24" viewBox="0 0 24 24" fill="none" xmlns="http://www.w3.org/2000/svg">
<path fill-rule="evenodd" clip-rule="evenodd" d="M19.4024 7.33667L19.4034 7.33767C20.1684 8.10367 20.1994 9.32167 19.4714 10.0517L10.4744 19.0487C10.1494 19.3737 9.71841 19.5747 9.26041 19.6167L5.09041 19.9957C5.06041 19.9987 5.03041 19.9997 4.99941 19.9997C4.73641 19.9997 4.48141 19.8957 4.29241 19.7067C4.08241 19.4967 3.97741 19.2047 4.00341 18.9097L4.38241 14.7397C4.42441 14.2827 4.62641 13.8507 4.95241 13.5257L13.9484 4.52967C14.6504 3.82467 15.9234 3.85967 16.6644 4.59867L19.4024 7.33667ZM16.0184 10.6787L13.3234 7.98367L15.2714 6.03467L17.9654 8.72867L16.0184 10.6787ZM9.07941 17.6247L6.10241 17.8957L6.36641 14.9397L11.9834 9.32267L14.6794 12.0187L9.07941 17.6247Z" fill="#344054"/>
</svg>
