<svg width="200" height="156" viewBox="0 0 200 156" fill="none" xmlns="http://www.w3.org/2000/svg">
<path fill-rule="evenodd" clip-rule="evenodd" d="M55.0895 124.679H154.49C159.12 124.679 162.873 120.925 162.873 116.296C162.873 111.666 159.12 107.912 154.49 107.912C154.49 107.912 147.305 104.159 147.305 99.5291C147.305 94.8992 152.037 91.1459 157.875 91.1459H170.059C174.689 91.1459 178.442 87.3926 178.442 82.7627C178.442 78.1328 174.689 74.3795 170.059 74.3795H143.712C148.342 74.3795 152.095 70.6262 152.095 65.9963C152.095 61.3664 148.342 57.6131 143.712 57.6131H191.616C196.246 57.6131 199.999 53.8598 199.999 49.2299C199.999 44.6 196.246 40.8467 191.616 40.8467H74.2511C69.6212 40.8467 65.8679 44.6 65.8679 49.2299C65.8679 53.8598 69.6212 57.6131 74.2511 57.6131H26.3472C21.7173 57.6131 17.964 61.3664 17.964 65.9963C17.964 70.6262 21.7173 74.3795 26.3472 74.3795H56.2871C60.917 74.3795 64.6703 78.1328 64.6703 82.7627C64.6703 87.3926 60.917 91.1459 56.2871 91.1459H8.38319C3.75328 91.1459 0 94.8992 0 99.5291C0 104.159 3.75328 107.912 8.38319 107.912H55.0895C50.4596 107.912 46.7063 111.666 46.7063 116.296C46.7063 120.925 50.4596 124.679 55.0895 124.679ZM183.234 82.7602C183.234 87.3901 186.987 91.1434 191.617 91.1434C196.247 91.1434 200 87.3901 200 82.7602C200 78.1302 196.247 74.377 191.617 74.377C186.987 74.377 183.234 78.1302 183.234 82.7602Z" fill="#EFF2F6"/>
<path fill-rule="evenodd" clip-rule="evenodd" d="M28.7417 14.9043C28.7417 12.6952 30.5326 10.9043 32.7417 10.9043L177.902 10.9043C180.11 10.9043 181.9 12.6929 181.902 14.9005L182.031 150.612C182.033 152.823 180.241 154.616 178.031 154.616H32.7417C30.5326 154.616 28.7417 152.825 28.7417 150.616L28.7417 14.9043Z" fill="white" stroke="#98A2B3" stroke-width="2.5"/>
<mask id="mask0_3098_146643" style="mask-type:luminance" maskUnits="userSpaceOnUse" x="27" y="9" width="157" height="147">
<path fill-rule="evenodd" clip-rule="evenodd" d="M28.7417 14.9043C28.7417 12.6952 30.5326 10.9043 32.7417 10.9043L177.902 10.9043C180.11 10.9043 181.9 12.6929 181.902 14.9005L182.031 150.612C182.033 152.823 180.241 154.616 178.031 154.616H32.7417C30.5326 154.616 28.7417 152.825 28.7417 150.616L28.7417 14.9043Z" fill="white" stroke="white" stroke-width="2.5"/>
</mask>
<g mask="url(#mask0_3098_146643)">
<path fill-rule="evenodd" clip-rule="evenodd" d="M28.7417 10.9043L177.91 10.9043C180.115 10.9043 181.904 12.6883 181.91 14.893L182.034 58.8082H28.7417L28.7417 10.9043Z" fill="white" stroke="#98A2B3" stroke-width="2.5"/>
<path fill-rule="evenodd" clip-rule="evenodd" d="M28.7417 14.9043C28.7417 12.6952 30.5326 10.9043 32.7417 10.9043L105.32 10.9043L105.388 58.8082H28.7417L28.7417 14.9043Z" fill="white" stroke="#98A2B3" stroke-width="2.5"/>
<path fill-rule="evenodd" clip-rule="evenodd" d="M28.7417 106.715H181.899L182.023 150.607C182.029 152.821 180.237 154.619 178.023 154.619H32.7417C30.5326 154.619 28.7417 152.828 28.7417 150.619L28.7417 106.715Z" fill="white" stroke="#98A2B3" stroke-width="2.5"/>
<path fill-rule="evenodd" clip-rule="evenodd" d="M28.7417 106.715H105.32L105.388 154.619H32.7417C30.5326 154.619 28.7417 152.828 28.7417 150.619L28.7417 106.715Z" fill="white" stroke="#98A2B3" stroke-width="2.5"/>
<path fill-rule="evenodd" clip-rule="evenodd" d="M98.5986 111.505C99.7031 111.505 100.599 112.4 100.599 113.505V147.828C100.599 148.933 99.7031 149.828 98.5986 149.828H35.533C34.4284 149.828 33.533 148.933 33.533 147.828V113.505C33.533 112.4 34.4284 111.505 35.533 111.505H98.5986Z" fill="#DDE1E7"/>
<path fill-rule="evenodd" clip-rule="evenodd" d="M28.7417 58.8096L181.899 58.8096L182.034 106.714H28.7417L28.7417 58.8096Z" fill="white" stroke="#98A2B3" stroke-width="2.5"/>
<path fill-rule="evenodd" clip-rule="evenodd" d="M28.7417 58.8096L105.32 58.8096L105.388 106.714H28.7417L28.7417 58.8096Z" fill="white" stroke="#98A2B3" stroke-width="2.5"/>
<path fill-rule="evenodd" clip-rule="evenodd" d="M175.245 63.5996C176.349 63.5996 177.245 64.495 177.245 65.5996V99.9228C177.245 101.027 176.349 101.923 175.245 101.923H112.179C111.075 101.923 110.179 101.027 110.179 99.9228V65.5996C110.179 64.495 111.075 63.5996 112.179 63.5996H175.245Z" fill="#DDE1E7"/>
<path fill-rule="evenodd" clip-rule="evenodd" d="M98.5986 15.6968C99.7031 15.6968 100.599 16.5922 100.599 17.6968V52.02C100.599 53.1245 99.7031 54.02 98.5986 54.02H35.533C34.4284 54.02 33.533 53.1245 33.533 52.02V17.6968C33.533 16.5922 34.4284 15.6968 35.533 15.6968H98.5986Z" fill="#DDE1E7"/>
</g>
<circle cx="13.1735" cy="127.072" r="3.5928" stroke="#DDE1E7" stroke-width="2"/>
<path fill-rule="evenodd" clip-rule="evenodd" d="M162.338 18.8496C161.423 16.5631 159.611 14.7513 157.324 13.8366L154.49 12.7025L157.324 11.5683C159.611 10.6536 161.423 8.84178 162.338 6.55526L163.472 3.72046L164.606 6.55526C165.521 8.84179 167.332 10.6536 169.619 11.5683L172.454 12.7025L169.619 13.8366C167.332 14.7513 165.521 16.5631 164.606 18.8496L163.472 21.6844L162.338 18.8496Z" stroke="#DDE1E7" stroke-width="2.5" stroke-linejoin="round"/>
</svg>
