<svg width="26" height="28" viewBox="0 0 26 28" fill="none" xmlns="http://www.w3.org/2000/svg">
<path fill-rule="evenodd" clip-rule="evenodd" d="M18.9001 3.6999L17.4001 0.399902L15.9001 3.6999L12.6001 5.1999L15.9001 6.6999L17.4001 9.9999L18.9001 6.6999L22.2001 5.1999L18.9001 3.6999ZM23.4001 6.9999L22.6501 8.6499L21.0001 9.3999L22.6501 10.1499L23.4001 11.7999L24.1501 10.1499L25.8001 9.3999L24.1501 8.6499L23.4001 6.9999ZM21.868 15.5019C21.229 14.3899 17.706 8.81589 11.729 9.00289C6.202 9.14389 2.986 14.0139 2.132 15.5019C1.956 15.8109 1.956 16.1889 2.132 16.4979C2.762 17.5949 6.162 22.9999 12.025 22.9999C12.106 22.9999 12.188 22.9989 12.271 22.9969C17.798 22.8559 21.014 17.9859 21.868 16.4979C22.044 16.1889 22.044 15.8109 21.868 15.5019ZM8.5 15.9999C8.5 17.9299 10.07 19.4999 12 19.4999C13.93 19.4999 15.5 17.9299 15.5 15.9999C15.5 14.0699 13.93 12.4999 12 12.4999C10.07 12.4999 8.5 14.0699 8.5 15.9999ZM10.5 15.9999C10.5 15.1729 11.173 14.4999 12 14.4999C12.827 14.4999 13.5 15.1729 13.5 15.9999C13.5 16.8269 12.827 17.4999 12 17.4999C11.173 17.4999 10.5 16.8269 10.5 15.9999Z" fill="#344054"/>
</svg>
