<svg width="24" height="24" viewBox="0 0 24 24" fill="none" xmlns="http://www.w3.org/2000/svg">
<path fill-rule="evenodd" clip-rule="evenodd" d="M3.29275 3.29262C3.68375 2.90262 4.31675 2.90262 4.70675 3.29262L20.7067 19.2926C21.0977 19.6836 21.0977 20.3166 20.7067 20.7066C20.5117 20.9026 20.2558 20.9996 19.9998 20.9996C19.7437 20.9996 19.4888 20.9026 19.2927 20.7066L13.6628 15.0766C13.1548 15.3526 12.5898 15.4996 11.9998 15.4996C10.0708 15.4996 8.49975 13.9296 8.49975 11.9996C8.49975 11.4106 8.64675 10.8456 8.92375 10.3376L3.29275 4.70662C2.90275 4.31662 2.90275 3.68362 3.29275 3.29262ZM18.9548 16.1266C20.4768 14.7386 21.4528 13.2206 21.8678 12.4976C22.0438 12.1896 22.0438 11.8106 21.8678 11.5026C21.2298 10.3906 17.7048 4.81662 11.7298 5.00362C10.5448 5.03362 9.47375 5.28962 8.50175 5.67362L10.0818 7.25362C10.6178 7.11162 11.1808 7.01762 11.7808 7.00262C16.0718 6.89362 18.8948 10.5856 19.8267 12.0046C19.3708 12.7186 18.6038 13.7646 17.5438 14.7156L18.9548 16.1266ZM15.4978 18.3266L13.9178 16.7466C13.3828 16.8886 12.8198 16.9826 12.2198 16.9976C7.91475 17.0976 5.10475 13.4146 4.17275 11.9956C4.62975 11.2816 5.39575 10.2356 6.45575 9.28462L5.04475 7.87262C3.52275 9.26162 2.54675 10.7796 2.13275 11.5026C1.95575 11.8106 1.95575 12.1896 2.13275 12.4976C2.76175 13.5946 6.16175 18.9996 12.0247 18.9996C12.1067 18.9996 12.1888 18.9986 12.2708 18.9966C13.4548 18.9666 14.5268 18.7106 15.4978 18.3266ZM11.9998 13.4996C11.1728 13.4996 10.4998 12.8276 10.4998 11.9996C10.4998 11.9867 10.5027 11.9743 10.5057 11.9617C10.5085 11.95 10.5113 11.9382 10.5118 11.9256L12.0747 13.4886C12.0624 13.4891 12.0507 13.4916 12.0391 13.4941L12.0391 13.4941L12.039 13.4941C12.0262 13.4969 12.0134 13.4996 11.9998 13.4996Z" fill="#344054"/>
</svg>
