<svg width="24" height="24" viewBox="0 0 24 24" fill="none" xmlns="http://www.w3.org/2000/svg">
<path fill-rule="evenodd" clip-rule="evenodd" d="M11.7297 5.00362C17.7057 4.81662 21.2297 10.3906 21.8678 11.5026C22.0438 11.8106 22.0438 12.1896 21.8678 12.4976C21.0138 13.9866 17.7978 18.8556 12.2708 18.9966C12.1888 18.9986 12.1067 18.9996 12.0247 18.9996C6.16175 18.9996 2.76175 13.5946 2.13275 12.4976C1.95575 12.1896 1.95575 11.8106 2.13275 11.5026C2.98675 10.0136 6.20175 5.14362 11.7297 5.00362ZM12.2198 16.9976C7.91375 17.0976 5.10475 13.4146 4.17275 11.9956C5.19875 10.3906 7.78275 7.10462 11.7808 7.00262C16.0698 6.89362 18.8948 10.5856 19.8268 12.0046C18.8018 13.6096 16.2168 16.8956 12.2198 16.9976ZM8.50005 12C8.50005 10.07 10.0701 8.50002 12 8.50002C13.93 8.50002 15.5 10.07 15.5 12C15.5 13.93 13.93 15.5 12 15.5C10.0701 15.5 8.50005 13.93 8.50005 12ZM10.5 12C10.5 12.827 11.173 13.5 12 13.5C12.827 13.5 13.5 12.827 13.5 12C13.5 11.173 12.827 10.5 12 10.5C11.173 10.5 10.5 11.173 10.5 12Z" fill="#344054"/>
</svg>
