<svg width="24" height="24" viewBox="0 0 24 24" fill="none" xmlns="http://www.w3.org/2000/svg">
<path fill-rule="evenodd" clip-rule="evenodd" d="M9 22H13C13.553 22 14 21.553 14 21V14.8H16C16.449 14.8 16.844 14.5 16.964 14.067L17.964 10.468C18.047 10.167 17.985 9.844 17.796 9.595C17.607 9.347 17.312 9.2 17 9.2H14V7.6H17C17.553 7.6 18 7.152 18 6.6V3C18 2.447 17.553 2 17 2H14C10.691 2 8 4.468 8 7.5V9.2H6C5.447 9.2 5 9.647 5 10.2V13.8C5 14.353 5.447 14.8 6 14.8H8V21C8 21.553 8.447 22 9 22ZM12 20H10V13.8C10 13.247 9.553 12.8 9 12.8H7V11.2H9C9.553 11.2 10 10.753 10 10.2V7.5C10 5.57 11.794 4 14 4H16V5.6H14C12.897 5.6 12 6.452 12 7.5V10.2C12 10.753 12.447 11.2 13 11.2H15.685L15.24 12.8H13C12.447 12.8 12 13.247 12 13.8V20Z" fill="#344054"/>
</svg>
