<svg width="24" height="24" viewBox="0 0 24 24" fill="none" xmlns="http://www.w3.org/2000/svg">
<path fill-rule="evenodd" clip-rule="evenodd" d="M15.296 2.328L19.741 7.328C19.908 7.512 20 7.751 20 8V19.5C20 20.878 18.854 22 17.444 22H6.556C5.146 22 4 20.878 4 19.5V4.5C4 3.122 5.146 2 6.556 2H14.556C14.838 2 15.107 2.119 15.296 2.328ZM17.742 8L14 3.978V7.15C14 7.619 14.32 8 14.714 8H17.742Z" fill="#344054"/>
<mask id="mask0_49_3413" style="mask-type:luminance" maskUnits="userSpaceOnUse" x="4" y="2" width="16" height="20">
<path fill-rule="evenodd" clip-rule="evenodd" d="M15.296 2.328L19.741 7.328C19.908 7.512 20 7.751 20 8V19.5C20 20.878 18.854 22 17.444 22H6.556C5.146 22 4 20.878 4 19.5V4.5C4 3.122 5.146 2 6.556 2H14.556C14.838 2 15.107 2.119 15.296 2.328ZM17.742 8L14 3.978V7.15C14 7.619 14.32 8 14.714 8H17.742Z" fill="white"/>
</mask>
<g mask="url(#mask0_49_3413)">
</g>
</svg>
