<svg width="24" height="24" viewBox="0 0 24 24" fill="none" xmlns="http://www.w3.org/2000/svg">
<path fill-rule="evenodd" clip-rule="evenodd" d="M14.2965 2.328L19.7405 8.328C19.9075 8.512 20.0005 8.751 20.0005 9V19.5C20.0005 20.878 18.8535 22 17.4445 22H6.55549C5.14649 22 4.00049 20.878 4.00049 19.5V4.5C4.00049 3.122 5.14649 2 6.55549 2H13.5555C13.8385 2 14.1075 2.119 14.2965 2.328ZM17.4445 20H6.55549C6.24949 20 6.00049 19.776 6.00049 19.5V4.5C6.00049 4.224 6.24949 4 6.55549 4H11.0005V8.15C11.0005 9.722 12.2175 11 13.7145 11H18.0005V19.5C18.0005 19.776 17.7505 20 17.4445 20ZM17.6495 9H13.7145C13.3205 9 13.0005 8.619 13.0005 8.15V4H13.1125L17.6495 9Z" fill="#344054"/>
</svg>
