<svg width="24" height="24" viewBox="0 0 24 24" fill="none" xmlns="http://www.w3.org/2000/svg">
<path fill-rule="evenodd" clip-rule="evenodd" d="M14.2965 2.328L19.7405 8.328C19.9075 8.512 20.0005 8.751 20.0005 9V19.5C20.0005 20.878 18.8535 22 17.4445 22H6.55549C5.14649 22 4.00049 20.878 4.00049 19.5V4.5C4.00049 3.122 5.14649 2 6.55549 2H13.5555C13.8385 2 14.1065 2.119 14.2965 2.328ZM6.55549 20H17.4445C17.7515 20 18.0005 19.776 18.0005 19.5V10H14.7145C13.2175 10 12.0005 8.722 12.0005 7.15V4H6.55549C6.24949 4 6.00049 4.224 6.00049 4.5V19.5C6.00049 19.776 6.24949 20 6.55549 20ZM10.0002 13H14.0002C14.5532 13 15.0002 13.448 15.0002 14C15.0002 14.552 14.5532 15 14.0002 15H10.0002C9.44719 15 9.00019 14.552 9.00019 14C9.00019 13.448 9.44719 13 10.0002 13ZM14.0005 4.978L16.7425 8H14.7145C14.3205 8 14.0005 7.619 14.0005 7.15V4.978Z" fill="#344054"/>
</svg>
