<svg width="24" height="24" viewBox="0 0 24 24" fill="none" xmlns="http://www.w3.org/2000/svg">
<path fill-rule="evenodd" clip-rule="evenodd" d="M15.296 2.328L19.74 7.328C19.907 7.512 20 7.751 20 8V19.5C20 20.878 18.854 22 17.444 22H6.556C5.147 22 4 20.878 4 19.5V4.5C4 3.122 5.147 2 6.556 2H14.556C14.838 2 15.107 2.119 15.296 2.328ZM14 7.15C14 7.619 14.32 8 14.714 8H17.742L14 3.978V7.15ZM15 18C15.553 18 16 17.552 16 17C16 16.448 15.553 16 15 16H9C8.448 16 8 16.448 8 17C8 17.552 8.448 18 9 18H15ZM9 12H12C12.552 12 13 12.448 13 13C13 13.552 12.552 14 12 14H9C8.448 14 8 13.552 8 13C8 12.448 8.448 12 9 12Z" fill="#344054"/>
<mask id="mask0_49_2714" style="mask-type:luminance" maskUnits="userSpaceOnUse" x="4" y="2" width="16" height="20">
<path fill-rule="evenodd" clip-rule="evenodd" d="M15.296 2.328L19.74 7.328C19.907 7.512 20 7.751 20 8V19.5C20 20.878 18.854 22 17.444 22H6.556C5.147 22 4 20.878 4 19.5V4.5C4 3.122 5.147 2 6.556 2H14.556C14.838 2 15.107 2.119 15.296 2.328ZM14 7.15C14 7.619 14.32 8 14.714 8H17.742L14 3.978V7.15ZM15 18C15.553 18 16 17.552 16 17C16 16.448 15.553 16 15 16H9C8.448 16 8 16.448 8 17C8 17.552 8.448 18 9 18H15ZM9 12H12C12.552 12 13 12.448 13 13C13 13.552 12.552 14 12 14H9C8.448 14 8 13.552 8 13C8 12.448 8.448 12 9 12Z" fill="white"/>
</mask>
<g mask="url(#mask0_49_2714)">
</g>
</svg>
