<svg width="24" height="24" viewBox="0 0 24 24" fill="none" xmlns="http://www.w3.org/2000/svg">
<path fill-rule="evenodd" clip-rule="evenodd" d="M15.296 2.328L19.74 7.328C19.907 7.512 20 7.751 20 8V19.5C20 20.878 18.854 22 17.444 22H6.556C5.147 22 4 20.878 4 19.5V4.5C4 3.122 5.147 2 6.556 2H14.556C14.838 2 15.107 2.119 15.296 2.328ZM14.714 8C14.32 8 14 7.619 14 7.15V3.978L17.742 8H14.714ZM14 15H10C9.447 15 9 14.552 9 14C9 13.448 9.447 13 10 13H14C14.553 13 15 13.448 15 14C15 14.552 14.553 15 14 15Z" fill="#344054"/>
<mask id="mask0_49_2510" style="mask-type:luminance" maskUnits="userSpaceOnUse" x="4" y="2" width="16" height="20">
<path fill-rule="evenodd" clip-rule="evenodd" d="M15.296 2.328L19.74 7.328C19.907 7.512 20 7.751 20 8V19.5C20 20.878 18.854 22 17.444 22H6.556C5.147 22 4 20.878 4 19.5V4.5C4 3.122 5.147 2 6.556 2H14.556C14.838 2 15.107 2.119 15.296 2.328ZM14.714 8C14.32 8 14 7.619 14 7.15V3.978L17.742 8H14.714ZM14 15H10C9.447 15 9 14.552 9 14C9 13.448 9.447 13 10 13H14C14.553 13 15 13.448 15 14C15 14.552 14.553 15 14 15Z" fill="white"/>
</mask>
<g mask="url(#mask0_49_2510)">
</g>
</svg>
