<svg width="24" height="24" viewBox="0 0 24 24" fill="none" xmlns="http://www.w3.org/2000/svg">
<path fill-rule="evenodd" clip-rule="evenodd" d="M5.744 2.99988H18.256C19.769 2.99988 21 4.23188 21 5.74388V18.2559C21 19.7689 19.769 20.9999 18.256 20.9999H5.744C4.231 20.9999 3 19.7689 3 18.2559V5.74388C3 4.23188 4.231 2.99988 5.744 2.99988ZM5.744 4.99988H7V6.99988H5V5.74388C5 5.33388 5.334 4.99988 5.744 4.99988ZM5 16.9999V18.2559C5 18.6659 5.334 18.9999 5.744 18.9999H7V16.9999H5ZM18.256 18.9999C18.666 18.9999 19 18.6659 19 18.2559V16.9999H17V18.9999H18.256ZM19 6.99988V5.74388C19 5.33388 18.666 4.99988 18.256 4.99988H17V6.99988H19ZM17 14.9999H19V12.9999H17V14.9999ZM19 10.9999H17V8.99988H19V10.9999ZM9 18.9999H15V4.99988H9V18.9999ZM7 14.9999H5V12.9999H7V14.9999ZM5 10.9999H7V8.99988H5V10.9999Z" fill="#344054"/>
</svg>
