<svg width="24" height="24" viewBox="0 0 24 24" fill="none" xmlns="http://www.w3.org/2000/svg">
<path fill-rule="evenodd" clip-rule="evenodd" d="M12.2132 3.2954L16.8062 7.9864C19.7272 10.9514 19.7322 15.7854 16.8152 18.7574C15.3962 20.2044 13.5092 21.0004 11.5002 21.0004H11.4922C9.48524 20.9984 7.60224 20.2024 6.18924 18.7564C3.27424 15.7854 3.27024 10.9514 6.18124 7.9844L7.16524 6.9914C7.41824 6.7364 7.78824 6.6374 8.13724 6.7294C8.48424 6.8234 8.75424 7.0964 8.84424 7.4444C9.07524 8.3354 9.34924 8.7714 9.50024 8.9374C9.85524 8.5634 10.4982 7.0514 10.4982 4.4944C10.4982 4.3464 10.4982 4.2084 10.4892 4.0684C10.4702 3.7734 10.5842 3.4844 10.7982 3.2804C11.1942 2.9044 11.8312 2.9044 12.2132 3.2954ZM11.4712 19.0004C12.4092 19.0064 13.2922 18.6604 13.9592 18.0234C15.3312 16.7134 15.3492 14.5664 14.0002 13.2364L11.8712 11.1354C11.7842 11.0494 11.6642 11.0014 11.5392 11.0004C11.4132 10.9994 11.2932 11.0454 11.2042 11.1304L9.04124 13.1984C7.66924 14.5074 7.65124 16.6554 9.00024 17.9844C9.65624 18.6314 10.5332 18.9924 11.4702 19.0004H11.4712Z" fill="#344054"/>
<mask id="mask0_49_3254" style="mask-type:luminance" maskUnits="userSpaceOnUse" x="4" y="3" width="15" height="19">
<path fill-rule="evenodd" clip-rule="evenodd" d="M12.2132 3.2954L16.8062 7.9864C19.7272 10.9514 19.7322 15.7854 16.8152 18.7574C15.3962 20.2044 13.5092 21.0004 11.5002 21.0004H11.4922C9.48524 20.9984 7.60224 20.2024 6.18924 18.7564C3.27424 15.7854 3.27024 10.9514 6.18124 7.9844L7.16524 6.9914C7.41824 6.7364 7.78824 6.6374 8.13724 6.7294C8.48424 6.8234 8.75424 7.0964 8.84424 7.4444C9.07524 8.3354 9.34924 8.7714 9.50024 8.9374C9.85524 8.5634 10.4982 7.0514 10.4982 4.4944C10.4982 4.3464 10.4982 4.2084 10.4892 4.0684C10.4702 3.7734 10.5842 3.4844 10.7982 3.2804C11.1942 2.9044 11.8312 2.9044 12.2132 3.2954ZM11.4712 19.0004C12.4092 19.0064 13.2922 18.6604 13.9592 18.0234C15.3312 16.7134 15.3492 14.5664 14.0002 13.2364L11.8712 11.1354C11.7842 11.0494 11.6642 11.0014 11.5392 11.0004C11.4132 10.9994 11.2932 11.0454 11.2042 11.1304L9.04124 13.1984C7.66924 14.5074 7.65124 16.6554 9.00024 17.9844C9.65624 18.6314 10.5332 18.9924 11.4702 19.0004H11.4712Z" fill="white"/>
</mask>
<g mask="url(#mask0_49_3254)">
</g>
</svg>
