<svg width="24" height="24" viewBox="0 0 24 24" fill="none" xmlns="http://www.w3.org/2000/svg">
<path fill-rule="evenodd" clip-rule="evenodd" d="M11.494 21.0015H11.501C13.509 21.0015 15.395 20.2065 16.814 18.7605C19.729 15.7895 19.724 10.9565 16.804 7.99247L12.214 3.30347C11.833 2.91147 11.197 2.91147 10.8 3.28847C10.586 3.49247 10.473 3.78147 10.492 4.07647C10.5 4.21547 10.5 4.35447 10.5 4.50147C10.5 7.05847 9.85796 8.56947 9.50296 8.94347C9.35196 8.77747 9.07796 8.34047 8.84796 7.45147C8.75796 7.10347 8.48796 6.83047 8.14096 6.73647C7.79196 6.64547 7.42296 6.74347 7.16896 6.99747L6.18596 7.99147C3.27696 10.9565 3.28096 15.7895 6.19496 18.7595C7.60596 20.2045 9.48796 20.9995 11.494 21.0015ZM7.62396 17.3605C5.50596 15.2015 5.46296 11.7155 7.49496 9.51647C8.16396 10.7755 8.99196 11.0015 9.49996 11.0015C11.158 11.0015 12.089 8.82347 12.391 6.34147L15.377 9.39247C17.538 11.5875 17.542 15.1625 15.386 17.3605C14.347 18.4185 12.968 19.0015 11.501 19.0015H11.496C10.032 19.0005 8.65796 18.4175 7.62396 17.3605Z" fill="#344054"/>
</svg>
