<svg width="24" height="24" viewBox="0 0 24 24" fill="none" xmlns="http://www.w3.org/2000/svg">
<path d="M19.2675 4.67976C18.8055 4.34576 18.2075 4.25076 17.6685 4.42676C17.0925 4.61476 16.3425 4.71376 15.4995 4.71376C14.3755 4.71376 13.3995 4.33076 12.3655 3.92576C11.2035 3.47076 10.0005 2.99976 8.49951 2.99976C5.61351 2.99976 4.49551 3.95176 4.29951 4.14376C4.10851 4.33076 3.99951 4.58876 3.99951 4.85776V11.9998V15.1428V19.9998C3.99951 20.5528 4.44751 20.9998 4.99951 20.9998C5.55251 20.9998 5.99951 20.5528 5.99951 19.9998V15.7018C6.39451 15.5268 7.17251 15.2858 8.49951 15.2858C9.62351 15.2858 10.6005 15.6688 11.6345 16.0748C12.7965 16.5298 13.9985 16.9998 15.4995 16.9998C17.3085 16.9998 18.4225 16.6218 19.0405 16.3048C19.6325 15.9978 19.9995 15.4028 19.9995 14.7488V6.10576C19.9995 5.54576 19.7265 5.01276 19.2675 4.67976Z" fill="#344054"/>
<mask id="mask0_49_3312" style="mask-type:luminance" maskUnits="userSpaceOnUse" x="3" y="2" width="17" height="19">
<path d="M19.2675 4.67976C18.8055 4.34576 18.2075 4.25076 17.6685 4.42676C17.0925 4.61476 16.3425 4.71376 15.4995 4.71376C14.3755 4.71376 13.3995 4.33076 12.3655 3.92576C11.2035 3.47076 10.0005 2.99976 8.49951 2.99976C5.61351 2.99976 4.49551 3.95176 4.29951 4.14376C4.10851 4.33076 3.99951 4.58876 3.99951 4.85776V11.9998V15.1428V19.9998C3.99951 20.5528 4.44751 20.9998 4.99951 20.9998C5.55251 20.9998 5.99951 20.5528 5.99951 19.9998V15.7018C6.39451 15.5268 7.17251 15.2858 8.49951 15.2858C9.62351 15.2858 10.6005 15.6688 11.6345 16.0748C12.7965 16.5298 13.9985 16.9998 15.4995 16.9998C17.3085 16.9998 18.4225 16.6218 19.0405 16.3048C19.6325 15.9978 19.9995 15.4028 19.9995 14.7488V6.10576C19.9995 5.54576 19.7265 5.01276 19.2675 4.67976Z" fill="white"/>
</mask>
<g mask="url(#mask0_49_3312)">
</g>
</svg>
