<svg width="24" height="24" viewBox="0 0 24 24" fill="none" xmlns="http://www.w3.org/2000/svg">
<path fill-rule="evenodd" clip-rule="evenodd" d="M17.669 4.42688C18.208 4.25088 18.806 4.34588 19.268 4.67988C19.727 5.01288 20 5.54588 20 6.10588V14.7489C20 15.4019 19.633 15.9979 19.041 16.3049C18.423 16.6219 17.309 16.9999 15.5 16.9999C13.9999 16.9999 12.7984 16.5294 11.637 16.0747L11.635 16.0739L11.6327 16.073C10.5996 15.6683 9.62317 15.2859 8.5 15.2859C7.173 15.2859 6.395 15.5259 6 15.7019V19.9999C6 20.5529 5.553 20.9999 5 20.9999C4.447 20.9999 4 20.5529 4 19.9999V15.1429V11.9999V4.85688C4 4.58888 4.108 4.33088 4.3 4.14388C4.495 3.95188 5.613 2.99988 8.5 2.99988C10.0001 2.99988 11.2016 3.47034 12.363 3.9251L12.365 3.92588L12.3673 3.92678C13.4004 4.33144 14.3768 4.71388 15.5 4.71388C16.343 4.71388 17.093 4.61388 17.669 4.42688ZM15.5 14.9999C16.825 14.9999 17.604 14.7629 18 14.5859V6.41388C17.276 6.61288 16.438 6.71388 15.5 6.71388C13.9999 6.71388 12.7984 6.24342 11.637 5.78866L11.635 5.78788L11.6327 5.78698C10.5996 5.38231 9.62317 4.99988 8.5 4.99988C7.177 4.99988 6.396 5.23888 6 5.41588V11.9999V13.5839C6.624 13.4129 7.443 13.2859 8.5 13.2859C10.0001 13.2859 11.2016 13.7563 12.363 14.2111L12.365 14.2119L12.3673 14.2128C13.4004 14.6174 14.3768 14.9999 15.5 14.9999Z" fill="#344054"/>
</svg>
