<svg width="24" height="24" viewBox="0 0 24 24" fill="none" xmlns="http://www.w3.org/2000/svg">
<path fill-rule="evenodd" clip-rule="evenodd" d="M17.3279 14.5002L19.8309 10.7562C20.0359 10.4492 20.0559 10.0552 19.8819 9.72918C19.7079 9.40318 19.3689 9.20018 18.9999 9.20018H13.1139L13.8829 2.10718C13.9319 1.65018 13.6629 1.21818 13.2299 1.06118C12.7969 0.902182 12.3129 1.06118 12.0569 1.44418L8.93786 6.11018L17.3279 14.5002ZM6.67166 9.50018L4.16866 13.2442C3.96366 13.5512 3.94366 13.9452 4.11766 14.2712C4.29166 14.5972 4.63066 14.8002 4.99966 14.8002H10.8857L10.1167 21.8932C10.0677 22.3502 10.3367 22.7822 10.7697 22.9392C10.8817 22.9802 10.9967 23.0002 11.1107 23.0002C11.4377 23.0002 11.7527 22.8402 11.9427 22.5562L15.0617 17.8902L6.67166 9.50018ZM4.70676 3.29308L20.7068 19.2931C21.0978 19.6841 21.0978 20.3161 20.7068 20.7071C20.5118 20.9021 20.2558 21.0001 19.9998 21.0001C19.7438 21.0001 19.4878 20.9021 19.2928 20.7071L3.29276 4.70708C2.90176 4.31608 2.90176 3.68408 3.29276 3.29308C3.68376 2.90208 4.31576 2.90208 4.70676 3.29308Z" fill="#344054"/>
<mask id="mask0_49_2841" style="mask-type:luminance" maskUnits="userSpaceOnUse" x="2" y="1" width="19" height="23">
<path fill-rule="evenodd" clip-rule="evenodd" d="M17.3279 14.5002L19.8309 10.7562C20.0359 10.4492 20.0559 10.0552 19.8819 9.72918C19.7079 9.40318 19.3689 9.20018 18.9999 9.20018H13.1139L13.8829 2.10718C13.9319 1.65018 13.6629 1.21818 13.2299 1.06118C12.7969 0.902182 12.3129 1.06118 12.0569 1.44418L8.93786 6.11018L17.3279 14.5002ZM6.67166 9.50018L4.16866 13.2442C3.96366 13.5512 3.94366 13.9452 4.11766 14.2712C4.29166 14.5972 4.63066 14.8002 4.99966 14.8002H10.8857L10.1167 21.8932C10.0677 22.3502 10.3367 22.7822 10.7697 22.9392C10.8817 22.9802 10.9967 23.0002 11.1107 23.0002C11.4377 23.0002 11.7527 22.8402 11.9427 22.5562L15.0617 17.8902L6.67166 9.50018ZM4.70676 3.29308L20.7068 19.2931C21.0978 19.6841 21.0978 20.3161 20.7068 20.7071C20.5118 20.9021 20.2558 21.0001 19.9998 21.0001C19.7438 21.0001 19.4878 20.9021 19.2928 20.7071L3.29276 4.70708C2.90176 4.31608 2.90176 3.68408 3.29276 3.29308C3.68376 2.90208 4.31576 2.90208 4.70676 3.29308Z" fill="white"/>
</mask>
<g mask="url(#mask0_49_2841)">
</g>
</svg>
