<svg width="24" height="24" viewBox="0 0 24 24" fill="none" xmlns="http://www.w3.org/2000/svg">
<path d="M11.1114 23.0002C10.9974 23.0002 10.8824 22.9802 10.7694 22.9392C10.3374 22.7822 10.0674 22.3502 10.1174 21.8932L10.8854 14.8002H5.00036C4.63136 14.8002 4.29236 14.5972 4.11836 14.2712C3.94436 13.9452 3.96436 13.5512 4.16936 13.2442L12.0574 1.44418C12.3134 1.06118 12.7974 0.902182 13.2304 1.06118C13.6634 1.21818 13.9324 1.65018 13.8824 2.10718L13.1144 9.20018H19.0004C19.3694 9.20018 19.7084 9.40318 19.8824 9.72918C20.0554 10.0552 20.0364 10.4492 19.8314 10.7562L11.9424 22.5562C11.7534 22.8402 11.4374 23.0002 11.1114 23.0002Z" fill="#344054"/>
<mask id="mask0_49_2304" style="mask-type:luminance" maskUnits="userSpaceOnUse" x="4" y="1" width="16" height="23">
<path d="M11.1114 23.0002C10.9974 23.0002 10.8824 22.9802 10.7694 22.9392C10.3374 22.7822 10.0674 22.3502 10.1174 21.8932L10.8854 14.8002H5.00036C4.63136 14.8002 4.29236 14.5972 4.11836 14.2712C3.94436 13.9452 3.96436 13.5512 4.16936 13.2442L12.0574 1.44418C12.3134 1.06118 12.7974 0.902182 13.2304 1.06118C13.6634 1.21818 13.9324 1.65018 13.8824 2.10718L13.1144 9.20018H19.0004C19.3694 9.20018 19.7084 9.40318 19.8824 9.72918C20.0554 10.0552 20.0364 10.4492 19.8314 10.7562L11.9424 22.5562C11.7534 22.8402 11.4374 23.0002 11.1114 23.0002Z" fill="white"/>
</mask>
<g mask="url(#mask0_49_2304)">
</g>
</svg>
