<svg width="24" height="24" viewBox="0 0 24 24" fill="none" xmlns="http://www.w3.org/2000/svg">
<path fill-rule="evenodd" clip-rule="evenodd" d="M10.7689 22.9399C10.8819 22.9809 10.9969 22.9999 11.1109 22.9999C11.4369 22.9999 11.7529 22.8399 11.9419 22.5559L19.8309 10.7559C20.0359 10.4489 20.0559 10.0549 19.8819 9.72886C19.7079 9.40386 19.3689 9.19986 18.9999 9.19986H13.1139L13.8829 2.10786C13.9329 1.65086 13.6629 1.21786 13.2299 1.06086C12.7969 0.902859 12.3129 1.06086 12.0579 1.44486L4.16887 13.2439C3.96387 13.5509 3.94387 13.9459 4.11787 14.2719C4.29187 14.5969 4.63087 14.7999 4.99987 14.7999H10.8859L10.1169 21.8929C10.0669 22.3499 10.3369 22.7819 10.7689 22.9399ZM11.9999 12.7999H6.87087L11.4549 5.94386L11.0059 10.0929C10.9749 10.3749 11.0659 10.6569 11.2559 10.8679C11.4449 11.0789 11.7159 11.1999 11.9999 11.1999H17.1289L12.5449 18.0569L12.9939 13.9069C13.0239 13.6249 12.9329 13.3429 12.7439 13.1319C12.5549 12.9209 12.2839 12.7999 11.9999 12.7999Z" fill="#344054"/>
</svg>
