<svg width="24" height="24" viewBox="0 0 24 24" fill="none" xmlns="http://www.w3.org/2000/svg">
<path fill-rule="evenodd" clip-rule="evenodd" d="M11.1929 8.36437L11.4549 5.94337L10.3799 7.55137L8.93786 6.11037L12.0579 1.44437C12.3129 1.06037 12.7979 0.902371 13.2299 1.06037C13.6629 1.21737 13.9329 1.65037 13.8829 2.10737L13.1139 9.20037H18.9999C19.3689 9.20037 19.7079 9.40337 19.8819 9.72837C20.0559 10.0544 20.0359 10.4494 19.8309 10.7554L17.3279 14.5004L15.8869 13.0584L17.1289 11.2004H14.0279L11.1929 8.36437ZM20.7068 19.293L4.70676 3.29297C4.31576 2.90197 3.68376 2.90197 3.29276 3.29297C2.90176 3.68397 2.90176 4.31597 3.29276 4.70697L19.2928 20.707C19.4878 20.902 19.7438 21 19.9998 21C20.2558 21 20.5118 20.902 20.7068 20.707C21.0978 20.316 21.0978 19.684 20.7068 19.293ZM12.5447 18.0566L12.8067 15.6356L9.97166 12.7996H6.87066L8.11266 10.9416L6.67166 9.49957L4.16866 13.2446C3.96366 13.5506 3.94366 13.9456 4.11766 14.2716C4.29166 14.5966 4.63066 14.7996 4.99966 14.7996H10.8857L10.1167 21.8926C10.0667 22.3496 10.3367 22.7826 10.7697 22.9396C10.8817 22.9806 10.9967 22.9996 11.1107 22.9996C11.4377 22.9996 11.7527 22.8396 11.9417 22.5556L15.0617 17.8896L13.6197 16.4486L12.5447 18.0566Z" fill="#344054"/>
</svg>
