<svg width="20" height="20" viewBox="0 0 20 20" fill="none" xmlns="http://www.w3.org/2000/svg">
<path fill-rule="evenodd" clip-rule="evenodd" d="M1.66699 15.057C1.66699 16.1745 2.60199 17.0837 3.75033 17.0837H16.2503C17.3987 17.0837 18.3337 16.1745 18.3337 15.057V7.89866C18.3337 6.78033 17.3987 5.87199 16.2503 5.87199H10.3953L8.22949 3.22283C8.07116 3.02866 7.83366 2.91699 7.58449 2.91699H3.75033C2.60199 2.91699 1.66699 3.82533 1.66699 4.94283V15.057ZM3.33366 15.057V4.94283C3.33366 4.74449 3.52033 4.58366 3.75033 4.58366H7.18866L9.35533 7.23199C9.51366 7.42616 9.75033 7.53866 10.0003 7.53866H16.2503C16.4803 7.53866 16.667 7.69949 16.667 7.89866V15.057C16.667 15.2553 16.4803 15.417 16.2503 15.417H3.75033C3.52033 15.417 3.33366 15.2553 3.33366 15.057Z" fill="#58B0FF"/>
</svg>
