<svg width="24" height="24" viewBox="0 0 24 24" fill="none" xmlns="http://www.w3.org/2000/svg">
<path fill-rule="evenodd" clip-rule="evenodd" d="M12.474 7.04637H19.5C20.878 7.04637 22 8.13637 22 9.47837V18.0684C22 19.4094 20.878 20.5004 19.5 20.5004H4.5C3.122 20.5004 2 19.4094 2 18.0684V5.93137C2 4.59037 3.122 3.50037 4.5 3.50037H9.101C9.4 3.50037 9.685 3.63437 9.875 3.86737L12.474 7.04637ZM20 18.0684C20 18.3064 19.776 18.5004 19.5 18.5004H4.5C4.224 18.5004 4 18.3064 4 18.0684V13.7554V5.93137C4 5.69337 4.224 5.50037 4.5 5.50037H8.626L11.226 8.67837C11.416 8.91137 11.7 9.04637 12 9.04637H19.5C19.776 9.04637 20 9.23937 20 9.47837V18.0684ZM10 13C9.45 13 9 13.45 9 14C9 14.55 9.45 15 10 15H14C14.55 15 15 14.55 15 14C15 13.45 14.55 13 14 13H10Z" fill="#344054"/>
</svg>
