<svg width="24" height="24" viewBox="0 0 24 24" fill="none" xmlns="http://www.w3.org/2000/svg">
<g clip-path="url(#clip0_1638_7399)">
<rect x="2" y="20" width="20" height="4" fill="#344054"/>
<path d="M14.025 11.55L11.25 8.77502L7.55 12.475L10.35 15.25L14.025 11.55ZM12.95 7.05002L15.75 9.85002L19.325 6.27502L16.55 3.47502L12.95 7.05002ZM10.4 6.25002L16.575 12.4L12.25 16.7C11.7833 17.1667 11.1458 17.4 10.3375 17.4C9.52917 17.4 8.89167 17.1667 8.425 16.7L8.15 16.425L6.875 17.75H3L6.225 14.525L6.1 14.425C5.56667 13.8917 5.3125 13.2375 5.3375 12.4625C5.3625 11.6875 5.63333 11.0334 6.15 10.5L10.4 6.25002ZM10.4 6.25002L14.925 1.72502C15.3876 1.25836 15.949 1.02502 16.6094 1.02502C17.2698 1.02502 17.8333 1.25836 18.3 1.72502L21 4.47502C21.4667 4.93757 21.6958 5.51987 21.6875 6.22192C21.6792 6.92399 21.4417 7.50836 20.975 7.97502L16.575 12.4L10.4 6.25002Z" fill="#344054"/>
</g>
<defs>
<clipPath id="clip0_1638_7399">
<rect width="24" height="24" fill="white"/>
</clipPath>
</defs>
</svg>
