<svg width="24" height="24" viewBox="0 0 24 24" fill="none" xmlns="http://www.w3.org/2000/svg">
<path fill-rule="evenodd" clip-rule="evenodd" d="M4 4.5C4 3.11929 5.11929 2 6.5 2H18C18.5523 2 19 2.44772 19 3C19 3.55228 18.5523 4 18 4H6.5C6.22386 4 6 4.22386 6 4.5V19.5C6 19.7761 6.22386 20 6.5 20H17.5C17.7761 20 18 19.7761 18 19.5V16C18 15.4477 18.4477 15 19 15C19.5523 15 20 15.4477 20 16V19.5C20 20.8807 18.8807 22 17.5 22H6.5C5.11929 22 4 20.8807 4 19.5V4.5ZM21.4852 9.59618L13.3857 17.6958C13.2555 17.8259 13.0919 17.9177 12.9129 17.9608L10.3751 18.5725C9.68066 18.7399 9.03973 18.1462 9.15358 17.4409L9.59953 14.6784C9.63302 14.471 9.73104 14.2793 9.87964 14.1307L17.9497 6.06065C18.5355 5.47486 19.4852 5.47486 20.071 6.06065L21.4852 7.47486C22.071 8.06065 22.071 9.0104 21.4852 9.59618ZM19.7175 8.53552L19.0104 7.82842L11.3991 15.4397L11.0456 16.5003L12.1062 16.1468L19.7175 8.53552ZM13 8C13.5523 8 14 7.55228 14 7C14 6.44772 13.5523 6 13 6H9C8.44772 6 8 6.44772 8 7C8 7.55228 8.44772 8 9 8H13Z" fill="#344054"/>
</svg>
