<svg width="24" height="24" viewBox="0 0 24 24" fill="none" xmlns="http://www.w3.org/2000/svg">
<g clip-path="url(#clip0_47_724)">
<path d="M18 13C18 16.31 15.31 19 12 19C8.69 19 6 16.31 6 13C6 9.69 8.69 7 12 7V11L17 6L12 1V5C7.58 5 4 8.58 4 13C4 17.42 7.58 21 12 21C16.42 21 20 17.42 20 13H18Z" fill="#344054"/>
<path d="M12.0301 15.38C11.5901 15.38 11.4501 15.07 11.4301 14.82H10.5901C10.6201 15.67 11.3801 16.07 12.0301 16.07C12.9601 16.07 13.4701 15.44 13.4701 14.64C13.4701 13.31 12.5001 13.2 12.1701 13.2C11.9701 13.2 11.7401 13.25 11.5301 13.36L11.6401 12.44H13.3401V11.73H10.9501L10.7001 13.9L11.3701 14.07C11.5001 13.94 11.6501 13.84 11.9401 13.84C12.3401 13.84 12.6301 14.07 12.6301 14.59C12.6201 14.64 12.6501 15.38 12.0301 15.38Z" fill="#344054"/>
</g>
<defs>
<clipPath id="clip0_47_724">
<rect width="24" height="24" fill="white"/>
</clipPath>
</defs>
</svg>
