<svg width="24" height="24" viewBox="0 0 24 24" fill="none" xmlns="http://www.w3.org/2000/svg">
<g clip-path="url(#clip0_47_716)">
<path d="M18 13C18 16.31 15.31 19 12 19C8.69 19 6 16.31 6 13C6 9.69 8.69 7 12 7V11L17 6L12 1V5C7.58 5 4 8.58 4 13C4 17.42 7.58 21 12 21C16.42 21 20 17.42 20 13H18Z" fill="#344054"/>
<path d="M10.0601 15.3801C9.77009 15.3801 9.44009 15.2101 9.44009 14.8401H8.59009C8.59009 15.8101 9.49009 16.0701 10.0401 16.0701C10.9101 16.0701 11.5501 15.6101 11.5501 14.8201C11.5501 14.1601 11.1001 13.9201 10.8401 13.8201C10.9501 13.7701 11.4901 13.5001 11.4901 12.9001C11.4901 12.6901 11.4401 11.6801 10.0501 11.6801C9.43009 11.6801 8.65009 12.0301 8.65009 12.8401H9.50009C9.50009 12.5001 9.81009 12.3601 10.0701 12.3601C10.6601 12.3601 10.6501 12.8601 10.6501 12.9001C10.6501 13.4201 10.2401 13.4901 10.0201 13.4901H9.56009V14.1501H10.0101C10.6601 14.1501 10.7101 14.5701 10.7101 14.7901C10.7101 15.1101 10.5001 15.3801 10.0601 15.3801Z" fill="#344054"/>
<path d="M13.8499 11.68C13.7099 11.68 12.4099 11.6 12.4099 13.5V14.24C12.4099 16.14 13.7199 16.06 13.8499 16.06C13.9899 16.06 15.2899 16.15 15.2899 14.24V13.5C15.2999 11.59 13.9899 11.68 13.8499 11.68ZM14.4499 14.35C14.4499 15.12 14.2399 15.38 13.8599 15.38C13.4799 15.38 13.2599 15.12 13.2599 14.35V13.38C13.2599 12.63 13.4799 12.37 13.8499 12.37C14.2299 12.37 14.4499 12.63 14.4499 13.38V14.35Z" fill="#344054"/>
</g>
<defs>
<clipPath id="clip0_47_716">
<rect width="24" height="24" fill="white"/>
</clipPath>
</defs>
</svg>
