<svg width="24" height="24" viewBox="0 0 24 24" fill="none" xmlns="http://www.w3.org/2000/svg">
<path fill-rule="evenodd" clip-rule="evenodd" d="M13.3002 21.797C13.4772 21.932 13.6902 22 13.9032 22C14.0552 22 14.2082 21.965 14.3492 21.895C14.6892 21.726 14.9032 21.379 14.9032 21V14.69L19.8802 5.475C20.0472 5.165 20.0392 4.79 19.8592 4.488C19.6782 4.185 19.3522 4 19.0002 4H5.00023C4.65123 4 4.32723 4.182 4.14623 4.48C3.96423 4.778 3.95123 5.149 4.11223 5.459L8.87723 14.681V17.955C8.87723 18.268 9.02423 18.563 9.27423 18.752L13.3002 21.797ZM12.9032 18.99L10.8772 17.457V14.437C10.8772 14.278 10.8392 14.12 10.7652 13.978L6.64323 6H17.3232L13.0232 13.962C12.9452 14.108 12.9032 14.271 12.9032 14.437V18.99Z" fill="#344054"/>
</svg>
