<svg width="24" height="24" viewBox="0 0 24 24" fill="none" xmlns="http://www.w3.org/2000/svg">
<path fill-rule="evenodd" clip-rule="evenodd" d="M8 2L8.0389 2.38429C8.23027 4.27478 9.72522 5.76973 11.6157 5.9611L12 6L11.6157 6.0389C9.72522 6.23027 8.23027 7.72522 8.0389 9.61571L8 10L7.9611 9.61571C7.76973 7.72522 6.27478 6.23027 4.38429 6.0389L4 6L4.38429 5.9611C6.27478 5.76973 7.76973 4.27478 7.9611 2.38429L8 2ZM4 10L4.02918 10.2882C4.17271 11.7061 5.29392 12.8273 6.71178 12.9708L7 13L6.71178 13.0292C5.29392 13.1727 4.17271 14.2939 4.02918 15.7118L4 16L3.97082 15.7118C3.82729 14.2939 2.70608 13.1727 1.28822 13.0292L1 13L1.28822 12.9708C2.70608 12.8273 3.82729 11.7061 3.97082 10.2882L4 10ZM21.4613 8.11281L21.4604 8.11187L18.8899 5.54141C18.1943 4.84763 16.9992 4.81477 16.3401 5.47663L7.89459 13.9222C7.58854 14.2273 7.3989 14.6328 7.35947 15.0619L7.00366 18.9767C6.97925 19.2536 7.07782 19.5278 7.27497 19.7249C7.45241 19.9024 7.6918 20 7.93871 20C7.96781 20 7.99598 19.9991 8.02414 19.9962L11.939 19.6404C12.3689 19.601 12.7736 19.4123 13.0787 19.1072L21.5251 10.6607C22.2086 9.9754 22.1795 8.83194 21.4613 8.11281ZM15.7533 8.71927L18.2834 11.2494L20.1113 9.41868L17.5821 6.88953L15.7533 8.71927ZM8.97423 18.0248L11.7691 17.7704L17.0264 12.5074L14.4954 9.97642L9.22207 15.2497L8.97423 18.0248Z" fill="#344054"/>
</svg>
