<svg width="24" height="24" viewBox="0 0 24 24" fill="none" xmlns="http://www.w3.org/2000/svg">
<path fill-rule="evenodd" clip-rule="evenodd" d="M18.807 7H19.2C20.209 7 21 7.967 21 9.2V12.8C21 13.907 20.36 14.793 19.5 14.964V19.333C19.5 20.252 18.687 21 17.687 21H6.312C5.313 21 4.5 20.252 4.5 19.333V14.964C3.64 14.793 3 13.907 3 12.8V9.2C3 7.967 3.791 7 4.8 7H5.193C5.076 6.686 5 6.353 5 6C5 4.346 6.41 3 8.143 3C10.065 3 11.271 4.199 12 5.397C12.729 4.199 13.935 3 15.857 3C17.59 3 19 4.346 19 6C19 6.353 18.925 6.686 18.807 7ZM7 6C7 5.448 7.513 5 8.143 5C9.4 5 10.17 6.09 10.594 7H8.143C7.513 7 7 6.552 7 6ZM5.026 9C5.013 9.05 5 9.117 5 9.2V12.8C5 12.883 5.013 12.95 5.026 13H11V9H8.143H5.026ZM6.5 19H11V15H6.5V19ZM13 19H17.5V15H13V19ZM17 6C17 5.448 16.487 5 15.857 5C14.588 5 13.82 6.09 13.4 7H15.857C16.487 7 17 6.552 17 6ZM19 9.2V12.8C19 12.883 18.987 12.95 18.974 13H13V9H15.857H18.974C18.987 9.05 19 9.117 19 9.2Z" fill="#344054"/>
</svg>
