<svg width="24" height="24" viewBox="0 0 24 24" fill="none" xmlns="http://www.w3.org/2000/svg">
<path fill-rule="evenodd" clip-rule="evenodd" d="M18.2575 7.09076H20.0995C20.5965 7.09076 20.9995 7.67676 20.9995 8.40076V12.3268C20.9995 13.0498 20.5965 13.6368 20.0995 13.6368H19.3635H12.8185V7.09076H11.1815V13.6368H4.63651H3.90051C3.40351 13.6368 2.99951 13.0498 2.99951 12.3268V8.40076C2.99951 7.67676 3.40351 7.09076 3.90051 7.09076H5.74251C5.56351 6.71776 5.45351 6.30476 5.45351 5.86276C5.45351 4.28476 6.73951 2.99976 8.31851 2.99976C10.1995 2.99976 11.3385 4.31976 11.9995 5.56876C12.6605 4.31976 13.8005 2.99976 15.6815 2.99976C17.2605 2.99976 18.5455 4.28476 18.5455 5.86276C18.5455 6.30476 18.4365 6.71776 18.2575 7.09076ZM12.8183 21H18.4433C18.9513 21 19.3633 20.593 19.3633 20.091V15.272H12.8183V21ZM4.63661 15.2725V20.0905C4.63661 20.5925 5.04861 21.0005 5.55661 21.0005H11.1816V15.2725H4.63661ZM15.6815 7.09076H13.1005C13.4865 6.07476 14.2805 4.63676 15.6815 4.63676C16.3585 4.63676 16.9095 5.18676 16.9095 5.86276C16.9095 6.53976 16.3585 7.09076 15.6815 7.09076ZM7.09051 5.86276C7.09051 6.53976 7.64151 7.09076 8.31851 7.09076H10.8995C10.5135 6.07476 9.71951 4.63676 8.31851 4.63676C7.64151 4.63676 7.09051 5.18676 7.09051 5.86276Z" fill="#344054"/>
<mask id="mask0_49_3078" style="mask-type:luminance" maskUnits="userSpaceOnUse" x="2" y="2" width="19" height="20">
<path fill-rule="evenodd" clip-rule="evenodd" d="M18.2575 7.09076H20.0995C20.5965 7.09076 20.9995 7.67676 20.9995 8.40076V12.3268C20.9995 13.0498 20.5965 13.6368 20.0995 13.6368H19.3635H12.8185V7.09076H11.1815V13.6368H4.63651H3.90051C3.40351 13.6368 2.99951 13.0498 2.99951 12.3268V8.40076C2.99951 7.67676 3.40351 7.09076 3.90051 7.09076H5.74251C5.56351 6.71776 5.45351 6.30476 5.45351 5.86276C5.45351 4.28476 6.73951 2.99976 8.31851 2.99976C10.1995 2.99976 11.3385 4.31976 11.9995 5.56876C12.6605 4.31976 13.8005 2.99976 15.6815 2.99976C17.2605 2.99976 18.5455 4.28476 18.5455 5.86276C18.5455 6.30476 18.4365 6.71776 18.2575 7.09076ZM12.8183 21H18.4433C18.9513 21 19.3633 20.593 19.3633 20.091V15.272H12.8183V21ZM4.63661 15.2725V20.0905C4.63661 20.5925 5.04861 21.0005 5.55661 21.0005H11.1816V15.2725H4.63661ZM15.6815 7.09076H13.1005C13.4865 6.07476 14.2805 4.63676 15.6815 4.63676C16.3585 4.63676 16.9095 5.18676 16.9095 5.86276C16.9095 6.53976 16.3585 7.09076 15.6815 7.09076ZM7.09051 5.86276C7.09051 6.53976 7.64151 7.09076 8.31851 7.09076H10.8995C10.5135 6.07476 9.71951 4.63676 8.31851 4.63676C7.64151 4.63676 7.09051 5.18676 7.09051 5.86276Z" fill="white"/>
</mask>
<g mask="url(#mask0_49_3078)">
</g>
</svg>
