<svg width="24" height="24" viewBox="0 0 24 24" fill="none" xmlns="http://www.w3.org/2000/svg">
<path d="M16.2404 22C15.6884 22 15.2404 21.553 15.2404 21V18.401C15.2874 17.738 15.0884 17.161 14.6974 16.742C14.4384 16.466 14.3584 16.068 14.4884 15.714C14.6184 15.359 14.9364 15.108 15.3124 15.065C17.7464 14.783 20.0004 13.947 20.0004 9.77399C20.0004 8.97399 19.7684 8.20299 19.3294 7.54699C18.9284 6.94899 18.7824 6.21999 18.9164 5.49399C19.0044 5.02099 18.9994 4.53999 18.9044 4.07499C18.5004 4.19499 17.8084 4.47999 16.8114 5.17399C16.5664 5.34399 16.2554 5.39499 15.9694 5.31499C14.1654 4.80799 12.2584 4.80799 10.4534 5.31499C10.1664 5.39499 9.85741 5.34399 9.61241 5.17399C8.62541 4.48699 7.93741 4.20099 7.51741 4.08299C7.42341 4.54399 7.41941 5.02099 7.50641 5.49099C7.63941 6.21299 7.48841 6.94999 7.08041 7.56799C6.64641 8.22699 6.41941 8.99699 6.42341 9.79699C6.42341 13.691 8.30241 14.73 11.1234 15.093C11.4954 15.141 11.8094 15.393 11.9374 15.746C12.0644 16.099 11.9834 16.493 11.7274 16.767C11.3404 17.182 11.1414 17.753 11.1804 18.334L11.1814 19.122C11.1834 19.162 11.1834 19.202 11.1814 19.242L11.1824 21C11.1824 21.553 10.7354 22 10.1824 22C9.63041 22 9.18241 21.553 9.18241 21V20.429C6.49741 20.779 4.96741 19.34 3.90641 18.34C3.46641 17.927 3.05241 17.536 2.74941 17.457C2.21441 17.318 1.89341 16.772 2.03241 16.238C2.17141 15.704 2.71741 15.378 3.25141 15.521C4.05041 15.729 4.64641 16.29 5.27741 16.884C6.29941 17.847 7.26941 18.759 9.18241 18.404V18.401C9.14541 17.872 9.22441 17.33 9.40741 16.817C7.35341 16.305 4.42341 14.812 4.42341 9.80199C4.41741 8.60999 4.75941 7.45599 5.41041 6.46699C5.53241 6.28199 5.57841 6.06499 5.53941 5.85399C5.33941 4.77099 5.45441 3.65899 5.87441 2.64299C5.98841 2.36699 6.21941 2.15599 6.50441 2.06799C6.83541 1.96599 8.05541 1.77099 10.3664 3.27099C12.2374 2.82199 14.1864 2.82199 16.0564 3.27099C18.3684 1.77099 19.5874 1.96499 19.9184 2.06799C20.2034 2.15599 20.4344 2.36699 20.5484 2.64299C20.9694 3.66099 21.0844 4.77199 20.8834 5.85799C20.8444 6.06699 20.8834 6.27199 20.9914 6.43499C21.6514 7.42199 22.0004 8.57599 22.0004 9.77399C22.0004 14.838 19.0774 16.313 17.0204 16.807C17.2044 17.336 17.2814 17.905 17.2374 18.478L17.2404 21C17.2404 21.553 16.7924 22 16.2404 22Z" fill="#344054"/>
</svg>
