<svg width="24" height="24" viewBox="0 0 24 24" fill="none" xmlns="http://www.w3.org/2000/svg">
<path fill-rule="evenodd" clip-rule="evenodd" d="M1.99951 12.0004C1.99951 6.48637 6.48551 2.00037 11.9995 2.00037C17.5135 2.00037 21.9995 6.48637 21.9995 12.0004C21.9995 17.5134 17.5135 22.0004 11.9995 22.0004C6.48551 22.0004 1.99951 17.5134 1.99951 12.0004ZM11.9995 4.00037C12.6155 4.00037 13.2105 4.07637 13.7865 4.20837C13.6175 4.58037 13.3565 4.91937 13.0125 5.18837C12.8089 5.349 12.5818 5.48434 12.3547 5.61963L12.3065 5.64837C11.6555 6.03637 10.9185 6.47637 10.4565 7.32237C9.84051 8.45237 9.84051 9.60637 9.84051 10.6244C9.84051 11.9794 9.79651 12.7804 8.89251 13.4874C7.52351 14.5604 5.42851 13.9614 4.13251 13.4164C4.05051 12.9554 3.99951 12.4834 3.99951 12.0004C3.99951 7.58937 7.58851 4.00037 11.9995 4.00037ZM6.98751 16.0734C6.28651 16.0734 5.59751 15.9614 4.96151 15.7994C6.31651 18.2984 8.96251 20.0004 11.9995 20.0004C13.1005 20.0004 14.1505 19.7764 15.1055 19.3724C15.1045 19.0924 14.9355 18.8074 14.5915 18.2914L14.5659 18.2525C14.4433 18.0663 14.3198 17.8788 14.2085 17.6844C13.2215 15.9674 13.9535 14.7394 14.6005 13.6564L14.7005 13.4884C14.9499 13.0674 14.9664 12.6077 14.9873 12.0269L14.9875 12.0224C15.0005 11.6114 15.0175 11.1464 15.1255 10.6524C15.5345 8.78537 17.5615 8.31737 18.9895 8.11937C18.2235 6.74437 17.0635 5.62137 15.6635 4.89637C15.3675 5.61237 14.8895 6.25937 14.2465 6.76237C13.9545 6.99204 13.6503 7.17436 13.3558 7.35081L13.3315 7.36537L13.3261 7.36861C12.8354 7.66223 12.4118 7.91571 12.2125 8.28037C11.8405 8.96337 11.8405 9.73237 11.8405 10.6244C11.8405 12.0044 11.8405 13.7204 10.1245 15.0624C9.17051 15.8094 8.06751 16.0734 6.98751 16.0734ZM16.2585 17.1844C16.4725 17.5074 16.7165 17.8854 16.8885 18.3184C18.7775 16.8534 19.9995 14.5694 19.9995 12.0004C19.9995 11.3224 19.9065 10.6674 19.7455 10.0384C18.7865 10.1534 17.2395 10.3484 17.0785 11.0804C17.0095 11.3974 16.9975 11.7344 16.9855 12.0924L16.9853 12.0991C16.9593 12.8255 16.9299 13.649 16.4205 14.5074L16.3185 14.6804C15.6875 15.7374 15.5535 16.0114 15.9425 16.6874C16.0342 16.8481 16.1385 17.0044 16.2409 17.1579L16.2585 17.1844Z" fill="#344054"/>
</svg>
