<svg width="24" height="24" viewBox="0 0 24 24" fill="none" xmlns="http://www.w3.org/2000/svg">
<path fill-rule="evenodd" clip-rule="evenodd" d="M1.99951 12.0005C1.99951 6.48649 6.48551 2.00049 11.9995 2.00049C17.5135 2.00049 21.9995 6.48649 21.9995 12.0005C21.9995 17.5135 17.5135 22.0005 11.9995 22.0005C6.48551 22.0005 1.99951 17.5135 1.99951 12.0005ZM11.9995 4.00049C12.6155 4.00049 13.2105 4.07649 13.7865 4.20849C13.6175 4.58049 13.3565 4.91949 13.0125 5.18849C12.8089 5.34912 12.5818 5.48446 12.3547 5.61975L12.3065 5.64849C11.6555 6.03649 10.9185 6.47649 10.4565 7.32249C9.84051 8.45249 9.84051 9.60649 9.84051 10.6245C9.84051 11.9795 9.79651 12.7805 8.89251 13.4875C7.52351 14.5605 5.42851 13.9615 4.13251 13.4165C4.05051 12.9555 3.99951 12.4835 3.99951 12.0005C3.99951 7.58949 7.58851 4.00049 11.9995 4.00049ZM16.8885 18.3185C16.7165 17.8855 16.4725 17.5075 16.2585 17.1845L16.2408 17.158C16.1385 17.0045 16.0342 16.8482 15.9425 16.6875C15.5535 16.0115 15.6875 15.7375 16.3185 14.6805L16.4205 14.5075C16.9299 13.6492 16.9593 12.8256 16.9853 12.0993L16.9855 12.0925C16.9975 11.7345 17.0095 11.3975 17.0785 11.0805C17.2395 10.3485 18.7865 10.1535 19.7455 10.0385C19.9065 10.6675 19.9995 11.3225 19.9995 12.0005C19.9995 14.5695 18.7775 16.8535 16.8885 18.3185Z" fill="#344054"/>
<mask id="mask0_49_2414" style="mask-type:luminance" maskUnits="userSpaceOnUse" x="1" y="2" width="21" height="21">
<path fill-rule="evenodd" clip-rule="evenodd" d="M1.99951 12.0005C1.99951 6.48649 6.48551 2.00049 11.9995 2.00049C17.5135 2.00049 21.9995 6.48649 21.9995 12.0005C21.9995 17.5135 17.5135 22.0005 11.9995 22.0005C6.48551 22.0005 1.99951 17.5135 1.99951 12.0005ZM11.9995 4.00049C12.6155 4.00049 13.2105 4.07649 13.7865 4.20849C13.6175 4.58049 13.3565 4.91949 13.0125 5.18849C12.8089 5.34912 12.5818 5.48446 12.3547 5.61975L12.3065 5.64849C11.6555 6.03649 10.9185 6.47649 10.4565 7.32249C9.84051 8.45249 9.84051 9.60649 9.84051 10.6245C9.84051 11.9795 9.79651 12.7805 8.89251 13.4875C7.52351 14.5605 5.42851 13.9615 4.13251 13.4165C4.05051 12.9555 3.99951 12.4835 3.99951 12.0005C3.99951 7.58949 7.58851 4.00049 11.9995 4.00049ZM16.8885 18.3185C16.7165 17.8855 16.4725 17.5075 16.2585 17.1845L16.2409 17.158C16.1385 17.0045 16.0342 16.8482 15.9425 16.6875C15.5535 16.0115 15.6875 15.7375 16.3185 14.6805L16.4205 14.5075C16.9299 13.6492 16.9593 12.8256 16.9853 12.0993L16.9855 12.0925C16.9975 11.7345 17.0095 11.3975 17.0785 11.0805C17.2395 10.3485 18.7865 10.1535 19.7455 10.0385C19.9065 10.6675 19.9995 11.3225 19.9995 12.0005C19.9995 14.5695 18.7775 16.8535 16.8885 18.3185Z" fill="white"/>
</mask>
<g mask="url(#mask0_49_2414)">
</g>
</svg>
