<svg width="24" height="24" viewBox="0 0 24 24" fill="none" xmlns="http://www.w3.org/2000/svg">
<path fill-rule="evenodd" clip-rule="evenodd" d="M2 12C2 6.487 6.486 2 12 2C17.514 2 22 6.487 22 12C22 17.514 17.514 22 12 22C6.486 22 2 17.514 2 12ZM6.988 16.073C6.287 16.073 5.598 15.961 4.962 15.8C6.316 18.299 8.963 20 12 20C13.101 20 14.15 19.777 15.106 19.372C15.105 19.093 14.936 18.808 14.592 18.291L14.5787 18.2708C14.452 18.0794 14.324 17.8859 14.209 17.685C13.222 15.968 13.954 14.739 14.601 13.656L14.7 13.488C14.95 13.067 14.967 12.606 14.987 12.023C15.001 11.612 15.018 11.147 15.126 10.653C15.534 8.785 17.562 8.318 18.989 8.119C18.224 6.744 17.064 5.621 15.664 4.897C15.368 5.612 14.89 6.26 14.247 6.763C13.946 6.998 13.634 7.185 13.332 7.365L13.3266 7.36824C12.8359 7.66186 12.4123 7.91534 12.213 8.28C11.841 8.963 11.841 9.733 11.841 10.624C11.841 12.004 11.841 13.721 10.125 15.063C9.171 15.81 8.068 16.073 6.988 16.073Z" fill="#344054"/>
<mask id="mask0_49_2423" style="mask-type:luminance" maskUnits="userSpaceOnUse" x="2" y="2" width="20" height="20">
<path fill-rule="evenodd" clip-rule="evenodd" d="M2 12C2 6.487 6.486 2 12 2C17.514 2 22 6.487 22 12C22 17.514 17.514 22 12 22C6.486 22 2 17.514 2 12ZM6.988 16.073C6.287 16.073 5.598 15.961 4.962 15.8C6.316 18.299 8.963 20 12 20C13.101 20 14.15 19.777 15.106 19.372C15.105 19.093 14.936 18.808 14.592 18.291L14.5787 18.2708C14.452 18.0794 14.324 17.8859 14.209 17.685C13.222 15.968 13.954 14.739 14.601 13.656L14.7 13.488C14.95 13.067 14.967 12.606 14.987 12.023C15.001 11.612 15.018 11.147 15.126 10.653C15.534 8.785 17.562 8.318 18.989 8.119C18.224 6.744 17.064 5.621 15.664 4.897C15.368 5.612 14.89 6.26 14.247 6.763C13.946 6.998 13.634 7.185 13.332 7.365L13.3266 7.36824C12.8359 7.66186 12.4123 7.91534 12.213 8.28C11.841 8.963 11.841 9.733 11.841 10.624C11.841 12.004 11.841 13.721 10.125 15.063C9.171 15.81 8.068 16.073 6.988 16.073Z" fill="white"/>
</mask>
<g mask="url(#mask0_49_2423)">
</g>
</svg>
