<svg width="24" height="24" viewBox="0 0 24 24" fill="none" xmlns="http://www.w3.org/2000/svg">
<path fill-rule="evenodd" clip-rule="evenodd" d="M11.5691 21.99C11.7121 21.996 11.8551 21.999 11.9961 21.999C17.2771 21.999 21.7201 17.832 21.9931 12.52C22.0021 12.336 22.0001 11.269 21.9971 10.638C21.9911 9.845 21.3401 9.2 20.5471 9.2H12.4471C11.6481 9.2 10.9971 9.851 10.9971 10.65V13.332C10.9971 14.132 11.6481 14.782 12.4471 14.782H15.3501C14.7301 15.635 13.8181 16.187 12.7181 16.35C11.5261 16.528 10.2641 16.175 9.27013 15.382C8.30613 14.613 7.70213 13.509 7.61213 12.351C7.51713 11.107 7.92813 9.921 8.77013 9.012C9.99213 7.692 12.0121 7.252 13.6651 7.925C14.3571 8.214 15.1491 7.934 15.5001 7.282L16.7921 4.898C16.9841 4.543 17.0201 4.119 16.8911 3.736C16.7641 3.358 16.4831 3.048 16.1221 2.885C14.8231 2.298 13.4371 2 12.0031 2C9.27613 2 6.72913 3.077 4.82813 5.032C2.92913 6.986 1.92713 9.564 2.00413 12.292C2.15113 17.423 6.44113 21.773 11.5691 21.99ZM6.26313 6.426C7.78313 4.861 9.82113 4 12.0031 4C12.9491 4 13.8681 4.161 14.7431 4.48L13.9701 5.909C11.6621 5.16 8.96913 5.853 7.30313 7.653C6.07713 8.976 5.48013 10.698 5.61813 12.505C5.75013 14.214 6.62613 15.832 8.02313 16.945C9.44613 18.082 11.2651 18.581 13.0111 18.328C15.3521 17.982 17.1801 16.394 17.9011 14.08L18.3061 12.782H12.9971V11.2H19.9991C20.0011 11.726 20.0021 12.291 19.9951 12.419C19.7721 16.78 16.0351 20.165 11.6531 19.992C7.55313 19.818 4.12113 16.339 4.00413 12.235C3.94113 10.052 4.74313 7.989 6.26313 6.426Z" fill="#344054"/>
</svg>
