<svg width="20" height="20" viewBox="0 0 20 20" fill="none" xmlns="http://www.w3.org/2000/svg">
<path d="M10 10C11.686 10 13.2064 10.7203 14.2725 11.8682C14.6986 11.7293 15.1532 11.6543 15.625 11.6543C18.0369 11.6543 20 13.6168 20 16.0293C19.9999 16.3742 19.7205 16.6543 19.375 16.6543H15.1357C15.0915 16.6615 15.0463 16.667 15 16.667H5C4.95369 16.667 4.90849 16.6615 4.86426 16.6543H0.625C0.279457 16.6543 0.000131937 16.3742 0 16.0293C0 13.6168 1.96313 11.6543 4.375 11.6543C4.84649 11.6543 5.30069 11.7295 5.72656 11.8682C6.79267 10.72 8.31377 10 10 10ZM4.16699 5.83301C5.54555 5.83313 6.66676 6.95447 6.66699 8.33301C6.66699 9.71174 5.5457 10.8339 4.16699 10.834C2.78819 10.834 1.66699 9.71181 1.66699 8.33301C1.66722 6.9544 2.78833 5.83301 4.16699 5.83301ZM15.833 5.83301C17.2117 5.83301 18.3338 6.9544 18.334 8.33301C18.334 9.71181 17.2118 10.834 15.833 10.834C14.4544 10.8338 13.333 9.71167 13.333 8.33301C13.3332 6.95454 14.4545 5.83324 15.833 5.83301ZM10 2.5C11.8382 2.5 13.3328 3.99482 13.333 5.83301C13.333 7.67134 11.8383 9.16699 10 9.16699C8.16167 9.16699 6.66699 7.67134 6.66699 5.83301C6.66717 3.99482 8.16178 2.5 10 2.5Z" fill="#344054"/>
</svg>
