<svg width="24" height="24" viewBox="0 0 24 24" fill="none" xmlns="http://www.w3.org/2000/svg">
<path fill-rule="evenodd" clip-rule="evenodd" d="M15.698 14.0001H20C20.55 14.0001 21 14.4501 21 15.0001C21 15.5501 20.55 16.0001 20 16.0001H15.334L14.576 20.1621C14.477 20.7111 13.931 21.0811 13.365 20.9841C12.798 20.8881 12.416 20.3591 12.515 19.8111L13.209 16.0001H9.334L8.576 20.1621C8.477 20.7111 7.931 21.0811 7.365 20.9841C6.798 20.8881 6.416 20.3591 6.515 19.8111L7.209 16.0001H4C3.45 16.0001 3 15.5501 3 15.0001C3 14.4501 3.45 14.0001 4 14.0001H7.573L8.302 10.0001H4C3.45 10.0001 3 9.55006 3 9.00006C3 8.45006 3.45 8.00006 4 8.00006H8.665L9.423 3.83806C9.523 3.28906 10.068 2.91906 10.635 3.01606C11.202 3.11206 11.584 3.64106 11.484 4.18906L10.79 8.00006H14.665L15.423 3.83806C15.523 3.28906 16.068 2.91906 16.635 3.01606C17.202 3.11206 17.584 3.64106 17.484 4.18906L16.79 8.00006H20C20.55 8.00006 21 8.45006 21 9.00006C21 9.55006 20.55 10.0001 20 10.0001H16.427L15.698 14.0001ZM10.427 10.0001L9.698 14.0001H13.573L14.302 10.0001H10.427Z" fill="#344054"/>
</svg>
