<svg width="24" height="24" viewBox="0 0 24 24" fill="none" xmlns="http://www.w3.org/2000/svg">
<path fill-rule="evenodd" clip-rule="evenodd" d="M11.2926 20.706C11.4796 20.895 11.7346 21 11.9996 21C12.2656 21 12.5196 20.895 12.7076 20.707L20.4756 12.926C22.5116 10.886 22.5116 7.567 20.4746 5.527C19.4916 4.543 18.1786 4 16.7806 4C15.3806 4 14.0686 4.543 13.0846 5.528L11.9996 6.614L10.9146 5.527C9.93156 4.543 8.61856 4 7.21956 4C5.82056 4 4.50856 4.543 3.52456 5.527C1.48856 7.567 1.48856 10.886 3.52456 12.926L11.2926 20.706ZM4.93956 6.941C5.54556 6.334 6.35556 6 7.21956 6C8.08456 6 8.89356 6.334 9.49956 6.94L11.2916 8.736C11.6676 9.113 12.3316 9.113 12.7076 8.736L14.4996 6.941C15.7116 5.728 17.8476 5.726 19.0596 6.941C20.3186 8.201 20.3186 10.252 19.0596 11.514L11.9996 18.585L4.94056 11.514C3.68156 10.252 3.68156 8.201 4.93956 6.941Z" fill="#344054"/>
</svg>
