<svg width="24" height="24" viewBox="0 0 24 24" fill="none" xmlns="http://www.w3.org/2000/svg">
<g clip-path="url(#clip0_47_740)">
<path d="M6.02989 3.19997C7.14989 2.43997 8.50989 1.99997 9.99989 1.99997C13.9299 1.99997 16.9999 5.06997 16.9999 8.99997C16.9999 10.26 16.6199 11.65 15.9299 12.9C15.9099 12.94 15.8799 12.98 15.8499 13.03L14.3699 11.55C14.7699 10.69 14.9999 9.79997 14.9999 8.99997C14.9999 6.19997 12.7999 3.99997 9.99989 3.99997C9.07989 3.99997 8.23989 4.25997 7.49989 4.66997L6.02989 3.19997ZM17.2099 14.38L18.6399 15.81C20.1099 13.93 20.9999 11.57 20.9999 8.99997C20.9999 5.95997 19.7699 3.20997 17.7799 1.21997L16.3599 2.63997C17.9899 4.25997 18.9999 6.50997 18.9999 8.99997C18.9999 11.02 18.3299 12.88 17.2099 14.38ZM9.99989 6.49997C9.78989 6.49997 9.59989 6.52997 9.40989 6.57997L12.4199 9.58997C12.4699 9.39997 12.4999 9.20997 12.4999 8.99997C12.4999 7.61997 11.3799 6.49997 9.99989 6.49997ZM21.1899 21.19L2.80989 2.80997L1.38989 4.21997L3.51989 6.34997C3.18989 7.15997 2.99989 8.04997 2.99989 8.99997H4.99989C4.99989 8.63997 5.04989 8.28997 5.11989 7.94997L11.7299 14.56C10.8499 15.24 9.94989 15.97 9.45989 17.46C8.95989 18.96 8.45989 19.47 7.74989 19.84C7.55989 19.94 7.28989 20 6.99989 20C5.89989 20 4.99989 19.1 4.99989 18H2.99989C2.99989 20.21 4.78989 22 6.99989 22C7.56989 22 8.12989 21.88 8.63989 21.65C9.99989 20.94 10.7699 19.92 11.3699 18.1C11.6899 17.12 12.2699 16.67 13.0799 16.05C13.1099 16.03 13.1299 16.01 13.1599 15.99L19.7799 22.61L21.1899 21.19Z" fill="#344054"/>
</g>
<defs>
<clipPath id="clip0_47_740">
<rect width="24" height="24" fill="white"/>
</clipPath>
</defs>
</svg>
