<svg width="24" height="24" viewBox="0 0 24 24" fill="none" xmlns="http://www.w3.org/2000/svg">
<path fill-rule="evenodd" clip-rule="evenodd" d="M12.715 2.28875L20.424 10.1728C20.79 10.5488 21 11.0728 21 11.6117V19.9877C21 21.0907 20.152 21.9877 19.111 21.9877H15H9H4.888C3.847 21.9877 3 21.0907 3 19.9877V11.6117C3 11.0728 3.21 10.5487 3.575 10.1737L11.285 2.28875C11.662 1.90375 12.338 1.90375 12.715 2.28875ZM18.99 19.9877H16V12.9878C16 12.4347 15.552 11.9878 15 11.9878H9C8.447 11.9878 8 12.4347 8 12.9878V19.9877H5L5.006 11.5708L11.998 4.41975L19 11.6117L18.99 19.9877ZM10 19.9877H14V13.9878H10V19.9877Z" fill="#344054"/>
</svg>
