<svg width="24" height="24" viewBox="0 0 24 24" fill="none" xmlns="http://www.w3.org/2000/svg">
<path fill-rule="evenodd" clip-rule="evenodd" d="M6 3H18C19.654 3 21 4.346 21 6V18C21 19.654 19.654 21 18 21H6C4.346 21 3 19.654 3 18V6C3 4.346 4.346 3 6 3ZM6 5H18C18.552 5 19 5.448 19 6V14.364L15.797 11.632C14.807 10.79 13.258 10.79 12.277 11.626L5 17.698V6C5 5.448 5.448 5 6 5ZM8 10C8.828 10 9.5 9.328 9.5 8.5C9.5 7.672 8.828 7 8 7C7.172 7 6.5 7.672 6.5 8.5C6.5 9.328 7.172 10 8 10Z" fill="#344054"/>
<mask id="mask0_49_2519" style="mask-type:luminance" maskUnits="userSpaceOnUse" x="3" y="3" width="18" height="18">
<path fill-rule="evenodd" clip-rule="evenodd" d="M6 3H18C19.654 3 21 4.346 21 6V18C21 19.654 19.654 21 18 21H6C4.346 21 3 19.654 3 18V6C3 4.346 4.346 3 6 3ZM6 5H18C18.552 5 19 5.448 19 6V14.364L15.797 11.632C14.807 10.79 13.258 10.79 12.277 11.626L5 17.698V6C5 5.448 5.448 5 6 5ZM8 10C8.828 10 9.5 9.328 9.5 8.5C9.5 7.672 8.828 7 8 7C7.172 7 6.5 7.672 6.5 8.5C6.5 9.328 7.172 10 8 10Z" fill="white"/>
</mask>
<g mask="url(#mask0_49_2519)">
</g>
</svg>
