<svg width="24" height="24" viewBox="0 0 24 24" fill="none" xmlns="http://www.w3.org/2000/svg">
<path fill-rule="evenodd" clip-rule="evenodd" d="M17.447 4.65776L20.789 11.3418C20.927 11.6178 21 11.9278 21 12.2368V17.9998C21 19.6548 19.655 20.9998 18 20.9998H6C4.346 20.9998 3 19.6548 3 17.9998V12.2368C3 11.9278 3.073 11.6178 3.211 11.3418L6.553 4.65776C7.065 3.63576 8.092 2.99976 9.236 2.99976H14.764C15.908 2.99976 16.936 3.63576 17.447 4.65776ZM9.237 4.99976C8.858 4.99976 8.511 5.21376 8.342 5.55276L5.618 10.9998H8C8.552 10.9998 9 11.4478 9 11.9998V13.9998C9 14.5528 9.448 14.9998 10 14.9998H14C14.552 14.9998 15 14.5528 15 13.9998V11.9998C15 11.4478 15.448 10.9998 16 10.9998H18.382L15.658 5.55276C15.489 5.21376 15.143 4.99976 14.764 4.99976H9.237Z" fill="#344054"/>
<mask id="mask0_49_2997" style="mask-type:luminance" maskUnits="userSpaceOnUse" x="3" y="2" width="18" height="19">
<path fill-rule="evenodd" clip-rule="evenodd" d="M17.447 4.65776L20.789 11.3418C20.927 11.6178 21 11.9278 21 12.2368V17.9998C21 19.6548 19.655 20.9998 18 20.9998H6C4.346 20.9998 3 19.6548 3 17.9998V12.2368C3 11.9278 3.073 11.6178 3.211 11.3418L6.553 4.65776C7.065 3.63576 8.092 2.99976 9.236 2.99976H14.764C15.908 2.99976 16.936 3.63576 17.447 4.65776ZM9.237 4.99976C8.858 4.99976 8.511 5.21376 8.342 5.55276L5.618 10.9998H8C8.552 10.9998 9 11.4478 9 11.9998V13.9998C9 14.5528 9.448 14.9998 10 14.9998H14C14.552 14.9998 15 14.5528 15 13.9998V11.9998C15 11.4478 15.448 10.9998 16 10.9998H18.382L15.658 5.55276C15.489 5.21376 15.143 4.99976 14.764 4.99976H9.237Z" fill="white"/>
</mask>
<g mask="url(#mask0_49_2997)">
</g>
</svg>
