<svg width="24" height="24" viewBox="0 0 24 24" fill="none" xmlns="http://www.w3.org/2000/svg">
<path fill-rule="evenodd" clip-rule="evenodd" d="M17.447 4.658L20.789 11.342C20.927 11.618 21 11.928 21 12.236V18C21 19.654 19.654 21 18 21H6C4.346 21 3 19.654 3 18V12.236C3 11.928 3.073 11.618 3.211 11.342L6.553 4.658C7.064 3.636 8.092 3 9.236 3H14.764C15.908 3 16.936 3.636 17.447 4.658ZM8.342 5.553C8.512 5.212 8.855 5 9.236 5H14.764C15.145 5 15.488 5.212 15.658 5.553L18.382 11H16C15.448 11 15 11.447 15 12V15H9V12C9 11.447 8.552 11 8 11H5.618L8.342 5.553ZM18 19H6C5.449 19 5 18.552 5 18V13H7V16C7 16.553 7.448 17 8 17H16C16.552 17 17 16.553 17 16V13H19V18C19 18.552 18.551 19 18 19Z" fill="#344054"/>
</svg>
