<svg width="24" height="24" viewBox="0 0 24 24" fill="none" xmlns="http://www.w3.org/2000/svg">
<path fill-rule="evenodd" clip-rule="evenodd" d="M7.20891 11.0126C7.07083 11.2641 7.04739 11.5627 7.14456 11.8326L8.64947 16.0129C8.73005 16.2368 8.7282 16.482 8.64424 16.7046L7.15721 20.6471C6.91052 21.3011 7.39385 22 8.09287 22H16.2152C16.9164 22 17.3999 21.2971 17.149 20.6423L15.6414 16.7066C15.5557 16.4828 15.5532 16.2357 15.6344 16.0102L17.1388 11.8311C17.2357 11.5621 17.2127 11.2644 17.0758 11.0134L12.158 2L7.20891 11.0126ZM13.2384 15.7434C13.6595 15.7434 14.0355 15.4796 14.1787 15.0837L15.3489 11.8493C15.45 11.5698 15.4216 11.2598 15.2713 11.0034L14.5541 9.77978C14.0385 8.90014 12.6914 9.26585 12.6914 10.2855V10.5527C12.6914 10.7703 12.7654 10.9815 12.9014 11.1514C13.1914 11.5139 13.1764 12.0362 12.8707 12.3855C12.4916 12.8188 11.8166 12.8358 11.4228 12.4157L11.3789 12.3689C11.0608 12.0296 11.0404 11.5082 11.3309 11.1451C11.4635 10.9792 11.5358 10.7732 11.5358 10.5608V10.3496C11.5358 9.3254 10.179 8.96336 9.66874 9.85141L9.00739 11.0025C8.85969 11.2595 8.83366 11.5689 8.93634 11.847L10.1335 15.0898C10.2785 15.4826 10.6529 15.7434 11.0716 15.7434H13.2384ZM14.0012 20.596C14.6942 20.596 15.1771 19.9082 14.9417 19.2564L14.3765 17.6912C14.2334 17.2949 13.8573 17.0309 13.436 17.0309H10.8789C10.4575 17.0309 10.0814 17.2949 9.93831 17.6912L9.37311 19.2564C9.13773 19.9082 9.62065 20.596 10.3137 20.596H14.0012Z" fill="#344054"/>
</svg>
