<svg width="24" height="24" viewBox="0 0 24 24" fill="none" xmlns="http://www.w3.org/2000/svg">
<path fill-rule="evenodd" clip-rule="evenodd" d="M22 5C22 6.654 20.654 8 19 8C17.346 8 16 6.654 16 5C16 3.346 17.346 2 19 2C20.654 2 22 3.346 22 5ZM19 4C19.553 4 20 4.447 20 5C20 5.553 19.553 6 19 6C18.447 6 18 5.553 18 5C18 4.447 18.447 4 19 4ZM16 12C16 10.346 17.346 9 19 9C20.654 9 22 10.346 22 12C22 13.654 20.654 15 19 15C17.346 15 16 13.654 16 12ZM19 13C18.447 13 18 12.553 18 12C18 11.447 18.447 11 19 11C19.553 11 20 11.447 20 12C20 12.553 19.553 13 19 13ZM2 19C2 17.346 3.346 16 5 16C6.654 16 8 17.346 8 19C8 20.654 6.654 22 5 22C3.346 22 2 20.654 2 19ZM9 19C9 17.346 10.346 16 12 16C13.654 16 15 17.346 15 19C15 20.654 13.654 22 12 22C10.346 22 9 20.654 9 19ZM16 19C16 17.346 17.346 16 19 16C20.654 16 22 17.346 22 19C22 20.654 20.654 22 19 22C17.346 22 16 20.654 16 19ZM18 19C18 19.553 18.447 20 19 20C19.553 20 20 19.553 20 19C20 18.447 19.553 18 19 18C18.447 18 18 18.447 18 19ZM12 20C11.447 20 11 19.553 11 19C11 18.447 11.447 18 12 18C12.553 18 13 18.447 13 19C13 19.553 12.553 20 12 20ZM5 20C4.447 20 4 19.553 4 19C4 18.447 4.447 18 5 18C5.553 18 6 18.447 6 19C6 19.553 5.553 20 5 20ZM12 13C11.447 13 11 12.553 11 12C11 11.447 11.447 11 12 11C12.553 11 13 11.447 13 12C13 12.553 12.553 13 12 13ZM9 12C9 10.346 10.346 9 12 9C13.654 9 15 10.346 15 12C15 13.654 13.654 15 12 15C10.346 15 9 13.654 9 12ZM5 13C4.447 13 4 12.553 4 12C4 11.447 4.447 11 5 11C5.553 11 6 11.447 6 12C6 12.553 5.553 13 5 13ZM2 12C2 10.346 3.346 9 5 9C6.654 9 8 10.346 8 12C8 13.654 6.654 15 5 15C3.346 15 2 13.654 2 12ZM12 6C11.447 6 11 5.552 11 5C11 4.447 11.447 4 12 4C12.553 4 13 4.447 13 5C13 5.552 12.553 6 12 6ZM9 5C9 3.346 10.346 2 12 2C13.654 2 15 3.346 15 5C15 6.654 13.654 8 12 8C10.346 8 9 6.654 9 5ZM5 6C4.447 6 4 5.553 4 5C4 4.447 4.447 4 5 4C5.553 4 6 4.447 6 5C6 5.553 5.553 6 5 6ZM2 5C2 3.346 3.346 2 5 2C6.654 2 8 3.346 8 5C8 6.654 6.654 8 5 8C3.346 8 2 6.654 2 5Z" fill="#344054"/>
</svg>
