<svg width="24" height="24" viewBox="0 0 24 24" fill="none" xmlns="http://www.w3.org/2000/svg">
<path fill-rule="evenodd" clip-rule="evenodd" d="M20.3913 10.487C20.7403 10.636 20.9753 10.969 20.9983 11.348C21.0203 11.727 20.8273 12.086 20.4983 12.274L18.2403 13.57L20.3923 14.487C20.7403 14.636 20.9753 14.97 20.9983 15.348C21.0203 15.727 20.8273 16.086 20.4983 16.274L12.4983 20.867C12.3433 20.956 12.1723 21 12.0003 21C11.8283 21 11.6563 20.956 11.5023 20.867L3.50233 16.274C3.17333 16.086 2.97933 15.727 3.00233 15.348C3.02433 14.969 3.25933 14.636 3.60833 14.487L5.76033 13.571L3.50233 12.274C3.17333 12.086 2.97933 11.727 3.00233 11.348C3.02433 10.969 3.25933 10.636 3.60833 10.487L5.76033 9.57101L3.50233 8.27401C3.17333 8.08601 2.97933 7.72701 3.00233 7.34801C3.02433 6.97001 3.25933 6.63601 3.60833 6.48701L11.6083 3.08001C11.8583 2.97301 12.1413 2.97301 12.3913 3.08001L20.3913 6.48701C20.7403 6.63601 20.9753 6.97001 20.9983 7.34801C21.0203 7.72701 20.8273 8.08601 20.4983 8.27401L18.2393 9.57101L20.3913 10.487ZM12.0003 5.08701L17.7603 7.54001L12.0003 10.847L6.24033 7.54001L12.0003 5.08701ZM12.0003 13C11.8283 13 11.6563 12.956 11.5023 12.867L7.93433 10.818L6.24033 11.54L12.0003 14.847L17.7603 11.54L16.0663 10.818L12.4983 12.867C12.3433 12.956 12.1723 13 12.0003 13ZM12.0003 18.847L17.7603 15.54L16.0663 14.818L12.4983 16.867C12.3433 16.956 12.1723 17 12.0003 17C11.8283 17 11.6563 16.956 11.5023 16.867L7.93433 14.819L6.24033 15.54L12.0003 18.847Z" fill="#344054"/>
</svg>
