<svg width="24" height="24" viewBox="0 0 24 24" fill="none" xmlns="http://www.w3.org/2000/svg">
<g clip-path="url(#clip0_1131_7309)">
<path d="M4 6H2V20C2 21.1 2.9 22 4 22H18V20H4V6Z" fill="#344054"/>
<path fill-rule="evenodd" clip-rule="evenodd" d="M8 2C6.89543 2 6 2.89543 6 4V16C6 17.1046 6.89543 18 8 18H20C21.1046 18 22 17.1046 22 16V4C22 2.89543 21.1046 2 20 2H8ZM9 15V12.917L15.1436 6.77337L17.2266 8.85641L11.083 15H9ZM18.8375 6.4623C19.0542 6.67893 19.0542 7.02888 18.8375 7.24552L17.821 8.26205L15.738 6.179L16.7545 5.16248C16.9711 4.94584 17.3211 4.94584 17.5377 5.16248L18.8375 6.4623Z" fill="#344054"/>
</g>
<defs>
<clipPath id="clip0_1131_7309">
<rect width="24" height="24" fill="white"/>
</clipPath>
</defs>
</svg>
