<svg width="24" height="24" viewBox="0 0 24 24" fill="none" xmlns="http://www.w3.org/2000/svg">
<path fill-rule="evenodd" clip-rule="evenodd" d="M2 4C2 5.654 3.346 7 5 7C6.654 7 8 5.654 8 4C8 2.346 6.654 1 5 1C3.346 1 2 2.346 2 4ZM5 3C4.448 3 4 3.448 4 4C4 4.552 4.448 5 5 5C5.552 5 6 4.552 6 4C6 3.448 5.552 3 5 3ZM6 22C7.103 22 8 21.103 8 20V10C8 8.897 7.103 8 6 8H4C2.897 8 2 8.897 2 10V20C2 21.103 2.897 22 4 22H6ZM3.998 10H4H6V20H4L3.998 10ZM15.5049 11.6924C15.6579 11.6924 15.8129 11.7054 15.9659 11.7294C17.3159 11.9504 18.3329 13.1964 18.3329 14.6294V20.0004H19.9999V14.5384C19.9999 12.0364 17.9819 10.0004 15.4999 10.0004C13.0189 10.0004 10.9999 12.0364 10.9999 14.5384V20.0004H12.6669V14.5384C12.6669 13.6994 13.0319 12.9074 13.6699 12.3654C14.1859 11.9274 14.8349 11.6924 15.5049 11.6924ZM18.3329 22.0004H19.9999C21.1029 22.0004 21.9999 21.1024 21.9999 20.0004V14.5384C21.9999 10.9324 19.0839 8.0004 15.4999 8.0004C11.9159 8.0004 8.9999 10.9324 8.9999 14.5384V20.0004C8.9999 21.1024 9.8979 22.0004 10.9999 22.0004H12.6669C13.7699 22.0004 14.6669 21.1024 14.6669 20.0004V14.5384C14.6669 14.2874 14.7759 14.0504 14.9659 13.8884C15.0749 13.7964 15.3089 13.6464 15.6449 13.7044C16.0299 13.7664 16.3329 14.1724 16.3329 14.6294V20.0004C16.3329 21.1024 17.2309 22.0004 18.3329 22.0004Z" fill="#344054"/>
</svg>
