<svg width="21" height="20" viewBox="0 0 21 20" fill="none" xmlns="http://www.w3.org/2000/svg">
<g clip-path="url(#clip0_40529_42096)">
<path d="M15.4999 6.66536H14.6666V4.9987C14.6666 2.6987 12.7999 0.832031 10.4999 0.832031C8.19992 0.832031 6.33325 2.6987 6.33325 4.9987V6.66536H5.49992C4.58325 6.66536 3.83325 7.41536 3.83325 8.33203V16.6654C3.83325 17.582 4.58325 18.332 5.49992 18.332H15.4999C16.4166 18.332 17.1666 17.582 17.1666 16.6654V8.33203C17.1666 7.41536 16.4166 6.66536 15.4999 6.66536ZM10.4999 14.1654C9.58325 14.1654 8.83325 13.4154 8.83325 12.4987C8.83325 11.582 9.58325 10.832 10.4999 10.832C11.4166 10.832 12.1666 11.582 12.1666 12.4987C12.1666 13.4154 11.4166 14.1654 10.4999 14.1654ZM13.0833 6.66536H7.91658V4.9987C7.91658 3.5737 9.07492 2.41536 10.4999 2.41536C11.9249 2.41536 13.0833 3.5737 13.0833 4.9987V6.66536Z" fill="#344054"/>
</g>
<defs>
<clipPath id="clip0_40529_42096">
<rect width="20" height="20" fill="white" transform="translate(0.5)"/>
</clipPath>
</defs>
</svg>
