<svg width="24" height="24" viewBox="0 0 24 24" fill="none" xmlns="http://www.w3.org/2000/svg">
<path fill-rule="evenodd" clip-rule="evenodd" d="M16.41 4.08808L20.41 5.88608C20.769 6.04708 21 6.40408 21 6.79808V19.0001C21 19.3391 20.828 19.6551 20.543 19.8401C20.379 19.9461 20.19 20.0001 20 20.0001C19.861 20.0001 19.721 19.9711 19.59 19.9121L16 18.2991L12.41 19.9121C12.4026 19.9158 12.3941 19.9167 12.3855 19.9176C12.3778 19.9184 12.3701 19.9192 12.363 19.9221C12.246 19.9691 12.125 20.0001 12 20.0001C11.875 20.0001 11.754 19.9691 11.637 19.9221C11.6295 19.9193 11.6219 19.9184 11.6145 19.9176C11.6062 19.9167 11.5979 19.9158 11.59 19.9121L8 18.2991L4.41 19.9121C4.279 19.9711 4.139 20.0001 4 20.0001C3.81 20.0001 3.621 19.9461 3.457 19.8401C3.172 19.6551 3 19.3391 3 19.0001V6.79808C3 6.40408 3.231 6.04708 3.59 5.88608L7.59 4.08808C7.59756 4.0843 7.606 4.08227 7.61437 4.08025C7.62149 4.07854 7.62856 4.07684 7.635 4.07408C7.678 4.05808 7.721 4.04608 7.765 4.03508L7.76969 4.03391C7.80405 4.02531 7.83761 4.01691 7.873 4.01308C7.917 4.00808 7.96 4.00708 8.004 4.00708C8.044 4.00708 8.083 4.00808 8.122 4.01308C8.162 4.01708 8.201 4.02608 8.24 4.03608C8.282 4.04708 8.323 4.05808 8.364 4.07408C8.37085 4.07682 8.3779 4.07852 8.38497 4.08022C8.3934 4.08224 8.40185 4.08428 8.41 4.08808L12 5.70108L15.59 4.08808C15.5976 4.0843 15.606 4.08227 15.6144 4.08025C15.6215 4.07854 15.6286 4.07684 15.635 4.07408C15.678 4.05808 15.721 4.04608 15.765 4.03508L15.7697 4.0339C15.8041 4.02531 15.8376 4.01691 15.873 4.01308C15.917 4.00808 15.96 4.00708 16.004 4.00708C16.044 4.00708 16.083 4.00808 16.122 4.01308C16.162 4.01708 16.201 4.02608 16.24 4.03608C16.282 4.04708 16.323 4.05808 16.364 4.07408C16.3708 4.07682 16.3779 4.07852 16.385 4.08022C16.3934 4.08224 16.4018 4.08428 16.41 4.08808ZM5 7.44408L7 6.54608V16.5561L5 17.4541V7.44408ZM11 7.44408L9 6.54608V16.5561L11 17.4541V7.44408ZM13 7.44408L15 6.54608V16.5561L13 17.4541V7.44408ZM19 17.4541L17 16.5561V6.54608L19 7.44408V17.4541Z" fill="#344054"/>
</svg>
