<svg width="24" height="24" viewBox="0 0 24 24" fill="none" xmlns="http://www.w3.org/2000/svg">
<path fill-rule="evenodd" clip-rule="evenodd" d="M10.3966 2.12417C13.6256 1.62517 16.7866 2.64417 19.0706 4.92817C21.3556 7.21317 22.3776 10.3742 21.8746 13.6022C21.2386 17.6792 17.9546 21.0592 13.8876 21.8222C11.9306 22.1882 9.93661 21.9782 8.12261 21.2112C7.96361 21.1452 7.72461 21.0762 7.47861 21.1232L3.19561 21.9792C3.13061 21.9932 3.06461 21.9992 2.99961 21.9992C2.73661 21.9992 2.48161 21.8952 2.29261 21.7062C2.05661 21.4702 1.95361 21.1312 2.01961 20.8032L2.87661 16.5152C2.91561 16.3222 2.88561 16.1062 2.78761 15.8762C2.02061 14.0632 1.80961 12.0692 2.17661 10.1112C2.93961 6.04417 6.31961 2.76017 10.3966 2.12417ZM7.99961 12.9992C7.44761 12.9992 6.99961 12.5512 6.99961 11.9992C6.99961 11.4472 7.44761 10.9992 7.99961 10.9992C8.55161 10.9992 8.99961 11.4472 8.99961 11.9992C8.99961 12.5512 8.55161 12.9992 7.99961 12.9992ZM10.9996 11.9992C10.9996 12.5512 11.4476 12.9992 11.9996 12.9992C12.5516 12.9992 12.9996 12.5512 12.9996 11.9992C12.9996 11.4472 12.5516 10.9992 11.9996 10.9992C11.4476 10.9992 10.9996 11.4472 10.9996 11.9992ZM14.9996 11.9992C14.9996 12.5512 15.4476 12.9992 15.9996 12.9992C16.5516 12.9992 16.9996 12.5512 16.9996 11.9992C16.9996 11.4472 16.5516 10.9992 15.9996 10.9992C15.4476 10.9992 14.9996 11.4472 14.9996 11.9992Z" fill="#344054"/>
<mask id="mask0_49_3391" style="mask-type:luminance" maskUnits="userSpaceOnUse" x="2" y="2" width="20" height="20">
<path fill-rule="evenodd" clip-rule="evenodd" d="M10.3966 2.12417C13.6256 1.62517 16.7866 2.64417 19.0706 4.92817C21.3556 7.21317 22.3776 10.3742 21.8746 13.6022C21.2386 17.6792 17.9546 21.0592 13.8876 21.8222C11.9306 22.1882 9.93661 21.9782 8.12261 21.2112C7.96361 21.1452 7.72461 21.0762 7.47861 21.1232L3.19561 21.9792C3.13061 21.9932 3.06461 21.9992 2.99961 21.9992C2.73661 21.9992 2.48161 21.8952 2.29261 21.7062C2.05661 21.4702 1.95361 21.1312 2.01961 20.8032L2.87661 16.5152C2.91561 16.3222 2.88561 16.1062 2.78761 15.8762C2.02061 14.0632 1.80961 12.0692 2.17661 10.1112C2.93961 6.04417 6.31961 2.76017 10.3966 2.12417ZM7.99961 12.9992C7.44761 12.9992 6.99961 12.5512 6.99961 11.9992C6.99961 11.4472 7.44761 10.9992 7.99961 10.9992C8.55161 10.9992 8.99961 11.4472 8.99961 11.9992C8.99961 12.5512 8.55161 12.9992 7.99961 12.9992ZM10.9996 11.9992C10.9996 12.5512 11.4476 12.9992 11.9996 12.9992C12.5516 12.9992 12.9996 12.5512 12.9996 11.9992C12.9996 11.4472 12.5516 10.9992 11.9996 10.9992C11.4476 10.9992 10.9996 11.4472 10.9996 11.9992ZM14.9996 11.9992C14.9996 12.5512 15.4476 12.9992 15.9996 12.9992C16.5516 12.9992 16.9996 12.5512 16.9996 11.9992C16.9996 11.4472 16.5516 10.9992 15.9996 10.9992C15.4476 10.9992 14.9996 11.4472 14.9996 11.9992Z" fill="white"/>
</mask>
<g mask="url(#mask0_49_3391)">
</g>
</svg>
