<svg width="24" height="24" viewBox="0 0 24 24" fill="none" xmlns="http://www.w3.org/2000/svg">
  <path fill-rule="evenodd" clip-rule="evenodd"
    d="M10.3976 1.12417C13.6266 0.625171 16.7866 1.64417 19.0716 3.92817C21.3566 6.21317 22.3776 9.37517 21.8756 12.6022C21.2396 16.6792 17.9556 20.0592 13.8876 20.8222C11.9316 21.1892 9.9376 20.9782 8.1226 20.2112C7.9636 20.1452 7.7256 20.0762 7.4796 20.1232L3.1966 20.9802C3.1306 20.9932 3.0656 20.9992 3.0006 20.9992C2.7376 20.9992 2.4826 20.8962 2.2936 20.7062C2.0566 20.4702 1.9536 20.1312 2.0196 19.8032L2.8776 15.5152C2.9156 15.3222 2.8856 15.1072 2.7886 14.8762C2.0216 13.0632 1.8096 11.0692 2.1776 9.11117C2.9406 5.04417 6.3206 1.76017 10.3976 1.12417ZM19.8986 12.2942C19.3916 15.5482 16.7686 18.2472 13.5196 18.8562C11.9506 19.1522 10.3526 18.9832 8.9026 18.3692C8.4916 18.1952 8.0666 18.1072 7.6496 18.1072C7.4596 18.1072 7.2716 18.1252 7.0866 18.1622L4.2746 18.7242L4.8376 15.9072C4.9556 15.3222 4.8836 14.6962 4.6306 14.0972C4.0166 12.6472 3.8486 11.0502 4.1436 9.48017C4.7526 6.23117 7.4506 3.60817 10.7056 3.10117C13.2956 2.69817 15.8286 3.51417 17.6566 5.34217C19.4856 7.17117 20.3026 9.70517 19.8986 12.2942ZM8.5 8.5C8.5 6.57 10.07 5 12 5C13.93 5 15.5 6.57 15.5 8.5C15.5 10.08 14.44 11.403 13 11.837V13C13 13.553 12.553 14 12 14C11.447 14 11 13.553 11 13V11C11 10.447 11.447 10 12 10C12.827 10 13.5 9.327 13.5 8.5C13.5 7.673 12.827 7 12 7C11.173 7 10.5 7.673 10.5 8.5C10.5 9.053 10.053 9.5 9.5 9.5C8.947 9.5 8.5 9.053 8.5 8.5ZM11 16C11 15.447 11.447 15 12 15C12.553 15 13 15.447 13 16C13 16.553 12.553 17 12 17C11.447 17 11 16.553 11 16Z"
    fill="#344054" />
</svg>