<svg width="24" height="24" viewBox="0 0 24 24" fill="none" xmlns="http://www.w3.org/2000/svg">
<path fill-rule="evenodd" clip-rule="evenodd" d="M6 3H18C19.654 3 21 4.346 21 6V18C21 19.654 19.654 21 18 21H6C4.346 21 3 19.654 3 18V6C3 4.346 4.346 3 6 3ZM9 13H15C15.55 13 16 12.55 16 12C16 11.45 15.55 11 15 11H9C8.45 11 8 11.45 8 12C8 12.55 8.45 13 9 13Z" fill="#344054"/>
<mask id="mask0_49_3280" style="mask-type:luminance" maskUnits="userSpaceOnUse" x="3" y="3" width="18" height="18">
<path fill-rule="evenodd" clip-rule="evenodd" d="M6 3H18C19.654 3 21 4.346 21 6V18C21 19.654 19.654 21 18 21H6C4.346 21 3 19.654 3 18V6C3 4.346 4.346 3 6 3ZM9 13H15C15.55 13 16 12.55 16 12C16 11.45 15.55 11 15 11H9C8.45 11 8 11.45 8 12C8 12.55 8.45 13 9 13Z" fill="white"/>
</mask>
<g mask="url(#mask0_49_3280)">
</g>
</svg>
