<svg width="24" height="24" viewBox="0 0 24 24" fill="none" xmlns="http://www.w3.org/2000/svg">
<path fill-rule="evenodd" clip-rule="evenodd" d="M12.1789 22C12.2109 22.001 12.2419 22.001 12.2739 22.001C15.0329 22.001 17.6229 20.931 19.5759 18.981C20.6019 17.958 21.3879 16.748 21.9119 15.385C22.0529 15.02 21.9659 14.606 21.6919 14.325C21.4179 14.047 21.0039 13.951 20.6359 14.087C17.5709 15.203 14.1059 14.442 11.8079 12.149C9.51093 9.85604 8.74893 6.40004 9.86693 3.34504C10.0019 2.97704 9.90893 2.56404 9.62993 2.28904C9.35093 2.01304 8.93593 1.92504 8.57093 2.06704C7.02193 2.66004 5.67793 3.58304 4.57693 4.81004C1.04293 8.74504 1.15793 15.042 4.83493 18.847C6.77593 20.856 9.38493 21.976 12.1789 22ZM6.06593 6.14604C6.48193 5.68204 6.94093 5.27204 7.44093 4.91804C7.04493 8.06104 8.10493 11.279 10.3949 13.565C12.6859 15.851 15.9109 16.905 19.0569 16.513C18.7899 16.887 18.4919 17.238 18.1639 17.565C16.5879 19.138 14.4989 20.001 12.2739 20.001C12.2479 20.001 12.2219 20.001 12.1969 20C9.94293 19.981 7.83893 19.077 6.27293 17.456C3.30993 14.391 3.21693 9.31704 6.06593 6.14604Z" fill="#344054"/>
</svg>
