<svg width="24" height="24" viewBox="0 0 24 24" fill="none" xmlns="http://www.w3.org/2000/svg">
<path fill-rule="evenodd" clip-rule="evenodd" d="M18.9469 4.00034V14.9923C18.9739 15.1643 18.9999 15.3353 18.9999 15.5143C18.9999 17.4403 17.4339 19.0063 15.5079 19.0063C13.5819 19.0063 12.0159 17.4403 12.0159 15.5143C12.0159 13.5883 13.5819 12.0223 15.5079 12.0223C16.0229 12.0223 16.5069 12.1403 16.9469 12.3403V5.24634L9.97595 6.79634V16.9853L9.97865 17.0032C10.0038 17.1692 10.0289 17.3355 10.0289 17.5073C10.0289 19.4333 8.46195 21.0003 6.53595 21.0003C4.61095 21.0003 3.04395 19.4333 3.04395 17.5073C3.04395 15.5823 4.61095 14.0153 6.53595 14.0153C7.05095 14.0153 7.53495 14.1343 7.97595 14.3343V5.99334C7.97595 5.52534 8.30095 5.11934 8.75895 5.01734L17.7309 3.02434C18.0249 2.95834 18.3359 3.03034 18.5729 3.21934C18.8099 3.40934 18.9469 3.69634 18.9469 4.00034ZM15.5079 17.0063C14.6849 17.0063 14.0159 16.3373 14.0159 15.5143C14.0159 14.6913 14.6849 14.0223 15.5079 14.0223C16.2289 14.0223 16.8299 14.5343 16.9699 15.2133V15.2143C16.9889 15.3113 16.9999 15.4113 16.9999 15.5143C16.9999 16.3373 16.3309 17.0063 15.5079 17.0063ZM6.53595 19.0003C5.71295 19.0003 5.04395 18.3303 5.04395 17.5073C5.04395 16.6853 5.71295 16.0153 6.53595 16.0153C7.25595 16.0153 7.85795 16.5273 7.99795 17.2063V17.2093C8.01795 17.3053 8.02894 17.4053 8.02894 17.5073C8.02894 18.3303 7.35995 19.0003 6.53595 19.0003Z" fill="#344054"/>
</svg>
