<svg width="24" height="24" viewBox="0 0 24 24" fill="none" xmlns="http://www.w3.org/2000/svg">
<path d="M18.9474 14.9922V4.0002C18.9474 3.6972 18.8094 3.4092 18.5734 3.2202C18.3364 3.0302 18.0244 2.9582 17.7304 3.0242L8.75943 5.0172C8.30143 5.1192 7.97543 5.5252 7.97543 5.9932V14.3342C7.53543 14.1342 7.05143 14.0152 6.53643 14.0152C4.61043 14.0152 3.04443 15.5822 3.04443 17.5082C3.04443 19.4332 4.61043 21.0002 6.53643 21.0002C8.46243 21.0002 10.0284 19.4332 10.0284 17.5082C10.0284 17.3292 10.0024 17.1582 9.97543 16.9862V6.7962L16.9474 5.2462V12.3412C16.5074 12.1402 16.0224 12.0222 15.5084 12.0222C13.5824 12.0222 12.0154 13.5882 12.0154 15.5142C12.0154 17.4402 13.5824 19.0062 15.5084 19.0062C17.4334 19.0062 19.0004 17.4402 19.0004 15.5142C19.0004 15.3352 18.9734 15.1642 18.9474 14.9922Z" fill="#344054"/>
<mask id="mask0_49_2811" style="mask-type:luminance" maskUnits="userSpaceOnUse" x="3" y="3" width="17" height="19">
<path d="M18.9474 14.9922V4.0002C18.9474 3.6972 18.8094 3.4092 18.5734 3.2202C18.3364 3.0302 18.0244 2.9582 17.7304 3.0242L8.75943 5.0172C8.30143 5.1192 7.97543 5.5252 7.97543 5.9932V14.3342C7.53543 14.1342 7.05143 14.0152 6.53643 14.0152C4.61043 14.0152 3.04443 15.5822 3.04443 17.5082C3.04443 19.4332 4.61043 21.0002 6.53643 21.0002C8.46243 21.0002 10.0284 19.4332 10.0284 17.5082C10.0284 17.3292 10.0024 17.1582 9.97543 16.9862V6.7962L16.9474 5.2462V12.3412C16.5074 12.1402 16.0224 12.0222 15.5084 12.0222C13.5824 12.0222 12.0154 13.5882 12.0154 15.5142C12.0154 17.4402 13.5824 19.0062 15.5084 19.0062C17.4334 19.0062 19.0004 17.4402 19.0004 15.5142C19.0004 15.3352 18.9734 15.1642 18.9474 14.9922Z" fill="white"/>
</mask>
<g mask="url(#mask0_49_2811)">
</g>
</svg>
