<svg width="24" height="24" viewBox="0 0 24 24" fill="none" xmlns="http://www.w3.org/2000/svg">
<path d="M20.0002 21C19.8082 21 19.6162 20.945 19.4482 20.834L12.5522 16.267C12.2172 16.045 11.7832 16.045 11.4482 16.267L4.55223 20.834C4.17423 21.083 3.67623 21.049 3.33723 20.749C2.99823 20.448 2.90323 19.958 3.10523 19.553L11.1052 3.55301C11.4742 2.81501 12.5262 2.81501 12.8952 3.55301L20.8952 19.553C21.0972 19.958 21.0022 20.448 20.6632 20.749C20.4752 20.915 20.2382 21 20.0002 21Z" fill="#344054"/>
<mask id="mask0_49_3011" style="mask-type:luminance" maskUnits="userSpaceOnUse" x="3" y="2" width="19" height="19">
<path d="M20.0002 21C19.8082 21 19.6162 20.945 19.4482 20.834L12.5522 16.267C12.2172 16.045 11.7832 16.045 11.4482 16.267L4.55223 20.834C4.17423 21.083 3.67623 21.049 3.33723 20.749C2.99823 20.448 2.90323 19.958 3.10523 19.553L11.1052 3.55301C11.4742 2.81501 12.5262 2.81501 12.8952 3.55301L20.8952 19.553C21.0972 19.958 21.0022 20.448 20.6632 20.749C20.4752 20.915 20.2382 21 20.0002 21Z" fill="white"/>
</mask>
<g mask="url(#mask0_49_3011)">
</g>
</svg>
