<svg width="24" height="24" viewBox="0 0 24 24" fill="none" xmlns="http://www.w3.org/2000/svg">
<path fill-rule="evenodd" clip-rule="evenodd" d="M14.6064 20.9976C14.6264 20.9986 14.6464 20.9996 14.6674 20.9996C15.0954 20.9996 15.4784 20.7266 15.6154 20.3166L20.9494 4.31661C21.0684 3.95661 20.9754 3.56061 20.7074 3.29261C20.4394 3.02461 20.0434 2.92961 19.6834 3.05161L3.68341 8.38461C3.25441 8.52761 2.97441 8.94161 3.00241 9.39361C3.02941 9.84561 3.35741 10.2226 3.80141 10.3126L12.0174 11.9826L13.6864 20.1996C13.7774 20.6426 14.1544 20.9706 14.6064 20.9976ZM13.0644 10.1556L7.86641 9.09861L18.4194 5.58061L14.9014 16.1336L13.8454 10.9356C13.7654 10.5416 13.4584 10.2346 13.0644 10.1556Z" fill="#344054"/>
</svg>
