<svg width="24" height="24" viewBox="0 0 24 24" fill="none" xmlns="http://www.w3.org/2000/svg">
<path fill-rule="evenodd" clip-rule="evenodd" d="M19.4482 20.8341C19.6162 20.9451 19.8082 21.0001 20.0002 21.0001C20.2382 21.0001 20.4752 20.9151 20.6632 20.7491C21.0022 20.4481 21.0972 19.9581 20.8952 19.5531L12.8952 3.55306C12.5562 2.87506 11.4442 2.87506 11.1052 3.55306L3.10523 19.5531C2.90323 19.9581 2.99823 20.4481 3.33723 20.7491C3.67623 21.0491 4.17423 21.0831 4.55223 20.8341L12.0002 15.9011L19.4482 20.8341ZM12.5522 13.8681C12.3852 13.7581 12.1922 13.7021 12.0002 13.7021C11.8082 13.7021 11.6152 13.7581 11.4482 13.8681L6.56823 17.0991L12.0002 6.23606L17.4322 17.0991L12.5522 13.8681Z" fill="#344054"/>
</svg>
