<svg width="24" height="24" viewBox="0 0 24 24" fill="none" xmlns="http://www.w3.org/2000/svg">
<path d="M13.6668 21.9999C13.6458 21.9999 13.6258 21.9989 13.6058 21.9979C13.1538 21.9709 12.7768 21.6429 12.6868 21.1989L11.1488 13.6319C11.0688 13.2379 10.7618 12.9309 10.3678 12.8509L2.8008 11.3119C2.3568 11.2229 2.0288 10.8459 2.0018 10.3939C1.9748 9.94091 2.2538 9.52691 2.6838 9.38491L18.6838 4.05191C19.0428 3.92991 19.4388 4.02391 19.7068 4.29291C19.9748 4.56091 20.0678 4.95691 19.9488 5.31591L14.6148 21.3159C14.4788 21.7269 14.0948 21.9999 13.6668 21.9999Z" fill="#344054"/>
<mask id="mask0_49_2941" style="mask-type:luminance" maskUnits="userSpaceOnUse" x="2" y="3" width="18" height="19">
<path d="M13.6668 21.9999C13.6458 21.9999 13.6258 21.9989 13.6058 21.9979C13.1538 21.9709 12.7768 21.6429 12.6868 21.1989L11.1488 13.6319C11.0688 13.2379 10.7618 12.9309 10.3678 12.8509L2.8008 11.3119C2.3568 11.2229 2.0288 10.8459 2.0018 10.3939C1.9748 9.94091 2.2538 9.52691 2.6838 9.38491L18.6838 4.05191C19.0428 3.92991 19.4388 4.02391 19.7068 4.29291C19.9748 4.56091 20.0678 4.95691 19.9488 5.31591L14.6148 21.3159C14.4788 21.7269 14.0948 21.9999 13.6668 21.9999Z" fill="white"/>
</mask>
<g mask="url(#mask0_49_2941)">
</g>
</svg>
