<svg width="24" height="24" viewBox="0 0 24 24" fill="none" xmlns="http://www.w3.org/2000/svg">
<g clip-path="url(#clip0_47_5516)">
<path d="M5.99989 18.0001C7.09989 18.0001 7.99989 18.9001 7.99989 20.0001C7.99989 21.1001 7.09989 22.0001 5.99989 22.0001C4.89989 22.0001 3.99989 21.1001 3.99989 20.0001C3.99989 18.9001 4.89989 18.0001 5.99989 18.0001ZM18.6499 3.00006C16.9899 3.00006 16.1099 4.27006 15.4699 5.03006L11.9699 9.14006L16.9999 14.1701V6.27006C17.5799 5.59006 17.9699 5.00006 18.6499 5.00006C19.4199 5.00006 19.9999 5.66006 19.9999 6.48006V7.00006H21.9999V6.48006C21.9999 4.56006 20.5199 3.00006 18.6499 3.00006ZM10.6699 10.6701L2.80989 2.81006L1.38989 4.22006L9.35989 12.1901L6.69989 15.3101C6.14989 15.9601 6.60989 16.9601 7.45989 16.9601H14.1199L15.2899 18.1301C14.5399 18.4201 13.9999 19.1401 13.9999 20.0001C13.9999 21.1001 14.8999 22.0001 15.9999 22.0001C16.8599 22.0001 17.5799 21.4601 17.8699 20.7001L19.7799 22.6101L21.1899 21.2001L16.3899 16.4001L10.6699 10.6701ZM13.4699 5.03006C13.7399 4.71006 14.0499 4.31006 14.4499 3.94006C11.9899 2.75006 9.12989 2.72006 6.63989 3.81006L10.8899 8.06006L13.4699 5.03006Z" fill="#344054"/>
</g>
<defs>
<clipPath id="clip0_47_5516">
<rect width="24" height="24" fill="white"/>
</clipPath>
</defs>
</svg>
