<svg width="24" height="24" viewBox="0 0 24 24" fill="none" xmlns="http://www.w3.org/2000/svg">
<path d="M18 3H6C4.346 3 3 4.346 3 6V18C3 19.654 4.346 21 6 21H13V11H17V21H18C19.654 21 21 19.654 21 18V6C21 4.346 19.654 3 18 3Z" fill="#344054"/>
<mask id="mask0_49_3251" style="mask-type:luminance" maskUnits="userSpaceOnUse" x="3" y="3" width="18" height="18">
<path d="M18 3H6C4.346 3 3 4.346 3 6V18C3 19.654 4.346 21 6 21H13V11H17V21H18C19.654 21 21 19.654 21 18V6C21 4.346 19.654 3 18 3Z" fill="white"/>
</mask>
<g mask="url(#mask0_49_3251)">
</g>
</svg>
