<svg width="24" height="24" viewBox="0 0 24 24" fill="none" xmlns="http://www.w3.org/2000/svg">
<path fill-rule="evenodd" clip-rule="evenodd" d="M7 14.1845V2.99951C7 2.44751 6.553 1.99951 6 1.99951C5.447 1.99951 5 2.44751 5 2.99951V14.1845C3.839 14.5985 3 15.6985 3 16.9995C3 18.3015 3.839 19.4015 5 19.8155V20.9995C5 21.5525 5.447 21.9995 6 21.9995C6.553 21.9995 7 21.5525 7 20.9995V19.8155C8.161 19.4015 9 18.3015 9 16.9995C9 15.6985 8.161 14.5985 7 14.1845ZM21 13C21 11.698 20.161 10.599 19 10.185V3.00001C19 2.44701 18.553 2.00001 18 2.00001C17.447 2.00001 17 2.44701 17 3.00001V10.185C15.839 10.599 15 11.698 15 13C15 14.302 15.839 15.401 17 15.815V21C17 21.553 17.447 22 18 22C18.553 22 19 21.553 19 21V15.815C20.161 15.401 21 14.302 21 13ZM12 2.00001C13.654 2.00001 15 3.34601 15 5.00001C15 6.30201 14.161 7.40101 13 7.81501V21C13 21.553 12.553 22 12 22C11.447 22 11 21.553 11 21V7.81501C9.839 7.40101 9 6.30201 9 5.00001C9 3.34601 10.346 2.00001 12 2.00001Z" fill="#344054"/>
<mask id="mask0_49_2751" style="mask-type:luminance" maskUnits="userSpaceOnUse" x="3" y="1" width="18" height="21">
<path fill-rule="evenodd" clip-rule="evenodd" d="M7 14.1845V2.99951C7 2.44751 6.553 1.99951 6 1.99951C5.447 1.99951 5 2.44751 5 2.99951V14.1845C3.839 14.5985 3 15.6985 3 16.9995C3 18.3015 3.839 19.4015 5 19.8155V20.9995C5 21.5525 5.447 21.9995 6 21.9995C6.553 21.9995 7 21.5525 7 20.9995V19.8155C8.161 19.4015 9 18.3015 9 16.9995C9 15.6985 8.161 14.5985 7 14.1845ZM21 13C21 11.698 20.161 10.599 19 10.185V3.00001C19 2.44701 18.553 2.00001 18 2.00001C17.447 2.00001 17 2.44701 17 3.00001V10.185C15.839 10.599 15 11.698 15 13C15 14.302 15.839 15.401 17 15.815V21C17 21.553 17.447 22 18 22C18.553 22 19 21.553 19 21V15.815C20.161 15.401 21 14.302 21 13ZM12 2.00001C13.654 2.00001 15 3.34601 15 5.00001C15 6.30201 14.161 7.40101 13 7.81501V21C13 21.553 12.553 22 12 22C11.447 22 11 21.553 11 21V7.81501C9.839 7.40101 9 6.30201 9 5.00001C9 3.34601 10.346 2.00001 12 2.00001Z" fill="white"/>
</mask>
<g mask="url(#mask0_49_2751)">
</g>
</svg>
