<svg width="24" height="24" viewBox="0 0 24 24" fill="none" xmlns="http://www.w3.org/2000/svg">
<path fill-rule="evenodd" clip-rule="evenodd" d="M7 3V14.185C8.161 14.599 9 15.698 9 17C9 18.302 8.161 19.401 7 19.815V21C7 21.553 6.553 22 6 22C5.447 22 5 21.553 5 21V19.815C3.839 19.401 3 18.302 3 17C3 15.698 3.839 14.599 5 14.185V3C5 2.447 5.447 2 6 2C6.553 2 7 2.447 7 3ZM12 2C13.654 2 15 3.346 15 5C15 6.302 14.161 7.401 13 7.815V21C13 21.553 12.553 22 12 22C11.447 22 11 21.553 11 21V7.815C9.839 7.401 9 6.302 9 5C9 3.346 10.346 2 12 2ZM11 5C11 5.552 11.448 6 12 6C12.552 6 13 5.552 13 5C13 4.448 12.552 4 12 4C11.448 4 11 4.448 11 5ZM6 18C5.448 18 5 17.552 5 17C5 16.448 5.448 16 6 16C6.552 16 7 16.448 7 17C7 17.552 6.552 18 6 18ZM18 14C17.448 14 17 13.552 17 13C17 12.448 17.448 12 18 12C18.552 12 19 12.448 19 13C19 13.552 18.552 14 18 14ZM19 10.185C20.161 10.599 21 11.698 21 13C21 14.302 20.161 15.401 19 15.815V21C19 21.553 18.553 22 18 22C17.447 22 17 21.553 17 21V15.815C15.839 15.401 15 14.302 15 13C15 11.698 15.839 10.599 17 10.185V3C17 2.447 17.447 2 18 2C18.553 2 19 2.447 19 3V10.185Z" fill="#344054"/>
</svg>
