<svg width="40" height="40" viewBox="0 0 40 40" fill="none" xmlns="http://www.w3.org/2000/svg">
<rect width="40" height="40" rx="20" fill="#67EF3E"/>
<path fill-rule="evenodd" clip-rule="evenodd" d="M13.8749 5.21488C15.7642 4.43141 17.8342 4 20 4C22.1658 4 24.2358 4.43141 26.1251 5.21487C27.1455 5.63798 27.6296 6.80811 27.2065 7.82843C26.7834 8.84875 25.6132 9.33289 24.5929 8.90978C23.1808 8.3242 21.6308 8 20 8C18.3692 8 16.8192 8.3242 15.4071 8.90978C14.3868 9.33289 13.2166 8.84876 12.7935 7.82844C12.3704 6.80812 12.8545 5.63799 13.8749 5.21488ZM32.1716 12.7935C33.1919 12.3704 34.362 12.8545 34.7851 13.8749C35.5686 15.7642 36 17.8342 36 20C36 22.1658 35.5686 24.2358 34.7851 26.1251C34.362 27.1455 33.1919 27.6296 32.1716 27.2065C31.1512 26.7834 30.6671 25.6132 31.0902 24.5929C31.6758 23.1808 32 21.6308 32 20C32 18.3692 31.6758 16.8192 31.0902 15.4071C30.6671 14.3868 31.1512 13.2166 32.1716 12.7935ZM7.82843 12.7935C8.84875 13.2166 9.33289 14.3868 8.90978 15.4071C8.3242 16.8192 8 18.3692 8 20C8 21.6308 8.3242 23.1808 8.90978 24.5929C9.33289 25.6132 8.84876 26.7834 7.82844 27.2065C6.80812 27.6296 5.63799 27.1455 5.21488 26.1251C4.43141 24.2358 4 22.1658 4 20C4 17.8342 4.43141 15.7642 5.21487 13.8749C5.63798 12.8545 6.80811 12.3704 7.82843 12.7935ZM27.2065 32.1716C27.6296 33.1919 27.1455 34.362 26.1251 34.7851C24.2358 35.5686 22.1658 36 20 36C17.8342 36 15.7642 35.5686 13.8749 34.7851C12.8545 34.362 12.3704 33.1919 12.7935 32.1716C13.2166 31.1512 14.3868 30.6671 15.4071 31.0902C16.8192 31.6758 18.3692 32 20 32C21.6308 32 23.1808 31.6758 24.5929 31.0902C25.6132 30.6671 26.7834 31.1512 27.2065 32.1716Z" fill="#083003"/>
</svg>
