<svg width="40" height="40" viewBox="0 0 40 40" fill="none" xmlns="http://www.w3.org/2000/svg">
<rect width="40" height="40" rx="20" fill="#083003"/>
<path fill-rule="evenodd" clip-rule="evenodd" d="M19.9481 4.00008L20 4L20.0519 4.00008C21.1564 4.0036 22.049 4.90187 22.0455 6.00644C22.042 7.111 21.1437 8.00358 20.0391 8.00006L20 8L19.9609 8.00006C18.8563 8.00358 17.958 7.111 17.9545 6.00643C17.951 4.90187 18.8436 4.0036 19.9481 4.00008ZM14.7724 6.85499C15.3225 7.81285 14.9919 9.03527 14.0341 9.58535L13.967 9.62419C13.0127 10.1805 11.7882 9.8578 11.2319 8.90353C10.6756 7.94925 10.9983 6.72471 11.9526 6.16845C11.9823 6.15109 12.0122 6.13382 12.0421 6.11665C12.9999 5.56657 14.2224 5.89714 14.7724 6.85499ZM25.2276 6.85499C25.7776 5.89714 27.0001 5.56657 27.9579 6.11665C27.9878 6.13382 28.0177 6.15109 28.0474 6.16845C29.0017 6.72471 29.3244 7.94925 28.7681 8.90353C28.2118 9.8578 26.9873 10.1805 26.033 9.62419L25.9659 9.58535C25.0081 9.03527 24.6775 7.81285 25.2276 6.85499ZM8.90353 11.2319C9.8578 11.7882 10.1805 13.0127 9.62419 13.967L9.58535 14.0341C9.03527 14.9919 7.81285 15.3225 6.85499 14.7724C5.89714 14.2224 5.56657 12.9999 6.11665 12.0421C6.13382 12.0122 6.15109 11.9823 6.16845 11.9526C6.72471 10.9983 7.94925 10.6756 8.90353 11.2319ZM31.0965 11.2319C32.0508 10.6756 33.2753 10.9983 33.8316 11.9526C33.8404 11.9677 33.8491 11.9828 33.8579 11.9979C33.8664 12.0126 33.8749 12.0273 33.8834 12.0421C34.4334 12.9999 34.1029 14.2224 33.145 14.7724C32.1872 15.3225 30.9647 14.9919 30.4146 14.0341L30.3758 13.967C29.8195 13.0127 30.1422 11.7882 31.0965 11.2319ZM6.00644 17.9545C7.111 17.958 8.00358 18.8563 8.00006 19.9609L8 20L8.00006 20.0391C8.00358 21.1437 7.111 22.042 6.00643 22.0455C4.90187 22.049 4.0036 21.1564 4.00008 20.0519L4 20L4.00008 19.9481C4.0036 18.8436 4.90187 17.951 6.00644 17.9545ZM33.9936 17.9545C35.0981 17.951 35.9964 18.8436 35.9999 19.9481L36 20L35.9999 20.0519C35.9964 21.1564 35.0981 22.049 33.9936 22.0455C32.889 22.042 31.9964 21.1437 31.9999 20.0391L32 20L31.9999 19.9609C31.9964 18.8563 32.889 17.958 33.9936 17.9545ZM6.85499 25.2276C7.81285 24.6775 9.03527 25.0081 9.58535 25.9659L9.62419 26.033C10.1805 26.9873 9.8578 28.2118 8.90353 28.7681C7.94925 29.3244 6.72471 29.0017 6.16845 28.0474C6.15109 28.0177 6.13382 27.9878 6.11665 27.9579C5.56657 27.0001 5.89714 25.7776 6.85499 25.2276ZM33.145 25.2276C34.1029 25.7776 34.4334 27.0001 33.8834 27.9579C33.8662 27.9878 33.8489 28.0177 33.8316 28.0474C33.2753 29.0017 32.0508 29.3244 31.0965 28.7681C30.1422 28.2118 29.8195 26.9873 30.3758 26.033L30.4146 25.9659C30.9647 25.0081 32.1872 24.6775 33.145 25.2276ZM11.2319 31.0965C11.7882 30.1422 13.0127 29.8195 13.967 30.3758L14.0341 30.4146C14.9919 30.9647 15.3225 32.1872 14.7724 33.145C14.2224 34.1029 12.9999 34.4334 12.0421 33.8834C12.0122 33.8662 11.9823 33.8489 11.9526 33.8316C10.9983 33.2753 10.6756 32.0508 11.2319 31.0965ZM28.7681 31.0965C29.3244 32.0508 29.0017 33.2753 28.0474 33.8316C28.0177 33.8489 27.9878 33.8662 27.9579 33.8834C27.0001 34.4334 25.7776 34.1029 25.2276 33.145C24.6775 32.1872 25.0081 30.9647 25.9659 30.4146L26.033 30.3758C26.9873 29.8195 28.2118 30.1422 28.7681 31.0965ZM17.9545 33.9936C17.958 32.889 18.8563 31.9964 19.9609 31.9999L20 32L20.0391 31.9999C21.1437 31.9964 22.042 32.889 22.0455 33.9936C22.049 35.0981 21.1564 35.9964 20.0519 35.9999L20 36L19.9481 35.9999C18.8436 35.9964 17.951 35.0981 17.9545 33.9936Z" fill="#67EF3E"/>
</svg>
