<svg width="40" height="40" viewBox="0 0 40 40" fill="none" xmlns="http://www.w3.org/2000/svg">
  <rect width="40" height="40" rx="20" fill="#083003" />
  <path fill-rule="evenodd" clip-rule="evenodd"
    d="M20 8C18.4241 8 16.8637 8.31039 15.4078 8.91344C13.9519 9.5165 12.629 10.4004 11.5147 11.5147C10.4004 12.629 9.5165 13.9519 8.91345 15.4078C8.31039 16.8637 8 18.4241 8 20C8 21.5759 8.31039 23.1363 8.91345 24.5922C9.5165 26.0481 10.4004 27.371 11.5147 28.4853C12.629 29.5996 13.9519 30.4835 15.4078 31.0866C16.8637 31.6896 18.4241 32 20 32C21.5759 32 23.1363 31.6896 24.5922 31.0866C26.0481 30.4835 27.371 29.5996 28.4853 28.4853C29.5996 27.371 30.4835 26.0481 31.0866 24.5922C31.6896 23.1363 32 21.5759 32 20C32 18.4241 31.6896 16.8637 31.0866 15.4078C30.4835 13.9519 29.5996 12.629 28.4853 11.5147C27.371 10.4004 26.0481 9.5165 24.5922 8.91345C23.1363 8.31039 21.5759 8 20 8ZM13.8771 5.21793C15.8183 4.41385 17.8989 4 20 4C22.1012 4 24.1817 4.41385 26.1229 5.21793C28.0641 6.022 29.828 7.20056 31.3137 8.68629C32.7994 10.172 33.978 11.9359 34.7821 13.8771C35.5861 15.8183 36 17.8989 36 20C36 22.1012 35.5861 24.1817 34.7821 26.1229C33.978 28.0641 32.7994 29.828 31.3137 31.3137C29.828 32.7994 28.0641 33.978 26.1229 34.7821C24.1817 35.5861 22.1011 36 20 36C17.8988 36 15.8183 35.5861 13.8771 34.7821C11.9359 33.978 10.172 32.7994 8.68629 31.3137C7.20055 29.828 6.022 28.0641 5.21793 26.1229C4.41385 24.1817 4 22.1011 4 20C4 17.8988 4.41385 15.8183 5.21793 13.8771C6.022 11.9359 7.20056 10.172 8.68629 8.68629C10.172 7.20055 11.9359 6.022 13.8771 5.21793Z"
    fill="#67EF3E" />
</svg>
  