<svg width="24" height="24" viewBox="0 0 24 24" fill="none" xmlns="http://www.w3.org/2000/svg">
  <rect width="24" height="24" rx="12" fill="#98a2b3" />
  <path
    fillRule="evenodd"
    clipRule="evenodd"
    d="M8.32494 3.12736C9.45852 2.65729 10.7006 2.39844 12 2.39844C13.2995 2.39844 14.5415 2.65729 15.6751 3.12736C16.2873 3.38123 16.5778 4.08331 16.3239 4.6955C16.07 5.30769 15.368 5.59817 14.7558 5.34431C13.9085 4.99296 12.9785 4.79844 12 4.79844C11.0216 4.79844 10.0915 4.99296 9.24427 5.34431C8.63208 5.59817 7.93 5.30769 7.67614 4.6955C7.42227 4.08331 7.71275 3.38123 8.32494 3.12736ZM19.303 7.67455C19.9152 7.42068 20.6172 7.71116 20.8711 8.32336C21.3412 9.45693 21.6 10.699 21.6 11.9984C21.6 13.2979 21.3412 14.5399 20.8711 15.6735C20.6172 16.2857 19.9152 16.5762 19.303 16.3223C18.6908 16.0685 18.4003 15.3664 18.6542 14.7542C19.0055 13.9069 19.2 12.9769 19.2 11.9984C19.2 11.02 19.0055 10.09 18.6542 9.24268C18.4003 8.63049 18.6908 7.92841 19.303 7.67455ZM4.69709 7.67455C5.30928 7.92842 5.59976 8.63049 5.34589 9.24268C4.99454 10.09 4.80002 11.02 4.80002 11.9984C4.80002 12.9769 4.99454 13.9069 5.34589 14.7542C5.59976 15.3664 5.30928 16.0685 4.69709 16.3223C4.08489 16.5762 3.38282 16.2857 3.12895 15.6735C2.65887 14.5399 2.40002 13.2979 2.40002 11.9984C2.40002 10.699 2.65887 9.45693 3.12895 8.32336C3.38282 7.71116 4.08489 7.42068 4.69709 7.67455ZM16.3239 19.3014C16.5778 19.9136 16.2873 20.6156 15.6751 20.8695C14.5415 21.3396 13.2995 21.5984 12 21.5984C10.7006 21.5984 9.45852 21.3396 8.32494 20.8695C7.71275 20.6156 7.42227 19.9136 7.67614 19.3014C7.93 18.6892 8.63208 18.3987 9.24427 18.6526C10.0915 19.0039 11.0216 19.1984 12 19.1984C12.9785 19.1984 13.9085 19.0039 14.7558 18.6526C15.368 18.3987 16.07 18.6892 16.3239 19.3014Z"
    fill="#FFF"
  />
</svg>
