<svg width="20" height="20" viewBox="0 0 20 20" fill="none" xmlns="http://www.w3.org/2000/svg">
<g clip-path="url(#clip0_8266_654)">
<path d="M12.185 14.9141L3.28503 12.4866" stroke="#344054" stroke-width="2" stroke-linecap="round" stroke-linejoin="round"/>
<path d="M15.3134 2.1851C15.4776 2.02084 15.6727 1.89054 15.8873 1.80165C16.1019 1.71275 16.3319 1.66699 16.5642 1.66699C16.7965 1.66699 17.0265 1.71275 17.2412 1.80165C17.4558 1.89054 17.6508 2.02084 17.8151 2.1851C17.9793 2.34937 18.1096 2.54437 18.1985 2.75899C18.2874 2.97361 18.3332 3.20364 18.3332 3.43594C18.3332 3.66824 18.2874 3.89827 18.1985 4.11288C18.1096 4.3275 17.9793 4.52251 17.8151 4.68677L14.4667 8.03594C14.3886 8.11407 14.3447 8.22004 14.3447 8.33052C14.3447 8.44101 14.3886 8.54697 14.4667 8.62511L15.2534 9.41177C15.63 9.7884 15.8415 10.2992 15.8415 10.8318C15.8415 11.3644 15.63 11.8751 15.2534 12.2518L14.4667 13.0384C14.3886 13.1166 14.2826 13.1604 14.1721 13.1604C14.0616 13.1604 13.9557 13.1166 13.8775 13.0384L6.96172 6.12344C6.8836 6.0453 6.83972 5.93934 6.83972 5.82885C6.83972 5.71837 6.8836 5.61241 6.96172 5.53427L7.74838 4.7476C8.12501 4.37103 8.63579 4.15948 9.16838 4.15948C9.70097 4.15948 10.2118 4.37103 10.5884 4.7476L11.375 5.53427C11.4532 5.61238 11.5591 5.65627 11.6696 5.65627C11.7801 5.65627 11.8861 5.61238 11.9642 5.53427L15.3134 2.1851Z" stroke="#344054" stroke-width="2" stroke-linecap="round" stroke-linejoin="round"/>
<path d="M7.50006 6.66675C5.99672 8.92508 4.19172 9.55008 2.01422 9.95675C1.94199 9.96994 1.87444 10.0017 1.81823 10.049C1.76202 10.0962 1.7191 10.1573 1.69369 10.2262C1.66829 10.2951 1.66128 10.3694 1.67335 10.4419C1.68543 10.5143 1.71617 10.5823 1.76256 10.6392L7.86256 18.0417C7.98646 18.1733 8.14978 18.2611 8.3279 18.2917C8.50602 18.3224 8.68929 18.2943 8.85006 18.2117C10.6126 17.0042 13.3334 13.9934 13.3334 12.5001" stroke="#344054" stroke-width="2" stroke-linecap="round" stroke-linejoin="round"/>
</g>
<defs>
<clipPath id="clip0_8266_654">
<rect width="20" height="20" fill="white"/>
</clipPath>
</defs>
</svg>
