<svg width="24" height="24" viewBox="0 0 24 24" fill="none" xmlns="http://www.w3.org/2000/svg">
<path fill-rule="evenodd" clip-rule="evenodd" d="M15.937 13.182H20C20.553 13.182 21 13.629 21 14.182V20C21 20.553 20.553 21 20 21H6.909C4.754 21 3 19.246 3 17.091V4C3 3.447 3.447 3 4 3H9.818C10.371 3 10.818 3.447 10.818 4V7.448L12.641 5.493C12.821 5.299 13.072 5.185 13.337 5.176C13.611 5.159 13.859 5.263 14.054 5.443L18.189 9.3C18.594 9.677 18.616 10.31 18.239 10.713L15.937 13.182ZM5 8H8.818V5H5V8ZM5 15V17.091C5 18.144 5.856 19 6.909 19C7.962 19 8.818 18.144 8.818 17.091V15H5ZM10.514 19H19V15.182H14.073L10.514 19ZM8.818 13H5V10H8.818V13ZM13.422 7.588L16.095 10.081L10.818 15.74V10.381L13.422 7.588Z" fill="#344054"/>
</svg>
