<svg width="24" height="24" viewBox="0 0 24 24" fill="none" xmlns="http://www.w3.org/2000/svg">
<path fill-rule="evenodd" clip-rule="evenodd" d="M6.909 21C9.064 21 10.818 19.246 10.818 17.091V4C10.818 3.447 10.371 3 9.818 3H4C3.447 3 3 3.447 3 4V17.091C3 19.246 4.754 21 6.909 21ZM8.818 8H5V5H8.818V8ZM8.818 13H5V10H8.818V13ZM8.818 15H5V17.091C5 18.144 5.856 19 6.909 19C7.962 19 8.818 18.144 8.818 17.091V15ZM18.189 9.3L14.054 5.443C13.86 5.263 13.61 5.153 13.337 5.176C13.072 5.185 12.821 5.299 12.641 5.493L11.818 6.375V9.308V14.668V17.091C11.818 17.2336 11.7993 17.3719 11.7806 17.5098C11.7738 17.5605 11.7669 17.6112 11.761 17.662L18.239 10.713C18.616 10.31 18.594 9.677 18.189 9.3ZM20 21C20.553 21 21 20.553 21 20V14.182C21 13.629 20.553 13.182 20 13.182H17.305L15.44 15.182L11.881 19L10.466 20.518L10.017 21H20Z" fill="#344054"/>
</svg>
