<svg width="24" height="24" viewBox="0 0 24 24" fill="none" xmlns="http://www.w3.org/2000/svg">
<path fill-rule="evenodd" clip-rule="evenodd" d="M21.937 2.67793C21.968 2.76493 21.985 2.85493 21.99 2.94793C21.9904 2.95802 21.9917 2.96775 21.993 2.97743C21.9948 2.99078 21.9966 3.00402 21.996 3.01793C21.995 3.11793 21.98 3.21793 21.948 3.31693L15.948 21.3169C15.812 21.7249 15.431 21.9999 15 21.9999C14.569 21.9999 14.188 21.7249 14.052 21.3169L11.209 12.7909L2.684 9.94893C2.275 9.81293 2 9.43093 2 8.99993C2 8.56893 2.275 8.18793 2.684 8.05093L20.684 2.05093C20.782 2.01893 20.883 2.00493 20.983 2.00293C20.9958 2.00293 21.0078 2.00449 21.0196 2.00604C21.029 2.00727 21.0383 2.00849 21.048 2.00893C21.143 2.01393 21.234 2.03193 21.323 2.06293C21.354 2.07293 21.383 2.08393 21.412 2.09793C21.52 2.14593 21.621 2.20693 21.707 2.29293C21.793 2.37893 21.854 2.47993 21.902 2.58693C21.916 2.61693 21.927 2.64693 21.937 2.67793ZM17.298 5.28793L11.73 10.8559L6.162 8.99993L17.298 5.28793ZM15 17.8379L13.144 12.2709L18.712 6.70193L15 17.8379Z" fill="#344054"/>
</svg>
