<svg width="20" height="20" viewBox="0 0 20 20" fill="none" xmlns="http://www.w3.org/2000/svg">
<g clip-path="url(#clip0_26948_9543)">
<path d="M18.6128 12.2901C17.2685 10.8525 13.5964 11.4384 12.7176 11.5447C11.425 10.2667 10.5455 8.722 10.2356 8.18936C10.7012 6.75182 11.0111 5.31345 11.0627 3.76955C11.0627 2.43836 10.5455 1 9.09792 1C8.58071 1 8.11513 1.31991 7.85692 1.74536C7.23642 2.86382 7.49463 5.10073 8.47742 7.39C7.90856 9.04109 7.39135 10.6382 5.94377 13.4609C4.44377 14.0999 1.28962 15.5915 1.0314 17.1885C0.92812 17.668 1.08305 18.1475 1.44534 18.5197C1.80683 18.8405 2.27161 19 2.73719 19C4.65033 19 6.51184 16.2836 7.80528 13.9944C8.89135 13.6213 10.5979 13.0886 12.3045 12.7695C14.3209 14.5802 16.0792 14.8461 17.0103 14.8461C18.2513 14.8461 18.7169 14.3135 18.8718 13.834C19.13 13.3022 18.9751 12.7164 18.6128 12.2901ZM17.3202 13.195C17.2685 13.5681 16.8029 13.9404 15.9759 13.7276C14.9931 13.4617 14.1144 12.9823 13.3381 12.3433C14.0103 12.2369 15.5103 12.0774 16.5964 12.2901C17.0103 12.3965 17.4234 12.6624 17.3202 13.195ZM8.68399 2.22482C8.78727 2.06527 8.9422 1.95891 9.09792 1.95891C9.5635 1.95891 9.66678 2.54473 9.66678 3.02418C9.61514 4.14264 9.40857 5.26109 9.04628 6.32636C8.27085 4.195 8.42578 2.70427 8.68399 2.22482ZM8.58071 12.556C8.99464 11.7043 9.5635 10.2127 9.77007 9.57373C10.2356 10.3723 11.0111 11.3312 11.425 11.7575C11.425 11.8106 9.82171 12.1305 8.58071 12.556ZM5.52984 14.6865C4.34048 16.7099 3.09948 17.9887 2.42733 17.9887C2.32405 17.9887 2.22077 17.9355 2.11669 17.8824C1.96176 17.776 1.91012 17.6165 1.96176 17.4029C2.11669 16.6567 3.46097 15.6446 5.52984 14.6865Z" fill="#E53935"/>
</g>
<defs>
<clipPath id="clip0_26948_9543">
<rect width="20" height="20" fill="white"/>
</clipPath>
</defs>
</svg>
