<svg width="24" height="24" viewBox="0 0 24 24" fill="none" xmlns="http://www.w3.org/2000/svg">
<path fill-rule="evenodd" clip-rule="evenodd" d="M19.7395 4.26076C19.3925 3.91276 18.8295 3.91276 18.4825 4.26076L4.26051 18.4828C4.08651 18.6568 3.99951 18.8838 3.99951 19.1118C3.99951 19.3388 4.08651 19.5668 4.26051 19.7398C4.60751 20.0868 5.16951 20.0868 5.51751 19.7398L19.7395 5.51776C20.0865 5.16976 20.0865 4.60776 19.7395 4.26076ZM15.9998 19.0001C15.1728 19.0001 14.4998 18.3271 14.4998 17.5001C14.4998 16.6731 15.1728 16.0001 15.9998 16.0001C16.8268 16.0001 17.4998 16.6731 17.4998 17.5001C17.4998 18.3271 16.8268 19.0001 15.9998 19.0001ZM12.4998 17.5001C12.4998 15.5701 14.0698 14.0001 15.9998 14.0001C17.9298 14.0001 19.4998 15.5701 19.4998 17.5001C19.4998 19.4301 17.9298 21.0001 15.9998 21.0001C14.0698 21.0001 12.4998 19.4301 12.4998 17.5001ZM7.99981 6.00006C8.82681 6.00006 9.49981 6.67306 9.49981 7.50006C9.49981 8.32706 8.82681 9.00006 7.99981 9.00006C7.17281 9.00006 6.49981 8.32706 6.49981 7.50006C6.49981 6.67306 7.17281 6.00006 7.99981 6.00006ZM11.4998 7.50006C11.4998 9.43006 9.92981 11.0001 7.99981 11.0001C6.06981 11.0001 4.49981 9.43006 4.49981 7.50006C4.49981 5.57006 6.06981 4.00006 7.99981 4.00006C9.92981 4.00006 11.4998 5.57006 11.4998 7.50006Z" fill="#344054"/>
</svg>
