<svg width="24" height="24" viewBox="0 0 24 24" fill="none" xmlns="http://www.w3.org/2000/svg">
<path fill-rule="evenodd" clip-rule="evenodd" d="M6 7C6 4.794 7.794 3 10 3C12.206 3 14 4.794 14 7C14 9.206 12.206 11 10 11C7.794 11 6 9.206 6 7ZM10 9C8.897 9 8 8.103 8 7C8 5.897 8.897 5 10 5C11.103 5 12 5.897 12 7C12 8.103 11.103 9 10 9ZM3 20C3 16.14 6.141 13 10 13C13.859 13 17 16.14 17 20C17 20.552 16.553 21 16 21C15.447 21 15 20.552 15 20C15 17.243 12.757 15 10 15C7.243 15 5 17.243 5 20C5 20.552 4.553 21 4 21C3.447 21 3 20.552 3 20ZM21 8C21.55 8 22 7.55 22 7C22 6.45 21.55 6 21 6H17C16.45 6 16 6.45 16 7C16 7.55 16.45 8 17 8H21Z" fill="#344054"/>
</svg>
