<svg width="24" height="24" viewBox="0 0 24 24" fill="none" xmlns="http://www.w3.org/2000/svg">
<path fill-rule="evenodd" clip-rule="evenodd" d="M6 7C6 4.794 7.794 3 10 3C12.206 3 14 4.794 14 7C14 9.206 12.206 11 10 11C7.794 11 6 9.206 6 7ZM10 9C8.897 9 8 8.103 8 7C8 5.897 8.897 5 10 5C11.103 5 12 5.897 12 7C12 8.103 11.103 9 10 9ZM3 20C3 16.141 6.141 13 10 13C13.859 13 17 16.141 17 20C17 20.553 16.553 21 16 21C15.447 21 15 20.553 15 20C15 17.243 12.757 15 10 15C7.243 15 5 17.243 5 20C5 20.553 4.553 21 4 21C3.447 21 3 20.553 3 20ZM21.198 9.698C21.601 9.295 21.601 8.636 21.198 8.232L20.465 7.5L21.198 6.768C21.601 6.364 21.601 5.705 21.198 5.302C20.795 4.899 20.136 4.899 19.732 5.302L19 6.035L18.268 5.302C17.864 4.899 17.205 4.899 16.802 5.302C16.399 5.705 16.399 6.364 16.802 6.768L17.535 7.5L16.802 8.232C16.399 8.636 16.399 9.295 16.802 9.698C17.205 10.101 17.864 10.101 18.268 9.698L19 8.965L19.732 9.698C20.136 10.101 20.795 10.101 21.198 9.698Z" fill="#344054"/>
</svg>
