<svg width="20" height="20" viewBox="0 0 20 20" fill="none" xmlns="http://www.w3.org/2000/svg">
<path d="M7.0293 10.833C10.2449 10.8333 12.8623 13.4505 12.8623 16.667C12.8621 17.1267 12.4898 17.4997 12.0293 17.5H2.0293C1.56857 17.5 1.19549 17.1268 1.19531 16.667C1.19531 13.4503 3.81346 10.833 7.0293 10.833ZM13.4131 10.833C16.386 10.8333 18.8047 13.2518 18.8047 16.2256C18.8046 16.9288 18.2349 17.4999 17.5303 17.5H14.5703C14.2459 17.4996 13.9826 17.2366 13.9824 16.9121C13.9824 16.5875 14.2457 16.3236 14.5703 16.3232H17.5303C17.5844 16.3232 17.6279 16.2798 17.6279 16.2256C17.6279 13.9017 15.7364 12.0101 13.4131 12.0098C13.0658 12.0098 12.7283 12.0526 12.4062 12.1318C12.0908 12.2094 11.772 12.0156 11.6943 11.7002C11.617 11.3851 11.8092 11.0672 12.124 10.9893C12.5373 10.8876 12.9701 10.833 13.4131 10.833ZM7.0293 2.5C8.8673 2.50026 10.3621 3.99499 10.3623 5.83301C10.3623 7.67118 8.86741 9.16673 7.0293 9.16699C5.19096 9.16699 3.69531 7.67134 3.69531 5.83301C3.69549 3.99482 5.19107 2.5 7.0293 2.5ZM13.1104 2.5C14.9489 2.50013 16.4432 3.99444 16.4434 5.83301C16.4434 7.67173 14.949 9.16687 13.1104 9.16699C12.6262 9.16697 12.1644 9.06296 11.748 8.87598L11.5723 8.79102L11.5205 8.75977C11.2714 8.59585 11.1823 8.26614 11.3232 7.99609C11.4642 7.72669 11.7849 7.61154 12.0615 7.72168L12.1162 7.74707L12.2295 7.80273C12.498 7.92339 12.7962 7.99022 13.1104 7.99023C14.2993 7.99011 15.2676 7.02198 15.2676 5.83301C15.2674 4.64419 14.2992 3.67688 13.1104 3.67676C12.7321 3.67678 12.3769 3.77438 12.0684 3.94531C11.7845 4.1022 11.427 3.9994 11.2695 3.71582C11.1122 3.43169 11.2149 3.07346 11.499 2.91602C11.9771 2.65113 12.5272 2.50002 13.1104 2.5Z" fill="#344054"/>
</svg>
