<svg width="24" height="24" viewBox="0 0 24 24" fill="none" xmlns="http://www.w3.org/2000/svg">
<path fill-rule="evenodd" clip-rule="evenodd" d="M6.698 14.6299C5.012 12.3889 4 9.61288 4 6.59988C4 5.16588 5.166 3.99988 6.599 3.99988C6.709 3.99988 6.817 4.00688 6.927 4.02188L7.988 8.64188L7.8178 8.73068L7.81741 8.73088C7.69249 8.79599 7.56471 8.86261 7.443 8.92688C6.572 9.38188 5.943 9.71088 6.265 10.5139C6.641 11.5839 7.186 12.5759 7.844 13.4839L9.273 12.0549C8.971 11.6089 8.701 11.1389 8.474 10.6449C9.714 9.99488 9.718 9.99188 9.854 9.84988C10.088 9.60688 10.182 9.26188 10.107 8.93388L8.738 2.96988C8.661 2.63388 8.417 2.36088 8.092 2.24888C7.854 2.16588 7.608 2.10488 7.365 2.06588C7.116 2.02288 6.86 1.99988 6.599 1.99988C4.063 1.99988 2 4.06388 2 6.59988C2 10.1659 3.229 13.4429 5.271 16.0569L6.698 14.6299ZM19.7391 4.26068C19.3921 3.91268 18.8301 3.91268 18.4821 4.26068L4.2601 18.4827C4.0871 18.6567 4.0001 18.8837 4.0001 19.1117C4.0001 19.3387 4.0871 19.5667 4.2601 19.7397C4.6071 20.0867 5.1701 20.0867 5.5171 19.7397L19.7391 5.51768C20.0871 5.16968 20.0871 4.60768 19.7391 4.26068ZM21.7503 15.9087C21.8323 16.1437 21.8953 16.3887 21.9353 16.6387C21.9773 16.8867 21.9993 17.1417 21.9993 17.4007C21.9993 19.9367 19.9363 21.9997 17.4003 21.9997C13.8333 21.9997 10.5563 20.7707 7.9433 18.7287L9.3703 17.3017C11.6113 18.9877 14.3863 19.9997 17.4003 19.9997C18.8333 19.9997 19.9993 18.8337 19.9993 17.4007C19.9993 17.2887 19.9933 17.1797 19.9783 17.0727L15.3583 16.0117L15.0733 16.5567L15.0686 16.5656C14.616 17.431 14.2884 18.0575 13.4463 17.7197C12.3933 17.3507 11.4133 16.8107 10.5123 16.1587L11.9423 14.7287C12.3893 15.0327 12.8603 15.3027 13.3543 15.5277C14.0034 14.2864 14.0073 14.2827 14.1497 14.1463L14.1503 14.1457C14.3933 13.9117 14.7373 13.8197 15.0663 13.8927L21.0303 15.2617C21.3663 15.3387 21.6383 15.5827 21.7503 15.9087Z" fill="#344054"/>
</svg>
