<svg width="24" height="24" viewBox="0 0 24 24" fill="none" xmlns="http://www.w3.org/2000/svg">
<path fill-rule="evenodd" clip-rule="evenodd" d="M21.751 15.9084C21.833 16.1434 21.896 16.3884 21.936 16.6384C21.978 16.8864 22 17.1414 22 17.4004C22 19.9364 19.937 22.0004 17.401 22.0004C8.908 22.0004 2 15.0914 2 6.59937C2 4.06337 4.064 2.00037 6.6 2.00037C6.861 2.00037 7.116 2.02237 7.365 2.06537C7.609 2.10437 7.855 2.16637 8.092 2.24937C8.417 2.36137 8.661 2.63337 8.739 2.96937L10.108 8.93337C10.183 9.26137 10.088 9.60637 9.855 9.84937C9.718 9.99237 9.714 9.99537 8.475 10.6444C9.466 12.8064 11.215 14.5524 13.355 15.5274C14.005 14.2854 14.008 14.2824 14.151 14.1454C14.394 13.9124 14.738 13.8194 15.067 13.8924L21.031 15.2614C21.366 15.3384 21.639 15.5834 21.751 15.9084ZM15.802 7.23237L16.535 6.50037L15.802 5.76737C15.4 5.36437 15.4 4.70537 15.802 4.30137C16.205 3.89937 16.864 3.89937 17.268 4.30137L18 5.03537L18.733 4.30137C19.136 3.89937 19.795 3.89937 20.198 4.30137C20.601 4.70537 20.601 5.36437 20.198 5.76737L19.465 6.50037L20.198 7.23237C20.601 7.63537 20.601 8.29437 20.198 8.69837C19.795 9.10037 19.136 9.10037 18.733 8.69837L18 7.96437L17.268 8.69837C16.864 9.10037 16.205 9.10037 15.802 8.69837C15.4 8.29437 15.4 7.63537 15.802 7.23237ZM17.401 20.0004C10.012 20.0004 4 13.9884 4 6.59937C4 5.16637 5.166 4.00037 6.6 4.00037C6.709 4.00037 6.818 4.00637 6.928 4.02137L7.989 8.64137L7.828 8.72546L7.82747 8.72574C7.69939 8.79261 7.56801 8.86121 7.444 8.92637C6.573 9.38137 5.944 9.71137 6.266 10.5134C7.441 13.8604 10.14 16.5594 13.447 17.7194C14.2887 18.0562 14.6139 17.4343 15.0644 16.5728L15.073 16.5564C15.167 16.3784 15.267 16.1874 15.359 16.0114L19.979 17.0724C19.993 17.1794 20 17.2894 20 17.4004C20 18.8344 18.834 20.0004 17.401 20.0004Z" fill="#344054"/>
</svg>
