<svg width="24" height="24" viewBox="0 0 24 24" fill="none" xmlns="http://www.w3.org/2000/svg">
<path fill-rule="evenodd" clip-rule="evenodd" d="M9.27349 12.0548C8.97149 11.6088 8.70149 11.1388 8.47449 10.6448C9.71349 9.99476 9.71749 9.99176 9.85449 9.84976C10.0875 9.60676 10.1825 9.26176 10.1075 8.93376L8.73849 2.96976C8.66149 2.63376 8.41749 2.36176 8.09149 2.24876C7.85449 2.16576 7.60849 2.10476 7.36549 2.06576C7.11649 2.02276 6.86049 1.99976 6.59949 1.99976C4.06349 1.99976 2.00049 4.06376 2.00049 6.59976C2.00049 10.1658 3.22949 13.4438 5.27149 16.0568L9.27349 12.0548ZM21.9356 16.6388C21.8956 16.3888 21.8326 16.1438 21.7506 15.9088C21.6386 15.5828 21.3666 15.3388 21.0306 15.2618L15.0666 13.8928C14.7376 13.8198 14.3936 13.9118 14.1506 14.1458L14.15 14.1463C14.0076 14.2828 14.0037 14.2865 13.3546 15.5278C12.8606 15.3028 12.3896 15.0328 11.9426 14.7288L7.94359 18.7288C10.5566 20.7708 13.8336 21.9998 17.4006 21.9998C19.9366 21.9998 21.9996 19.9368 21.9996 17.4008C21.9996 17.1418 21.9776 16.8868 21.9356 16.6388ZM18.4824 4.26076C18.8304 3.91276 19.3924 3.91276 19.7394 4.26076C20.0874 4.60776 20.0874 5.16976 19.7394 5.51776L5.51739 19.7398C5.17039 20.0868 4.60739 20.0868 4.26039 19.7398C4.08739 19.5668 4.00039 19.3388 4.00039 19.1118C4.00039 18.8838 4.08739 18.6568 4.26039 18.4828L18.4824 4.26076Z" fill="#344054"/>
<mask id="mask0_49_3303" style="mask-type:luminance" maskUnits="userSpaceOnUse" x="2" y="1" width="20" height="21">
<path fill-rule="evenodd" clip-rule="evenodd" d="M9.27349 12.0548C8.97149 11.6088 8.70149 11.1388 8.47449 10.6448C9.71349 9.99476 9.71749 9.99176 9.85449 9.84976C10.0875 9.60676 10.1825 9.26176 10.1075 8.93376L8.73849 2.96976C8.66149 2.63376 8.41749 2.36176 8.09149 2.24876C7.85449 2.16576 7.60849 2.10476 7.36549 2.06576C7.11649 2.02276 6.86049 1.99976 6.59949 1.99976C4.06349 1.99976 2.00049 4.06376 2.00049 6.59976C2.00049 10.1658 3.22949 13.4438 5.27149 16.0568L9.27349 12.0548ZM21.9356 16.6388C21.8956 16.3888 21.8326 16.1438 21.7506 15.9088C21.6386 15.5828 21.3666 15.3388 21.0306 15.2618L15.0666 13.8928C14.7376 13.8198 14.3936 13.9118 14.1506 14.1458L14.15 14.1463C14.0076 14.2828 14.0037 14.2865 13.3546 15.5278C12.8606 15.3028 12.3896 15.0328 11.9426 14.7288L7.94359 18.7288C10.5566 20.7708 13.8336 21.9998 17.4006 21.9998C19.9366 21.9998 21.9996 19.9368 21.9996 17.4008C21.9996 17.1418 21.9776 16.8868 21.9356 16.6388ZM18.4824 4.26076C18.8304 3.91276 19.3924 3.91276 19.7394 4.26076C20.0874 4.60776 20.0874 5.16976 19.7394 5.51776L5.51739 19.7398C5.17039 20.0868 4.60739 20.0868 4.26039 19.7398C4.08739 19.5668 4.00039 19.3388 4.00039 19.1118C4.00039 18.8838 4.08739 18.6568 4.26039 18.4828L18.4824 4.26076Z" fill="white"/>
</mask>
<g mask="url(#mask0_49_3303)">
</g>
</svg>
