<svg width="24" height="24" viewBox="0 0 24 24" fill="none" xmlns="http://www.w3.org/2000/svg">
<path fill-rule="evenodd" clip-rule="evenodd" d="M2 6.6C2 15.092 8.908 22 17.4 22C19.936 22 22 19.937 22 17.4C22 17.142 21.978 16.886 21.936 16.639C21.895 16.388 21.833 16.144 21.751 15.908C21.639 15.583 21.366 15.339 21.031 15.262L15.066 13.893C14.74 13.821 14.394 13.912 14.15 14.146C14.008 14.282 14.004 14.286 13.354 15.527C11.224 14.557 9.479 12.818 8.475 10.644C9.715 9.995 9.718 9.992 9.854 9.85C10.088 9.606 10.183 9.262 10.107 8.934L8.738 2.97C8.661 2.634 8.416 2.361 8.091 2.248C7.853 2.166 7.609 2.104 7.366 2.065C7.117 2.022 6.86 2 6.6 2C4.063 2 2 4.063 2 6.6ZM4 6.6C4 5.166 5.166 4 6.6 4C6.709 4 6.817 4.007 6.928 4.021L7.988 8.642C7.815 8.732 7.626 8.831 7.451 8.923C6.589 9.373 5.909 9.729 6.266 10.514C7.441 13.86 10.14 16.56 13.446 17.72C14.287 18.0586 14.6172 17.4286 15.0723 16.5602L15.074 16.557C15.1346 16.4397 15.1992 16.3167 15.2625 16.1962C15.2952 16.1338 15.3276 16.072 15.359 16.012L19.979 17.072C19.993 17.18 20 17.289 20 17.4C20 18.834 18.833 20 17.4 20C10.011 20 4 13.988 4 6.6Z" fill="#344054"/>
</svg>
