<svg width="24" height="24" viewBox="0 0 24 24" fill="none" xmlns="http://www.w3.org/2000/svg">
<path fill-rule="evenodd" clip-rule="evenodd" d="M22 17.4004C22 17.1414 21.978 16.8864 21.936 16.6384C21.896 16.3884 21.833 16.1434 21.751 15.9084C21.639 15.5834 21.366 15.3384 21.03 15.2614L15.066 13.8924C14.737 13.8194 14.394 13.9124 14.15 14.1454C14.008 14.2824 14.005 14.2864 13.354 15.5274C11.224 14.5564 9.479 12.8184 8.475 10.6434C9.715 9.99537 9.718 9.99237 9.854 9.84937C10.088 9.60637 10.183 9.26137 10.107 8.93337L8.738 2.96937C8.661 2.63337 8.417 2.36137 8.091 2.24837C7.854 2.16637 7.609 2.10437 7.366 2.06537C7.117 2.02237 6.86 2.00037 6.6 2.00037C4.063 2.00037 2 4.06337 2 6.59937C2 15.0914 8.909 22.0004 17.4 22.0004C19.937 22.0004 22 19.9364 22 17.4004ZM19.979 17.0724C19.993 17.1794 20 17.2894 20 17.4004C20 18.8344 18.834 20.0004 17.4 20.0004C10.011 20.0004 4 13.9884 4 6.59937C4 5.16637 5.167 4.00037 6.6 4.00037C6.709 4.00037 6.817 4.00637 6.928 4.02137L7.988 8.64137C7.815 8.73237 7.626 8.83137 7.451 8.92237C6.589 9.37337 5.909 9.72937 6.266 10.5134C7.441 13.8604 10.14 16.5594 13.446 17.7194C14.2883 18.0569 14.6151 17.4319 15.067 16.5678L15.073 16.5564C15.167 16.3794 15.267 16.1874 15.358 16.0114L19.979 17.0724ZM13 4.00037C16.859 4.00037 20 7.14037 20 11.0004C20 11.5524 20.447 12.0004 21 12.0004C21.553 12.0004 22 11.5524 22 11.0004C22 6.03737 17.963 2.00037 13 2.00037C12.448 2.00037 12 2.44737 12 3.00037C12 3.55237 12.448 4.00037 13 4.00037ZM13 6.00037C12.448 6.00037 12 6.44737 12 7.00037C12 7.55237 12.448 8.00037 13 8.00037C14.654 8.00037 16 9.34537 16 11.0004C16 11.5524 16.447 12.0004 17 12.0004C17.553 12.0004 18 11.5524 18 11.0004C18 8.24337 15.757 6.00037 13 6.00037Z" fill="#344054"/>
</svg>
