<svg width="24" height="24" viewBox="0 0 24 24" fill="none" xmlns="http://www.w3.org/2000/svg">
<path fill-rule="evenodd" clip-rule="evenodd" d="M14.5004 10.3325H21.1665C21.6264 10.3325 22.0005 9.96051 22.0005 9.49951C22.0005 5.36451 18.6355 1.99951 14.5004 1.99951C14.0404 1.99951 13.6664 2.37251 13.6664 2.83251V9.49951C13.6664 9.96051 14.0404 10.3325 14.5004 10.3325ZM15.3334 3.72651C17.8844 4.09251 19.9074 6.11551 20.2734 8.66651H15.3334V3.72651ZM12.9344 11.9775H21.0834C21.6254 11.9775 22.0494 12.4495 21.9954 12.9885C21.4514 18.4145 16.5794 22.5665 10.8814 21.9365C6.29645 21.4305 2.56945 17.7035 2.06245 13.1185C1.43445 7.42051 5.58445 2.54751 11.0114 2.00451C11.5514 1.95051 12.0224 2.37351 12.0224 2.91551V11.0665C12.0224 11.5695 12.4304 11.9775 12.9344 11.9775Z" fill="#344054"/>
<mask id="mask0_49_2565" style="mask-type:luminance" maskUnits="userSpaceOnUse" x="1" y="1" width="22" height="21">
<path fill-rule="evenodd" clip-rule="evenodd" d="M14.5004 10.3325H21.1665C21.6264 10.3325 22.0005 9.96051 22.0005 9.49951C22.0005 5.36451 18.6355 1.99951 14.5004 1.99951C14.0404 1.99951 13.6664 2.37251 13.6664 2.83251V9.49951C13.6664 9.96051 14.0404 10.3325 14.5004 10.3325ZM15.3334 3.72651C17.8844 4.09251 19.9074 6.11551 20.2734 8.66651H15.3334V3.72651ZM12.9344 11.9775H21.0834C21.6254 11.9775 22.0494 12.4495 21.9954 12.9885C21.4514 18.4145 16.5794 22.5665 10.8814 21.9365C6.29645 21.4305 2.56945 17.7035 2.06245 13.1185C1.43445 7.42051 5.58445 2.54751 11.0114 2.00451C11.5514 1.95051 12.0224 2.37351 12.0224 2.91551V11.0665C12.0224 11.5695 12.4304 11.9775 12.9344 11.9775Z" fill="white"/>
</mask>
<g mask="url(#mask0_49_2565)">
</g>
</svg>
