<svg width="24" height="24" viewBox="0 0 24 24" fill="none" xmlns="http://www.w3.org/2000/svg">
<path fill-rule="evenodd" clip-rule="evenodd" d="M2 12C2 6.486 6.486 2 12 2C17.514 2 22 6.486 22 12C22 17.514 17.514 22 12 22C6.486 22 2 17.514 2 12ZM12 20C7.589 20 4 16.411 4 12C4 7.589 7.589 4 12 4C16.411 4 20 7.589 20 12C20 16.411 16.411 20 12 20ZM10.488 7.1456C11.114 6.8706 11.841 6.9906 12.339 7.4526L15.98 10.8216C16.311 11.1266 16.5 11.5566 16.5 11.9996C16.5 12.4436 16.311 12.8726 15.98 13.1786L12.338 16.5486C12.019 16.8446 11.604 16.9996 11.181 16.9996C10.948 16.9996 10.711 16.9526 10.488 16.8546C9.878 16.5886 9.5 16.0196 9.5 15.3706V8.6296C9.5 7.9806 9.878 7.4116 10.488 7.1456ZM11.5 9.4006V14.5996L14.309 11.9996L11.5 9.4006Z" fill="#344054"/>
</svg>
