<svg width="24" height="24" viewBox="0 0 24 24" fill="none" xmlns="http://www.w3.org/2000/svg">
<g clip-path="url(#clip0_47_4850)">
<path d="M19.28 4.92998L17.16 2.80998C16.38 2.02998 15.11 2.02998 14.33 2.80998L11.5 5.63998L13.62 7.75998L15.74 5.63998L19.28 9.17998C20.45 7.99998 20.45 6.09998 19.28 4.92998Z" fill="#344054"/>
<path d="M5.48986 13.7699C6.07986 14.3599 7.02986 14.3599 7.60986 13.7699L10.0799 11.2999L7.95986 9.16992L5.48986 11.6399C4.89986 12.2299 4.89986 13.1799 5.48986 13.7699Z" fill="#344054"/>
<path d="M15.04 7.75996L14.33 8.46996L13.62 9.17996L10.44 5.99996C9.84997 5.39996 8.89997 5.39996 8.31997 5.98996C7.72997 6.57996 7.72997 7.52996 8.31997 8.10996L11.5 11.29L10.79 12L4.42997 18.36C3.64997 19.14 3.64997 20.41 4.42997 21.19C5.20997 21.97 6.47997 21.97 7.25997 21.19L16.45 12C16.84 12.39 17.47 12.39 17.86 12C18.25 11.61 18.25 10.98 17.86 10.59L15.04 7.75996Z" fill="#344054"/>
</g>
<defs>
<clipPath id="clip0_47_4850">
<rect width="24" height="24" fill="white"/>
</clipPath>
</defs>
</svg>
