<svg width="24" height="24" viewBox="0 0 24 24" fill="none" xmlns="http://www.w3.org/2000/svg">
<path fill-rule="evenodd" clip-rule="evenodd" d="M2 12C2 6.486 6.486 2 12 2C17.514 2 22 6.486 22 12C22 17.514 17.514 22 12 22C6.486 22 2 17.514 2 12ZM13 13H15C15.55 13 16 12.55 16 12C16 11.45 15.55 11 15 11H13V9C13 8.45 12.55 8 12 8C11.45 8 11 8.45 11 9V11H9C8.45 11 8 11.45 8 12C8 12.55 8.45 13 9 13H11V15C11 15.55 11.45 16 12 16C12.55 16 13 15.55 13 15V13Z" fill="#344054"/>
<mask id="mask0_49_3371" style="mask-type:luminance" maskUnits="userSpaceOnUse" x="2" y="2" width="20" height="20">
<path fill-rule="evenodd" clip-rule="evenodd" d="M2 12C2 6.486 6.486 2 12 2C17.514 2 22 6.486 22 12C22 17.514 17.514 22 12 22C6.486 22 2 17.514 2 12ZM13 13H15C15.55 13 16 12.55 16 12C16 11.45 15.55 11 15 11H13V9C13 8.45 12.55 8 12 8C11.45 8 11 8.45 11 9V11H9C8.45 11 8 11.45 8 12C8 12.55 8.45 13 9 13H11V15C11 15.55 11.45 16 12 16C12.55 16 13 15.55 13 15V13Z" fill="white"/>
</mask>
<g mask="url(#mask0_49_3371)">
</g>
</svg>
