<svg width="24" height="24" viewBox="0 0 24 24" fill="none" xmlns="http://www.w3.org/2000/svg">
<path fill-rule="evenodd" clip-rule="evenodd" d="M15.0507 5.16448L21.4677 11.5815C21.8107 11.9245 21.9997 12.3805 21.9997 12.8665C21.9997 13.3525 21.8107 13.8095 21.4677 14.1515L14.1517 21.4675C13.7967 21.8215 13.3317 21.9985 12.8667 21.9985C12.4017 21.9985 11.9367 21.8215 11.5817 21.4685L5.16468 15.0505C4.99968 14.8865 4.89868 14.6685 4.87568 14.4365L4.00368 5.09248C3.97668 4.79648 4.08168 4.50348 4.29268 4.29248C4.50368 4.08148 4.79568 3.97448 5.09268 4.00448L14.4367 4.87648C14.6687 4.89748 14.8857 4.99948 15.0507 5.16448ZM9.43968 11.5605C10.0257 12.1465 10.9747 12.1465 11.5607 11.5605C12.1467 10.9745 12.1467 10.0245 11.5607 9.43948C10.9747 8.85348 10.0257 8.85348 9.43968 9.43948C8.85368 10.0245 8.85368 10.9745 9.43968 11.5605Z" fill="#344054"/>
<mask id="mask0_49_2916" style="mask-type:luminance" maskUnits="userSpaceOnUse" x="3" y="3" width="19" height="19">
<path fill-rule="evenodd" clip-rule="evenodd" d="M15.0507 5.16448L21.4677 11.5815C21.8107 11.9245 21.9997 12.3805 21.9997 12.8665C21.9997 13.3525 21.8107 13.8095 21.4677 14.1515L14.1517 21.4675C13.7967 21.8215 13.3317 21.9985 12.8667 21.9985C12.4017 21.9985 11.9367 21.8215 11.5817 21.4685L5.16468 15.0505C4.99968 14.8865 4.89868 14.6685 4.87568 14.4365L4.00368 5.09248C3.97668 4.79648 4.08168 4.50348 4.29268 4.29248C4.50368 4.08148 4.79568 3.97448 5.09268 4.00448L14.4367 4.87648C14.6687 4.89748 14.8857 4.99948 15.0507 5.16448ZM9.43968 11.5605C10.0257 12.1465 10.9747 12.1465 11.5607 11.5605C12.1467 10.9745 12.1467 10.0245 11.5607 9.43948C10.9747 8.85348 10.0257 8.85348 9.43968 9.43948C8.85368 10.0245 8.85368 10.9745 9.43968 11.5605Z" fill="white"/>
</mask>
<g mask="url(#mask0_49_2916)">
</g>
</svg>
