<svg width="24" height="24" viewBox="0 0 24 24" fill="none" xmlns="http://www.w3.org/2000/svg">
<path fill-rule="evenodd" clip-rule="evenodd" d="M10.5822 20.4686C10.9372 20.8216 11.4012 20.9986 11.8662 20.9986C12.3322 20.9986 12.7972 20.8216 13.1512 20.4676L20.4682 13.1516C20.8112 12.8086 21.0002 12.3526 21.0002 11.8666C21.0002 11.3806 20.8112 10.9246 20.4682 10.5816L14.0512 4.16461C13.8862 3.99961 13.6692 3.89761 13.4372 3.8766L4.09317 3.0046C3.79617 2.9746 3.50417 3.0816 3.29317 3.2926C3.08217 3.5036 2.97717 3.7966 3.00417 4.0926L3.87617 13.4366C3.89817 13.6686 4.00017 13.8866 4.16517 14.0506L10.5822 20.4686ZM5.83417 12.8916L11.8662 18.9246L18.9242 11.8666L12.8922 5.83361L5.10717 5.1076L5.83417 12.8916ZM10.5607 8.4395C11.1467 9.0245 11.1467 9.9755 10.5607 10.5605C9.97467 11.1465 9.02567 11.1465 8.43967 10.5605C7.85367 9.9755 7.85367 9.0245 8.43967 8.4395C9.02567 7.8535 9.97467 7.8535 10.5607 8.4395Z" fill="#344054"/>
</svg>
