<svg width="24" height="24" viewBox="0 0 24 24" fill="none" xmlns="http://www.w3.org/2000/svg">
<path fill-rule="evenodd" clip-rule="evenodd" d="M18 7H19.363C20.817 7 22 8.196 22 9.667V16.333C22 17.804 20.817 19 19.363 19H18.5C18.5 20.103 17.603 21 16.5 21H7.5C6.397 21 5.5 20.103 5.5 19H4.637C3.183 19 2 17.804 2 16.333V9.667C2 8.196 3.183 7 4.637 7H6V5C6 3.897 6.822 3 7.833 3H16.167C17.178 3 18 3.897 18 5V7ZM8.014 5H16V7H8.007L8.014 5ZM7.5 19V15H16.5L16.502 19H7.5Z" fill="#344054"/>
<mask id="mask0_49_3160" style="mask-type:luminance" maskUnits="userSpaceOnUse" x="2" y="3" width="20" height="18">
<path fill-rule="evenodd" clip-rule="evenodd" d="M18 7H19.363C20.817 7 22 8.196 22 9.667V16.333C22 17.804 20.817 19 19.363 19H18.5C18.5 20.103 17.603 21 16.5 21H7.5C6.397 21 5.5 20.103 5.5 19H4.637C3.183 19 2 17.804 2 16.333V9.667C2 8.196 3.183 7 4.637 7H6V5C6 3.897 6.822 3 7.833 3H16.167C17.178 3 18 3.897 18 5V7ZM8.014 5H16V7H8.007L8.014 5ZM7.5 19V15H16.5L16.502 19H7.5Z" fill="white"/>
</mask>
<g mask="url(#mask0_49_3160)">
</g>
</svg>
