<svg width="24" height="24" viewBox="0 0 24 24" fill="none" xmlns="http://www.w3.org/2000/svg">
<path fill-rule="evenodd" clip-rule="evenodd" d="M18 7H19.363C20.817 7 22 8.196 22 9.667V16.333C22 17.804 20.817 19 19.363 19H18.5C18.5 20.103 17.603 21 16.5 21H7.5C6.397 21 5.5 20.103 5.5 19H4.637C3.183 19 2 17.804 2 16.333V9.667C2 8.196 3.183 7 4.637 7H6V5C6 3.897 6.822 3 7.833 3H16.167C17.178 3 18 3.897 18 5V7ZM8.014 5H16V7H8.007L8.014 5ZM19.363 17C19.715 17 20 16.701 20 16.333V9.667C20 9.299 19.715 9 19.363 9H18H16H8H6H4.637C4.285 9 4 9.299 4 9.667V16.333C4 16.701 4.285 17 4.637 17H5.5V15C5.5 13.897 6.397 13 7.5 13H16.5C17.603 13 18.5 13.897 18.5 15V17H19.363ZM7.5 15V19H16.502L16.5 15H7.5Z" fill="#344054"/>
</svg>
