<svg width="24" height="24" viewBox="0 0 24 24" fill="none" xmlns="http://www.w3.org/2000/svg">
  <path fill-rule="evenodd" clip-rule="evenodd"
    d="M11 3H7.2C5.987 3 5 4.047 5 5.334V20C5 20.36 5.194 20.693 5.507 20.87C5.66 20.957 5.83 21 6 21C6.178 21 6.356 20.952 6.514 20.858L11.836 17.663L17.508 20.871C17.818 21.047 18.196 21.044 18.504 20.864C18.811 20.685 19 20.356 19 20V12.0001C19 12.0001 19 11.0001 18 11.0001C17 11.0001 17 12.0001 17 12.0001V18.286L12.313 15.635C12.16 15.549 11.99 15.506 11.821 15.506C11.643 15.506 11.465 15.554 11.306 15.649L7 18.234V5.334C7 5.133 7.12 5 7.2 5H11C11 5 12 4.99988 12 4C12 3.00012 11 3 11 3Z"
    fill="#344054" />
  <path
    d="M15.5 3.00012L15.5438 3.43245C15.7591 5.55925 17.4409 7.24106 19.5677 7.45636L20 7.50012L19.5677 7.54389C17.4409 7.75918 15.7591 9.441 15.5438 11.5678L15.5 12.0001L15.4562 11.5678C15.2409 9.44099 13.5591 7.75918 11.4323 7.54389L11 7.50012L11.4323 7.45636C13.5591 7.24106 15.2409 5.55925 15.4562 3.43245L15.5 3.00012Z"
    fill="#344054" />
  <path
    d="M11 8.50012L11.0292 8.78834C11.1727 10.2062 12.2939 11.3274 13.7118 11.4709L14 11.5001L13.7118 11.5293C12.2939 11.6728 11.1727 12.794 11.0292 14.2119L11 14.5001L10.9708 14.2119C10.8273 12.794 9.70608 11.6728 8.28822 11.5293L8 11.5001L8.28822 11.4709C9.70608 11.3274 10.8273 10.2062 10.9708 8.78834L11 8.50012Z"
    fill="#344054" />
</svg>