<svg width="24" height="24" viewBox="0 0 24 24" fill="none" xmlns="http://www.w3.org/2000/svg">
<g clip-path="url(#clip0_47_882)">
<path d="M12 5V1L7 6L12 11V7C15.31 7 18 9.69 18 13C18 16.31 15.31 19 12 19C8.69 19 6 16.31 6 13H4C4 17.42 7.58 21 12 21C16.42 21 20 17.42 20 13C20 8.58 16.42 5 12 5Z" fill="#344054"/>
<path d="M10.6901 13.9L10.9401 11.73H13.3301V12.44H11.6301L11.5201 13.36C11.5501 13.34 11.5901 13.33 11.6301 13.31C11.6701 13.29 11.7201 13.27 11.7801 13.26C11.8401 13.25 11.9001 13.23 11.9601 13.22C12.0201 13.21 12.0901 13.2 12.1601 13.2C12.3701 13.2 12.5501 13.23 12.7101 13.3C12.8701 13.37 13.0101 13.46 13.1201 13.58C13.2301 13.7 13.3201 13.85 13.3701 14.03C13.4201 14.21 13.4601 14.41 13.4601 14.63C13.4601 14.82 13.4301 15 13.3701 15.17C13.3101 15.34 13.2201 15.49 13.1001 15.62C12.9801 15.75 12.8301 15.86 12.6501 15.93C12.4701 16 12.2601 16.05 12.0101 16.05C11.8301 16.05 11.6501 16.02 11.4801 15.97C11.3101 15.92 11.1601 15.83 11.0201 15.73C10.8801 15.63 10.7801 15.49 10.7001 15.34C10.6201 15.19 10.5701 15.01 10.5701 14.81H11.4101C11.4301 14.99 11.4901 15.13 11.6001 15.22C11.7101 15.31 11.8501 15.37 12.0201 15.37C12.1301 15.37 12.2201 15.35 12.2901 15.31C12.3601 15.27 12.4301 15.21 12.4701 15.14C12.5101 15.07 12.5501 14.99 12.5801 14.89C12.6101 14.79 12.6101 14.69 12.6101 14.58C12.6101 14.47 12.6001 14.37 12.5701 14.27C12.5401 14.17 12.5001 14.1 12.4401 14.03C12.3801 13.96 12.3101 13.91 12.2301 13.88C12.1501 13.85 12.0401 13.83 11.9301 13.83C11.8501 13.83 11.7801 13.84 11.7301 13.85C11.6801 13.86 11.6201 13.88 11.5801 13.9C11.5401 13.92 11.5001 13.95 11.4601 13.97C11.4201 13.99 11.3901 14.03 11.3601 14.06L10.6901 13.9Z" fill="#344054"/>
</g>
<defs>
<clipPath id="clip0_47_882">
<rect width="24" height="24" fill="white"/>
</clipPath>
</defs>
</svg>
