<svg width="24" height="24" viewBox="0 0 24 24" fill="none" xmlns="http://www.w3.org/2000/svg">
<g clip-path="url(#clip0_47_873)">
<path d="M12 5V1L7 6L12 11V7C15.31 7 18 9.69 18 13C18 16.31 15.31 19 12 19C8.69 19 6 16.31 6 13H4C4 17.42 7.58 21 12 21C16.42 21 20 17.42 20 13C20 8.58 16.42 5 12 5Z" fill="#344054"/>
<path d="M9.56011 13.4901H10.0101C10.2201 13.4901 10.3801 13.4401 10.4901 13.3301C10.6001 13.2201 10.6501 13.0801 10.6501 12.9001C10.6501 12.8201 10.6401 12.7501 10.6101 12.6801C10.5801 12.6101 10.5501 12.5601 10.5001 12.5101C10.4501 12.4601 10.3901 12.4201 10.3201 12.4001C10.2501 12.3801 10.1601 12.3601 10.0701 12.3601C9.99011 12.3601 9.92011 12.3701 9.85011 12.3901C9.78011 12.4101 9.72011 12.4401 9.67011 12.4901C9.62011 12.5401 9.58011 12.5801 9.55011 12.6401C9.52011 12.7001 9.50011 12.7701 9.50011 12.8401H8.65011C8.65011 12.6601 8.69011 12.5001 8.76011 12.3601C8.83011 12.2201 8.93011 12.0901 9.06011 11.9901C9.19011 11.8901 9.33011 11.8101 9.50011 11.7601C9.67011 11.7101 9.85011 11.6801 10.0401 11.6801C10.2501 11.6801 10.4501 11.7101 10.6301 11.7601C10.8101 11.8101 10.9601 11.8901 11.0901 11.9901C11.2201 12.0901 11.3201 12.2201 11.3901 12.3701C11.4601 12.5201 11.5001 12.7001 11.5001 12.9001C11.5001 12.9901 11.4901 13.0801 11.4601 13.1701C11.4301 13.2601 11.3901 13.3401 11.3301 13.4201C11.2701 13.5001 11.2101 13.5701 11.1301 13.6401C11.0501 13.7101 10.9601 13.7601 10.8501 13.8101C11.0901 13.9001 11.2701 14.0201 11.3901 14.2001C11.5101 14.3801 11.5701 14.5801 11.5701 14.8101C11.5701 15.0101 11.5301 15.1901 11.4501 15.3401C11.3701 15.4901 11.2701 15.6301 11.1301 15.7301C10.9901 15.8301 10.8401 15.9201 10.6501 15.9701C10.4601 16.0201 10.2701 16.0501 10.0501 16.0501C9.87011 16.0501 9.69011 16.0301 9.52011 15.9801C9.35011 15.9301 9.19011 15.8601 9.06011 15.7501C8.93011 15.6401 8.81011 15.5201 8.73011 15.3701C8.65011 15.2201 8.61011 15.0301 8.61011 14.8201H9.46011C9.46011 14.9001 9.48011 14.9701 9.51011 15.0401C9.54011 15.1101 9.58011 15.1601 9.64011 15.2101C9.70011 15.2601 9.76011 15.3001 9.84011 15.3201C9.92011 15.3401 10.0001 15.3601 10.0901 15.3601C10.1901 15.3601 10.2801 15.3501 10.3601 15.3201C10.4401 15.2901 10.5101 15.2501 10.5601 15.2001C10.6101 15.1501 10.6601 15.0901 10.6901 15.0201C10.7201 14.9501 10.7301 14.8701 10.7301 14.7801C10.7301 14.6701 10.7101 14.5701 10.6801 14.4901C10.6501 14.4101 10.6001 14.3401 10.5401 14.2901C10.4801 14.2401 10.4101 14.2001 10.3201 14.1801C10.2301 14.1601 10.1401 14.1401 10.0301 14.1401H9.56011V13.4901Z" fill="#344054"/>
<path d="M15.3002 14.2401C15.3002 14.5601 15.2702 14.8401 15.2002 15.0601C15.1302 15.2801 15.0302 15.4801 14.9102 15.6301C14.7902 15.7801 14.6302 15.8901 14.4602 15.9601C14.2902 16.0301 14.0902 16.0601 13.8702 16.0601C13.6502 16.0601 13.4602 16.0301 13.2802 15.9601C13.1002 15.8901 12.9502 15.7801 12.8202 15.6301C12.6902 15.4801 12.5902 15.2901 12.5202 15.0601C12.4502 14.8301 12.4102 14.5601 12.4102 14.2401V13.5001C12.4102 13.1801 12.4402 12.9001 12.5102 12.6801C12.5802 12.4601 12.6802 12.2601 12.8002 12.1101C12.9202 11.9601 13.0802 11.8501 13.2502 11.7801C13.4202 11.7101 13.6202 11.6801 13.8402 11.6801C14.0602 11.6801 14.2502 11.7101 14.4302 11.7801C14.6102 11.8501 14.7602 11.9601 14.8902 12.1101C15.0202 12.2601 15.1202 12.4501 15.1902 12.6801C15.2602 12.9101 15.3002 13.1801 15.3002 13.5001V14.2401ZM14.4502 13.3801C14.4502 13.1901 14.4402 13.0301 14.4102 12.9001C14.3802 12.7701 14.3402 12.6701 14.2902 12.5901C14.2402 12.5101 14.1802 12.4501 14.1002 12.4201C14.0202 12.3901 13.9402 12.3701 13.8502 12.3701C13.7602 12.3701 13.6702 12.3901 13.6002 12.4201C13.5302 12.4501 13.4602 12.5101 13.4102 12.5901C13.3602 12.6701 13.3202 12.7701 13.2902 12.9001C13.2602 13.0301 13.2502 13.1901 13.2502 13.3801V14.3501C13.2502 14.5401 13.2602 14.7001 13.2902 14.8301C13.3202 14.9601 13.3602 15.0701 13.4102 15.1501C13.4602 15.2301 13.5202 15.2901 13.6002 15.3201C13.6802 15.3501 13.7602 15.3701 13.8502 15.3701C13.9402 15.3701 14.0302 15.3501 14.1002 15.3201C14.1702 15.2901 14.2402 15.2301 14.2902 15.1501C14.3402 15.0701 14.3802 14.9601 14.4002 14.8301C14.4302 14.7001 14.4402 14.5401 14.4402 14.3501V13.3801H14.4502Z" fill="#344054"/>
</g>
<defs>
<clipPath id="clip0_47_873">
<rect width="24" height="24" fill="white"/>
</clipPath>
</defs>
</svg>
