<svg width="24" height="24" viewBox="0 0 24 24" fill="none" xmlns="http://www.w3.org/2000/svg">
<path fill-rule="evenodd" clip-rule="evenodd" d="M16.241 6.46146C16.849 5.95846 17.716 5.85646 18.45 6.20146C19.098 6.50646 19.5 7.11446 19.5 7.78746V16.2135C19.5 16.8855 19.098 17.4935 18.45 17.7985C18.161 17.9345 17.851 18.0015 17.544 18.0015C17.073 18.0015 16.609 17.8435 16.241 17.5405L11.5 13.6225V16.2135C11.5 16.8855 11.098 17.4935 10.45 17.7985C10.161 17.9345 9.851 18.0015 9.544 18.0015C9.073 18.0015 8.609 17.8435 8.241 17.5405L3.142 13.3265C2.734 12.9905 2.5 12.5065 2.5 12.0005C2.5 11.4945 2.734 11.0095 3.141 10.6735L8.241 6.46146C8.849 5.95846 9.716 5.85646 10.45 6.20146C11.098 6.50646 11.5 7.11446 11.5 7.78746V10.3775L16.241 6.46146ZM9.5 15.9855L4.678 12.0025L9.5 8.09146V15.9855ZM17.5 15.9855L12.678 12.0025L17.5 8.09146V15.9855Z" fill="#344054"/>
</svg>
