<svg width="24" height="24" viewBox="0 0 24 24" fill="none" xmlns="http://www.w3.org/2000/svg">
<path fill-rule="evenodd" clip-rule="evenodd" d="M15.759 6.46015L20.858 10.6742C21.266 11.0102 21.5 11.4942 21.5 12.0002C21.5 12.5062 21.266 12.9902 20.859 13.3262L15.759 17.5392C15.391 17.8442 14.927 18.0012 14.456 18.0012C14.149 18.0012 13.839 17.9342 13.55 17.7992C12.902 17.4932 12.5 16.8862 12.5 16.2132V13.6232L7.759 17.5392C7.391 17.8442 6.927 18.0012 6.456 18.0012C6.149 18.0012 5.839 17.9342 5.55 17.7992C4.902 17.4932 4.5 16.8862 4.5 16.2132V7.78715C4.5 7.11415 4.902 6.50715 5.55 6.20115C6.281 5.85615 7.15 5.95815 7.759 6.46015L12.5 10.3782V7.78715C12.5 7.11415 12.902 6.50715 13.55 6.20115C14.282 5.85615 15.15 5.95815 15.759 6.46015ZM6.5 15.9082V8.01415L11.322 11.9982L6.5 15.9082ZM14.5 15.9082V8.01415L19.322 11.9982L14.5 15.9082Z" fill="#344054"/>
</svg>
