<svg width="24" height="24" viewBox="0 0 24 24" fill="none" xmlns="http://www.w3.org/2000/svg">
<path d="M18.45 6.20121C17.716 5.85621 16.849 5.95821 16.241 6.46121L11.5 10.3772V7.78721C11.5 7.11421 11.097 6.50721 10.45 6.20121C9.716 5.85621 8.849 5.95821 8.241 6.46121L3.141 10.6742C2.734 11.0102 2.5 11.4942 2.5 12.0002C2.5 12.5062 2.734 12.9902 3.141 13.3262L8.241 17.5402C8.609 17.8442 9.073 18.0012 9.544 18.0012C9.851 18.0012 10.161 17.9342 10.45 17.7992C11.097 17.4932 11.5 16.8862 11.5 16.2132V13.6222L16.241 17.5402C16.609 17.8442 17.073 18.0012 17.544 18.0012C17.851 18.0012 18.161 17.9342 18.45 17.7992C19.097 17.4932 19.5 16.8862 19.5 16.2132V7.78721C19.5 7.11421 19.097 6.50721 18.45 6.20121Z" fill="#344054"/>
<mask id="mask0_49_2313" style="mask-type:luminance" maskUnits="userSpaceOnUse" x="2" y="5" width="18" height="14">
<path d="M18.45 6.20121C17.716 5.85621 16.849 5.95821 16.241 6.46121L11.5 10.3772V7.78721C11.5 7.11421 11.097 6.50721 10.45 6.20121C9.716 5.85621 8.849 5.95821 8.241 6.46121L3.141 10.6742C2.734 11.0102 2.5 11.4942 2.5 12.0002C2.5 12.5062 2.734 12.9902 3.141 13.3262L8.241 17.5402C8.609 17.8442 9.073 18.0012 9.544 18.0012C9.851 18.0012 10.161 17.9342 10.45 17.7992C11.097 17.4932 11.5 16.8862 11.5 16.2132V13.6222L16.241 17.5402C16.609 17.8442 17.073 18.0012 17.544 18.0012C17.851 18.0012 18.161 17.9342 18.45 17.7992C19.097 17.4932 19.5 16.8862 19.5 16.2132V7.78721C19.5 7.11421 19.097 6.50721 18.45 6.20121Z" fill="white"/>
</mask>
<g mask="url(#mask0_49_2313)">
</g>
</svg>
