<svg width="24" height="24" viewBox="0 0 24 24" fill="none" xmlns="http://www.w3.org/2000/svg">
<path fill-rule="evenodd" clip-rule="evenodd" d="M20.706 4.292C21.097 4.682 21.099 5.314 20.708 5.706L9.714 16.74C9.893 17.125 10 17.549 10 18C10 19.654 8.654 21 7 21C5.346 21 4 19.654 4 18C4 16.346 5.346 15 7 15C7.473 15 7.913 15.12 8.311 15.314L11.6 12.014L8.293 8.707C8.29141 8.70594 8.29066 8.70431 8.28986 8.70257C8.28915 8.70103 8.28841 8.69941 8.287 8.698C7.895 8.886 7.463 9 7 9C5.346 9 4 7.654 4 6C4 4.346 5.346 3 7 3C8.654 3 10 4.346 10 6C10 6.462 9.886 6.896 9.698 7.287C9.7 7.289 9.702 7.29011 9.704 7.29122C9.705 7.29178 9.706 7.29233 9.707 7.293L13.012 10.597L19.292 4.294C19.682 3.904 20.314 3.902 20.706 4.292ZM7 7C6.448 7 6 6.551 6 6C6 5.449 6.448 5 7 5C7.552 5 8 5.449 8 6C8 6.551 7.552 7 7 7ZM20 20C20.256 20 20.512 19.902 20.707 19.707C21.098 19.316 21.098 18.684 20.707 18.293L15.707 13.293C15.316 12.902 14.684 12.902 14.293 13.293C13.902 13.684 13.902 14.316 14.293 14.707L19.293 19.707C19.488 19.902 19.744 20 20 20ZM6 18C6 18.551 6.448 19 7 19C7.552 19 8 18.551 8 18C8 17.449 7.552 17 7 17C6.448 17 6 17.449 6 18Z" fill="#344054"/>
</svg>
