<svg width="24" height="24" viewBox="0 0 24 24" fill="none" xmlns="http://www.w3.org/2000/svg">
<g clip-path="url(#clip0_47_3999)">
<path d="M15.0002 9H9.00022C8.45021 9 8.00022 9.45 8.00022 10V22C8.00022 22.55 8.45021 23 9.00022 23H15.0002C15.5502 23 16.0002 22.55 16.0002 22V10C16.0002 9.45 15.5502 9 15.0002 9ZM12.0002 15C10.9002 15 10.0002 14.1 10.0002 13C10.0002 11.9 10.9002 11 12.0002 11C13.1002 11 14.0002 11.9 14.0002 13C14.0002 14.1 13.1002 15 12.0002 15ZM7.05022 6.05L8.46022 7.46C9.37021 6.56 10.6202 6 12.0002 6C13.3802 6 14.6302 6.56 15.5402 7.46L16.9502 6.05C15.6802 4.78 13.9302 4 12.0002 4C10.0702 4 8.32022 4.78 7.05022 6.05ZM12.0002 0C8.96022 0 6.21021 1.23 4.22021 3.22L5.63022 4.63C7.26022 3.01 9.51021 2 12.0002 2C14.4902 2 16.7402 3.01 18.3602 4.64L19.7702 3.23C17.7902 1.23 15.0402 0 12.0002 0Z" fill="#344054"/>
</g>
<defs>
<clipPath id="clip0_47_3999">
<rect width="24" height="24" fill="white"/>
</clipPath>
</defs>
</svg>
