<svg width="24" height="24" viewBox="0 0 24 24" fill="none" xmlns="http://www.w3.org/2000/svg">
<path fill-rule="evenodd" clip-rule="evenodd" d="M19.233 9.375H20.317C21.245 9.375 22 10.129 22 11.057V12.949C22 13.874 21.248 14.625 20.324 14.625H19.233C19.086 14.625 18.985 14.743 18.94 14.853C18.94 14.8534 18.9378 14.8588 18.9352 14.8651C18.9315 14.8741 18.927 14.8848 18.927 14.886C18.88 14.997 18.868 15.152 18.972 15.256L19.743 16.026C20.398 16.683 20.398 17.749 19.743 18.403L18.403 19.743C18.086 20.061 17.664 20.235 17.215 20.235H17.213C16.764 20.235 16.342 20.06 16.024 19.741L15.259 18.972C15.154 18.867 14.999 18.879 14.889 18.925C14.742 18.986 14.625 19.086 14.625 19.233V20.317C14.625 21.245 13.871 22 12.943 22H11.051C10.126 22 9.375 21.248 9.375 20.324V19.233C9.375 19.086 9.257 18.985 9.147 18.94C9.003 18.881 8.849 18.869 8.744 18.972L7.974 19.743C7.318 20.397 6.251 20.399 5.597 19.743L4.257 18.403C3.939 18.085 3.764 17.663 3.765 17.213C3.765 16.764 3.94 16.342 4.259 16.024L5.028 15.259C5.133 15.154 5.121 15 5.075 14.889C5.014 14.742 4.914 14.625 4.767 14.625H3.683C2.755 14.625 2 13.871 2 12.943V11.051C2 10.126 2.752 9.375 3.676 9.375H4.767C4.914 9.375 5.015 9.257 5.06 9.147C5.12 9.003 5.132 8.848 5.028 8.744L4.257 7.974C3.602 7.317 3.602 6.251 4.257 5.597L5.597 4.257C5.914 3.939 6.336 3.765 6.785 3.765H6.787C7.236 3.765 7.658 3.94 7.976 4.259L8.741 5.028C8.845 5.134 9 5.122 9.111 5.075C9.258 5.014 9.375 4.914 9.375 4.767V3.683C9.375 2.755 10.129 2 11.057 2H12.949C13.874 2 14.625 2.752 14.625 3.676V4.767C14.625 4.914 14.743 5.015 14.853 5.06C14.998 5.12 15.152 5.133 15.256 5.028L16.026 4.257C16.682 3.603 17.749 3.601 18.403 4.257L19.744 5.598C20.062 5.915 20.236 6.337 20.236 6.787C20.236 7.235 20.06 7.658 19.742 7.975L18.972 8.741C18.867 8.846 18.879 9 18.925 9.111C18.986 9.258 19.086 9.375 19.233 9.375ZM12 15.5C10.07 15.5 8.5 13.93 8.5 12C8.5 10.07 10.07 8.5 12 8.5C13.93 8.5 15.5 10.07 15.5 12C15.5 13.93 13.93 15.5 12 15.5ZM12 10.5C11.173 10.5 10.5 11.173 10.5 12C10.5 12.827 11.173 13.5 12 13.5C12.827 13.5 13.5 12.827 13.5 12C13.5 11.173 12.827 10.5 12 10.5Z" fill="#344054"/>
<mask id="mask0_49_2501" style="mask-type:luminance" maskUnits="userSpaceOnUse" x="2" y="2" width="20" height="20">
<path fill-rule="evenodd" clip-rule="evenodd" d="M19.233 9.375H20.317C21.245 9.375 22 10.129 22 11.057V12.949C22 13.874 21.248 14.625 20.324 14.625H19.233C19.086 14.625 18.985 14.743 18.94 14.853C18.94 14.8534 18.9378 14.8588 18.9352 14.8651C18.9315 14.8741 18.927 14.8848 18.927 14.886C18.88 14.997 18.868 15.152 18.972 15.256L19.743 16.026C20.398 16.683 20.398 17.749 19.743 18.403L18.403 19.743C18.086 20.061 17.664 20.235 17.215 20.235H17.213C16.764 20.235 16.342 20.06 16.024 19.741L15.259 18.972C15.154 18.867 14.999 18.879 14.889 18.925C14.742 18.986 14.625 19.086 14.625 19.233V20.317C14.625 21.245 13.871 22 12.943 22H11.051C10.126 22 9.375 21.248 9.375 20.324V19.233C9.375 19.086 9.257 18.985 9.147 18.94C9.003 18.881 8.849 18.869 8.744 18.972L7.974 19.743C7.318 20.397 6.251 20.399 5.597 19.743L4.257 18.403C3.939 18.085 3.764 17.663 3.765 17.213C3.765 16.764 3.94 16.342 4.259 16.024L5.028 15.259C5.133 15.154 5.121 15 5.075 14.889C5.014 14.742 4.914 14.625 4.767 14.625H3.683C2.755 14.625 2 13.871 2 12.943V11.051C2 10.126 2.752 9.375 3.676 9.375H4.767C4.914 9.375 5.015 9.257 5.06 9.147C5.12 9.003 5.132 8.848 5.028 8.744L4.257 7.974C3.602 7.317 3.602 6.251 4.257 5.597L5.597 4.257C5.914 3.939 6.336 3.765 6.785 3.765H6.787C7.236 3.765 7.658 3.94 7.976 4.259L8.741 5.028C8.845 5.134 9 5.122 9.111 5.075C9.258 5.014 9.375 4.914 9.375 4.767V3.683C9.375 2.755 10.129 2 11.057 2H12.949C13.874 2 14.625 2.752 14.625 3.676V4.767C14.625 4.914 14.743 5.015 14.853 5.06C14.998 5.12 15.152 5.133 15.256 5.028L16.026 4.257C16.682 3.603 17.749 3.601 18.403 4.257L19.744 5.598C20.062 5.915 20.236 6.337 20.236 6.787C20.236 7.235 20.06 7.658 19.742 7.975L18.972 8.741C18.867 8.846 18.879 9 18.925 9.111C18.986 9.258 19.086 9.375 19.233 9.375ZM12 15.5C10.07 15.5 8.5 13.93 8.5 12C8.5 10.07 10.07 8.5 12 8.5C13.93 8.5 15.5 10.07 15.5 12C15.5 13.93 13.93 15.5 12 15.5ZM12 10.5C11.173 10.5 10.5 11.173 10.5 12C10.5 12.827 11.173 13.5 12 13.5C12.827 13.5 13.5 12.827 13.5 12C13.5 11.173 12.827 10.5 12 10.5Z" fill="white"/>
</mask>
<g mask="url(#mask0_49_2501)">
</g>
</svg>
