<svg width="24" height="24" viewBox="0 0 24 24" fill="none" xmlns="http://www.w3.org/2000/svg">
<path fill-rule="evenodd" clip-rule="evenodd" d="M21.1051 7.798L21.8921 10.319C22.2711 11.537 21.6141 12.851 20.4271 13.248L20.2261 13.315C19.6491 13.509 19.1971 13.989 19.0161 14.601C18.8501 15.162 18.9461 15.779 19.2741 16.253L19.5351 16.628C20.2491 17.66 20.0211 19.108 19.0271 19.857L16.9661 21.413C16.4711 21.787 15.8641 21.938 15.2551 21.841C14.6411 21.742 14.1051 21.402 13.7461 20.884L13.6281 20.712C13.2781 20.208 12.7181 19.902 12.1311 19.935C11.5421 19.951 11.0351 20.23 10.7031 20.702L10.4721 21.03C10.1101 21.543 9.57312 21.878 8.96112 21.974C8.84512 21.992 8.72912 22 8.61412 22C8.12712 22 7.65612 21.842 7.25812 21.54L5.18612 19.966C4.19612 19.216 3.97712 17.773 4.69712 16.75C5.07112 16.22 5.14712 15.539 4.92812 14.893L4.87312 14.725C4.68912 14.143 4.27212 13.691 3.75412 13.514L3.59012 13.458C2.37312 13.041 1.72312 11.749 2.11012 10.517L2.92612 7.922C3.11112 7.335 3.51012 6.861 4.05012 6.588C4.57812 6.322 5.17512 6.281 5.73312 6.472C6.33212 6.676 6.99712 6.565 7.51012 6.175L7.63912 6.077C8.09512 5.729 8.37012 5.165 8.37212 4.567L8.37312 4.326C8.37812 3.042 9.40212 2 10.6561 2H10.6601L13.2071 2.003C13.8091 2.004 14.3761 2.242 14.8051 2.673C15.2481 3.118 15.4901 3.713 15.4881 4.348L15.4861 4.627C15.4841 5.193 15.7431 5.728 16.1801 6.056L16.2871 6.137C16.7461 6.482 17.3441 6.582 17.8801 6.401L18.2201 6.288C18.7961 6.096 19.4111 6.143 19.9521 6.42C20.5071 6.704 20.9171 7.193 21.1051 7.798ZM12.0001 15.5C10.0701 15.5 8.50012 13.93 8.50012 12C8.50012 10.07 10.0701 8.5 12.0001 8.5C13.9301 8.5 15.5001 10.07 15.5001 12C15.5001 13.93 13.9301 15.5 12.0001 15.5ZM12.0001 10.5C11.1731 10.5 10.5001 11.173 10.5001 12C10.5001 12.827 11.1731 13.5 12.0001 13.5C12.8271 13.5 13.5001 12.827 13.5001 12C13.5001 11.173 12.8271 10.5 12.0001 10.5Z" fill="#344054"/>
<mask id="mask0_49_2606" style="mask-type:luminance" maskUnits="userSpaceOnUse" x="1" y="2" width="21" height="20">
<path fill-rule="evenodd" clip-rule="evenodd" d="M21.1051 7.798L21.8921 10.319C22.2711 11.537 21.6141 12.851 20.4271 13.248L20.2261 13.315C19.6491 13.509 19.1971 13.989 19.0161 14.601C18.8501 15.162 18.9461 15.779 19.2741 16.253L19.5351 16.628C20.2491 17.66 20.0211 19.108 19.0271 19.857L16.9661 21.413C16.4711 21.787 15.8641 21.938 15.2551 21.841C14.6411 21.742 14.1051 21.402 13.7461 20.884L13.6281 20.712C13.2781 20.208 12.7181 19.902 12.1311 19.935C11.5421 19.951 11.0351 20.23 10.7031 20.702L10.4721 21.03C10.1101 21.543 9.57312 21.878 8.96112 21.974C8.84512 21.992 8.72912 22 8.61412 22C8.12712 22 7.65612 21.842 7.25812 21.54L5.18612 19.966C4.19612 19.216 3.97712 17.773 4.69712 16.75C5.07112 16.22 5.14712 15.539 4.92812 14.893L4.87312 14.725C4.68912 14.143 4.27212 13.691 3.75412 13.514L3.59012 13.458C2.37312 13.041 1.72312 11.749 2.11012 10.517L2.92612 7.922C3.11112 7.335 3.51012 6.861 4.05012 6.588C4.57812 6.322 5.17512 6.281 5.73312 6.472C6.33212 6.676 6.99712 6.565 7.51012 6.175L7.63912 6.077C8.09512 5.729 8.37012 5.165 8.37212 4.567L8.37312 4.326C8.37812 3.042 9.40212 2 10.6561 2H10.6601L13.2071 2.003C13.8091 2.004 14.3761 2.242 14.8051 2.673C15.2481 3.118 15.4901 3.713 15.4881 4.348L15.4861 4.627C15.4841 5.193 15.7431 5.728 16.1801 6.056L16.2871 6.137C16.7461 6.482 17.3441 6.582 17.8801 6.401L18.2201 6.288C18.7961 6.096 19.4111 6.143 19.9521 6.42C20.5071 6.704 20.9171 7.193 21.1051 7.798ZM12.0001 15.5C10.0701 15.5 8.50012 13.93 8.50012 12C8.50012 10.07 10.0701 8.5 12.0001 8.5C13.9301 8.5 15.5001 10.07 15.5001 12C15.5001 13.93 13.9301 15.5 12.0001 15.5ZM12.0001 10.5C11.1731 10.5 10.5001 11.173 10.5001 12C10.5001 12.827 11.1731 13.5 12.0001 13.5C12.8271 13.5 13.5001 12.827 13.5001 12C13.5001 11.173 12.8271 10.5 12.0001 10.5Z" fill="white"/>
</mask>
<g mask="url(#mask0_49_2606)">
</g>
</svg>
