<svg width="24" height="24" viewBox="0 0 24 24" fill="none" xmlns="http://www.w3.org/2000/svg">
<path fill-rule="evenodd" clip-rule="evenodd" d="M7.25762 21.5391C7.65562 21.8421 8.12762 22.0001 8.61362 22.0001C8.72862 22.0001 8.84462 21.9921 8.96162 21.9741C9.57262 21.8781 10.1096 21.5431 10.4716 21.0301L10.7026 20.7021C11.0346 20.2301 11.5426 19.9511 12.1306 19.9351C12.7176 19.9021 13.2776 20.2081 13.6276 20.7121L13.7456 20.8841C14.1046 21.4021 14.6406 21.7421 15.2546 21.8411C15.8636 21.9381 16.4706 21.7871 16.9656 21.4131L19.0266 19.8571C20.0206 19.1081 20.2486 17.6601 19.5346 16.6281L19.2746 16.2531C18.9456 15.7791 18.8496 15.1621 19.0156 14.6011C19.1966 13.9891 19.6496 13.5091 20.2256 13.3151L20.4266 13.2481C21.6136 12.8511 22.2716 11.5371 21.8916 10.3191L21.1046 7.79812C20.9166 7.19312 20.5066 6.70412 19.9516 6.42012C19.4106 6.14312 18.7966 6.09612 18.2196 6.28812L17.8806 6.40112C17.3436 6.58112 16.7456 6.48212 16.2866 6.13712L16.1796 6.05612C15.7426 5.72812 15.4836 5.19312 15.4856 4.62712L15.4876 4.34812C15.4896 3.71312 15.2476 3.11812 14.8046 2.67312C14.3766 2.24212 13.8086 2.00412 13.2066 2.00312L10.6596 2.00012H10.6556C9.40262 2.00012 8.37762 3.04212 8.37262 4.32612L8.37162 4.56712C8.36962 5.16412 8.09462 5.72912 7.63862 6.07712L7.50962 6.17512C6.99662 6.56512 6.33162 6.67612 5.73262 6.47212C5.17462 6.28112 4.57762 6.32212 4.04962 6.58812C3.50962 6.86112 3.11062 7.33512 2.92562 7.92212L2.10962 10.5171C1.72262 11.7491 2.37262 13.0401 3.59062 13.4571L3.75362 13.5141H3.75462C4.27162 13.6911 4.68962 14.1431 4.87262 14.7251L4.92762 14.8931C5.14762 15.5391 5.07062 16.2201 4.69662 16.7501C3.97662 17.7731 4.19562 19.2161 5.18562 19.9661L7.25762 21.5391ZM6.77962 14.1231C6.40762 12.9391 5.51862 12.0051 4.40262 11.6221L4.23862 11.5661C4.05562 11.5031 3.95862 11.3061 4.01762 11.1171L4.83462 8.52112C4.86262 8.43012 4.92062 8.38912 4.95262 8.37312C4.99462 8.35112 5.03862 8.34812 5.08562 8.36412C6.31762 8.78412 7.67762 8.56012 8.72062 7.76712L8.84962 7.66912C9.79762 6.94612 10.3666 5.79012 10.3716 4.57512L10.3726 4.33312C10.3736 4.14912 10.5006 4.00012 10.6566 4.00012L13.2036 4.00312C13.2896 4.00312 13.3506 4.04712 13.3866 4.08412C13.4246 4.12212 13.4876 4.20512 13.4876 4.33812L13.4856 4.61812C13.4816 5.81412 14.0386 6.94912 14.9746 7.65312L15.0826 7.73412C16.0676 8.47512 17.3506 8.68512 18.5136 8.29812L18.8536 8.18512C18.9156 8.16412 18.9806 8.16912 19.0406 8.20012C19.0826 8.22212 19.1586 8.27512 19.1956 8.39312L19.9826 10.9141C20.0396 11.0981 19.9526 11.2981 19.7916 11.3511L19.5906 11.4191C18.3956 11.8191 17.4646 12.7971 17.0986 14.0331C16.7616 15.1681 16.9606 16.4241 17.6306 17.3921L17.8906 17.7671C17.9976 17.9221 17.9656 18.1531 17.8216 18.2611L15.7606 19.8161C15.6886 19.8721 15.6166 19.8751 15.5726 19.8661C15.5216 19.8581 15.4496 19.8301 15.3906 19.7461L15.2726 19.5751C14.5366 18.5121 13.3546 17.9091 12.0386 17.9361C10.8666 17.9701 9.75662 18.5731 9.06762 19.5501L8.83662 19.8781C8.77762 19.9621 8.70462 19.9891 8.65462 19.9971C8.61062 20.0021 8.53962 20.0021 8.46662 19.9471L6.39462 18.3731C6.25762 18.2691 6.22862 18.0491 6.35862 17.8651C7.07262 16.8511 7.24562 15.4991 6.81962 14.2431L6.77962 14.1231ZM11.9998 10.5C11.1728 10.5 10.4998 11.173 10.4998 12C10.4998 12.827 11.1728 13.5 11.9998 13.5C12.8268 13.5 13.4998 12.827 13.4998 12C13.4998 11.173 12.8268 10.5 11.9998 10.5ZM8.49982 12C8.49982 13.93 10.0698 15.5 11.9998 15.5C13.9298 15.5 15.4998 13.93 15.4998 12C15.4998 10.07 13.9298 8.50002 11.9998 8.50002C10.0698 8.50002 8.49982 10.07 8.49982 12Z" fill="#344054"/>
</svg>
