<svg width="24" height="24" viewBox="0 0 24 24" fill="none" xmlns="http://www.w3.org/2000/svg">
<path fill-rule="evenodd" clip-rule="evenodd" d="M11.0505 22H12.9425C13.8705 22 14.6255 21.245 14.6255 20.317V19.233C14.6255 19.086 14.7425 18.986 14.8885 18.925C14.9985 18.879 15.1545 18.867 15.2595 18.972L16.0245 19.741C16.3415 20.06 16.7645 20.235 17.2135 20.235H17.2155C17.6645 20.235 18.0855 20.061 18.4035 19.743L19.7435 18.403C20.3975 17.749 20.3975 16.683 19.7435 16.026L18.9725 15.256C18.8685 15.152 18.8805 14.997 18.9265 14.886L18.9307 14.8758L18.9339 14.8682C18.937 14.8607 18.94 14.8535 18.9405 14.853C18.9855 14.743 19.0865 14.625 19.2335 14.625H20.3235C21.2485 14.625 21.9995 13.874 21.9995 12.949V11.057C21.9995 10.129 21.2455 9.375 20.3175 9.375H19.2335C19.0855 9.375 18.9855 9.258 18.9255 9.111C18.8785 9 18.8675 8.846 18.9725 8.741L19.7415 7.975C20.0605 7.658 20.2355 7.235 20.2355 6.787C20.2365 6.337 20.0625 5.915 19.7445 5.598L18.4035 4.257C17.7485 3.601 16.6825 3.603 16.0265 4.257L15.2565 5.028C15.1515 5.133 14.9975 5.12 14.8525 5.06C14.7425 5.015 14.6255 4.914 14.6255 4.767V3.676C14.6255 2.752 13.8735 2 12.9495 2H11.0575C10.1295 2 9.37451 2.755 9.37451 3.683V4.767C9.37451 4.914 9.25751 5.014 9.11151 5.075C9.00051 5.122 8.84551 5.134 8.74051 5.028L7.97551 4.259C7.65851 3.94 7.23551 3.765 6.78651 3.765H6.78451C6.33551 3.765 5.91451 3.939 5.59651 4.257L4.25651 5.597C3.60251 6.251 3.60251 7.317 4.25651 7.974L5.02751 8.744C5.13151 8.848 5.11951 9.003 5.05951 9.147C5.01451 9.257 4.91351 9.375 4.76651 9.375H3.67651C2.75151 9.375 1.99951 10.126 1.99951 11.051V12.943C1.99951 13.871 2.75451 14.625 3.68251 14.625H4.76651C4.91451 14.625 5.01451 14.742 5.07451 14.889C5.12151 15 5.13251 15.154 5.02751 15.259L4.25951 16.024C3.94051 16.342 3.76551 16.764 3.76451 17.213C3.76451 17.663 3.93851 18.085 4.25651 18.403L5.59651 19.743C6.25151 20.399 7.31751 20.397 7.97351 19.743L8.74351 18.972C8.84951 18.869 9.00351 18.881 9.14751 18.94C9.25751 18.985 9.37451 19.086 9.37451 19.233V20.324C9.37451 21.248 10.1265 22 11.0505 22ZM12.6255 20H11.3745V19.233C11.3745 18.298 10.7985 17.458 9.88551 17.081C8.99451 16.709 7.99151 16.896 7.32951 17.558L6.78451 18.103L5.89751 17.216L6.43851 16.677C7.10451 16.014 7.29351 15.009 6.90851 14.089C6.54251 13.2 5.70151 12.625 4.76651 12.625H3.99951V11.375H4.76651C5.70151 11.375 6.54251 10.799 6.91851 9.886C7.29151 8.995 7.10351 7.991 6.44151 7.329L5.89651 6.785L6.78451 5.897L7.32351 6.438C7.98651 7.105 8.99151 7.294 9.91051 6.909C10.7995 6.542 11.3745 5.702 11.3745 4.767V4H12.6255V4.767C12.6255 5.702 13.2015 6.542 14.1145 6.919C15.0055 7.291 16.0085 7.104 16.6705 6.442L17.2155 5.897L18.1025 6.784L17.5615 7.323C16.8955 7.986 16.7065 8.991 17.0915 9.911C17.4575 10.8 18.2985 11.375 19.2335 11.375H19.9995V12.625H19.2335C18.2985 12.625 17.4575 13.201 17.0935 14.084L17.0825 14.112C17.0825 14.1125 17.0823 14.113 17.082 14.1133L17.0815 14.114C16.7085 15.005 16.8955 16.009 17.5585 16.671L18.1035 17.215L17.2155 18.103L16.6765 17.562C16.0145 16.896 15.0095 16.708 14.0895 17.091C13.2005 17.458 12.6255 18.298 12.6255 19.233V20ZM12 10.5C11.173 10.5 10.5 11.173 10.5 12C10.5 12.827 11.173 13.5 12 13.5C12.827 13.5 13.5 12.827 13.5 12C13.5 11.173 12.827 10.5 12 10.5ZM8.50001 12C8.50001 13.93 10.07 15.5 12 15.5C13.93 15.5 15.5 13.93 15.5 12C15.5 10.07 13.93 8.5 12 8.5C10.07 8.5 8.50001 10.07 8.50001 12Z" fill="#344054"/>
</svg>
