<svg width="24" height="24" viewBox="0 0 24 24" fill="none" xmlns="http://www.w3.org/2000/svg">
<path fill-rule="evenodd" clip-rule="evenodd" d="M15.901 15.861C16.443 15.33 17.183 15 18 15C19.654 15 21 16.346 21 18C21 19.654 19.654 21 18 21C16.346 21 15 19.654 15 18C15 17.9173 15.0111 17.8366 15.0221 17.7562C15.0263 17.7258 15.0304 17.6954 15.034 17.665L7.099 14.139C6.557 14.67 5.817 15 5 15C3.346 15 2 13.654 2 12C2 10.346 3.346 9 5 9C5.817 9 6.557 9.33 7.099 9.861L15.034 6.335C15.0304 6.30457 15.0263 6.27422 15.0221 6.24384C15.0111 6.16339 15 6.08275 15 6C15 4.346 16.346 3 18 3C19.654 3 21 4.346 21 6C21 7.654 19.654 9 18 9C17.183 9 16.443 8.67 15.901 8.139L7.966 11.665C7.96956 11.6954 7.97373 11.7258 7.9779 11.7562C7.98893 11.8366 8 11.9172 8 12C8 12.0828 7.98893 12.1634 7.9779 12.2438C7.97373 12.2742 7.96956 12.3046 7.966 12.335L15.901 15.861ZM18 5C18.552 5 19 5.448 19 6C19 6.552 18.552 7 18 7C17.448 7 17 6.552 17 6C17 5.448 17.448 5 18 5ZM4 12C4 12.552 4.448 13 5 13C5.552 13 6 12.552 6 12C6 11.448 5.552 11 5 11C4.448 11 4 11.448 4 12ZM17 18C17 18.552 17.448 19 18 19C18.552 19 19 18.552 19 18C19 17.448 18.552 17 18 17C17.448 17 17 17.448 17 18Z" fill="#344054"/>
</svg>
