<svg width="24" height="24" viewBox="0 0 24 24" fill="none" xmlns="http://www.w3.org/2000/svg">
<path fill-rule="evenodd" clip-rule="evenodd" d="M12.9793 2.4038L19.9803 6.34179C20.6103 6.69679 21.0003 7.36479 21.0003 8.08479V8.22979C21.0003 11.0168 20.2253 13.6958 18.8383 16.0108L17.3733 14.5438C18.4183 12.6388 19.0003 10.4748 19.0003 8.22979V8.08479L12.0003 4.1468L8.78426 5.9558L7.31526 4.4878L11.0193 2.4038C11.6253 2.0648 12.3763 2.0638 12.9793 2.4038ZM4.70676 3.293C4.31576 2.902 3.68376 2.902 3.29276 3.293C2.90176 3.684 2.90176 4.31599 3.29276 4.707L19.2928 20.707C19.4878 20.902 19.7438 21 19.9998 21C20.2558 21 20.5118 20.902 20.7068 20.707C21.0978 20.316 21.0978 19.684 20.7068 19.293L4.70676 3.293ZM12.3016 19.6836L11.9996 19.8536L11.6976 19.6836C7.56656 17.3586 4.99956 12.9696 4.99956 8.2296V8.0846L5.16356 7.9926L3.73156 6.5596C3.28056 6.9356 2.99956 7.4866 2.99956 8.0846V8.2296C2.99956 13.6916 5.95656 18.7476 10.7176 21.4256L11.0206 21.5966C11.3226 21.7666 11.6606 21.8506 11.9996 21.8506C12.3386 21.8506 12.6776 21.7656 12.9806 21.5956L13.2816 21.4256C14.4046 20.7946 15.4216 20.0276 16.3286 19.1576L14.9146 17.7436C14.1356 18.4866 13.2626 19.1426 12.3016 19.6836Z" fill="#344054"/>
</svg>
