<svg width="24" height="24" viewBox="0 0 24 24" fill="none" xmlns="http://www.w3.org/2000/svg">
<path fill-rule="evenodd" clip-rule="evenodd" d="M11.021 21.5965C11.322 21.7665 11.661 21.8505 12 21.8505C12.339 21.8505 12.678 21.7655 12.98 21.5955L13.282 21.4255C18.043 18.7485 21 13.6915 21 8.22955V8.08455C21 7.36555 20.61 6.69755 19.98 6.34155L12.979 2.40355C12.376 2.06355 11.625 2.06455 11.02 2.40455L4.018 6.34255C3.39 6.69755 3 7.36555 3 8.08455V8.22955C3 13.6915 5.957 18.7485 10.718 21.4255L11.021 21.5965ZM5 8.08455L12 4.14655L19 8.08455V8.22955C19 12.9695 16.434 17.3585 12.302 19.6835L12 19.8535L11.698 19.6835C7.566 17.3585 5 12.9695 5 8.22955V8.08455Z" fill="#344054"/>
</svg>
