<svg width="24" height="24" viewBox="0 0 24 24" fill="none" xmlns="http://www.w3.org/2000/svg">
<path fill-rule="evenodd" clip-rule="evenodd" d="M18.8387 16.0112C20.2257 13.6972 20.9997 11.0172 20.9997 8.23016V8.08516C20.9997 7.36516 20.6097 6.69816 19.9807 6.34216L12.9797 2.40416C12.3757 2.06416 11.6247 2.06516 11.0197 2.40516L7.31566 4.48816L18.8387 16.0112ZM3.73116 6.55996C3.28016 6.93596 3.00016 7.48696 3.00016 8.08496V8.22996C3.00016 13.692 5.95716 18.748 10.7172 21.426L11.0202 21.597C11.3222 21.767 11.6612 21.851 12.0002 21.851C12.3382 21.851 12.6772 21.766 12.9802 21.596L13.2822 21.426C14.4042 20.795 15.4212 20.028 16.3292 19.158L3.73116 6.55996ZM3.29276 3.29336C3.68376 2.90236 4.31576 2.90236 4.70676 3.29336L20.7068 19.2934C21.0978 19.6844 21.0978 20.3164 20.7068 20.7074C20.5118 20.9024 20.2558 21.0004 19.9998 21.0004C19.7438 21.0004 19.4878 20.9024 19.2928 20.7074L3.29276 4.70736C2.90176 4.31636 2.90176 3.68436 3.29276 3.29336Z" fill="#344054"/>
<mask id="mask0_49_2377" style="mask-type:luminance" maskUnits="userSpaceOnUse" x="2" y="2" width="19" height="20">
<path fill-rule="evenodd" clip-rule="evenodd" d="M18.8387 16.0112C20.2257 13.6972 20.9997 11.0172 20.9997 8.23016V8.08516C20.9997 7.36516 20.6097 6.69816 19.9807 6.34216L12.9797 2.40416C12.3757 2.06416 11.6247 2.06516 11.0197 2.40516L7.31566 4.48816L18.8387 16.0112ZM3.73116 6.55996C3.28016 6.93596 3.00016 7.48696 3.00016 8.08496V8.22996C3.00016 13.692 5.95716 18.748 10.7172 21.426L11.0202 21.597C11.3222 21.767 11.6612 21.851 12.0002 21.851C12.3382 21.851 12.6772 21.766 12.9802 21.596L13.2822 21.426C14.4042 20.795 15.4212 20.028 16.3292 19.158L3.73116 6.55996ZM3.29276 3.29336C3.68376 2.90236 4.31576 2.90236 4.70676 3.29336L20.7068 19.2934C21.0978 19.6844 21.0978 20.3164 20.7068 20.7074C20.5118 20.9024 20.2558 21.0004 19.9998 21.0004C19.7438 21.0004 19.4878 20.9024 19.2928 20.7074L3.29276 4.70736C2.90176 4.31636 2.90176 3.68436 3.29276 3.29336Z" fill="white"/>
</mask>
<g mask="url(#mask0_49_2377)">
</g>
</svg>
