<svg width="24" height="24" viewBox="0 0 24 24" fill="none" xmlns="http://www.w3.org/2000/svg">
<path fill-rule="evenodd" clip-rule="evenodd" d="M19.382 6C20.08 6 20.716 6.354 21.083 6.948C21.45 7.542 21.483 8.269 21.171 8.894L17.895 15.447C17.725 15.786 17.379 16 17 16H8C7.549 16 7.154 15.698 7.035 15.263L4.236 5H3C2.447 5 2 4.552 2 4C2 3.448 2.447 3 3 3H5C5.451 3 5.846 3.302 5.965 3.737L6.582 6H19.382ZM16.382 14H8.764L7.127 8H19.382L16.382 14ZM7.5 21C8.328 21 9 20.329 9 19.5C9 18.671 8.328 18 7.5 18C6.672 18 6 18.671 6 19.5C6 20.329 6.672 21 7.5 21ZM17.5 21C18.328 21 19 20.329 19 19.5C19 18.671 18.328 18 17.5 18C16.672 18 16 18.671 16 19.5C16 20.329 16.672 21 17.5 21Z" fill="#344054"/>
</svg>
