<svg width="24" height="24" viewBox="0 0 24 24" fill="none" xmlns="http://www.w3.org/2000/svg">
<path fill-rule="evenodd" clip-rule="evenodd" d="M17.293 3.879L20.121 6.707C20.687 7.273 21 8.027 21 8.829V18C21 19.654 19.654 21 18 21H6C4.346 21 3 19.654 3 18V8.829C3 8.027 3.312 7.273 3.879 6.707L6.707 3.879C7.273 3.312 8.027 3 8.828 3H15.172C15.973 3 16.727 3.312 17.293 3.879ZM6.414 7L8.121 5.293C8.308 5.107 8.565 5 8.828 5H15.172C15.435 5 15.692 5.107 15.879 5.293L17.586 7H6.414ZM12 16C9.794 16 8 14.206 8 12C8 11.448 8.447 11 9 11C9.553 11 10 11.448 10 12C10 13.103 10.897 14 12 14C13.102 14 14 13.103 14 12C14 11.448 14.447 11 15 11C15.553 11 16 11.448 16 12C16 14.206 14.206 16 12 16Z" fill="#344054"/>
<mask id="mask0_49_2907" style="mask-type:luminance" maskUnits="userSpaceOnUse" x="3" y="3" width="18" height="18">
<path fill-rule="evenodd" clip-rule="evenodd" d="M17.293 3.879L20.121 6.707C20.687 7.273 21 8.027 21 8.829V18C21 19.654 19.654 21 18 21H6C4.346 21 3 19.654 3 18V8.829C3 8.027 3.312 7.273 3.879 6.707L6.707 3.879C7.273 3.312 8.027 3 8.828 3H15.172C15.973 3 16.727 3.312 17.293 3.879ZM6.414 7L8.121 5.293C8.308 5.107 8.565 5 8.828 5H15.172C15.435 5 15.692 5.107 15.879 5.293L17.586 7H6.414ZM12 16C9.794 16 8 14.206 8 12C8 11.448 8.447 11 9 11C9.553 11 10 11.448 10 12C10 13.103 10.897 14 12 14C13.102 14 14 13.103 14 12C14 11.448 14.447 11 15 11C15.553 11 16 11.448 16 12C16 14.206 14.206 16 12 16Z" fill="white"/>
</mask>
<g mask="url(#mask0_49_2907)">
</g>
</svg>
