<svg width="24" height="24" viewBox="0 0 24 24" fill="none" xmlns="http://www.w3.org/2000/svg">
<path fill-rule="evenodd" clip-rule="evenodd" d="M18.9998 10.3081C18.4478 10.3081 17.9998 9.86012 17.9998 9.30812L17.9988 7.41512L5.70676 19.7071C5.51176 19.9021 5.25576 20.0001 4.99976 20.0001C4.74376 20.0001 4.48776 19.9021 4.29276 19.7071C3.90176 19.3161 3.90176 18.6831 4.29276 18.2931L10.5798 12.0061L4.74776 6.17512C4.35676 5.78412 4.35676 5.15112 4.74776 4.76112C5.13876 4.37012 5.77076 4.37012 6.16176 4.76112L11.9938 10.5921L16.5758 6.00912L14.6868 6.00012C14.1348 5.99712 13.6888 5.54712 13.6918 4.99512C13.6948 4.44312 14.1688 4.01012 14.6968 4.00012L19.0018 4.02112C19.5518 4.02412 19.9968 4.47112 19.9968 5.02112L19.9998 9.30712C19.9998 9.85912 19.5528 10.3071 19.0008 10.3081H18.9998ZM18.9997 13.6792H19.0047C19.5577 13.6822 20.0027 14.1322 19.9997 14.6842L19.9787 18.8922C20.0107 19.1832 19.9307 19.4842 19.7067 19.7072C19.5117 19.9022 19.2557 20.0002 18.9997 20.0002C18.9844 20.0002 18.9695 19.9961 18.9546 19.9919C18.943 19.9887 18.9314 19.9855 18.9197 19.9842L14.6927 19.9872C14.1407 19.9872 13.6927 19.5392 13.6927 18.9872C13.6927 18.4352 14.1397 17.9872 14.6917 17.9872L16.5707 17.9862L13.7927 15.2072C13.4017 14.8162 13.4017 14.1832 13.7927 13.7932C14.1837 13.4022 14.8167 13.4022 15.2067 13.7932L17.9897 16.5762L17.9997 14.6742C18.0027 14.1232 18.4497 13.6792 18.9997 13.6792Z" fill="#344054"/>
</svg>
