<svg width="24" height="24" viewBox="0 0 24 24" fill="none" xmlns="http://www.w3.org/2000/svg">
<g clip-path="url(#clip0_47_1743)">
<path d="M22.9999 16V14.5C22.9999 13.1 21.8999 12 20.4999 12C19.0999 12 17.9999 13.1 17.9999 14.5V16C17.4999 16 16.9999 16.5 16.9999 17V21C16.9999 21.5 17.4999 22 17.9999 22H22.9999C23.4999 22 23.9999 21.5 23.9999 21V17C23.9999 16.5 23.4999 16 22.9999 16ZM21.9999 16H18.9999V14.5C18.9999 13.7 19.6999 13 20.4999 13C21.2999 13 21.9999 13.7 21.9999 14.5V16ZM15.4999 14.5C15.4999 11.7 17.6999 9.5 20.4999 9.5C20.8999 9.5 21.1999 9.5 21.4999 9.6L23.5999 7C23.1999 6.7 18.6999 3 11.9999 3C5.2999 3 0.799902 6.7 0.399902 7L11.9999 21.5L15.4999 17.1V14.5Z" fill="#344054"/>
</g>
<defs>
<clipPath id="clip0_47_1743">
<rect width="24" height="24" fill="white"/>
</clipPath>
</defs>
</svg>
