<svg width="14" height="14" viewBox="0 0 14 14" fill="none" xmlns="http://www.w3.org/2000/svg">
<path d="M11.3482 4.18886C11.3482 4.18885 11.3482 4.18887 11.3482 4.18886C10.9661 4.14545 10.5982 3.97664 10.3117 3.69005C10.3116 3.69013 10.3117 3.68998 10.3117 3.69005C10.5982 3.97664 10.9661 4.14545 11.3482 4.18886Z" fill="currentColor"/>
<path d="M9.85067 2.03098C9.85054 2.031 9.8508 2.03095 9.85067 2.03098C9.75668 2.40893 9.78976 2.81502 9.95705 3.18009C9.95716 3.18007 9.95694 3.18012 9.95705 3.18009C9.78976 2.81502 9.75668 2.40893 9.85067 2.03098Z" fill="currentColor"/>
<path d="M8.63531 2.38368C3.48732 4.27366 2.52336 10.0965 2.03412 13.0519C2.02165 13.1272 2.00948 13.2007 1.99756 13.2723H3.1462C3.52901 11.3563 4.48739 10.3024 6.02133 10.1107C8.32062 9.82331 10.0451 8.09884 10.6199 6.37436L10.0451 5.79993C10.2366 5.6082 10.428 5.41658 10.6215 5.22317C10.6237 5.22094 10.6259 5.2187 10.6282 5.21644C10.2549 5.09291 9.90355 4.89285 9.59967 4.61917C9.47699 4.74192 9.35431 4.86472 9.23161 4.98759L8.41955 5.8008L9.25638 6.637C8.60666 7.83545 7.32342 8.78938 5.87873 8.96993C5.12198 9.06454 4.46554 9.31873 3.91414 9.71915C4.01538 9.38438 4.12855 9.05282 4.26186 8.69441C5.2064 6.15522 6.65378 4.38792 8.83862 3.52636C8.69268 3.15854 8.62584 2.76953 8.63531 2.38368Z" fill="currentColor"/>
<path d="M10.1784 3.53993C9.57837 2.7847 9.70423 1.68608 10.4595 1.0861C11.2147 0.486118 12.3133 0.611974 12.9133 1.36721C13.5133 2.12244 13.3874 3.22106 12.6322 3.82104C11.877 4.42102 10.7783 4.29516 10.1784 3.53993Z" fill="currentColor"/>
</svg>
