<svg width="24" height="24" viewBox="0 0 24 24" fill="none" xmlns="http://www.w3.org/2000/svg">
<path fill-rule="evenodd" clip-rule="evenodd" d="M14.241 6.46146C14.849 5.95846 15.716 5.85646 16.45 6.20146C17.098 6.50646 17.5 7.11446 17.5 7.78746V16.2135C17.5 16.8855 17.098 17.4935 16.45 17.7985C16.161 17.9345 15.851 18.0015 15.544 18.0015C15.073 18.0015 14.609 17.8435 14.241 17.5405L9.142 13.3265C9.10425 13.2957 9.07286 13.261 9.04133 13.2262C9.02775 13.2112 9.01415 13.1962 9 13.1815V17.0005C9 17.5525 8.552 18.0005 8 18.0005C7.448 18.0005 7 17.5525 7 17.0005V7.00046C7 6.44746 7.448 6.00046 8 6.00046C8.552 6.00046 9 6.44746 9 7.00046V10.8185C9.01465 10.8032 9.02872 10.7876 9.04276 10.7721C9.07373 10.7378 9.10452 10.7037 9.141 10.6735L14.241 6.46146ZM10.678 12.0025L15.5 15.9855V8.09146L10.678 12.0025Z" fill="#344054"/>
</svg>
