<svg width="24" height="24" viewBox="0 0 24 24" fill="none" xmlns="http://www.w3.org/2000/svg">
<path d="M16.45 6.20121C15.716 5.85621 14.848 5.95821 14.241 6.46121L9.141 10.6742C9.088 10.7182 9.047 10.7692 9 10.8182V7.00021C9 6.44721 8.552 6.00021 8 6.00021C7.448 6.00021 7 6.44721 7 7.00021V17.0002C7 17.5532 7.448 18.0002 8 18.0002C8.552 18.0002 9 17.5532 9 17.0002V13.1812C9.047 13.2302 9.088 13.2822 9.141 13.3262L14.241 17.5402C14.609 17.8442 15.073 18.0012 15.544 18.0012C15.851 18.0012 16.161 17.9342 16.45 17.7992C17.097 17.4932 17.5 16.8862 17.5 16.2132V7.78721C17.5 7.11421 17.097 6.50721 16.45 6.20121Z" fill="#344054"/>
<mask id="mask0_49_2880" style="mask-type:luminance" maskUnits="userSpaceOnUse" x="7" y="5" width="11" height="14">
<path d="M16.45 6.20121C15.716 5.85621 14.848 5.95821 14.241 6.46121L9.141 10.6742C9.088 10.7182 9.047 10.7692 9 10.8182V7.00021C9 6.44721 8.552 6.00021 8 6.00021C7.448 6.00021 7 6.44721 7 7.00021V17.0002C7 17.5532 7.448 18.0002 8 18.0002C8.552 18.0002 9 17.5532 9 17.0002V13.1812C9.047 13.2302 9.088 13.2822 9.141 13.3262L14.241 17.5402C14.609 17.8442 15.073 18.0012 15.544 18.0012C15.851 18.0012 16.161 17.9342 16.45 17.7992C17.097 17.4932 17.5 16.8862 17.5 16.2132V7.78721C17.5 7.11421 17.097 6.50721 16.45 6.20121Z" fill="white"/>
</mask>
<g mask="url(#mask0_49_2880)">
</g>
</svg>
