<svg width="24" height="24" viewBox="0 0 24 24" fill="none" xmlns="http://www.w3.org/2000/svg">
<path fill-rule="evenodd" clip-rule="evenodd" d="M15 7.00015C15 6.44715 15.448 6.00015 16 6.00015C16.552 6.00015 17 6.44715 17 7.00015V17.0002C17 17.5532 16.552 18.0002 16 18.0002C15.448 18.0002 15 17.5532 15 17.0002V13.1812C14.9853 13.1964 14.9713 13.212 14.9572 13.2275C14.9263 13.2618 14.8955 13.2959 14.859 13.3262L9.759 17.5392C9.391 17.8442 8.927 18.0012 8.456 18.0012C8.149 18.0012 7.839 17.9342 7.55 17.7992C6.902 17.4932 6.5 16.8862 6.5 16.2132V7.78715C6.5 7.11415 6.902 6.50715 7.55 6.20115C8.282 5.85615 9.15 5.95815 9.759 6.46015L14.858 10.6742C14.8965 10.7055 14.9283 10.7404 14.9605 10.7756C14.9735 10.7898 14.9865 10.8041 15 10.8182V7.00015ZM8.5 8.01415V15.9082L13.322 11.9982L8.5 8.01415Z" fill="#344054"/>
</svg>
