<svg width="24" height="24" viewBox="0 0 24 24" fill="none" xmlns="http://www.w3.org/2000/svg">
<path fill-rule="evenodd" clip-rule="evenodd" d="M7 2.00073H17C18.654 2.00073 20 3.34673 20 5.00073V19.0007C20 20.6547 18.654 22.0007 17 22.0007H7C5.346 22.0007 4 20.6547 4 19.0007V5.00073C4 3.34673 5.346 2.00073 7 2.00073ZM14.5 8.00073H9.5C8.947 8.00073 8.5 7.55373 8.5 7.00073C8.5 6.44773 8.947 6.00073 9.5 6.00073H14.5C15.053 6.00073 15.5 6.44773 15.5 7.00073C15.5 7.55373 15.053 8.00073 14.5 8.00073ZM12 18.0007C11.172 18.0007 10.5 17.3287 10.5 16.5007C10.5 15.6727 11.172 15.0007 12 15.0007C12.828 15.0007 13.5 15.6727 13.5 16.5007C13.5 17.3287 12.828 18.0007 12 18.0007Z" fill="#344054"/>
<mask id="mask0_49_2544" style="mask-type:luminance" maskUnits="userSpaceOnUse" x="4" y="2" width="16" height="21">
<path fill-rule="evenodd" clip-rule="evenodd" d="M7 2.00073H17C18.654 2.00073 20 3.34673 20 5.00073V19.0007C20 20.6547 18.654 22.0007 17 22.0007H7C5.346 22.0007 4 20.6547 4 19.0007V5.00073C4 3.34673 5.346 2.00073 7 2.00073ZM14.5 8.00073H9.5C8.947 8.00073 8.5 7.55373 8.5 7.00073C8.5 6.44773 8.947 6.00073 9.5 6.00073H14.5C15.053 6.00073 15.5 6.44773 15.5 7.00073C15.5 7.55373 15.053 8.00073 14.5 8.00073ZM12 18.0007C11.172 18.0007 10.5 17.3287 10.5 16.5007C10.5 15.6727 11.172 15.0007 12 15.0007C12.828 15.0007 13.5 15.6727 13.5 16.5007C13.5 17.3287 12.828 18.0007 12 18.0007Z" fill="white"/>
</mask>
<g mask="url(#mask0_49_2544)">
</g>
</svg>
