<svg width="24" height="24" viewBox="0 0 24 24" fill="none" xmlns="http://www.w3.org/2000/svg">
<path fill-rule="evenodd" clip-rule="evenodd" d="M7 2H17C18.654 2 20 3.346 20 5V19C20 20.654 18.654 22 17 22H7C5.346 22 4 20.654 4 19V5C4 3.346 5.346 2 7 2ZM17 20C17.552 20 18 19.552 18 19V5C18 4.448 17.552 4 17 4H7C6.448 4 6 4.448 6 5V19C6 19.552 6.448 20 7 20H17ZM12 17C11.173 17 10.5 16.327 10.5 15.5C10.5 14.673 11.173 14 12 14C12.827 14 13.5 14.673 13.5 15.5C13.5 16.327 12.827 17 12 17ZM8.5 15.5C8.5 13.57 10.07 12 12 12C13.93 12 15.5 13.57 15.5 15.5C15.5 17.43 13.93 19 12 19C10.07 19 8.5 17.43 8.5 15.5ZM12 7C12.552 7 13 7.448 13 8C13 8.552 12.552 9 12 9C11.448 9 11 8.552 11 8C11 7.448 11.448 7 12 7ZM15 8C15 9.654 13.654 11 12 11C10.346 11 9 9.654 9 8C9 6.346 10.346 5 12 5C13.654 5 15 6.346 15 8Z" fill="#344054"/>
</svg>
