<svg width="24" height="24" viewBox="0 0 24 24" fill="none" xmlns="http://www.w3.org/2000/svg">
<path fill-rule="evenodd" clip-rule="evenodd" d="M7 2.00073H17C18.654 2.00073 20 3.34673 20 5.00073V19.0007C20 20.6547 18.654 22.0007 17 22.0007H7C5.346 22.0007 4 20.6547 4 19.0007V5.00073C4 3.34673 5.346 2.00073 7 2.00073ZM12 5.00073C13.654 5.00073 15 6.34673 15 8.00073C15 9.65473 13.654 11.0007 12 11.0007C10.346 11.0007 9 9.65473 9 8.00073C9 6.34673 10.346 5.00073 12 5.00073ZM12 9.00073C12.552 9.00073 13 8.55273 13 8.00073C13 7.44873 12.552 7.00073 12 7.00073C11.448 7.00073 11 7.44873 11 8.00073C11 8.55273 11.448 9.00073 12 9.00073ZM12 14.0007C11.173 14.0007 10.5 14.6737 10.5 15.5007C10.5 16.3277 11.173 17.0007 12 17.0007C12.827 17.0007 13.5 16.3277 13.5 15.5007C13.5 14.6737 12.827 14.0007 12 14.0007ZM8.5 15.5007C8.5 17.4307 10.07 19.0007 12 19.0007C13.93 19.0007 15.5 17.4307 15.5 15.5007C15.5 13.5707 13.93 12.0007 12 12.0007C10.07 12.0007 8.5 13.5707 8.5 15.5007Z" fill="#344054"/>
<mask id="mask0_49_2458" style="mask-type:luminance" maskUnits="userSpaceOnUse" x="4" y="2" width="16" height="21">
<path fill-rule="evenodd" clip-rule="evenodd" d="M7 2.00073H17C18.654 2.00073 20 3.34673 20 5.00073V19.0007C20 20.6547 18.654 22.0007 17 22.0007H7C5.346 22.0007 4 20.6547 4 19.0007V5.00073C4 3.34673 5.346 2.00073 7 2.00073ZM12 5.00073C13.654 5.00073 15 6.34673 15 8.00073C15 9.65473 13.654 11.0007 12 11.0007C10.346 11.0007 9 9.65473 9 8.00073C9 6.34673 10.346 5.00073 12 5.00073ZM12 9.00073C12.552 9.00073 13 8.55273 13 8.00073C13 7.44873 12.552 7.00073 12 7.00073C11.448 7.00073 11 7.44873 11 8.00073C11 8.55273 11.448 9.00073 12 9.00073ZM12 14.0007C11.173 14.0007 10.5 14.6737 10.5 15.5007C10.5 16.3277 11.173 17.0007 12 17.0007C12.827 17.0007 13.5 16.3277 13.5 15.5007C13.5 14.6737 12.827 14.0007 12 14.0007ZM8.5 15.5007C8.5 17.4307 10.07 19.0007 12 19.0007C13.93 19.0007 15.5 17.4307 15.5 15.5007C15.5 13.5707 13.93 12.0007 12 12.0007C10.07 12.0007 8.5 13.5707 8.5 15.5007Z" fill="white"/>
</mask>
<g mask="url(#mask0_49_2458)">
</g>
</svg>
