<svg width="24" height="24" viewBox="0 0 24 24" fill="none" xmlns="http://www.w3.org/2000/svg">
<g clip-path="url(#clip0_47_5995)">
<path d="M15.0498 12.81L6.55984 4.31997C6.16984 3.92997 5.53984 3.92997 5.14984 4.31997L2.31984 7.14997C1.92984 7.53997 1.92984 8.16997 2.31984 8.55997L10.8098 17.05C11.1998 17.44 11.8298 17.44 12.2198 17.05L15.0498 14.22C15.4398 13.83 15.4398 13.2 15.0498 12.81Z" fill="#344054"/>
<path d="M15.755 16.342L14.3408 17.7562L18.5834 21.9988L19.9976 20.5846L15.755 16.342Z" fill="#344054"/>
<path d="M18.5 9C20.433 9 22 7.433 22 5.5C22 3.567 20.433 2 18.5 2C16.567 2 15 3.567 15 5.5C15 7.433 16.567 9 18.5 9Z" fill="#344054"/>
</g>
<defs>
<clipPath id="clip0_47_5995">
<rect width="24" height="24" fill="white"/>
</clipPath>
</defs>
</svg>
