<svg width="14" height="20" viewBox="0 0 14 20" fill="none" xmlns="http://www.w3.org/2000/svg">
<path d="M7 0.833008C8.04942 0.833008 8.85883 1.21081 9.35742 1.94824C9.81164 2.6201 9.91699 3.46467 9.91699 4.21875C9.91699 4.99011 9.80345 5.81492 9.7002 6.53125C9.69368 6.57647 9.68704 6.62189 9.68066 6.66602C9.58075 7.35748 9.50004 7.91437 9.5 8.33301V11.667H12.167C12.9953 11.6672 13.667 12.3387 13.667 13.167V15.167C13.6668 15.9952 12.9952 16.6668 12.167 16.667H12V17.667C11.9998 18.4953 11.3283 19.167 10.5 19.167H3.5C2.67168 19.167 2.00018 18.4953 2 17.667V16.667H1.83301C1.00484 16.6668 0.333184 15.9952 0.333008 15.167V13.167C0.333008 12.3387 1.00473 11.6672 1.83301 11.667H4.5V8.33301C4.49996 7.91437 4.41925 7.35748 4.31934 6.66602C4.31296 6.62189 4.30632 6.57647 4.2998 6.53125C4.19655 5.81492 4.08301 4.99011 4.08301 4.21875C4.08301 3.46467 4.18836 2.6201 4.64258 1.94824C5.14117 1.21081 5.95058 0.833008 7 0.833008ZM3.66699 17.5H10.333V16.667H3.66699V17.5ZM2 15H12V13.333H2V15ZM7.83301 8.33301C7.83305 7.78736 7.9314 7.11119 8.02441 6.4707C8.03302 6.41145 8.04137 6.35246 8.0498 6.29395C8.15487 5.56506 8.25 4.85348 8.25 4.21875C8.25 3.56658 8.14735 3.13446 7.97656 2.88184C7.85014 2.69487 7.61715 2.5 7 2.5C6.38285 2.5 6.14986 2.69487 6.02344 2.88184C5.85265 3.13446 5.75 3.56658 5.75 4.21875C5.75 4.85348 5.84513 5.56506 5.9502 6.29395C5.95863 6.35246 5.96698 6.41145 5.97559 6.4707C6.0686 7.11119 6.16695 7.78736 6.16699 8.33301V11.667H7.83301V8.33301Z" fill="#1D2939"/>
</svg>
