<svg width="24" height="24" viewBox="0 0 24 24" fill="none" xmlns="http://www.w3.org/2000/svg">
<path d="M17.5614 21.0007C17.4034 21.0007 17.2444 20.9637 17.0984 20.8877L11.9994 18.2237L6.90138 20.8877C6.56338 21.0627 6.15538 21.0327 5.84938 20.8087C5.54138 20.5847 5.38838 20.2057 5.45338 19.8307L6.42438 14.2027L2.30438 10.2177C2.03038 9.95265 1.93138 9.55465 2.04838 9.19065C2.16538 8.82865 2.47838 8.56365 2.85638 8.50965L8.55638 7.68165L11.1044 2.55565C11.4424 1.87565 12.5574 1.87565 12.8954 2.55565L15.4434 7.68165L21.1434 8.50965C21.5214 8.56365 21.8344 8.82865 21.9514 9.19065C22.0684 9.55465 21.9694 9.95265 21.6954 10.2177L17.5754 14.2027L18.5464 19.8307C18.6114 20.2057 18.4574 20.5847 18.1504 20.8087C17.9764 20.9367 17.7694 21.0007 17.5614 21.0007Z" fill="#344054"/>
<mask id="mask0_49_2386" style="mask-type:luminance" maskUnits="userSpaceOnUse" x="2" y="2" width="20" height="20">
<path d="M17.5614 21.0007C17.4034 21.0007 17.2444 20.9637 17.0984 20.8877L11.9994 18.2237L6.90138 20.8877C6.56338 21.0627 6.15538 21.0327 5.84938 20.8087C5.54138 20.5847 5.38838 20.2057 5.45338 19.8307L6.42438 14.2027L2.30438 10.2177C2.03038 9.95265 1.93138 9.55465 2.04838 9.19065C2.16538 8.82865 2.47838 8.56365 2.85638 8.50965L8.55638 7.68165L11.1044 2.55565C11.4424 1.87565 12.5574 1.87565 12.8954 2.55565L15.4434 7.68165L21.1434 8.50965C21.5214 8.56365 21.8344 8.82865 21.9514 9.19065C22.0684 9.55465 21.9694 9.95265 21.6954 10.2177L17.5754 14.2027L18.5464 19.8307C18.6114 20.2057 18.4574 20.5847 18.1504 20.8087C17.9764 20.9367 17.7694 21.0007 17.5614 21.0007Z" fill="white"/>
</mask>
<g mask="url(#mask0_49_2386)">
</g>
</svg>
