<svg width="24" height="24" viewBox="0 0 24 24" fill="none" xmlns="http://www.w3.org/2000/svg">
<path fill-rule="evenodd" clip-rule="evenodd" d="M2 12C2 6.486 6.486 2 12 2C17.514 2 22 6.486 22 12C22 17.514 17.514 22 12 22C6.486 22 2 17.514 2 12ZM12 20C7.589 20 4 16.411 4 12C4 7.589 7.589 4 12 4C16.411 4 20 7.589 20 12C20 16.411 16.411 20 12 20ZM14.75 8C15.439 8 16 8.561 16 9.25V14.75C16 15.439 15.439 16 14.75 16H9.25C8.561 16 8 15.439 8 14.75V9.25C8 8.561 8.561 8 9.25 8H14.75ZM14 14H10V10H14V14Z" fill="#344054"/>
</svg>
