<svg width="24" height="24" viewBox="0 0 24 24" fill="none" xmlns="http://www.w3.org/2000/svg">
<g clip-path="url(#clip0_3211_356)">
<path fill-rule="evenodd" clip-rule="evenodd" d="M12 20C16.4183 20 20 16.4183 20 12C20 7.58172 16.4183 4 12 4C7.58172 4 4 7.58172 4 12C4 16.4183 7.58172 20 12 20ZM12 22C17.5228 22 22 17.5228 22 12C22 6.47715 17.5228 2 12 2C6.47715 2 2 6.47715 2 12C2 17.5228 6.47715 22 12 22Z" fill="#344054"/>
<path d="M11.948 11.0038H14.5865L14 10.4172C13.609 10.0262 13.609 9.39421 14 9.00321C14.39 8.61221 15.023 8.61221 15.414 9.00321L17.7075 11.2968C18.0975 11.6878 18.0975 12.3198 17.7075 12.7108L15.414 15.0039C15.218 15.1989 14.963 15.2969 14.707 15.2969C14.451 15.2969 14.195 15.1989 14 15.0039C13.609 14.6129 13.609 13.9809 14 13.5899L14.5865 13.0038H11.948C11.427 13.0038 11 12.5768 11 12.0558V11.9518C11 11.4308 11.427 11.0038 11.948 11.0038Z" fill="#344054"/>
<path d="M12.052 11.0038H9.4135L10 10.4172C10.391 10.0262 10.391 9.39421 10 9.00321C9.61 8.61221 8.977 8.61221 8.586 9.00321L6.2925 11.2968C5.9025 11.6878 5.9025 12.3198 6.2925 12.7108L8.586 15.0039C8.782 15.1989 9.037 15.2969 9.293 15.2969C9.549 15.2969 9.805 15.1989 10 15.0039C10.391 14.6129 10.391 13.9809 10 13.5899L9.4135 13.0038H12.052C12.573 13.0038 13 12.5768 13 12.0558V11.9518C13 11.4308 12.573 11.0038 12.052 11.0038Z" fill="#344054"/>
</g>
<defs>
<clipPath id="clip0_3211_356">
<rect width="24" height="24" fill="white"/>
</clipPath>
</defs>
</svg>
