<svg width="24" height="24" viewBox="0 0 24 24" fill="none" xmlns="http://www.w3.org/2000/svg">
<path fill-rule="evenodd" clip-rule="evenodd" d="M9 17C9 19.757 11.243 22 14 22C16.757 22 19 19.757 19 17C19 15.42 18.246 13.937 17 13.003V5C17 4.189 16.684 3.434 16.127 2.892C15.566 2.317 14.812 2 14 2C12.346 2 11 3.346 11 5V13.003C9.754 13.937 9 15.42 9 17ZM15 5V9.54H13V5C13 4.449 13.448 4 14 4C14.267 4 14.514 4.102 14.713 4.306C14.897 4.487 15 4.733 15 5ZM4 7H3C2.45 7 2 6.55 2 6C2 5.45 2.45 5 3 5H4V4C4 3.45 4.45 3 5 3C5.55 3 6 3.45 6 4V5H7C7.55 5 8 5.45 8 6C8 6.55 7.55 7 7 7H6V8C6 8.55 5.55 9 5 9C4.45 9 4 8.55 4 8V7Z" fill="#344054"/>
<mask id="mask0_49_3030" style="mask-type:luminance" maskUnits="userSpaceOnUse" x="2" y="2" width="17" height="20">
<path fill-rule="evenodd" clip-rule="evenodd" d="M9 17C9 19.757 11.243 22 14 22C16.757 22 19 19.757 19 17C19 15.42 18.246 13.937 17 13.003V5C17 4.189 16.684 3.434 16.127 2.892C15.566 2.317 14.812 2 14 2C12.346 2 11 3.346 11 5V13.003C9.754 13.937 9 15.42 9 17ZM15 5V9.54H13V5C13 4.449 13.448 4 14 4C14.267 4 14.514 4.102 14.713 4.306C14.897 4.487 15 4.733 15 5ZM4 7H3C2.45 7 2 6.55 2 6C2 5.45 2.45 5 3 5H4V4C4 3.45 4.45 3 5 3C5.55 3 6 3.45 6 4V5H7C7.55 5 8 5.45 8 6C8 6.55 7.55 7 7 7H6V8C6 8.55 5.55 9 5 9C4.45 9 4 8.55 4 8V7Z" fill="white"/>
</mask>
<g mask="url(#mask0_49_3030)">
</g>
</svg>
