<svg width="24" height="24" viewBox="0 0 24 24" fill="none" xmlns="http://www.w3.org/2000/svg">
<path fill-rule="evenodd" clip-rule="evenodd" d="M7 17C7 19.757 9.243 22 12 22C14.757 22 17 19.757 17 17C17 15.42 16.246 13.938 15 13.003V5C15 4.189 14.684 3.434 14.127 2.892C13.566 2.317 12.812 2 12 2C10.346 2 9 3.346 9 5V13.003C7.754 13.938 7 15.42 7 17ZM11 5C11 4.449 11.448 4 12 4C12.267 4 12.514 4.102 12.713 4.306C12.897 4.487 13 4.733 13 5V13.54C13 13.898 13.191 14.229 13.502 14.407C14.426 14.938 15 15.932 15 17C15 18.654 13.654 20 12 20C10.346 20 9 18.654 9 17C9 15.932 9.574 14.938 10.498 14.407C10.809 14.229 11 13.898 11 13.54V5Z" fill="#344054"/>
</svg>
