<svg width="24" height="24" viewBox="0 0 24 24" fill="none" xmlns="http://www.w3.org/2000/svg">
<path fill-rule="evenodd" clip-rule="evenodd" d="M7 17C7 19.757 9.243 22 12 22C14.757 22 17 19.757 17 17C17 15.42 16.246 13.937 15 13.003V5C15 4.189 14.684 3.434 14.127 2.892C13.566 2.317 12.812 2 12 2C10.346 2 9 3.346 9 5V13.003C7.754 13.937 7 15.42 7 17ZM13 5V9.54H11V5C11 4.449 11.448 4 12 4C12.267 4 12.514 4.102 12.713 4.306C12.897 4.487 13 4.733 13 5Z" fill="#344054"/>
<mask id="mask0_49_2981" style="mask-type:luminance" maskUnits="userSpaceOnUse" x="7" y="2" width="10" height="20">
<path fill-rule="evenodd" clip-rule="evenodd" d="M7 17C7 19.757 9.243 22 12 22C14.757 22 17 19.757 17 17C17 15.42 16.246 13.937 15 13.003V5C15 4.189 14.684 3.434 14.127 2.892C13.566 2.317 12.812 2 12 2C10.346 2 9 3.346 9 5V13.003C7.754 13.937 7 15.42 7 17ZM13 5V9.54H11V5C11 4.449 11.448 4 12 4C12.267 4 12.514 4.102 12.713 4.306C12.897 4.487 13 4.733 13 5Z" fill="white"/>
</mask>
<g mask="url(#mask0_49_2981)">
</g>
</svg>
