<svg width="24" height="24" viewBox="0 0 24 24" fill="none" xmlns="http://www.w3.org/2000/svg">
<path fill-rule="evenodd" clip-rule="evenodd" d="M8.99368 5.01411L14.9867 5.00611C18.8407 5.00011 21.9817 8.13311 21.9867 11.9861C21.9917 15.8411 18.8597 18.9811 15.0057 18.9861L9.01368 18.9941C5.15868 19.0001 2.01868 15.8671 2.01368 12.0141C2.00768 8.15911 5.14068 5.01911 8.99368 5.01411ZM9.00768 15.0001C7.35568 15.0021 6.00968 13.6601 6.00768 12.0081C6.00568 10.3551 7.34768 9.01011 8.99968 9.00811C10.6527 9.00611 11.9977 10.3481 11.9997 12.0001C12.0017 13.6521 10.6597 14.9981 9.00768 15.0001ZM9.00278 11.006C8.45078 11.006 8.00478 11.454 8.00578 12.006C8.00578 12.557 8.45378 13.004 9.00578 13.003C9.55678 13.002 10.0038 12.554 10.0028 12.003C10.0018 11.451 9.55378 11.005 9.00278 11.006Z" fill="#344054"/>
<mask id="mask0_49_2473" style="mask-type:luminance" maskUnits="userSpaceOnUse" x="2" y="5" width="20" height="14">
<path fill-rule="evenodd" clip-rule="evenodd" d="M8.99368 5.01411L14.9867 5.00611C18.8407 5.00011 21.9817 8.13311 21.9867 11.9861C21.9917 15.8411 18.8597 18.9811 15.0057 18.9861L9.01368 18.9941C5.15868 19.0001 2.01868 15.8671 2.01368 12.0141C2.00768 8.15911 5.14068 5.01911 8.99368 5.01411ZM9.00768 15.0001C7.35568 15.0021 6.00968 13.6601 6.00768 12.0081C6.00568 10.3551 7.34768 9.01011 8.99968 9.00811C10.6527 9.00611 11.9977 10.3481 11.9997 12.0001C12.0017 13.6521 10.6597 14.9981 9.00768 15.0001ZM9.00278 11.006C8.45078 11.006 8.00478 11.454 8.00578 12.006C8.00578 12.557 8.45378 13.004 9.00578 13.003C9.55678 13.002 10.0038 12.554 10.0028 12.003C10.0018 11.451 9.55378 11.005 9.00278 11.006Z" fill="white"/>
</mask>
<g mask="url(#mask0_49_2473)">
</g>
</svg>
