<svg width="24" height="24" viewBox="0 0 24 24" fill="none" xmlns="http://www.w3.org/2000/svg">
<path fill-rule="evenodd" clip-rule="evenodd" d="M9 5H15C18.859 5 22 8.141 22 12C22 15.859 18.859 19 15 19H9C5.141 19 2 15.859 2 12C2 8.141 5.141 5 9 5ZM9 17C6.243 17 4 14.757 4 12C4 9.243 6.243 7 9 7H15C17.757 7 20 9.243 20 12C20 14.757 17.757 17 15 17H9ZM6 12C6 10.346 7.346 9 9 9C10.654 9 12 10.346 12 12C12 13.654 10.654 15 9 15C7.346 15 6 13.654 6 12ZM8 12C8 12.552 8.448 13 9 13C9.552 13 10 12.552 10 12C10 11.448 9.552 11 9 11C8.448 11 8 11.448 8 12Z" fill="#344054"/>
</svg>
