<svg width="24" height="24" viewBox="0 0 24 24" fill="none" xmlns="http://www.w3.org/2000/svg">
<path fill-rule="evenodd" clip-rule="evenodd" d="M9 5H15C18.859 5 22 8.141 22 12C22 15.859 18.859 19 15 19H9C5.141 19 2 15.859 2 12C2 8.141 5.141 5 9 5ZM9 17C6.243 17 4 14.757 4 12C4 9.243 6.243 7 9 7H15C17.757 7 20 9.243 20 12C20 14.757 17.757 17 15 17H9ZM12 12C12 10.346 13.346 9 15 9C16.654 9 18 10.346 18 12C18 13.654 16.654 15 15 15C13.346 15 12 13.654 12 12ZM14 12C14 12.552 14.448 13 15 13C15.552 13 16 12.552 16 12C16 11.448 15.552 11 15 11C14.448 11 14 11.448 14 12Z" fill="#344054"/>
</svg>
