<svg width="34" height="6" viewBox="0 0 34 6" fill="none" xmlns="http://www.w3.org/2000/svg">
<path fill-rule="evenodd" clip-rule="evenodd" d="M6.80668 3.71327C7.20081 3.71327 7.51995 3.39368 7.51995 3C7.51995 2.60632 7.20036 2.28673 6.80668 2.28673C6.413 2.28673 6.09341 2.60632 6.09341 3C6.09341 3.39368 6.413 3.71327 6.80668 3.71327ZM9.30668 3C9.30668 4.38056 8.18724 5.5 6.80668 5.5C5.42612 5.5 4.30668 4.38056 4.30668 3C4.30668 1.61944 5.42612 0.5 6.80668 0.5C8.18724 0.5 9.30668 1.61944 9.30668 3ZM20.6587 3C20.6587 3.39413 20.3391 3.71327 19.9454 3.71327C19.5517 3.71327 19.2321 3.39368 19.2321 3C19.2321 2.60632 19.5517 2.28673 19.9454 2.28673C20.3391 2.28673 20.6587 2.60632 20.6587 3ZM19.9454 5.5C21.326 5.5 22.4454 4.38056 22.4454 3C22.4454 1.61944 21.326 0.5 19.9454 0.5C18.5648 0.5 17.4454 1.61944 17.4454 3C17.4454 4.38056 18.5644 5.5 19.9454 5.5ZM32.22 3C32.22 3.39413 31.9004 3.71327 31.5067 3.71327C31.1131 3.71327 30.7935 3.39368 30.7935 3C30.7935 2.60632 31.1131 2.28673 31.5067 2.28673C31.9004 2.28673 32.22 2.60632 32.22 3ZM31.5067 5.5C32.8873 5.5 34.0067 4.38056 34.0067 3C34.0067 1.61944 32.8873 0.5 31.5063 0.5C30.1253 0.5 29.0063 1.61944 29.0063 3C29.0063 4.38056 30.1257 5.5 31.5063 5.5H31.5067ZM16.3983 1.16729C16.0068 0.739689 15.4676 0.61739 14.9722 0.61739H14.0469V1.47616C13.9889 1.36949 13.9166 1.26549 13.8264 1.16729C13.435 0.739689 12.8958 0.61739 12.4003 0.61739H11.65V0.616497H9.78606V5.37011H11.65V2.48134H12.4003C12.403 2.48134 12.4057 2.48134 12.4079 2.48134V5.37011H14.2719V2.48134H14.9749H14.9793V5.37011H16.8433V2.46974C16.8433 2.09123 16.7736 1.57838 16.3974 1.16729H16.3983ZM23.3234 1.19497C23.7148 0.767363 24.254 0.645063 24.7495 0.645063H25.6743V2.50902H24.745H24.7414V5.39779H22.8775V2.49741C22.8775 2.11891 22.9471 1.60605 23.3229 1.19497H23.3234ZM27.8172 0.645063C27.3218 0.645063 26.7826 0.766917 26.3911 1.19497C26.0149 1.60605 25.9452 2.11891 25.9452 2.49741V5.39779H27.8092V2.50946C27.8119 2.50946 27.8145 2.50946 27.8168 2.50946H28.742V0.645063H27.8168H27.8172ZM2.9529 2.49339V5.34958H1.08895V2.49339H-0.00683594V0.629441H1.0885V0.628548H2.95246V0.629441H4.04824V2.49339H2.95246H2.9529Z" fill="#667085"/>
</svg>
