<svg width="24" height="24" viewBox="0 0 24 24" fill="none" xmlns="http://www.w3.org/2000/svg">
<path fill-rule="evenodd" clip-rule="evenodd" d="M20 6H21C21.55 6 22 6.45 22 7C22 7.55 21.55 8 21 8H20V19C20 20.654 18.654 22 17 22H7C5.346 22 4 20.654 4 19V8H3C2.45 8 2 7.55 2 7C2 6.45 2.45 6 3 6H4H8V4.328C8 3.044 9.121 2 10.5 2H13.5C14.879 2 16 3.044 16 4.328V6H20ZM10.5 4C10.214 4 10 4.173 10 4.328V6H14V4.328C14 4.173 13.786 4 13.5 4H10.5ZM15 17C15.55 17 16 16.55 16 16V12C16 11.45 15.55 11 15 11C14.45 11 14 11.45 14 12V16C14 16.55 14.45 17 15 17ZM10 16C10 16.55 9.55 17 9 17C8.45 17 8 16.55 8 16V12C8 11.45 8.45 11 9 11C9.55 11 10 11.45 10 12V16Z" fill="#344054"/>
<mask id="mask0_49_2821" style="mask-type:luminance" maskUnits="userSpaceOnUse" x="2" y="2" width="20" height="20">
<path fill-rule="evenodd" clip-rule="evenodd" d="M20 6H21C21.55 6 22 6.45 22 7C22 7.55 21.55 8 21 8H20V19C20 20.654 18.654 22 17 22H7C5.346 22 4 20.654 4 19V8H3C2.45 8 2 7.55 2 7C2 6.45 2.45 6 3 6H4H8V4.328C8 3.044 9.121 2 10.5 2H13.5C14.879 2 16 3.044 16 4.328V6H20ZM10.5 4C10.214 4 10 4.173 10 4.328V6H14V4.328C14 4.173 13.786 4 13.5 4H10.5ZM15 17C15.55 17 16 16.55 16 16V12C16 11.45 15.55 11 15 11C14.45 11 14 11.45 14 12V16C14 16.55 14.45 17 15 17ZM10 16C10 16.55 9.55 17 9 17C8.45 17 8 16.55 8 16V12C8 11.45 8.45 11 9 11C9.55 11 10 11.45 10 12V16Z" fill="white"/>
</mask>
<g mask="url(#mask0_49_2821)">
</g>
</svg>
