<svg width="24" height="24" viewBox="0 0 24 24" fill="none" xmlns="http://www.w3.org/2000/svg">
<path fill-rule="evenodd" clip-rule="evenodd" d="M20 5.99963H21C21.55 5.99963 22 6.45063 22 6.99963C22 7.54963 21.55 7.99963 21 7.99963H20V18.9996C20 20.6546 18.654 21.9996 17 21.9996H7C5.346 21.9996 4 20.6546 4 18.9996V7.99963H3C2.45 7.99963 2 7.54963 2 6.99963C2 6.45063 2.45 5.99963 3 5.99963H4H8V4.32763C8 3.04363 9.121 1.99963 10.5 1.99963H13.5C14.879 1.99963 16 3.04363 16 4.32763V5.99963H20ZM10.5 3.99963C10.214 3.99963 10 4.17263 10 4.32763V5.99963H14V4.32763C14 4.17263 13.786 3.99963 13.5 3.99963H10.5Z" fill="#344054"/>
<mask id="mask0_49_2814" style="mask-type:luminance" maskUnits="userSpaceOnUse" x="2" y="1" width="20" height="21">
<path fill-rule="evenodd" clip-rule="evenodd" d="M20 5.99963H21C21.55 5.99963 22 6.45063 22 6.99963C22 7.54963 21.55 7.99963 21 7.99963H20V18.9996C20 20.6546 18.654 21.9996 17 21.9996H7C5.346 21.9996 4 20.6546 4 18.9996V7.99963H3C2.45 7.99963 2 7.54963 2 6.99963C2 6.45063 2.45 5.99963 3 5.99963H4H8V4.32763C8 3.04363 9.121 1.99963 10.5 1.99963H13.5C14.879 1.99963 16 3.04363 16 4.32763V5.99963H20ZM10.5 3.99963C10.214 3.99963 10 4.17263 10 4.32763V5.99963H14V4.32763C14 4.17263 13.786 3.99963 13.5 3.99963H10.5Z" fill="white"/>
</mask>
<g mask="url(#mask0_49_2814)">
</g>
</svg>
