<svg width="24" height="24" viewBox="0 0 24 24" fill="none" xmlns="http://www.w3.org/2000/svg">
<path fill-rule="evenodd" clip-rule="evenodd" d="M20 6H21C21.55 6 22 6.45 22 7C22 7.55 21.55 8 21 8H20V19C20 20.654 18.654 22 17 22H7C5.346 22 4 20.654 4 19V8H3C2.45 8 2 7.55 2 7C2 6.45 2.45 6 3 6H4H8V4.328C8 3.044 9.121 2 10.5 2H13.5C14.879 2 16 3.044 16 4.328V6H20ZM10 4.328C10 4.173 10.214 4 10.5 4H13.5C13.786 4 14 4.173 14 4.328V6H10V4.328ZM18 19C18 19.551 17.552 20 17 20H7C6.448 20 6 19.551 6 19V8H18V19Z" fill="#344054"/>
</svg>
