<svg width="24" height="24" viewBox="0 0 24 24" fill="none" xmlns="http://www.w3.org/2000/svg">
<path d="M20.992 6.96288C20.99 6.89088 20.969 6.82288 20.95 6.75388C20.935 6.69588 20.928 6.63688 20.903 6.58388C20.88 6.53188 20.841 6.48988 20.807 6.44188C20.765 6.38088 20.727 6.31988 20.673 6.26988C20.664 6.26088 20.66 6.24888 20.65 6.24088C20.614 6.20988 20.57 6.19888 20.531 6.17388C20.471 6.13488 20.412 6.09488 20.344 6.06888C20.277 6.04488 20.211 6.03888 20.142 6.02888C20.094 6.02188 20.051 5.99988 20 5.99988H15C14.447 5.99988 14 6.44788 14 6.99988C14 7.55188 14.447 7.99988 15 7.99988H17.826L13.79 12.7079L9.51401 10.1429C9.09101 9.88688 8.54701 9.98088 8.23101 10.3599L3.23101 16.3599C2.87801 16.7839 2.93501 17.4149 3.35901 17.7679C3.54701 17.9239 3.77301 17.9999 3.99901 17.9999C4.28601 17.9999 4.57001 17.8779 4.76801 17.6399L9.22001 12.2979L13.485 14.8579C13.904 15.1089 14.442 15.0209 14.759 14.6509L19 9.70288V11.9999C19 12.5519 19.447 12.9999 20 12.9999C20.553 12.9999 21 12.5519 21 11.9999V6.99988C21 6.98688 20.993 6.97588 20.992 6.96288Z" fill="#344054"/>
</svg>
