<svg width="24" height="24" viewBox="0 0 24 24" fill="none" xmlns="http://www.w3.org/2000/svg">
<path fill-rule="evenodd" clip-rule="evenodd" d="M14.414 6.00001H18C19.654 6.00001 21 7.34601 21 9.00001V19C21 20.654 19.654 22 18 22H6C4.346 22 3 20.654 3 19V9.00001C3 7.34601 4.346 6.00001 6 6.00001H9.586L7.293 3.70701C6.902 3.31601 6.902 2.68401 7.293 2.29301C7.684 1.90201 8.316 1.90201 8.707 2.29301L12 5.58601L15.293 2.29301C15.684 1.90201 16.316 1.90201 16.707 2.29301C17.098 2.68401 17.098 3.31601 16.707 3.70701L14.414 6.00001ZM18 20C18.552 20 19 19.552 19 19V9.00001C19 8.44801 18.552 8.00001 18 8.00001H6C5.448 8.00001 5 8.44801 5 9.00001V19C5 19.552 5.448 20 6 20H18Z" fill="#344054"/>
</svg>
