<svg width="24" height="24" viewBox="0 0 24 24" fill="none" xmlns="http://www.w3.org/2000/svg">
<path fill-rule="evenodd" clip-rule="evenodd" d="M1.99951 12C1.99951 6.486 6.48651 2 11.9995 2C17.5135 2 21.9995 6.486 21.9995 12C21.9995 12.553 21.5525 13 20.9995 13H13.0005V19C13.0005 19.552 13.4485 20 14.0005 20C14.5515 20 15.0005 19.552 15.0005 19C15.0005 18.447 15.4475 18 16.0005 18C16.5525 18 17.0005 18.447 17.0005 19C17.0005 20.654 15.6545 22 14.0005 22C12.3455 22 10.9995 20.654 10.9995 19V13H3.00051C2.44751 13 1.99951 12.553 1.99951 12ZM11.9995 4C7.92751 4 4.55551 7.06 4.06251 11H19.9375C19.4445 7.06 16.0725 4 11.9995 4Z" fill="#344054"/>
</svg>
