<svg width="24" height="24" viewBox="0 0 24 24" fill="none" xmlns="http://www.w3.org/2000/svg">
<path d="M20.2205 21C19.7595 21 19.3585 20.685 19.2485 20.237C18.3595 16.588 15.2285 13.952 11.4535 13.553V14.674C11.4535 15.38 11.0345 16.009 10.3615 16.314C9.62951 16.647 8.77751 16.527 8.18451 16.01L3.11751 11.586C2.72551 11.242 2.49951 10.755 2.49951 10.25C2.49951 9.74498 2.72551 9.25798 3.11751 8.91398L8.18451 4.48998C8.77751 3.97298 9.62951 3.85298 10.3615 4.18598C11.0345 4.49098 11.4535 5.11998 11.4535 5.82598V7.04398C17.0775 7.53698 21.4995 12.15 21.4995 17.75C21.4995 18.56 21.3965 19.396 21.1925 20.236C21.0835 20.685 20.6825 21 20.2205 21Z" fill="#344054"/>
<mask id="mask0_49_3388" style="mask-type:luminance" maskUnits="userSpaceOnUse" x="2" y="3" width="20" height="18">
<path d="M20.2205 21C19.7595 21 19.3585 20.685 19.2485 20.237C18.3595 16.588 15.2285 13.952 11.4535 13.553V14.674C11.4535 15.38 11.0345 16.009 10.3615 16.314C9.62951 16.647 8.77751 16.527 8.18451 16.01L3.11751 11.586C2.72551 11.242 2.49951 10.755 2.49951 10.25C2.49951 9.74498 2.72551 9.25798 3.11751 8.91398L8.18451 4.48998C8.77751 3.97298 9.62951 3.85298 10.3615 4.18598C11.0345 4.49098 11.4535 5.11998 11.4535 5.82598V7.04398C17.0775 7.53698 21.4995 12.15 21.4995 17.75C21.4995 18.56 21.3965 19.396 21.1925 20.236C21.0835 20.685 20.6825 21 20.2205 21Z" fill="white"/>
</mask>
<g mask="url(#mask0_49_3388)">
</g>
</svg>
