<svg width="24" height="24" viewBox="0 0 24 24" fill="none" xmlns="http://www.w3.org/2000/svg">
<path fill-rule="evenodd" clip-rule="evenodd" d="M10 8H17C18.654 8 20 9.346 20 11V19C20 20.654 18.654 22 17 22H7C5.346 22 4 20.654 4 19V11C4 9.346 5.346 8 7 8H8V6C8 3.794 9.794 2 12 2C14.206 2 16 3.794 16 6C16 6.553 15.553 7 15 7C14.447 7 14 6.553 14 6C14 4.897 13.103 4 12 4C10.897 4 10 4.897 10 6V8ZM12 18C10.346 18 9 16.654 9 15C9 13.346 10.346 12 12 12C13.654 12 15 13.346 15 15C15 16.654 13.654 18 12 18ZM12 14C11.448 14 11 14.448 11 15C11 15.552 11.448 16 12 16C12.552 16 13 15.552 13 15C13 14.448 12.552 14 12 14Z" fill="#344054"/>
<mask id="mask0_49_3423" style="mask-type:luminance" maskUnits="userSpaceOnUse" x="4" y="2" width="16" height="20">
<path fill-rule="evenodd" clip-rule="evenodd" d="M10 8H17C18.654 8 20 9.346 20 11V19C20 20.654 18.654 22 17 22H7C5.346 22 4 20.654 4 19V11C4 9.346 5.346 8 7 8H8V6C8 3.794 9.794 2 12 2C14.206 2 16 3.794 16 6C16 6.553 15.553 7 15 7C14.447 7 14 6.553 14 6C14 4.897 13.103 4 12 4C10.897 4 10 4.897 10 6V8ZM12 18C10.346 18 9 16.654 9 15C9 13.346 10.346 12 12 12C13.654 12 15 13.346 15 15C15 16.654 13.654 18 12 18ZM12 14C11.448 14 11 14.448 11 15C11 15.552 11.448 16 12 16C12.552 16 13 15.552 13 15C13 14.448 12.552 14 12 14Z" fill="white"/>
</mask>
<g mask="url(#mask0_49_3423)">
</g>
</svg>
