<svg width="24" height="24" viewBox="0 0 24 24" fill="none" xmlns="http://www.w3.org/2000/svg">
<path fill-rule="evenodd" clip-rule="evenodd" d="M20.707 20.7074C21.098 20.3164 21.098 19.6834 20.707 19.2934L17 15.5864L15 13.5864L8.414 7.00037L6.414 5.00037L4.707 3.29337C4.316 2.90237 3.684 2.90237 3.293 3.29337C2.902 3.68337 2.902 4.31637 3.293 4.70737L3.826 5.24037L5.586 7.00037L14.931 16.3444L16.386 17.7994L19.293 20.7074C19.488 20.9024 19.744 21.0004 20 21.0004C20.256 21.0004 20.512 20.9024 20.707 20.7074ZM22 15.3704V8.62937C22 7.98037 21.621 7.41137 21.012 7.14537C20.386 6.87337 19.66 6.99137 19.161 7.45137L17 9.45137V8.00037C17 6.34537 15.654 5.00037 14 5.00037H7.828L9.828 7.00037H14C14.552 7.00037 15 7.44837 15 8.00037V12.1714L19.718 16.8894C19.91 16.9624 20.113 17.0004 20.319 17.0004C20.553 17.0004 20.788 16.9524 21.012 16.8544C21.621 16.5884 22 16.0194 22 15.3704ZM17.191 12.0004L20 9.40037V14.5994L17.191 12.0004ZM14 17.0004H5C4.448 17.0004 4 16.5514 4 16.0004V8.00037C4 7.67937 4.161 7.40737 4.396 7.22337L2.974 5.80137C2.379 6.35037 2 7.12937 2 8.00037V16.0004C2 17.6544 3.346 19.0004 5 19.0004H14C14.616 19.0004 15.188 18.8124 15.665 18.4934L14.143 16.9704C14.1237 16.9735 14.1054 16.9788 14.0872 16.9841C14.059 16.9923 14.031 17.0004 14 17.0004Z" fill="#344054"/>
</svg>
