<svg width="24" height="24" viewBox="0 0 24 24" fill="none" xmlns="http://www.w3.org/2000/svg">
<path fill-rule="evenodd" clip-rule="evenodd" d="M19.161 7.45163C19.66 6.99163 20.386 6.87263 21.012 7.14563C21.621 7.41163 22 7.98063 22 8.62963V15.3706C22 16.0196 21.621 16.5886 21.012 16.8546C20.788 16.9526 20.553 16.9996 20.319 16.9996C19.896 16.9996 19.481 16.8446 19.161 16.5476L17 14.5486V15.9996C17 17.6546 15.654 18.9996 14 18.9996H5C3.346 18.9996 2 17.6546 2 15.9996V7.99963C2 6.34563 3.346 4.99963 5 4.99963H14C15.654 4.99963 17 6.34563 17 7.99963V9.45163L19.161 7.45163ZM15 15.9996C15 16.5516 14.552 16.9996 14 16.9996H5C4.448 16.9996 4 16.5516 4 15.9996V7.99963C4 7.44863 4.448 6.99963 5 6.99963H14C14.552 6.99963 15 7.44863 15 7.99963V15.9996ZM20 14.5996L17.191 11.9996L20 9.40063V14.5996Z" fill="#344054"/>
</svg>
