<svg width="24" height="24" viewBox="0 0 24 24" fill="none" xmlns="http://www.w3.org/2000/svg">
<path fill-rule="evenodd" clip-rule="evenodd" d="M14.9999 13.586L16.9999 15.586L20.7069 19.293C21.0979 19.684 21.0979 20.316 20.7069 20.707C20.5119 20.902 20.2559 21 19.9999 21C19.7439 21 19.4879 20.902 19.2929 20.707L16.3859 17.8L14.9309 16.345L5.58591 7.00001L3.82591 5.24001L3.29291 4.70701C2.90191 4.31601 2.90191 3.68401 3.29291 3.29301C3.68391 2.90201 4.31591 2.90201 4.70691 3.29301L6.41391 5.00001L8.41391 7.00001L14.9999 13.586ZM21.0116 7.14551C20.3856 6.87351 19.6596 6.99151 19.1606 7.45151L16.9996 9.45151V7.99951C16.9996 6.34551 15.6546 4.99951 13.9996 4.99951H7.82761L9.12061 6.29251L15.7066 12.8785L17.7066 14.8785L19.7176 16.8895C19.9096 16.9615 20.1136 16.9995 20.3196 16.9995C20.5526 16.9995 20.7876 16.9525 21.0116 16.8545C21.6206 16.5885 21.9996 16.0195 21.9996 15.3705V8.62951C21.9996 7.98051 21.6206 7.41151 21.0116 7.14551ZM14.2235 17.0518L4.87851 7.70681L3.11951 5.94781L2.97351 5.80181C2.37851 6.35081 1.99951 7.12881 1.99951 7.99981V15.9998C1.99951 17.6548 3.34551 18.9998 4.99951 18.9998H13.9995C14.6165 18.9998 15.1885 18.8128 15.6645 18.4928L14.2235 17.0518Z" fill="#344054"/>
<mask id="mask0_49_3439" style="mask-type:luminance" maskUnits="userSpaceOnUse" x="1" y="2" width="21" height="19">
<path fill-rule="evenodd" clip-rule="evenodd" d="M14.9999 13.586L16.9999 15.586L20.7069 19.293C21.0979 19.684 21.0979 20.316 20.7069 20.707C20.5119 20.902 20.2559 21 19.9999 21C19.7439 21 19.4879 20.902 19.2929 20.707L16.3859 17.8L14.9309 16.345L5.58591 7.00001L3.82591 5.24001L3.29291 4.70701C2.90191 4.31601 2.90191 3.68401 3.29291 3.29301C3.68391 2.90201 4.31591 2.90201 4.70691 3.29301L6.41391 5.00001L8.41391 7.00001L14.9999 13.586ZM21.0116 7.14551C20.3856 6.87351 19.6596 6.99151 19.1606 7.45151L16.9996 9.45151V7.99951C16.9996 6.34551 15.6546 4.99951 13.9996 4.99951H7.82761L9.12061 6.29251L15.7066 12.8785L17.7066 14.8785L19.7176 16.8895C19.9096 16.9615 20.1136 16.9995 20.3196 16.9995C20.5526 16.9995 20.7876 16.9525 21.0116 16.8545C21.6206 16.5885 21.9996 16.0195 21.9996 15.3705V8.62951C21.9996 7.98051 21.6206 7.41151 21.0116 7.14551ZM14.2235 17.0518L4.87851 7.70681L3.11951 5.94781L2.97351 5.80181C2.37851 6.35081 1.99951 7.12881 1.99951 7.99981V15.9998C1.99951 17.6548 3.34551 18.9998 4.99951 18.9998H13.9995C14.6165 18.9998 15.1885 18.8128 15.6645 18.4928L14.2235 17.0518Z" fill="white"/>
</mask>
<g mask="url(#mask0_49_3439)">
</g>
</svg>
