<svg width="24" height="24" viewBox="0 0 24 24" fill="none" xmlns="http://www.w3.org/2000/svg">
<path d="M21.0115 7.14551C20.3855 6.87351 19.6595 6.99151 19.1605 7.45151L16.9995 9.45151V7.99951C16.9995 6.34551 15.6545 4.99951 13.9995 4.99951H4.99951C3.34551 4.99951 1.99951 6.34551 1.99951 7.99951V15.9995C1.99951 17.6545 3.34551 18.9995 4.99951 18.9995H13.9995C15.6545 18.9995 16.9995 17.6545 16.9995 15.9995V14.5485L19.1605 16.5475C19.4815 16.8445 19.8965 16.9995 20.3195 16.9995C20.5525 16.9995 20.7875 16.9525 21.0115 16.8545C21.6205 16.5885 21.9995 16.0195 21.9995 15.3705V8.62951C21.9995 7.98051 21.6205 7.41151 21.0115 7.14551Z" fill="#344054"/>
<mask id="mask0_49_3385" style="mask-type:luminance" maskUnits="userSpaceOnUse" x="1" y="4" width="21" height="15">
<path d="M21.0115 7.14551C20.3855 6.87351 19.6595 6.99151 19.1605 7.45151L16.9995 9.45151V7.99951C16.9995 6.34551 15.6545 4.99951 13.9995 4.99951H4.99951C3.34551 4.99951 1.99951 6.34551 1.99951 7.99951V15.9995C1.99951 17.6545 3.34551 18.9995 4.99951 18.9995H13.9995C15.6545 18.9995 16.9995 17.6545 16.9995 15.9995V14.5485L19.1605 16.5475C19.4815 16.8445 19.8965 16.9995 20.3195 16.9995C20.5525 16.9995 20.7875 16.9525 21.0115 16.8545C21.6205 16.5885 21.9995 16.0195 21.9995 15.3705V8.62951C21.9995 7.98051 21.6205 7.41151 21.0115 7.14551Z" fill="white"/>
</mask>
<g mask="url(#mask0_49_3385)">
</g>
</svg>
