<svg width="24" height="24" viewBox="0 0 24 24" fill="none" xmlns="http://www.w3.org/2000/svg">
<path d="M17 21C16.802 21 16.604 20.941 16.435 20.825L10.023 16.429H5C4.448 16.429 4 15.981 4 15.429V8.57099C4 8.01899 4.448 7.57099 5 7.57099H10.023L16.435 3.17499C16.74 2.96499 17.137 2.94099 17.466 3.11499C17.794 3.28799 18 3.62899 18 3.99999V20C18 20.371 17.794 20.712 17.466 20.885C17.32 20.962 17.16 21 17 21Z" fill="#344054"/>
<mask id="mask0_49_2482" style="mask-type:luminance" maskUnits="userSpaceOnUse" x="4" y="2" width="14" height="19">
<path d="M17 21C16.802 21 16.604 20.941 16.435 20.825L10.023 16.429H5C4.448 16.429 4 15.981 4 15.429V8.57099C4 8.01899 4.448 7.57099 5 7.57099H10.023L16.435 3.17499C16.74 2.96499 17.137 2.94099 17.466 3.11499C17.794 3.28799 18 3.62899 18 3.99999V20C18 20.371 17.794 20.712 17.466 20.885C17.32 20.962 17.16 21 17 21Z" fill="white"/>
</mask>
<g mask="url(#mask0_49_2482)">
</g>
</svg>
