<svg width="24" height="24" viewBox="0 0 24 24" fill="none" xmlns="http://www.w3.org/2000/svg">
<path fill-rule="evenodd" clip-rule="evenodd" d="M15 20.001V4.00102C15 3.62902 14.794 3.28902 14.466 3.11602C14.137 2.94202 13.74 2.96502 13.435 3.17502L7.023 7.57202H2C1.448 7.57202 1 8.01902 1 8.57202V15.429C1 15.982 1.448 16.429 2 16.429H7.023L13.435 20.826C13.604 20.942 13.802 21.001 14 21.001C14.16 21.001 14.32 20.962 14.466 20.885C14.794 20.712 15 20.372 15 20.001ZM7.899 9.39702L13 5.89902V18.102L7.899 14.604C7.732 14.491 7.535 14.429 7.333 14.429H3V9.57202H7.333C7.535 9.57202 7.732 9.51002 7.899 9.39702ZM19.138 5.23002C18.712 4.87802 18.082 4.93702 17.73 5.36302C17.377 5.78802 17.437 6.41902 17.862 6.77102C19.563 8.18002 20.5 10.037 20.5 12.001C20.5 13.964 19.563 15.821 17.862 17.23C17.437 17.583 17.377 18.213 17.73 18.638C17.928 18.878 18.213 19.001 18.5 19.001C18.725 19.001 18.951 18.925 19.138 18.771C21.306 16.975 22.5 14.57 22.5 12.001C22.5 9.43102 21.306 7.02602 19.138 5.23002ZM17 16.001C17.292 16.001 17.582 15.873 17.779 15.628C19.416 13.593 19.416 10.408 17.779 8.37402C17.433 7.94402 16.803 7.87702 16.373 8.22102C15.943 8.56802 15.875 9.19702 16.221 9.62802C17.256 10.914 17.256 13.087 16.221 14.374C15.875 14.804 15.943 15.433 16.373 15.78C16.558 15.928 16.779 16.001 17 16.001Z" fill="#344054"/>
</svg>
