<svg width="24" height="24" viewBox="0 0 24 24" fill="none" xmlns="http://www.w3.org/2000/svg">
<path fill-rule="evenodd" clip-rule="evenodd" d="M15.4345 3.17523C15.7405 2.96523 16.1375 2.94123 16.4665 3.11523C16.7945 3.28823 17.0005 3.62923 17.0005 4.00023V20.0002C17.0005 20.3712 16.7945 20.7122 16.4665 20.8852C16.3205 20.9622 16.1595 21.0002 16.0005 21.0002C15.8015 21.0002 15.6045 20.9412 15.4345 20.8252L9.02349 16.4282H4.00049C3.44749 16.4282 3.00049 15.9812 3.00049 15.4282V8.57123C3.00049 8.01823 3.44749 7.57123 4.00049 7.57123H9.02349L15.4345 3.17523ZM19.3735 8.22103C19.8025 7.87603 20.4335 7.94303 20.7795 8.37303C22.4155 10.407 22.4155 13.593 20.7795 15.627C20.5815 15.872 20.2915 16 19.9995 16C19.7795 16 19.5585 15.928 19.3735 15.779C18.9435 15.433 18.8745 14.804 19.2205 14.373C20.2565 13.087 20.2565 10.913 19.2205 9.62703C18.8745 9.19603 18.9435 8.56703 19.3735 8.22103Z" fill="#344054"/>
<mask id="mask0_49_2316" style="mask-type:luminance" maskUnits="userSpaceOnUse" x="3" y="2" width="20" height="20">
<path fill-rule="evenodd" clip-rule="evenodd" d="M15.4345 3.17523C15.7405 2.96523 16.1375 2.94123 16.4665 3.11523C16.7945 3.28823 17.0005 3.62923 17.0005 4.00023V20.0002C17.0005 20.3712 16.7945 20.7122 16.4665 20.8852C16.3205 20.9622 16.1595 21.0002 16.0005 21.0002C15.8015 21.0002 15.6045 20.9412 15.4345 20.8252L9.02349 16.4282H4.00049C3.44749 16.4282 3.00049 15.9812 3.00049 15.4282V8.57123C3.00049 8.01823 3.44749 7.57123 4.00049 7.57123H9.02349L15.4345 3.17523ZM19.3735 8.22103C19.8025 7.87603 20.4335 7.94303 20.7795 8.37303C22.4155 10.407 22.4155 13.593 20.7795 15.627C20.5815 15.872 20.2915 16 19.9995 16C19.7795 16 19.5585 15.928 19.3735 15.779C18.9435 15.433 18.8745 14.804 19.2205 14.373C20.2565 13.087 20.2565 10.913 19.2205 9.62703C18.8745 9.19603 18.9435 8.56703 19.3735 8.22103Z" fill="white"/>
</mask>
<g mask="url(#mask0_49_2316)">
</g>
</svg>
