<svg width="24" height="24" viewBox="0 0 24 24" fill="none" xmlns="http://www.w3.org/2000/svg">
<path fill-rule="evenodd" clip-rule="evenodd" d="M13.4345 3.17523C13.7405 2.96523 14.1375 2.94123 14.4665 3.11523C14.7945 3.28823 15.0005 3.62923 15.0005 4.00023V20.0002C15.0005 20.3712 14.7945 20.7122 14.4665 20.8852C14.3205 20.9622 14.1595 21.0002 14.0005 21.0002C13.8015 21.0002 13.6045 20.9412 13.4345 20.8252L7.02349 16.4282H2.00049C1.44749 16.4282 1.00049 15.9812 1.00049 15.4282V8.57123C1.00049 8.01823 1.44749 7.57123 2.00049 7.57123H7.02349L13.4345 3.17523ZM19.6379 5.22953C19.2129 4.87753 18.5819 4.93653 18.2299 5.36253C17.8779 5.78753 17.9369 6.41753 18.3629 6.77053C20.0629 8.17953 20.9999 10.0365 20.9999 12.0005C20.9999 13.9635 20.0629 15.8205 18.3629 17.2295C17.9369 17.5825 17.8779 18.2125 18.2299 18.6375C18.4279 18.8765 18.7129 19.0005 19.0009 19.0005C19.2249 19.0005 19.4509 18.9245 19.6379 18.7705C21.8059 16.9745 22.9999 14.5695 22.9999 12.0005C22.9999 9.43053 21.8059 7.02553 19.6379 5.22953ZM18.2795 8.37303C17.9325 7.94303 17.3035 7.87603 16.8735 8.22103C16.4435 8.56703 16.3745 9.19603 16.7205 9.62703C17.7565 10.913 17.7565 13.087 16.7205 14.373C16.3745 14.804 16.4435 15.433 16.8735 15.779C17.0585 15.928 17.2795 16 17.4995 16C17.7915 16 18.0815 15.872 18.2795 15.627C19.9155 13.593 19.9155 10.407 18.2795 8.37303Z" fill="#344054"/>
<mask id="mask0_49_2323" style="mask-type:luminance" maskUnits="userSpaceOnUse" x="1" y="2" width="22" height="20">
<path fill-rule="evenodd" clip-rule="evenodd" d="M13.4345 3.17523C13.7405 2.96523 14.1375 2.94123 14.4665 3.11523C14.7945 3.28823 15.0005 3.62923 15.0005 4.00023V20.0002C15.0005 20.3712 14.7945 20.7122 14.4665 20.8852C14.3205 20.9622 14.1595 21.0002 14.0005 21.0002C13.8015 21.0002 13.6045 20.9412 13.4345 20.8252L7.02349 16.4282H2.00049C1.44749 16.4282 1.00049 15.9812 1.00049 15.4282V8.57123C1.00049 8.01823 1.44749 7.57123 2.00049 7.57123H7.02349L13.4345 3.17523ZM19.6379 5.22953C19.2129 4.87753 18.5819 4.93653 18.2299 5.36253C17.8779 5.78753 17.9369 6.41753 18.3629 6.77053C20.0629 8.17953 20.9999 10.0365 20.9999 12.0005C20.9999 13.9635 20.0629 15.8205 18.3629 17.2295C17.9369 17.5825 17.8779 18.2125 18.2299 18.6375C18.4279 18.8765 18.7129 19.0005 19.0009 19.0005C19.2249 19.0005 19.4509 18.9245 19.6379 18.7705C21.8059 16.9745 22.9999 14.5695 22.9999 12.0005C22.9999 9.43053 21.8059 7.02553 19.6379 5.22953ZM18.2795 8.37303C17.9325 7.94303 17.3035 7.87603 16.8735 8.22103C16.4435 8.56703 16.3745 9.19603 16.7205 9.62703C17.7565 10.913 17.7565 13.087 16.7205 14.373C16.3745 14.804 16.4435 15.433 16.8735 15.779C17.0585 15.928 17.2795 16 17.4995 16C17.7915 16 18.0815 15.872 18.2795 15.627C19.9155 13.593 19.9155 10.407 18.2795 8.37303Z" fill="white"/>
</mask>
<g mask="url(#mask0_49_2323)">
</g>
</svg>
