<svg width="24" height="24" viewBox="0 0 24 24" fill="none" xmlns="http://www.w3.org/2000/svg">
<path fill-rule="evenodd" clip-rule="evenodd" d="M16.435 20.8247C16.604 20.9417 16.802 20.9997 17 20.9997C17.16 20.9997 17.32 20.9617 17.466 20.8847C17.794 20.7117 18 20.3707 18 19.9997V3.99965C18 3.62865 17.794 3.28765 17.466 3.11565C17.137 2.94165 16.74 2.96465 16.435 3.17465L10.023 7.57165H5C4.448 7.57165 4 8.01865 4 8.57165V15.4287C4 15.9817 4.448 16.4287 5 16.4287H10.023L16.435 20.8247ZM10.333 14.4287H6V9.57165H10.333C10.535 9.57165 10.732 9.50965 10.899 9.39665L16 5.89865V18.1017L10.899 14.6037C10.732 14.4907 10.535 14.4287 10.333 14.4287Z" fill="#344054"/>
</svg>
