<svg width="24" height="24" viewBox="0 0 24 24" fill="none" xmlns="http://www.w3.org/2000/svg">
<path d="M6.85039 21.4751C5.36679 21.4751 4.10839 20.9543 3.07519 19.9127C2.04199 18.8707 1.52539 17.6247 1.52539 16.1747C1.52539 14.9083 1.91699 13.7833 2.70019 12.7997C3.48339 11.8165 4.52499 11.1999 5.82499 10.9499V13.0001C5.12499 13.2165 4.56259 13.6165 4.13779 14.2001C3.71259 14.7833 3.49999 15.4415 3.49999 16.1747C3.49999 17.0747 3.82499 17.8539 4.47499 18.5123C5.12499 19.1707 5.90839 19.4999 6.82519 19.4999C7.75839 19.4999 8.54999 19.1749 9.19999 18.5249C9.84999 17.8749 10.175 17.0915 10.175 16.1747V15.1751H16.0502C16.217 15.0251 16.392 14.9043 16.5752 14.8127C16.7584 14.7207 16.9584 14.6747 17.1752 14.6747C17.592 14.6747 17.9462 14.8165 18.2378 15.1001C18.5294 15.3833 18.6752 15.7333 18.6752 16.1501C18.6752 16.5665 18.5294 16.9247 18.2378 17.2247C17.9462 17.5247 17.592 17.6747 17.1752 17.6747C16.9584 17.6747 16.7584 17.6289 16.5752 17.5373C16.392 17.4457 16.217 17.3249 16.0502 17.1749H12.0752C11.792 18.4081 11.1712 19.4331 10.2128 20.2499C9.25439 21.0667 8.13359 21.4751 6.85039 21.4751ZM17.1752 21.4751C16.292 21.4751 15.4462 21.2667 14.6378 20.8499C13.8294 20.4331 13.1836 19.8165 12.7004 19.0001H15.425C15.675 19.1665 15.9542 19.2915 16.2626 19.3751C16.571 19.4583 16.8752 19.4999 17.1752 19.4999C18.1084 19.4999 18.8958 19.1749 19.5374 18.5249C20.1794 17.8749 20.5004 17.0915 20.5004 16.1747C20.5004 15.2415 20.1794 14.4499 19.5374 13.7999C18.8958 13.1499 18.1084 12.8249 17.1752 12.8249C16.792 12.8249 16.4462 12.8833 16.1378 13.0001C15.8294 13.1165 15.5502 13.2581 15.3002 13.4249L12.2252 8.29975C11.8584 8.21655 11.5626 8.04155 11.3378 7.77475C11.1126 7.50835 11 7.19175 11 6.82495C11 6.42495 11.1458 6.07495 11.4374 5.77495C11.7294 5.47495 12.0836 5.32495 12.5 5.32495C12.9336 5.32495 13.292 5.47075 13.5752 5.76235C13.8584 6.05395 14 6.40815 14 6.82495C14 6.90815 13.9958 6.97475 13.9874 7.02475C13.9794 7.07475 13.9586 7.14975 13.925 7.24975L16.1 10.9499C16.25 10.9167 16.4376 10.8917 16.6628 10.8749C16.8876 10.8581 17.0584 10.8497 17.1752 10.8497C18.642 10.8497 19.892 11.3623 20.9252 12.3875C21.9584 13.4123 22.475 14.6747 22.475 16.1747C22.475 17.6247 21.9584 18.8707 20.9252 19.9127C19.892 20.9543 18.642 21.4751 17.1752 21.4751ZM6.85039 17.6747C6.43359 17.6747 6.07519 17.5289 5.77519 17.2373C5.47519 16.9457 5.32519 16.5915 5.32519 16.1747C5.32519 15.8083 5.43779 15.4917 5.66299 15.2249C5.88779 14.9581 6.17519 14.7831 6.52519 14.6999L8.89999 10.7249C8.34999 10.2417 7.92919 9.64595 7.63759 8.93755C7.34599 8.22915 7.20019 7.52495 7.20019 6.82495C7.20019 5.35815 7.72099 4.10815 8.76259 3.07495C9.80419 2.04175 11.05 1.52515 12.5 1.52515C13.95 1.52515 15.1876 2.02515 16.2128 3.02515C17.2376 4.02515 17.7668 5.24175 17.8004 6.67495H15.8252C15.792 5.77495 15.4546 5.02075 14.813 4.41235C14.171 3.80395 13.4 3.49975 12.5 3.49975C11.5836 3.49975 10.8004 3.82075 10.1504 4.46275C9.50039 5.10435 9.17539 5.89175 9.17539 6.82495C9.17539 7.59175 9.40459 8.26255 9.86299 8.83735C10.321 9.41255 10.9 9.80835 11.6 10.0247L8.25019 15.7247C8.28339 15.8083 8.30419 15.8875 8.31259 15.9623C8.32099 16.0375 8.32519 16.1083 8.32519 16.1747C8.32519 16.5915 8.18359 16.9457 7.90039 17.2373C7.61679 17.5289 7.26679 17.6747 6.85039 17.6747Z" fill="#344054"/>
</svg>
