<svg width="24" height="24" viewBox="0 0 24 24" fill="none" xmlns="http://www.w3.org/2000/svg">
<path d="M19 3C20.654 3 22 4.346 22 6V14C22 15.654 20.654 17 19 17H13V19H17C17.55 19 18 19.45 18 20C18 20.55 17.55 21 17 21H7C6.45 21 6 20.55 6 20C6 19.45 6.45 19 7 19H11V17H5C3.346 17 2 15.654 2 14V6C2 4.346 3.346 3 5 3H19ZM5 5C4.448 5 4 5.449 4 6V14C4 14.551 4.448 15 5 15H19C19.552 15 20 14.551 20 14V6C20 5.449 19.552 5 19 5H5ZM10.3467 6.11621C10.8831 5.89631 11.5068 5.99286 11.9336 6.3623L15.0547 9.05762C15.338 9.30151 15.4999 9.6459 15.5 10C15.4999 10.3548 15.3379 10.6977 15.0547 10.9424L11.9326 13.6387C11.6592 13.8755 11.303 14 10.9404 14C10.7409 13.9999 10.5377 13.9621 10.3467 13.8838C9.82397 13.6709 9.5 13.2154 9.5 12.6963V7.30371C9.50016 6.78469 9.824 6.32898 10.3467 6.11621ZM11.5 12L13.5 9.99902L11.5 8V12Z" fill="#344054"/>
</svg>
