<svg width="24" height="24" viewBox="0 0 24 24" fill="none" xmlns="http://www.w3.org/2000/svg">
<path fill-rule="evenodd" clip-rule="evenodd" d="M16.578 5H18C19.654 5 21 6.346 21 8V19C21 20.654 19.654 22 18 22H6C4.346 22 3 20.654 3 19V8C3 6.346 4.346 5 6 5H7.42C8.191 3.209 9.977 2 12 2C14.017 2 15.799 3.201 16.578 5ZM11 6V4.172C10.08 4.496 9.354 5.256 9.102 6.238L9.098 6.253C9.0965 6.259 9.0955 6.26475 9.0945 6.2705C9.0935 6.27625 9.0925 6.282 9.091 6.288C9.031 6.505 9 6.738 9 7C9 8.654 10.346 10 12 10C13.654 10 15 8.654 15 7C15 6.732 14.97 6.492 14.907 6.271C14.651 5.267 13.923 4.498 13 4.172V6C13 6.553 12.552 7 12 7C11.448 7 11 6.553 11 6Z" fill="#344054"/>
<mask id="mask0_49_3244" style="mask-type:luminance" maskUnits="userSpaceOnUse" x="3" y="2" width="18" height="20">
<path fill-rule="evenodd" clip-rule="evenodd" d="M16.578 5H18C19.654 5 21 6.346 21 8V19C21 20.654 19.654 22 18 22H6C4.346 22 3 20.654 3 19V8C3 6.346 4.346 5 6 5H7.42C8.191 3.209 9.977 2 12 2C14.017 2 15.799 3.201 16.578 5ZM11 6V4.172C10.08 4.496 9.354 5.256 9.102 6.238L9.098 6.253C9.0965 6.259 9.0955 6.26475 9.0945 6.2705C9.0935 6.27625 9.0925 6.282 9.091 6.288C9.031 6.505 9 6.738 9 7C9 8.654 10.346 10 12 10C13.654 10 15 8.654 15 7C15 6.732 14.97 6.492 14.907 6.271C14.651 5.267 13.923 4.498 13 4.172V6C13 6.553 12.552 7 12 7C11.448 7 11 6.553 11 6Z" fill="white"/>
</mask>
<g mask="url(#mask0_49_3244)">
</g>
</svg>
