<svg width="24" height="24" viewBox="0 0 24 24" fill="none" xmlns="http://www.w3.org/2000/svg">
<path fill-rule="evenodd" clip-rule="evenodd" d="M11.9994 4.00024C15.6474 4.00024 19.1004 5.39524 21.7244 7.92924C22.1214 8.31224 22.1324 8.94624 21.7494 9.34324C21.5534 9.54624 21.2914 9.64824 21.0304 9.64824C20.7804 9.64824 20.5294 9.55524 20.3354 9.36724C18.0854 7.19624 15.1254 6.00024 11.9994 6.00024C8.87338 6.00024 5.91338 7.19624 3.66338 9.36724C3.26838 9.75224 2.63438 9.74124 2.24938 9.34324C1.86738 8.94624 1.87738 8.31224 2.27538 7.92924C4.89938 5.39524 8.35238 4.00024 11.9994 4.00024ZM11.9998 9.00004C9.57178 9.00004 7.21178 10.001 5.52478 11.748C5.14278 12.146 5.15278 12.779 5.55078 13.162C5.94678 13.546 6.58178 13.535 6.96478 13.138C8.27578 11.779 10.1108 11 11.9998 11C13.8888 11 15.7238 11.779 17.0348 13.138C17.2308 13.341 17.4928 13.443 17.7548 13.443C18.0048 13.443 18.2558 13.35 18.4488 13.162C18.8468 12.779 18.8568 12.146 18.4748 11.748C16.7878 10.001 14.4278 9.00004 11.9998 9.00004ZM8.52678 15.403C9.46378 14.499 10.6968 14 11.9998 14C13.3028 14 14.5358 14.499 15.4728 15.403C15.8698 15.787 15.8808 16.42 15.4978 16.817C15.3018 17.021 15.0398 17.123 14.7778 17.123C14.5278 17.123 14.2768 17.029 14.0838 16.842C12.9588 15.756 11.0408 15.756 9.91578 16.842C9.52078 17.226 8.88678 17.215 8.50178 16.817C8.11878 16.42 8.12978 15.787 8.52678 15.403ZM10.9998 19C10.9998 18.448 11.4468 18 11.9998 18C12.5528 18 12.9998 18.448 12.9998 19C12.9998 19.552 12.5528 20 11.9998 20C11.4468 20 10.9998 19.552 10.9998 19Z" fill="#344054"/>
</svg>
