<svg width="24" height="24" viewBox="0 0 24 24" fill="none" xmlns="http://www.w3.org/2000/svg">
<path fill-rule="evenodd" clip-rule="evenodd" d="M12.4367 11.0225L10.5447 9.13049L8.08267 6.66749L6.53167 5.11749L4.70767 3.29349C4.31667 2.90249 3.68367 2.90249 3.29267 3.29349C2.90267 3.68349 2.90267 4.31649 3.29267 4.70749L4.66867 6.08349L6.12967 7.54349L8.36367 9.77749L9.90967 11.3235L12.6487 14.0625L15.4417 16.8555L19.2927 20.7075C19.4887 20.9025 19.7447 21.0005 19.9997 21.0005C20.2557 21.0005 20.5117 20.9025 20.7077 20.7075C21.0977 20.3165 21.0977 19.6835 20.7077 19.2935L12.4367 11.0225ZM12.0002 18C11.4472 18 11.0002 18.448 11.0002 19C11.0002 19.552 11.4472 20 12.0002 20C12.5532 20 13.0002 19.552 13.0002 19C13.0002 18.448 12.5532 18 12.0002 18ZM11.9998 4.00019C15.6478 4.00019 19.1008 5.39519 21.7248 7.92919C22.1218 8.31219 22.1328 8.94619 21.7498 9.34319C21.5538 9.54619 21.2918 9.64819 21.0308 9.64819C20.7808 9.64819 20.5298 9.55519 20.3358 9.36719C18.0858 7.19619 15.1258 6.00019 11.9998 6.00019C11.0368 6.00019 10.0918 6.12719 9.17577 6.34719L7.56077 4.73219C8.97677 4.26019 10.4688 4.00019 11.9998 4.00019ZM3.82437 6.65279C3.28537 7.04279 2.76237 7.45979 2.27537 7.92879C1.87837 8.31279 1.86737 8.94579 2.25037 9.34279C2.63437 9.74079 3.26937 9.75179 3.66437 9.36779C4.16037 8.88879 4.69637 8.46579 5.25637 8.08379L3.82437 6.65279ZM17.7554 13.4427C17.4934 13.4427 17.2314 13.3407 17.0354 13.1377C16.2434 12.3167 15.2584 11.7117 14.1864 11.3587L11.8374 9.00869C11.8624 9.00823 11.8875 9.00626 11.9127 9.00428C11.9417 9.00199 11.9709 8.99969 12.0004 8.99969C14.4284 8.99969 16.7884 10.0017 18.4744 11.7477C18.8574 12.1457 18.8474 12.7787 18.4494 13.1617C18.2564 13.3497 18.0054 13.4427 17.7554 13.4427ZM7.43177 10.2603C6.73777 10.6683 6.09077 11.1623 5.52577 11.7483C5.14277 12.1453 5.15377 12.7793 5.55077 13.1623C5.94677 13.5463 6.58077 13.5353 6.96477 13.1373C7.52677 12.5553 8.18877 12.0883 8.90577 11.7343L7.43177 10.2603ZM8.50247 16.8173C8.11947 16.4203 8.13047 15.7873 8.52747 15.4033C9.27947 14.6763 10.2265 14.2273 11.2445 14.0723L13.7615 16.5903C12.6195 15.7753 10.9415 15.8523 9.91647 16.8413C9.52047 17.2263 8.88647 17.2153 8.50247 16.8173Z" fill="#344054"/>
</svg>
